<?xml version="1.0" encoding="UTF-8"?><svg id="svg1" xmlns="http://www.w3.org/2000/svg" viewBox="0 0 1122.56 1587.2"><g id="g1"><path d="M801.05,846.29l14.27,23.1c1.33,2.16.97,7.14-.42,8.87-7.69,9.5-39.68-3.32-56.34-12.31,9.51,35.22,15.59,68.98,20.01,104.12l3.88,30.88c1.3,10.32-1.52,28.24-8.04,30.41-1.86.62-6.67-.27-7.99-1.74l-23.19-25.7-38.62-47.05c-34.98-42.61-69.98-102.04-77.47-156.44.35-1.24,4.11-3.14,5.18-3.07l8.01,34.61c7.45,22.9,17.38,44.03,29.79,64.79s26.25,41.04,42.12,60.2l46.9,56.63c4.21,5.09,7.91,9.27,14.06,12.68,3.35-9.15,4.7-17.64,3.46-26.65l-7.53-54.83-9.95-52.77c-7.78,1.62-13.36-1.1-17.23-7.28-2.27-3.63-2.94-8-.93-12.19,1.59-3.31,4.52-6.5,10.5-5.01l-5.91,7.54c-1.31,6.88,5.02,12.95,12.19,11.8l-5.13-19.96,6.68-.57c-3.9-2.4-7.35-4.89-7.56-10.18l32.61,15.32c-.47-2.56-1.81-6.2-3.84-7.17-2.72-1.3-6.62-1.64-10.23-2.22,2.18-1.05,7-2.51,9.47-2.32,2.6.21,7.15,4.03,7.53,6.64.16,1.08-.78,4.09-1.41,5.91,7.79,2.33,15.23,3.87,25.02,3.42-5.75-19.61-36.08-54.36-51.38-68.63l-29.63-27.63c-.94-.87-2.4-4.83-1.25-5.14s3.25-.36,5.02-.29c8.7,10.43,19.91,14.8,33.13,17.17,5.54.99,10.25.18,14.62-3.3,4.79-3.82,6.64-9.19,4.46-14.7l7.87-13.08c4.19-6.97,11.06-6.06,13.98-10.9,1.22-2.02-.82-13.12-3.74-18.48-8.4-15.43-17.89-29.25-28.47-43.29l-14.83-19.68c-.68-.9-1.32-4.56-.4-5.17s4.17-1.14,5.37-.63l19.29,8.19c7.76,3.3,14.26,4.92,23.43,6.18l.22-6.65c-5.43-4.95-8.77-12.06-12.67-17.84l-18.29-12.62c-1.3-.9-2.83-4.69-2.14-6.06s3.58-2.95,5.13-3.25l19.73-3.71c-5.12-15.67-21.14-21.87-18.51-29.31,8.34,4.78,16.13,11.15,19.75,19.44l3.52,8.07,48.72-2.78,77.16-2.73c19.76-.7,29.29-1.54,42.7-19.77l-49.11-14.8-140.34-41.16-37.38-8.6c-.75-.87-1.72-2.82-1.56-3.71s1.82-2.78,2.72-3.13l9.94-3.81c20.9-8.02,59.96-14.02,63.25-31.36-13.7-7.61-28.67,1.51-31.81-2.58-.69-.9-.52-3.95.32-4.92l12.45-14.44c9.5-11.02,22.54-33.11,17.06-38.68s-21.56.36-32.09,8.37c-8.34,6.34-14.68,14.95-24.65,19.63,11.67-20.04,39.12-42.62,59-33.54,14.49,6.62-7.89,43.69-23.3,57.21l21.04,1.45c2.33.16,6.02,3.56,6.95,5.57,3.64,7.79-8.29,19.28-20.48,23.38l-48.43,16.28,44.59,11.9,117.46,34.6,53.15,16.01c2.08.82,7.28,3.9,7.12,6.13-.72,5.66-6.07,10.02-9.99,13.53-6.79,6.08-14.07,10.99-23.76,11.36l-108.8,4.12-18.61.03c-6.76.01-10.28-.31-16.17,2.92-5.37,2.95-12.14,3.52-19.24,4.7l8.78,6.23c2.98,2.11,5.91,4.42,8.31,7l8.69,9.36c3.35,3.61,7.96,8.16,7.27,13.4l-1.28,9.75c-8.58,1-18.94-.74-27.58-4.11l-17.2-6.7c13.6,19.11,27.98,35.5,37.95,56.08,3.45,7.13,7.22,12.63,12.27,18.57l39.92,47.05,22.72,22.21,18.37,18.63,13.21,13.78,33.49,34.29,26,25.24c3.32,3.22,4.74,6.65,6.65,11.61,4.46,11.6,8.53,24.56,3.82,37.17l-14.35,38.38c-5.58,14.91-16.87,26.3-18.9,33.02-1.31,4.33-2.7,8.35-4.69,12.01l-8.22,15.06-23.86,42.83-16.88,27.9-47.86,81.2-33.85,67.21c-4.06,8.06-8.72,32.26-6.96,40.45l8.21,38.16c2.34,10.89,8.71,19.71,13.87,29.45l9.86,24.78c7.06,12.6,18.52,20.69,29.91,28.81,4.6,9.09,12.12,16.42,22.8,17.06,2.48-.26,7.16.32,8.47,1.97,4.93,6.19-5.33,18.66-15.68,24.18-6.63,3.53-14.22,1.39-21.08,1.19l-26.8-.78c-17.24-.5-24.3,4.29-26.01-2.98l-8.23-35.13-5.14-22.16-6.13-29.35c-3.66-17.54-7.08-34.72-16.91-49.89-7.21-4.78-12.94-10.92-17.69-18.24-1.28-7.71,1.99-13.33,9.26-16.87,2.79-1.36,5.19-6.58,6.13-10.1,4.22-15.85,8.52-31.02,15.63-45.72l22.61-46.74,46.49-100.51,39.21-83.78,26.08-49.42c3.49-6.62,5.06-14.81,5.74-22.32-9.57-16.37-21.14-29.65-34.93-42.24l-39.54-36.11-69.35-68.66c-.77-.76-1.97-3.46-2.84-3.06l-4.22,1.91c-6.53,2.96-14.59.05-22.51-1.46l10.1,10.6,34.88,40.48ZM835.79,1408.74l-10.52-25.87c-8.9-14.35-14.82-28.57-17.49-45.43-1.65-10.42-5.89-20.99-5.11-31.88,1.76-24.63,9.81-40.57,20.25-61.68,20.27-40.98,43.89-78.95,66.8-118.36l19.32-33.22,18.41-34.23,9.27-16.61c2.83-5.07,5.52-10.05,7.13-15.69,2.99-10.46,14.45-21.16,20.8-37.7l13.48-35.14c4.8-12.53-.53-26.01-8.09-36.21l-22.37-22.49-26.05-26.38-24.33-25.55-11.96-12.46-14.62-13.52-19.21-17.88-21-22.44-11.36-13.11-6.18-9.57-12.77,7.72c-2.41,3.26-6.25,10.31-7.28,14.21-.46,6.71-1.16,11.12-5.64,15.36l63.05,62.69,49.28,45.47c14.15,13.06,26.53,26.66,35.5,44.17.96,8.36-1.59,18.58-5.56,26.15l-23.88,45.55c-18.63,35.53-33.51,71.84-50.37,108.18l-20.31,43.78-31.46,65.86c-9.91,20.74-19.54,40.14-23.9,62.89-2.6,13.56-17.16,15.76-15.48,21.22.43,1.39,1.22,4.05,2.77,5.51l12.48,11.78c8.86,10.4,13.73,24.81,16.56,38.31l12.66,60.46,9.47,40.52,21.61-.88,28.99,1.13c12.89.5,19.43,1.18,28.76-16.17-15.43,1.31-23.77-7.57-31.64-17.92l-21.08-18.34-8.91-12.25Z"/><path d="M877.01,1482.16c-2.32,0-4.61-.22-6.78-.43-1.78-.17-3.47-.34-5.1-.38l-26.8-.78c-5.94-.17-10.62.3-14.38.67-6.92.7-12.39,1.25-13.99-5.59l-8.23-35.13-5.14-22.16-6.42-30.74c-3.54-16.96-6.88-33-16-47.28-7.02-4.75-12.91-10.86-17.96-18.67l-.28-.44-.08-.51c-1.44-8.68,2.23-15.44,10.63-19.53,1.59-.77,3.79-4.66,4.81-8.49,4.21-15.83,8.59-31.27,15.79-46.17l22.61-46.74,46.47-100.47,39.27-83.9,26.08-49.42c2.74-5.19,4.55-12.11,5.39-20.58-8.65-14.63-19.49-27.67-34.05-40.97l-39.61-36.18-69.35-68.66c-.45-.44-.82-1.01-1.21-1.62-.06-.09-.13-.2-.21-.32l-2.84,1.29c-5.02,2.27-10.59,1.58-16.13.42l4.58,4.81,35.01,40.63.1.17,14.27,23.1c1.84,2.97,1.52,9.12-.61,11.75-9.14,11.3-41.81-3-54.44-9.14,8.12,31.04,14.06,62.69,18.64,99.06l3.88,30.88c1.26,10-.97,30.18-9.73,33.1-2.71.9-8.58-.15-10.64-2.43l-23.27-25.79-38.62-47.05c-42.36-51.6-71.52-110.55-78.02-157.68l-.07-.52.15-.51c.76-2.64,5.76-5.04,7.76-4.88l1.85.13,8.4,36.31c7.12,21.87,16.78,42.86,29.52,64.18,13.65,22.82,26.96,41.85,41.9,59.89l46.9,56.63c3.53,4.27,6.51,7.66,10.78,10.52,2.59-8.08,3.33-15.31,2.34-22.55l-7.52-54.76-9.49-50.33c-7.37.78-13.19-2.18-17.34-8.8-2.9-4.64-3.29-9.96-1.06-14.6,2.27-4.73,6.03-7.07,10.75-6.77v-.03s3.16-.27,3.16-.27c-1.82-1.94-3.25-4.53-3.39-8.14l-.17-4.11,18.27,8.58,1.84-.89c2.05-.99,7.48-2.82,10.75-2.56,3.57.28,9.24,4.87,9.81,8.77.07.45.2,1.4-.72,4.58,5.86,1.62,11.52,2.68,18.38,2.68-7.75-19.85-35.99-51.68-49.61-64.38l-29.63-27.63c-1.29-1.2-2.89-4.95-2.35-7.12.28-1.13,1.09-1.98,2.16-2.26,1.79-.48,4.63-.42,5.77-.37l1.1.05.71.85c7.31,8.76,16.78,13.64,31.65,16.31,5.14.92,9.04.06,12.62-2.79,4.11-3.27,5.42-7.48,3.7-11.83l-.45-1.15,8.5-14.14c2.67-4.45,6.32-6.17,9.25-7.55,2.07-.98,3.72-1.76,4.67-3.24.49-1.94-1.11-11.29-3.73-16.1-7.4-13.6-16.12-26.86-28.27-42.98l-14.83-19.68c-.99-1.31-1.6-4.36-1.27-6.29.24-1.39.94-2.11,1.49-2.48,1.47-.97,5.6-1.75,7.72-.84l19.29,8.19c6.56,2.79,12.21,4.38,20.04,5.6l.09-2.73c-3.69-3.64-6.39-8.07-9-12.37-1.01-1.66-1.96-3.23-2.95-4.73l-17.89-12.35c-2.08-1.43-4.32-6.54-2.95-9.24,1.22-2.41,5.08-4.23,6.9-4.58l16.78-3.16c-2.64-5.97-7.02-10.47-10.62-14.18-4.65-4.78-8.66-8.91-6.83-14.07l1-2.82,2.6,1.49c10.44,5.98,17.44,12.92,20.8,20.61l2.82,6.47,46.98-2.68,77.21-2.74c18.56-.66,27.18-1.55,38.61-15.92l-45.65-13.76-140.25-41.14-38.1-8.76-.53-.62c-.86-.99-2.5-3.7-2.13-5.8.33-1.87,2.7-4.41,4.29-5.02l9.94-3.81c5.36-2.05,11.77-3.94,18.57-5.95,17.28-5.09,38.56-11.37,42.61-21.77-6.84-3.03-13.89-1.9-19.64-.97-5.02.81-8.99,1.45-11.18-1.39-1.42-1.84-1.19-6.22.41-8.08l12.45-14.44c11.1-12.87,20.41-32,17.17-35.29-3.77-3.84-18.04.43-28.8,8.6-2.91,2.21-5.53,4.68-8.32,7.29-4.94,4.65-10.06,9.45-16.79,12.61l-7.26,3.41,4.03-6.93c12.14-20.85,40.51-44.46,62.2-34.55,3.32,1.52,5.39,4.41,5.97,8.36,1.88,12.84-12.22,36.12-24.53,49.01l15.43,1.06c3.46.24,7.81,4.35,9.05,7.01,1.27,2.71,1.19,5.89-.22,9.18-3,6.99-12.13,14.4-21.72,17.63l-40.56,13.63,36.57,9.76,117.52,34.62,53.35,16.08c.09.04,9.05,3.77,8.7,8.64v.13c-.8,6.18-5.87,10.69-9.95,14.31l-.86.77c-6.36,5.7-14.35,11.58-25.33,11.99l-108.8,4.12-18.7.03h-1.72c-5.64-.02-8.45-.03-13.25,2.61-4.17,2.29-8.93,3.23-13.98,4.03l3.76,2.67c3.77,2.67,6.53,5.01,8.7,7.34l9.29,10c3.42,3.66,8.11,8.68,7.31,14.78l-1.54,11.69-1.94.23c-8.6,1-19.36-.59-28.77-4.26l-9.27-3.61c2.06,2.79,4.13,5.53,6.15,8.23,10.11,13.45,19.66,26.15,27.02,41.34,3.16,6.53,6.73,11.93,11.92,18.05l39.84,46.96,22.63,22.13,18.4,18.66,13.23,13.8,33.47,34.27,25.96,25.19c3.61,3.5,5.21,7.23,7.24,12.5,4.51,11.73,8.9,25.38,3.83,38.95l-14.35,38.38c-3.31,8.84-8.51,16.42-12.69,22.5-2.9,4.22-5.41,7.87-6.16,10.36-1.24,4.1-2.69,8.45-4.89,12.48l-8.22,15.06-23.87,42.85-16.93,27.98-47.8,81.11-33.81,67.13c-3.83,7.61-8.36,31.29-6.75,38.8l8.21,38.16c1.68,7.79,5.52,14.48,9.58,21.56,1.35,2.35,2.74,4.78,4.05,7.25l.11.25,9.8,24.62c6.73,11.92,17.45,19.56,28.81,27.65l.79.57.28.55c3.42,6.76,9.76,14.94,20.54,15.69,2.63-.22,8.29.2,10.46,2.92,1.65,2.07,2.19,4.74,1.57,7.73-1.61,7.75-10.49,16.2-18.03,20.22-3.38,1.8-6.96,2.3-10.45,2.3ZM835.77,1475.52c.87,0,1.77.01,2.71.04l26.8.78c1.8.05,3.65.23,5.44.41,5.19.51,10.09.98,14.39-1.31,7.44-3.96,14.39-11.5,15.49-16.82.17-.81.19-1.51.08-2.13l-1.04,1.94c-9.85,18.32-17.5,18.02-30.18,17.51l-29.77-1.16-23.57.96-9.94-42.53-12.67-60.51c-3.38-16.12-8.74-28.61-15.93-37.1l-12.38-11.69c-2-1.89-2.93-4.9-3.42-6.52-1.26-4.11,2.18-6.72,5.51-9.24,3.83-2.9,8.59-6.51,9.88-13.26,4.21-21.95,13.16-40.65,22.64-60.45l32.92-68.91,20.3-43.76c5.46-11.78,10.8-23.74,15.97-35.31,10.73-24.05,21.83-48.91,34.45-72.99l23.88-45.55c3.97-7.57,6.04-17.04,5.34-24.26-9.58-18.52-22.94-32.16-34.76-43.07l-49.28-45.47-64.94-64.58,1.87-1.77c3.62-3.43,4.4-6.85,4.87-13.71l.08-.47c1.18-4.48,5.27-11.79,7.68-15.06l.29-.4,15.27-9.23,7.4,11.46,11.25,12.98,20.88,22.31,19.15,17.82,14.72,13.62,11.96,12.46,24.34,25.55,26.02,26.35,22.6,22.76c5.71,7.71,14.41,22.97,8.42,38.59l-13.48,35.14c-3.4,8.87-8.18,16.04-12.4,22.36-3.76,5.63-7,10.49-8.33,15.13-1.65,5.77-4.31,10.76-7.35,16.22l-9.27,16.61-18.39,34.19-19.36,33.3c-5.32,9.15-10.76,18.36-16.02,27.26-17.29,29.28-35.18,59.56-50.71,90.95l-.48.97c-10.35,20.91-17.82,36.02-19.52,59.78-.49,6.86,1.19,13.85,2.81,20.61.84,3.5,1.71,7.12,2.28,10.7,2.47,15.64,7.76,29.37,17.14,44.5l.19.38,10.41,25.59,8.57,11.77,21.06,18.32.16.21c7.32,9.62,15.08,18.17,29.44,16.94l1.94-.16c-1.3-.45-3.66-.79-5.39-.61l-.21.02h-.21c-10.17-.63-18.89-6.97-24.6-17.89-11.28-8.04-22.91-16.38-30.14-29.28l-.14-.3-9.81-24.65c-1.25-2.36-2.6-4.71-3.91-6.98-4.08-7.1-8.29-14.44-10.13-23l-8.21-38.16c-1.85-8.61,2.85-33.52,7.17-42.1l33.92-67.35,47.86-81.2,16.9-27.93,23.81-42.75,8.21-15.04c1.98-3.63,3.33-7.69,4.5-11.53.98-3.24,3.56-6.99,6.82-11.75,4.03-5.86,9.04-13.16,12.13-21.42l14.35-38.38c4.46-11.93.37-24.53-3.81-35.4-1.84-4.78-3.12-7.86-6.06-10.71l-26-25.24-33.54-34.33-13.23-13.79-18.34-18.6-22.84-22.35-39.92-47.05c-5.48-6.46-9.25-12.17-12.61-19.1-7.15-14.76-16.56-27.27-26.52-40.52-3.69-4.9-7.5-9.97-11.22-15.21l-4.85-6.81,24.99,9.73c7.14,2.78,15.11,4.29,22.02,4.22l-2.11-.29c-9.79-1.34-16.32-3.07-24.07-6.36l-19.29-8.19c-.39-.09-1.53.04-2.34.22.05.65.23,1.48.4,1.84l14.78,19.61c12.3,16.33,21.15,29.78,28.67,43.6,2.84,5.23,5.74,17.56,3.68,20.97-1.72,2.84-4.34,4.08-6.88,5.28-2.68,1.26-5.21,2.46-7.1,5.61l-7.26,12.08c1.84,6-.22,12.04-5.65,16.38-4.74,3.78-10.02,4.99-16.62,3.81-10.46-1.88-23.68-5.53-33.86-17.16-.5,0-.98,0-1.41.02.19.49.41.96.59,1.17l29.57,27.57c2.35,2.19,5.08,4.89,8.04,7.96l-4.97-5.77-15.43-16.2,7.65,1.46c1.61.31,3.22.67,4.78,1.02,6.04,1.36,11.75,2.64,16.23.62l4.22-1.91c2.54-1.15,4.26,1.5,5.09,2.77.18.28.45.69.56.82l69.29,68.61,39.5,36.08c15.17,13.86,26.42,27.47,35.4,42.83l.4.69-.07.8c-.86,9.5-2.88,17.32-6.02,23.26l-26.06,49.37-39.18,83.73-46.48,100.5-22.63,46.78c-7.02,14.51-11.32,29.7-15.46,45.28-.92,3.45-3.52,9.79-7.45,11.7-6.22,3.03-8.83,7.52-7.97,13.71,4.72,7.17,10.18,12.76,16.68,17.07l.43.29.28.44c9.84,15.17,13.47,32.58,16.98,49.41l6.41,30.69,5.13,22.1,8.23,35.13c.51,2.15.84,2.54,8.62,1.75,3.32-.33,7.33-.74,12.32-.74ZM839.68,1469.78l29.97,1.17c11.08.44,16.25.65,23.42-11.1-13.92-.56-22.03-9.5-29.12-18.8l-21.1-18.36-9.26-12.72-.11-.28-10.44-25.68c-9.55-15.45-15.18-30.13-17.72-46.17-.53-3.39-1.34-6.75-2.2-10.31-1.71-7.13-3.48-14.5-2.94-22.13,1.77-24.74,9.82-41.02,20.02-61.64l.48-.97c15.61-31.56,33.54-61.92,50.88-91.28,5.25-8.9,10.69-18.1,16-27.23l19.32-33.22,18.37-34.16,9.29-16.64c2.89-5.19,5.41-9.91,6.91-15.16,1.54-5.39,4.99-10.55,8.97-16.53,4.07-6.11,8.69-13.03,11.89-21.38l13.48-35.14c5.1-13.3-2.55-26.75-7.66-33.68l-22.24-22.37-26.05-26.39-24.36-25.58-11.9-12.4-14.56-13.46-19.34-18.01-21-22.44-11.64-13.46-4.87-7.53-10.26,6.2c-2.29,3.24-5.58,9.43-6.53,12.76-.41,5.86-1.05,10.54-4.64,14.88l61.33,60.98,49.21,45.4c12.23,11.29,26.08,25.44,36.03,44.87l.21.4.05.45c.96,8.33-1.27,18.91-5.83,27.6l-23.88,45.55c-12.55,23.93-23.61,48.72-34.32,72.7-5.17,11.59-10.52,23.57-16,35.37l-20.31,43.79-32.94,68.93c-9.33,19.5-18.15,37.92-22.24,59.23-1.66,8.64-7.5,13.07-11.77,16.3-1.68,1.27-3.99,3.02-3.78,3.71.36,1.17,1.06,3.44,2.1,4.42l12.67,11.98c7.79,9.14,13.54,22.41,17.1,39.42l12.66,60.46,8.98,38.45,19.64-.8ZM745.1,1002.29l23.15,25.65c.64.58,3.38,1.19,4.79,1.12l-1.09-.6c-6.48-3.59-10.37-7.95-14.77-13.27l-46.9-56.63c-15.1-18.24-28.55-37.47-42.34-60.51-12.96-21.67-22.78-43.03-30.02-65.3l-.06-.21-7.37-31.86c-.28.16-.54.33-.76.48,6.67,46.08,35.3,103.6,76.78,154.12l38.59,47.01ZM761.14,889.08l10.44,55.39,7.53,54.83c1.23,8.94.09,17.78-3.59,27.84l-.17.46c3.38-4.28,5.79-16.88,4.6-26.34l-3.88-30.88c-4.69-37.27-10.83-69.54-19.27-101.29l-.99.08,5.07,19.76-2.71.44c-4.31.69-8.69-.75-11.71-3.86-2.87-2.96-4.09-6.92-3.33-10.88l.11-.6,3-3.83c-1.21.61-2.17,1.74-3,3.45-2.01,4.19-.37,7.93.79,9.79,3.47,5.55,8.11,7.51,14.6,6.16l2.49-.52ZM747.96,876.12c-.24,2.15.51,4.27,2.09,5.9,1.22,1.26,2.8,2.08,4.5,2.38l-3.23-12.57-3.37,4.29ZM787.7,875.73c9.95,3.13,18.55,4.39,23.01,2.54-9.35.39-16.65-1.03-23.06-2.82l.05.28ZM760.7,864.26c8.61,4.57,17.98,8.59,26.43,11.29l-1.37-.64c-.19-.06-.38-.11-.57-.17l-2.49-.74.15-.45-26.38-12.4c1.02,1.03,2.4,1.99,4.17,3.08l.06.04ZM793.61,841.48c9.15,11.96,16.97,24.24,19.71,33.57l.11.36c.32-1.52.32-3.82-.24-4.72l-14.16-22.93-5.42-6.29ZM629.33,801.52h0s0,0,0,0ZM632.37,799.86h0ZM778.03,635.14c.26.83.73,1.8,1.08,2.11l18.63,12.85.26.39c1.15,1.71,2.27,3.54,3.34,5.32,2.62,4.32,5.33,8.79,8.94,12.08l.85.78-.34,10.48c.6-.01,1.2-.04,1.79-.08l1.02-7.77c.49-3.76-3.11-7.61-6.01-10.71l-9.3-10.02c-1.93-2.08-4.45-4.2-7.93-6.67l-12.34-8.76ZM801.28,628.63l-20.18,3.79c-.8.15-2.14.88-2.89,1.47l4.42-.74c1.28-.21,2.54-.4,3.79-.59,5.47-.83,10.64-1.62,14.66-3.83.07-.04.13-.07.2-.11ZM802.31,624.26c.15.4.29.81.43,1.22l.68,2.09c.5-.22.99-.42,1.46-.6l-1.35.08-1.22-2.79ZM977.02,598.88l-1.31,1.78c-13.89,18.88-24.28,20.06-44.63,20.78l-77.16,2.73-22.95,1.31h6.09s108.71-4.13,108.71-4.13c9.37-.35,16.2-5.36,22.19-10.72l.88-.78c3.37-2.99,7.54-6.69,8.25-10.88-.02-.03-.04-.06-.06-.1ZM786.15,602.62c.98,1.18,2.26,2.52,3.77,4.07,3.58,3.68,7.85,8.08,10.83,13.98l-1.43-3.29c-2.31-5.29-6.73-10.24-13.17-14.77ZM748.36,532.39l36.59,8.42,140.34,41.16,49.36,14.88c-.97-.66-2.07-1.28-2.98-1.65l-53.04-15.98-117.45-34.6-52.55-14.03,56.29-18.92c8.23-2.77,16.28-9.15,18.72-14.86.85-1.98.94-3.69.29-5.1l-.25,1.33c-2.75,14.48-26.06,21.35-46.62,27.41-6.7,1.97-13.02,3.84-18.19,5.82l-9.86,3.78c-.31.2-.87.81-1.16,1.24.1.3.29.71.5,1.08ZM747.8,531.05h0ZM748.95,530.09h-.02s.01,0,.02,0ZM808.24,486.94c4.51,0,9.38.8,14.2,3.47l1.02.57c-1.11-1.46-3.43-3.32-4.38-3.38l-26.61-1.83-.76.89c-.17.39-.26,1.37-.19,1.9.87.32,3.99-.18,6.31-.55,3.04-.49,6.6-1.06,10.42-1.06ZM791.56,488.76h0s0,0,0,0ZM812.87,427.39c3.34,0,6.21.84,8.17,2.84,7.85,7.98-9.68,33.62-16.95,42.06l-10.2,11.83,2.67-2.34c11.94-10.48,28.79-36.38,27.01-48.51-.34-2.29-1.32-3.73-3.1-4.54-14.88-6.8-34.4,5.87-47.29,20.75,1.25-1.13,2.49-2.29,3.75-3.48,2.75-2.59,5.6-5.26,8.71-7.63,7.44-5.66,18.82-10.97,27.21-10.97Z"/><path d="M646.41,1164.15c1.87-6.71,7.08-14.51,14.95-11.51,6.13,2.33,5.88,11.4,1.78,16.62l5.12,2.06c11.6-6.91,22.39-15.37,28.35-27.87,6.67-13.99.99-32.38-13.56-38.17-15.87-6.32-32.47-1.32-45.94,7.99-19.02,13.16-30.97,31.93-38.58,53.72-8.27,23.7-8.85,49,1.92,71.88,6.65,14.11,20.17,22.05,35.69,22.11,22.36.08,43.67-5.01,62.49-17.09,9.54-6.12,17.18-14.13,24.26-23.13,20.84-26.45,32.18-57.67,36.92-91.01,1.19-8.38-1.3-15.96-2.74-24.13-2.69-15.26-9.61-28.27-23.08-36.41-15.09-9.11-28.91-19.86-45.44-27.33-29.46-13.33-60.2-21.96-92.01-29.52-42.52-10.11-84.18-16.04-127.59-20.91l-125.1-14.04c-13.69-1.54-26.94-.05-40.51,1.58l-12.69,1.53c-1.03.12-3.49-1.01-3.33-1.88s1.27-2.78,2.19-3.42l26.29-18.14c20.99-14.49,39.78-29.86,61.45-43.67,63.08-40.99,127.11-78.84,193-114.87,1.29-2.8,2.08-3.6,3.63-4.85,3.2-2.58,1.01-9.46,1.42-12.65l1.6-12.45c-5.58,3.87-8.58,3.69-13.04,1.22l-10.67,1.07c-18.07,17.4-36.89,32.91-57.45,47.43l-44.26,31.27-24.27,14.31c-1.78,1.05-6.72.17-8.18-1.07-5.55-4.72,2.26-26.97,7.87-39.24,25.97-56.8,62.92-107.15,109.18-148.99l11.02-8.16,17.06-32.84c-9.17-19.96-12.62-41.17-15.68-64.93-13.54,16.12-24.05,35.21-27.28,55.84-3.73,23.78,12.95,44.37,17.84,34.75l14.2-27.86c2.04-4.01-.56-11.16-2.29-16.3-4.65,7.44-7.3,15.76-9.5,25.34,7.05-2.73,8.2-10.19,9.55-17.28,2.86,7.44-1.29,17.18-8.84,21.59-1.88,1.04-5.05-4.98-4.2-7.39l8.17-23.1c.45-1.28,3.51-3.38,4.85-3.31,5.38.3,7.62,16.1,6.18,20.42-3.73,11.23-9.33,21.02-15.25,30.9-3.18,5.31-11.51,4.12-14.9-.04-24.71-30.37-2.89-72.66,20.79-100.24l-.86-33.14c-.55-21.17,2.29-41.66,9.77-61.93-9.31-20.35-23.82-37.17-43.27-48.45l-16.92-9.81c9.37-.44,17.57,3.15,25.52,8.8,15.64,11.12,29.21,24.74,36.54,43.59,5.18-13.06,14.71-33.89,26.64-33.01s16.66,22.63,18.01,37.68c5.04,56.35-5,117.48-33.58,166.46l.79,3.4c.19.81-2.64,1.86-3.08,2.63-6.7,11.75-13.62,25.29-22.14,36.19l-11.98,8.75c-45.5,45.71-76.77,88.14-103.38,147.3-4.2,9.33-6.42,18.18-7.74,28.52,5.47-1.36,9.75-2.85,13.87-5.77l71.1-50.32c17.87-12.65,33.09-27.06,48.03-42.87l22.43-26.25,4.02-.16c.81-.03.96,2.21,1.32,4.22l-21.49,24.42,9.29,3.27c1.33-1.03,5.99-4.52,7.86-3.88,5.41,3.26,5.22,11.76,4.8,17.4-.76,9.97-1.99,17.55-7.96,25.78-.67,8.07-1.01,17.45,3.22,20.34,5.09,3.48,15.51-7.69,21-16.69,4.72-7.73,11.85-10.14,21.34-7.53l-11.08,5.52c-6.88,3.43-11.85,20.53-26.95,24.69-6.41,1.77-12.67-4.68-12.96-11.02l-.63-13.97c-70.2,38.4-138.12,78.67-204.66,122.92l-53.05,38.63,49.47,4.52,58.7,5.51,38.43,4.31,52.52,4.68c18.43,1.64,35.76,5.86,54.05,8.62,24.79,3.74,47.83,11.43,72.14,17.2l31.15,7.38,23.88,9.7,26.41,14.48c10.25,5.62,19.03,11.8,27.04,20.37,10.45,11.18,23.59,36.76,22.81,49.06l-6.44,34.86c-6.03,32.65-25.89,71.91-51.28,93.37-20.19,17.07-45.47,24.1-71.73,24.78-20.96.54-37.67-10.27-45.43-29.84-9.36-23.57-8.09-49.06.49-73.13,8.45-23.71,22.49-43.88,43.81-57.39,19.06-12.07,46.16-13.95,60.38,3.93,6.18,7.77,9.15,20.27,5.11,31.34-10.21,27.91-46.6,46.11-55.51,35.75-3.38-3.93-2.87-7.26-1.24-13.08ZM577.48,607.53c15.94-36.46,22.41-75,22.41-114.58,0-18.34-1.28-50.52-12.34-58.87-3.86-2.91-9.66.96-12.08,4.76-22.71,35.5-25.94,77.8-22.78,118.69,6.38-3.34,10.52-5.17,15.22-3.5,12.5,4.44,9.55,34.9,9.57,53.51ZM566.39,626.52c8.05-18.23,10.11-59.21.85-67.33-3.86-3.39-11.92,1.52-14.13,5.27,2.13,21.52,5.98,42.38,13.29,62.07Z"/><path d="M637.29,1269.09c-21.48,0-38.27-11.39-46.23-31.44-9.04-22.79-8.89-48.69.46-74.89,9.25-25.94,24.33-45.68,44.83-58.66,19.38-12.27,48.28-14.87,63.68,4.49,6.08,7.65,10.14,21.05,5.5,33.75-7.66,20.94-29.5,37.01-45.35,39.89-6.51,1.19-11.49.02-14.4-3.37-4.25-4.94-3.45-9.3-1.76-15.38h0c1.67-6,5.07-10.79,9.1-12.83,2.83-1.43,6-1.55,9.15-.35,2.91,1.11,5,3.47,5.88,6.66.96,3.44.43,7.59-1.3,11.08l1.21.49c13.46-8.17,21.6-16.27,26.31-26.16,3.11-6.52,3.35-14.53.65-21.42-2.46-6.28-7.03-11.02-12.88-13.35-17.9-7.12-34.99,1.78-43.59,7.73-17.14,11.85-29.45,29.02-37.64,52.49-8.67,24.85-8.04,49.05,1.83,69.99,6.07,12.89,18.57,20.62,33.44,20.68.17,0,.34,0,.51,0,22.97,0,43.36-5.62,60.62-16.7,8.21-5.26,15.5-12.23,23.65-22.57,19.14-24.29,31.39-54.51,36.41-89.81.85-5.98-.33-11.63-1.59-17.61-.39-1.86-.79-3.78-1.14-5.73-2.81-15.95-10.18-27.62-21.91-34.7-5-3.02-9.93-6.26-14.69-9.39-9.62-6.33-19.57-12.87-30.49-17.81-31.21-14.12-63.8-22.77-91.56-29.37-46.12-10.97-90.23-16.7-127.29-20.85l-125.1-14.04c-13.89-1.56-27.73.11-39.93,1.58l-12.69,1.53c-1.58.19-4-.75-5.18-2.01-1.04-1.11-1.01-2.24-.9-2.82.28-1.48,1.75-3.99,3.23-5.01l26.28-18.14c8.45-5.84,16.69-11.92,24.65-17.8,11.75-8.68,23.89-17.65,36.87-25.92,60.77-39.49,123.73-76.98,192.43-114.57,1.25-2.53,2.25-3.6,3.97-4.99,1.16-.93.85-4.24.63-6.66-.15-1.59-.29-3.1-.12-4.37l.96-7.51c-3.55,1.44-6.61,1.13-10.43-.84l-9.05.9c-17.88,17.15-36.57,32.56-57.11,47.07l-44.43,31.38-24.27,14.32c-2.9,1.71-9.02.42-11.07-1.32-8.27-7.03,4.56-36.38,7.22-42.19,26.14-57.16,63.07-107.56,109.78-149.8l.19-.16,10.56-7.81,16.24-31.25c-.49-1.1-.97-2.22-1.44-3.33-.09.75-.23,1.41-.41,1.97-3.83,11.53-9.51,21.43-15.48,31.4-1.68,2.8-4.54,4.48-8.06,4.73-4.11.29-8.5-1.5-10.92-4.47-30.21-37.12,6.96-87.09,20.21-102.71l-.84-32.19c-.58-22.23,2.55-42.48,9.56-61.88-9.32-19.9-23.76-35.93-41.82-46.4l-24.27-14.07,8.49-.4c9-.43,17.6,2.52,27.08,9.26,16.82,11.96,28.09,24.54,35.04,39.2,8.77-20.23,17.59-29.77,26.87-29.08,15.64,1.14,19.5,30.87,20.32,39.95,5.38,60.15-6.79,120.98-33.41,167.08l.57,2.43c.52,2.23-1.54,3.49-2.78,4.24-.22.13-.53.32-.71.45-1.29,2.27-2.59,4.6-3.91,6.97-5.58,10.03-11.36,20.4-18.29,29.27l-.21.27-12.1,8.84c-47.8,48.05-77.57,90.48-102.73,146.42-3.39,7.54-5.6,15.09-7.01,24.09,3.46-1.05,6.52-2.34,9.42-4.4l71.1-50.32c15.52-10.98,30.2-24.09,47.61-42.5l23.1-27.03,5.11-.2c2.85-.11,3.37,3.03,3.69,5.12.06.38.12.77.19,1.15l.21,1.19-19.84,22.55,4.53,1.59c6.09-4.47,8.26-3.73,9.11-3.44l.25.09.23.14c6.35,3.83,6.54,12.56,6,19.73-.7,9.23-1.79,17.62-8.02,26.49-.38,4.71-1.08,15.14,2.19,17.38.14.09.5.34,1.44.14,3.94-.85,11.12-8.05,16.02-16.07,5.3-8.67,13.42-11.58,24.14-8.64l6.31,1.73-16.94,8.44c-2.04,1.01-4.3,4.16-6.69,7.49-4.66,6.48-10.45,14.55-20.71,17.37-3.32.92-6.83.2-9.89-2.02-3.65-2.65-6.04-6.98-6.23-11.29l-.45-9.96c-73.67,40.41-139.42,79.96-200.91,120.86l-47.64,34.7,42.87,3.92,58.71,5.51,38.48,4.32,52.46,4.67c11.72,1.04,23.17,3.15,34.25,5.19,6.5,1.2,13.22,2.43,19.95,3.45,16.51,2.49,32.51,6.79,47.99,10.95,7.94,2.13,16.14,4.34,24.35,6.29l31.51,7.5,24.14,9.82,26.41,14.48c11.59,6.36,20.12,12.79,27.66,20.86,11.03,11.8,24.29,38.14,23.48,50.92l-.04.29-6.44,34.86c-6.54,35.42-27.97,74.41-52.12,94.83-19,16.07-43.66,24.6-73.28,25.37-.53.01-1.07.02-1.59.02ZM668.61,1099.44c-10.25,0-20.94,3.41-29.59,8.88-19.53,12.37-33.93,31.25-42.79,56.12-8.93,25.04-9.11,49.72-.52,71.37,7.33,18.48,23.02,28.79,43.04,28.27,28.46-.74,52.07-8.88,70.18-24.19,23.34-19.74,44.08-57.53,50.43-91.92l6.41-34.71c.61-11.4-11.91-36.1-22.15-47.05-7.16-7.66-15.31-13.8-26.41-19.89l-26.28-14.41-23.57-9.57-30.96-7.34c-8.28-1.96-16.53-4.18-24.5-6.32-15.34-4.12-31.2-8.38-47.43-10.84-6.82-1.03-13.58-2.27-20.11-3.48-10.96-2.02-22.3-4.11-33.78-5.13l-52.52-4.68-38.49-4.32-58.66-5.5-56.08-5.13,58.5-42.6c62.6-41.63,129.61-81.88,204.84-123.03l3.52-1.92.81,17.97c.13,2.79,1.77,5.72,4.18,7.47,1.27.92,3.28,1.89,5.62,1.25,8.56-2.36,13.57-9.32,17.98-15.47,2.88-4.01,5.38-7.48,8.52-9.05l3.41-1.7c-4.37.52-7.77,2.91-10.42,7.25-3.46,5.66-11.92,16.78-19.24,18.35-2.51.54-4.28-.19-5.31-.9-5.4-3.69-5.05-13.61-4.3-22.61l.06-.7.41-.57c5.32-7.33,6.69-14.01,7.49-24.5.3-3.91.41-8.93-1.19-12.27l-1.89,14.77c-.09.72.03,2.02.14,3.27.35,3.74.78,8.39-2.47,11.01-1.26,1.01-1.81,1.52-2.93,3.95l-.35.75-.73.4c-68.87,37.66-131.95,75.2-192.84,114.78-12.86,8.19-24.93,17.11-36.61,25.74-7.99,5.91-16.26,12.01-24.78,17.89l-26.29,18.14c-.15.12-.37.4-.58.72.04.01.08.02.11.03l12.57-1.51c12.48-1.5,26.62-3.21,41.09-1.58l125.1,14.04c37.21,4.18,81.5,9.93,127.89,20.96,27.99,6.66,60.87,15.39,92.46,29.68,11.27,5.1,21.39,11.75,31.17,18.18,4.72,3.11,9.61,6.32,14.53,9.29,13.02,7.86,21.18,20.68,24.25,38.11.33,1.87.72,3.75,1.11,5.57,1.29,6.14,2.62,12.49,1.65,19.35-5.15,36.19-17.75,67.21-37.43,92.2-8.51,10.8-16.18,18.11-24.88,23.69-18.08,11.6-39.39,17.49-63.32,17.49-.18,0-.35,0-.53,0-16.84-.06-31.02-8.86-37.94-23.54-10.43-22.15-11.13-47.65-2.02-73.77,8.55-24.5,21.47-42.48,39.51-54.95,16.26-11.25,33.41-14.18,48.28-8.26,7.14,2.84,12.71,8.58,15.68,16.17,3.25,8.28,2.96,17.54-.79,25.4-6.78,14.22-19.23,22.93-29.33,28.94l-1.06.63-9.36-3.76,2.05-2.62c2.07-2.64,2.95-6.51,2.14-9.42-.46-1.67-1.42-2.79-2.85-3.33-1.86-.71-3.53-.66-5.12.14-3.29,1.66-5.53,6.1-6.54,9.7h0c-1.62,5.81-1.72,7.93.73,10.78,1.67,1.94,5.12,2.55,9.72,1.71,14.55-2.65,34.72-18.02,41.55-36.69,3.98-10.88.5-22.37-4.71-28.92-6.89-8.66-16.96-12.26-27.5-12.26ZM422.26,861.52c1.37.33,3.13.48,3.74.2l4.86-2.86c-2.52,1.03-5.18,1.81-8.09,2.54l-.51.13ZM514.83,698.71c-35.48,36.86-64.21,79.09-85.61,125.9-6.51,14.24-10.31,28.21-9.52,33.95,1.43-11.15,3.88-20.14,7.93-29.14,22.39-49.77,48.37-88.95,87.2-130.71ZM578.78,736.22l-21.8,25.51c-17.66,18.68-32.59,32-48.4,43.19l-68.65,48.58,10.23-6.03,44.17-31.21c20.58-14.54,39.27-29.98,57.16-47.19l.62-.6,12.31-1.23.68.38c3.42,1.89,5.43,2.36,10.4-1.09l2.81-1.95c-.17-.16-.34-.32-.53-.46-.83.23-2.77,1.23-5.52,3.37l-1.08.84-14.07-4.95,23.15-26.32s0-.05-.01-.07c-.04-.25-.08-.54-.13-.83l-1.34.05ZM537.71,676.52c-.55.5-1.11,1-1.66,1.51l7.45-5.44c.21-.27.42-.54.63-.82l-6.42,4.75ZM546.81,574.76c-12.51,16.12-20.46,33.35-23.09,50.13-2.83,18.06,6.47,32.6,11.32,34.17.68.22,1.21.28,1.83-.94l5.52-10.83c-1.13.21-2.33-.15-3.38-1.04-2.11-1.78-4.44-6.65-3.35-9.74l8.17-23.1c.84-2.37,4.87-5.12,7.34-4.97.53.03,1.17.15,1.85.45-2.82-11.13-4.64-22.54-6.21-34.13ZM566.47,632.52s0,.01,0,.02l.51,1.11-1.57,3.01c.52-.71,1.29-1.19,2.11-1.69.06-.04.14-.08.21-.13l-.72-3.08.5-.86c2.63-4.51,5.12-9.15,7.46-13.94v-9.44c-.01-2.52.04-5.22.09-8.06-1.11,10.85-3.42,21.29-6.41,28.06l-2.2,4.99ZM547.27,628.98c-.34.99-.66,1.98-.96,2.97.38-.93.69-1.93.96-2.97ZM555.68,565.11c2.08,20.54,5.61,38.28,10.75,53.96,5.98-19.99,5.99-52.01-.85-58-.54-.47-1.39-.62-2.51-.44-2.69.43-5.92,2.62-7.4,4.49ZM556.24,600.74c1.28,5.9,2.79,11.71,4.65,17.42-1.74-5.55-3.29-11.35-4.65-17.42ZM564.34,550.89c1.44,0,2.89.24,4.4.78,11.44,4.06,11.8,23.84,11.45,42.54,11.55-30.75,17.19-64.02,17.2-101.26,0-42.03-7.11-53.67-11.35-56.87-.62-.47-1.38-.61-2.31-.45-2.09.38-4.74,2.33-6.16,4.56-18.66,29.18-25.89,65.29-22.66,113.41,3.42-1.64,6.41-2.71,9.43-2.71ZM550.31,562.96l.6,4.63c-.1-.96-.2-1.92-.3-2.88l-.08-.81.42-.7c.7-1.19,1.89-2.49,3.35-3.68-.15.08-.3.16-.45.24l-3.36,1.76-.23-2.94.11,4.32-.06.07ZM569.62,558.03c.9.97,1.68,2.19,2.37,3.62-.66-1.46-1.44-2.69-2.37-3.62ZM554.7,481.68c-3.19,12.05-4.92,24.53-5.23,37.71.66-13.57,2.39-26.09,5.23-37.71ZM559.22,466.31l.04.08c.24-.66.48-1.32.72-1.98l-.75,1.9ZM569.21,444.4c-1.41,2.42-2.87,5.23-4.39,8.49,1.37-2.89,2.83-5.72,4.39-8.49ZM509.79,413.44l4.95,2.87c15.13,8.77,27.83,21.24,37.3,36.52-6.68-12.22-16.86-22.98-31.41-33.33-3.76-2.67-7.34-4.68-10.84-6.06ZM584.45,430.56c1.7,0,3.27.52,4.61,1.52.89.67,1.74,1.48,2.54,2.44-1.88-2.35-4.04-3.81-6.52-3.99-.67-.05-1.39,0-2.16.16.52-.09,1.03-.13,1.53-.13Z"/><path d="M698.05,454.32c-3.49,5.3-6.29,11.28-6.5,18.61l12.09,12.47-.77,2.09c-.27.73-2.66.2-3.68-.14-10.87-11.42-22.42-20.98-35.64-29.14-2.33,6.35-1.32,12.37,2.81,17.34l23.09,27.89c-2.26.56-4.92-.53-6.47-2.29l-21.3-24.26c2.63,19.59,10.83,35.7,20.67,51.68,7.32,11.88,12.98,23.88,15.9,37.8,5.26,25.07,6.8,50.36,4.3,76.46-1.55-2.48-2.35-5.88-2.53-9.2-1.07-19.56-2.15-38.23-5.15-57.42-2.55-16.27-8.27-30.78-16.95-44.55-7.18-11.39-12.66-22.76-17.19-35.4-9.2-25.73-2.61-58.29,12.45-81.68l31.63-49.13,32.7-45.18,14.38-16.3,23.33-26.74,25.4-26.91,19.29-19.31,36.41-36.52,56.59-57.41c2.51-8.45,1.46-17.49.45-26.31-11.16-1.64-21.58-4.63-32.65-3.97l-22.53,1.34c-13.99.83-27.21,4.63-40.45,9.47-9.3-.64-18.27.42-26.82,3.74l-15.44,5-22.38,8.05-27.61,9.79-27.58,9.66c-20.76,7.27-41.79,11.14-63.54,14.81-15.7,2.65-30.78,7.21-46.8,7.61l-16.75.41c-14.35.35-27.9-6.82-39.95-13.65-9.07-5.14-18.28-9.7-25.93-16.37-6.95-6.05-13.06-12.56-21.34-16.05-1.39,12.55,5.85,20.63,12.6,28.62l14.64,17.33c5.62,6.65,12.13,13.07,18.72,18.97l4.73-6.58c1.28,7.46-2.76,14.58-8.68,19.35-18.77,15.11-50.59,28.98-74.24,19.98l12.17-.86c.36-7.7-3.15-14.39-8.86-20.17-3.85,6.57-5.14,11.53-5.38,20.43l-15.77.89c-10.95,5.37-20.38,12.9-30.66,19.31l-19.02,11.85-77.55,52.95c-50.55,34.51-105.92,92.04-134.91,147.48l20.48,7.34c8.72,3.13,16.43,6.75,25.5,9.13,11.45,3.01,22.76,5.12,34.93,3.33,19.62-2.89,38.82-6.34,57.6-12.72,14.91-5.07,27.91-12.58,42.38-19.03l99.22-44.21c5.75-2.56,11.43-3.53,17.25-.47-26.69,10.29-52.06,21.03-78.15,33.14l-74.31,34.51c-20.28,9.42-40.62,10.05-48.78,13.93-9.63,4.59-16.61,6.03-27.37,4.76-21.02-2.49-29.39-.88-52.36-11.97-5.07-2.45-12.15-4.33-16.07-8.16l-7.12-6.95c16.17-37.24,44.8-71.29,73.61-100.42,20.6-20.83,41.82-39.06,66.03-55.59l52.48-35.82,48.14-31.29,22.78-14.38c5.41-3.41,10.96-1.77,16.58,1.91.78-9.29,3.13-16.82,7.35-23.6-6.07-5.32-11.68-8.81-15.75-15.99,7.86,3.14,13.29,6.9,19.89,11.18,7.65-7.96,17.47-11.69,27.68-14.92,7.44-2.36,14.72-4.32,21.73-1.19-16.58,2.44-36.19,8.07-46.18,19.46,6.35,6.9,11.56,13.9,9.7,24.3,21.09-1.69,41.13-10.12,58.6-25.74l-8.37-5.38c-11.79-11.02-22.04-23-32.32-35.41s-15.84-29.33-8.33-35.93c6.66-5.85,17.62,4.88,27.44,11.55l35.87,24.34c6.53,4.43,14.52,6.71,21.95,6.89,38.93.95,74.57-1.67,111.93-13.75l80.2-25.92,17.31-5.75,24.87-7.86,23.75-4.99c15.31-4.82,30.22-7.16,46.35-7.75l17.88-.66,33.18,4.79c4.71,9.04,4.63,31.15-.5,36.64l-15.48,16.59-8.8,8.95-10.35,10.19-18.39,18.75-29.66,30.54-21.5,20.63-29.7,30.66-28.99,28.61c.47,5.85-4.98,9.82-10,10.72l-16.1,22-32.8,47.82-23.54,37.95c-5.16,8.32-7.96,18.38-10,27.89l24.05,17.12c4.48-18.02,28.33-55.69,40.53-47.15,7.1,4.97,11.97,12.52,13.74,20.93,2.86,13.6,4.82,28.21-1,42.37l-1.03-30.05c-.42-12.12-7.96-29.3-15.74-29.96-8.51-.72-18.95,17.02-24.91,27.08l.87.95c1.26-2.09,6.3-3.59,9.09-1.88,2.59,1.58,1.9,6.7-.31,7.4-.48-.84-2.1-4.24-2.63-3.59l-2.76,3.47c-.65.82,3.22,1.62,4.32,1.94,1.31.38.45,4.61-.82,5.12s-4.63.69-5.92.1c-3.87-1.76-3.78-7.9-1.98-10.9l-.57-1.43Z"/><path d="M704.33,650.4l-3.91-6.26c-1.65-2.65-2.69-6.34-2.91-10.38-.96-17.59-2.05-37.52-5.13-57.17-2.42-15.47-7.85-29.73-16.59-43.6-7.24-11.48-12.77-22.88-17.43-35.9-8.96-25.06-3.97-57.98,12.7-83.87l31.71-49.24,32.85-45.37,14.38-16.3,23.32-26.73,25.47-26.98,19.34-19.36,36.41-36.52,56.13-56.94c1.98-7.21,1.28-15.11.41-22.83-2.55-.41-5.07-.87-7.52-1.33-7.75-1.43-15.08-2.78-22.71-2.33l-22.53,1.34c-15.06.89-29.14,5.45-39.74,9.33l-.5.18-.53-.04c-9.44-.66-17.86.52-25.74,3.58l-.13.05-15.44,5-22.3,8.02-27.62,9.8-27.59,9.66c-21.02,7.36-42.25,11.26-63.95,14.92-4.96.84-9.96,1.89-14.79,2.9-10.44,2.19-21.23,4.46-32.37,4.74l-16.75.41c-14.65.37-28.41-6.71-41.24-13.97-1.63-.92-3.27-1.83-4.9-2.73-7.36-4.08-14.98-8.29-21.45-13.93-1.37-1.2-2.72-2.41-4.05-3.62-4.36-3.94-8.52-7.71-13.31-10.39.32,9.08,5.77,15.52,11.5,22.29l15.31,18.12c4.5,5.33,10.02,10.99,16.41,16.85l6.58-9.15,1.01,5.88c1.33,7.7-2.26,15.82-9.58,21.72-15.58,12.55-38.64,23.35-59.38,23.35-6.05,0-11.9-.92-17.32-2.98l-1.16-.44-2.86.16-.1,1.24-1.74-1.14-10.44.59c-6.81,3.39-13.2,7.74-19.38,11.95-3.43,2.34-6.98,4.76-10.6,7.01l-18.97,11.82-77.51,52.92c-53.41,36.46-105.22,92.74-132.76,144.04l17.76,6.36c2.96,1.06,5.82,2.18,8.59,3.27,5.56,2.18,10.81,4.25,16.71,5.79,10.48,2.75,21.85,5.05,33.94,3.27,18.37-2.71,38.01-6.1,57.16-12.61,9.61-3.26,18.28-7.5,27.46-11.98,4.75-2.32,9.66-4.72,14.7-6.96l99.21-44.21c4.69-2.09,11.81-4.4,19.43-.4l4.88,2.56-5.14,1.98c-26.78,10.32-52.29,21.14-77.99,33.07l-74.31,34.51c-12.57,5.84-24.9,8.32-34.8,10.31-5.92,1.19-11.03,2.22-13.96,3.61-10.41,4.96-17.93,6.26-28.74,4.98-4.31-.51-8-.84-11.58-1.16-13.32-1.19-22.94-2.04-41.57-11.04-1.44-.7-3.07-1.35-4.8-2.04-4.34-1.75-8.83-3.55-11.93-6.57l-8.35-8.15.69-1.58c13.68-31.49,37.92-64.59,74.13-101.19,21.98-22.22,43.08-39.98,66.4-55.9l52.48-35.82,48.18-31.32,22.81-14.4c4.71-2.97,9.92-3,15.85-.05.99-7.17,3-13.32,6.19-18.99-.82-.69-1.62-1.35-2.41-2-4.58-3.77-8.91-7.33-12.29-13.28l-3.52-6.2,6.62,2.65c7.32,2.92,12.7,6.43,18.4,10.15l.24.16c8-7.57,17.83-11.12,27.25-14.11,5.62-1.78,11.14-3.29,16.6-2.84-5.13-5.76-9.96-11.53-14.61-17.14-10.95-13.22-16.96-31.57-8.06-39.4,6.89-6.05,15.98.7,24.78,7.23,1.9,1.41,3.86,2.86,5.72,4.13l35.86,24.34c5.78,3.92,13.29,6.28,20.61,6.46,44.92,1.11,78.15-2.98,111.1-13.63l80.2-25.92,17.29-5.74,25.14-7.94,23.63-4.96c15.03-4.71,29.93-7.2,46.89-7.82l18.1-.67,34.67,5.01.59,1.14c4.97,9.55,5.36,32.8-.89,39.5l-15.48,16.59-8.85,9-10.38,10.22-18.36,18.72-29.65,30.53-21.56,20.69-29.64,30.6-28.26,27.89c-.18,6.17-5.5,10.58-11.07,11.94l-15.53,21.23-32.73,47.71-23.51,37.9c-4.89,7.89-7.57,17.57-9.33,25.5l19.84,14.12c5.28-16,21.22-41.31,33.66-45.97,4.57-1.71,7.8-.48,9.71.85,7.58,5.31,12.83,13.28,14.76,22.46,2.97,14.1,4.89,29.17-1.13,43.83l-4.41,10.75-1.43-41.66c-.41-11.88-7.83-27.07-13.45-27.55-5.73-.49-13.86,11.56-19.36,20.54,2.23-.32,4.34.02,5.93.99,2.07,1.27,3.14,3.84,2.79,6.71-.25,2.05-1.18,3.73-2.52,4.64.1.34.16.74.19,1.18.08,1.62-.56,5.27-3.03,6.26-1.71.68-5.78,1.01-7.88.05-1.83-.83-3.19-2.34-3.96-4.38-.86,2.47-1.35,4.91-1.52,7.42l12.43,12.82-1.31,3.56c-.76,2.08-3.18,2.57-6.81,1.38l-.6-.2-.43-.46c-10.1-10.61-20.7-19.46-32.31-26.95-.76,4.31.33,8.35,3.22,11.84l25.62,30.94-3.85.96c-3.02.76-6.71-.51-8.96-3.07l-15.35-17.48c3.7,16,11.1,29.56,18.72,41.94,8.52,13.83,13.52,25.73,16.22,38.6,5.42,25.83,6.84,51.09,4.34,77.21l-.7,7.34ZM659.55,479.61c.6,5.55,1.77,10.87,3.53,15.79,4.52,12.66,9.91,23.75,16.95,34.91,9.11,14.46,14.77,29.34,17.3,45.5,1.82,11.6,2.95,23.26,3.77,34.48-.48-14.46-2.24-28.84-5.29-43.41-2.58-12.28-7.38-23.69-15.58-37-8.91-14.46-17.53-30.54-20.67-50.26ZM167.56,462.2l5.88,5.74c2.39,2.33,6.41,3.95,10.3,5.51,1.81.73,3.51,1.41,5.11,2.18,17.81,8.6,26.57,9.38,39.84,10.56,3.44.31,7.34.65,11.72,1.17,9.87,1.17,16.43.02,26-4.53,3.49-1.66,8.62-2.69,15.12-4,9.65-1.94,21.65-4.36,33.68-9.94l74.31-34.51c1.15-.53,2.29-1.06,3.44-1.59l-39.68,17.68c-4.96,2.21-9.83,4.59-14.54,6.89-8.92,4.36-18.14,8.86-28.05,12.23-19.53,6.63-39.44,10.08-58.04,12.82-12.98,1.91-24.94-.5-35.93-3.38-6.18-1.62-11.81-3.84-17.27-5.98-2.73-1.07-5.56-2.18-8.45-3.22l-23.15-8.29c-.1.22-.2.44-.29.65ZM688.77,473.82c.4.36.8.71,1.21,1.07l-.96-.99.03-1.06c0-.06,0-.12,0-.18l-.29,1.15ZM659.07,470.13l2.89,3.29c-2.53-4.89-2.81-10.46-.75-16.08l.83-2.26-1.5-1.07c-.94,5.42-1.44,10.83-1.46,16.12ZM701.41,455.97l-.64,1.06c-.73,1.22-1.15,3.6-.57,5.47.29.93.77,1.56,1.44,1.86.57.22,2.54.18,3.56-.03.09-.23.18-.53.24-.83-2.64-.7-4.3-1.31-4.85-2.95-.3-.89-.13-1.88.47-2.63l2.76-3.48c.08-.1.17-.2.27-.29-1.33.34-2.17.95-2.32,1.2l-.36.6ZM433.86,225.92c-1.75,0-3.36.49-4.91,1.47l-22.78,14.38-48.11,31.27-52.43,35.79c-23.05,15.73-43.91,33.3-65.66,55.28-34.69,35.07-58.23,66.79-71.86,96.88l1.05-2c27.53-52.65,80.8-110.89,135.72-148.39l77.64-53,19.02-11.85c3.53-2.2,7.04-4.59,10.43-6.9,6.46-4.4,13.15-8.95,20.45-12.53l.45-.22,2.07-.12c-.36-.04-.72-.06-1.07-.06ZM688.04,396.1l-12.77,19.83c-2,3.11-3.83,6.34-5.47,9.67.38-.68.78-1.36,1.19-2.02l17.05-27.48ZM460.2,404.15c-2.34.15-4.87.86-7.71,2.12l-30.4,13.54c12.54-5.4,25.19-10.6,38.1-15.67ZM706.87,366.86l-8.28,12.86,18.61-27.13-10.33,14.27ZM753.05,306.43l-7.1,8.05c3.23-.85,7.47-3.49,7.12-7.87v-.18ZM883.85,104.21c7.07,0,13.94,1.27,20.61,2.5,3.01.56,6.13,1.13,9.25,1.59l1.9.28.22,1.91c1.04,9.05,2.12,18.38-.53,27.31l-.18.6-57.03,57.85-36.42,36.53-19.29,19.31-25.35,26.86-17.27,19.8,23.03-22.72,29.66-30.62,21.56-20.69,29.59-30.48,18.39-18.76,10.38-10.22,8.77-8.92,15.43-16.54c3.85-4.12,4.68-23.24.64-32.65l-31.63-4.57-17.65.65c-16.54.61-31.06,3.03-45.69,7.63l-.24.06-23.63,4.96-24.75,7.83-17.28,5.74-80.21,25.93c-33.52,10.84-67.25,14.98-112.76,13.87-8.37-.2-16.64-2.8-23.29-7.32l-35.86-24.34c-1.95-1.32-3.95-2.81-5.89-4.25-7.2-5.35-14.65-10.88-18.5-7.49-5.63,4.95-1.61,20.12,8.61,32.46,6.29,7.59,12.92,15.48,20.15,23.19l5.37,2.4-2.71.4c2.94,3.06,5.98,6.08,9.14,9.03l9.53,6.13c.11-.2.21-.4.31-.6l-.29.4-2.07-1.86c-7.45-6.67-13.83-13.14-18.96-19.21l-15.31-18.12c-6.55-7.74-13.98-16.51-12.51-29.72l.37-3.33,3.08,1.3c7.05,2.96,12.64,8.02,18.04,12.91,1.31,1.18,2.63,2.38,3.98,3.55,6.07,5.29,13.12,9.19,20.58,13.32,1.64.91,3.29,1.82,4.94,2.76,12.73,7.21,25.25,13.64,38.66,13.33l16.75-.41c10.68-.26,20.77-2.39,31.46-4.63,4.88-1.03,9.93-2.09,14.98-2.94,21.49-3.63,42.48-7.48,63.13-14.71l27.58-9.66,27.6-9.79,22.37-8.04,15.44-5c8.3-3.21,17.48-4.52,27.3-3.91,10.85-3.95,25.19-8.52,40.66-9.44l22.53-1.34c1.1-.07,2.2-.1,3.3-.1ZM486.15,225.99c-3.33.87-6.72,1.57-10.16,2.1,3.37-.45,6.77-1.16,10.16-2.1ZM454.51,203.54l1.92,1.95c6.45,6.53,9.68,13.63,9.6,21.12l.11-.62c1.7-9.52-3.32-15.92-9.08-22.16l-1.52-1.65.28-.32-3.44-2.24c-2.36-1.54-4.59-2.99-6.88-4.36,1.14,1,2.33,1.98,3.57,3,1.33,1.09,2.7,2.22,4.11,3.45l1.59,1.4-.27.44ZM455.17,211.54c-2.13,4.33-3.03,8.26-3.32,14.2l9.15-.65c-.3-4.67-2.25-9.21-5.83-13.55ZM462.32,202.16c5.16,5.83,9.66,12.39,9.14,21.48,18.94-2.12,36.27-9.73,51.6-22.66l-5.92-3.85c-4.18-3.9-8.14-7.91-11.94-11.95-11.63,1.73-31.93,6.19-42.88,16.98Z"/><path d="M268.52,410.53c-8.05,9.82-14.88,20.18-21.73,30.76l-8.94,13.81c29.66-5.97,57.18-16.29,81.75-33.24,16.45-11.35,31.94-24.12,45.12-39.19,5.08-5.81,11.58-23.5,33.09-43.97,7.26-6.91,10.72-12.23,19.97-14.72,1.03-.28-.35-3.68.09-4.71l8.3-13.92c-8.2.66-12.91-.42-15.73-6.91-.56-1.28-1.28-4.16-1.01-5.44s2.67-3.7,3.96-4.06l16.28-4.52c.81-.23,3.22.52,3.91.77.91.33-.33,4.05-1.24,4.32l-14.41,4.3c-1.07.32-2.4,2.7-1.94,3.58s2.82,2.31,3.9,2.23l15.74-1.07c.15,7.51-8.19,12.24-7.7,21.42,6.19-1.76,6.33-12.07,12.64-11.03,6.85,1.13,1.36,8.23,8.23,13.56,2.38,1.85,6.08,1.37,9.06-.94,6.9,4.04,13.8,9.3,23.73,6.17l-11.29-9.57-2.67-2c-.76-.57.43-2.62.99-3.37s3.58-.44,4.37.14l11.2,8.24c2.23,1.64,3.41,8.36,3.33,11.01-9.85,5.84-19.92,2.53-29.54-1.94-6.19.99-11.77.7-16.58-4.3l-23.37,3.33-22,20.94c-10.94,10.42-15.57,29.46-24.61,37.82l-25.96,23.98c-18.96,17.51-30.57,27.62-56.06,39.09-22.42,10.09-46.61,15.22-71.11,7.42l-10.23-3.26c-.41-.13-1.73-1.15-2.02-1.47s0-1.78.42-1.67c5.56,1.42,9.32-1.2,18.83.59,4.42.83,8.41-.32,10.73-4.34,13.17-22.79,28.49-42.97,45.52-63.02l30.6-36.06c12.99-15.31,29.82-25.43,45.01-38.09l42.65-35.53c12.79-10.66,24.88-20.81,40.86-27.18,2.16-.86,4.45,3.89,5.32,5.64l6.09,12.15c2.08,4.16,5.92,8.67,8.96,12.46,2.75-.15,7.52-1.32,8.77-3.12,1.64-2.36.63-6.77-.57-10.23-3.15-9.13,21.95,1.08,28.49-1.73,20.15-8.66,40.89-22.67,52.52-41.28.5-3.4-.02-10.08-.5-13.2l-1.31-8.35-12.5-8.44c7.96-1.62,13.92,3.89,17.88,9.86,9.23-4.17,17.5-12.27,27.09-13.6,17.67-2.45,33.61-6.48,50.71-9.76l28.1-5.39,54.63-14.64,98.91-22.81c1.85-.86,5.79-3.48,7.77-3.72l17.31-2.06,22.54-2.19c2.15-.21,6.39,2.93,6.76,4.82.42,2.12-1.6,6.09-3.67,7.75l-18.63,14.88c-4.97,3.97-9.77,8.09-15.19,11.6l-23.22,15.01c-9.66,6.24-19.81,10.38-28.96,17.4-2.53.81-6.76,2.19-8.91,3.6l-30.35,19.79c-17.94,11.7-34.16,23.93-51.36,37.88-1.32-1.6-.64-5.08.92-6.45,13.57-11.89,27.14-22.1,42.32-32.01,21.36-13.95,41.91-28.21,64.36-40.33,6.43-3.47,11.68-6.3,17.97-10.34l24.17-15.49,19.23-15.44,6.49-5.98-29.87,4.63c-8.32,1.29-16.76,5.7-25.19,6.38-12.32.98-23.21,2.99-34.98,6.01l-50.31,12.94c-18.66,4.8-36.17,10.17-55.31,13.59-24.46,4.36-47.81,9.88-71.78,16.46-10.21-1.09-19.53.64-27.39,7.33-4.12,2.26-8.88,3.92-13.42,4.83.24,3.68,1.79,12.24.48,16.49-8.47,16.48-22.8,26.74-38.12,36.23l-16.72,10.36-20.77-.93,20.4,20.03c1.82,1.78.68,6.01-1.77,8.59l15.64,9.13c11.09,6.47,37.76,14.58,51.02,16.53,22.23,3.27,44.72-1.54,65.33-9.37l24.3-9.23c3.02-1.15,5.73-5.2,4.59-8.86-12.5-40.37-18.3-63.59-59.06-86.34,2.35-1.08,6.17-.45,8.84.93,22.29,11.49,37.72,31.07,45.05,54.87l8.47,27.51c1.9,6.17-.62,12.6-6.36,14.84-26.43,10.32-63.94,25.14-91.45,18.57l-32.96-7.88c-13.12-3.14-25.31-9.87-36.91-17.17-4.38,4.86-10.45,9.1-18.55,8.85-1.84-.06-5.31-3.48-5.14-4.6,5.95.45,9.54.44,13.31-2.32s7.38-7.16,5.81-12.68c-8.22-3.61-16.79,5.9-18.87.36-1.16-3.11-4.04-4.56-7.07-4.25-2.16.22-4.13,4.29-4.04,6.36,5.85,1.02,8.74,3.9,9.69,7.59,1.21,4.71.35,9.81-3.5,11.66-5.38,2.59-11.1,3.87-15.24-.29-5.12-5.15-4.6-14.1.99-18.7l-5.18-22.28-8.96,12.35c-2.77-8.63,2.99-12.44,6.86-18.56l-4.97-10.19c-13.15,6.3-23.65,15.42-35.18,24.53l-29.31,23.17c-9.07,4.99-16.26,11.69-22.38,19.9-18.61,13.38-35.15,28.42-49.75,46.24l-34.56,42.17ZM482.51,281.02l-6.46-6.56c-.98,1.02-2.74,3.76-2.5,4.76.57,2.45,7.35,3.18,8.97,1.8ZM456.33,286.63c.93-1.96.77-4.17-1.33-5.54l1.33,5.54ZM458.88,299.88c-1.02,2.36-2.28,4.77-1.31,5.01l3.95.97c.98.24,1.65-3.83.75-4.28l-3.39-1.69Z"/><path d="M242.86,464.79c-8.72,0-17.13-1.31-25.32-3.91l-10.23-3.26c-1.12-.36-2.81-1.84-3.12-2.19-1.17-1.31-.79-3.39-.15-4.45.67-1.1,1.87-1.62,3.05-1.32,2.14.55,4.02.37,6.41.15,3.02-.28,6.78-.63,12.26.4,3.77.71,6.49-.35,8.1-3.13,11.85-20.5,25.96-40.05,45.77-63.39l30.6-36.06c9.04-10.65,20-18.92,30.59-26.91,4.89-3.69,9.94-7.5,14.72-11.48l43.08-35.89c12.82-10.69,24.94-20.78,41.11-27.22,4.23-1.68,7.04,3.95,8.4,6.66l6.18,12.33c1.7,3.39,4.77,7.19,7.48,10.54l.34.42c2.48-.35,5.12-1.29,5.63-1.94.6-.86.69-3.42-.89-7.98-.9-2.61-.15-4.27.65-5.2,2.52-2.95,7.98-2.17,16.69-.65,4.71.82,10.56,1.84,12.52,1,13.28-5.71,37.5-18.45,51.1-39.84.33-3.1-.09-8.9-.56-11.95l-1.14-7.27-16.53-11.17,5.83-1.19c7.07-1.44,13.68,1.71,19.21,9.14,2.67-1.37,5.32-3.06,7.9-4.7,5.64-3.59,11.47-7.29,18.02-8.2,11.61-1.61,22.72-3.96,33.46-6.23,5.56-1.18,11.31-2.39,17.12-3.5l28.01-5.37,54.54-14.61,98.72-22.77c.49-.24,1.16-.62,1.86-1.02,2.69-1.52,4.73-2.61,6.44-2.81l17.31-2.06,22.6-2.2c2.93-.29,7.47,2.7,9,5.59l.9-.14-.67.62c.1.26.18.51.23.76.64,3.23-1.88,8.04-4.56,10.18l-18.63,14.88c-1.02.81-2.03,1.63-3.04,2.45-3.9,3.16-7.93,6.43-12.36,9.29l-23.22,15.01c-4.03,2.6-8.16,4.86-12.16,7.04-5.85,3.19-11.38,6.21-16.64,10.24l-.34.26-.41.13c-1.9.61-6.36,2.04-8.31,3.31l-30.35,19.79c-16.35,10.66-32.12,22.3-51.15,37.73l-1.92,1.56-1.58-1.91c-2.29-2.77-1.25-7.77,1.2-9.92,13.48-11.81,27.02-22.05,42.6-32.23,4.25-2.78,8.47-5.56,12.67-8.34,16.61-10.98,33.79-22.34,51.87-32.09,6.49-3.5,11.6-6.26,17.81-10.24l24.06-15.42,19.44-15.66-21.75,3.37c-3.56.55-7.15,1.71-10.95,2.94-4.67,1.51-9.51,3.07-14.42,3.46-11.48.92-22.14,2.75-34.56,5.94l-50.31,12.94c-4.99,1.29-9.98,2.63-14.8,3.93-13.67,3.69-26.58,7.18-40.69,9.69-22.92,4.09-45.66,9.3-71.56,16.41l-.46.13-.47-.05c-10.52-1.12-18.85,1.08-25.5,6.75l-.19.17-.22.12c-3.55,1.95-7.72,3.55-11.92,4.59.04.35.08.73.13,1.12.53,4.65,1.2,10.43.04,14.16l-.16.4c-9.08,17.66-24.91,28.47-39.03,37.22l-17.37,10.76-15.03-.67,15.74,15.46c2.38,2.33,1.99,6.33.13,9.61l13.25,7.73c10.72,6.26,36.96,14.28,50.12,16.21,19.29,2.84,40.25-.19,64.08-9.23l24.3-9.23c1.97-.75,3.78-3.56,3.09-5.78l-1.43-4.62c-11.71-37.98-18.16-58.89-56.46-80.27l-4.3-2.4,4.48-2.05c3.32-1.52,8.04-.56,11.02.98,22.18,11.44,38.62,31.45,46.29,56.35l8.47,27.51c2.33,7.55-1.04,15.25-7.84,17.9l-.77.3c-27.08,10.58-64.17,25.07-92.17,18.37l-32.96-7.88c-13.3-3.18-25.55-9.95-35.93-16.4-5.42,5.4-11.53,8.14-18.19,8.16l8.94,6.57c3.53,2.59,4.41,10.97,4.34,13.1l-.04,1.37-1.18.7c-10.56,6.26-21.21,3.06-31.18-1.51-5.47.79-11.64.74-17.08-4.24l-21.36,3.04-21.42,20.39c-5.39,5.13-9.24,12.63-12.97,19.88-3.61,7.02-7.01,13.65-11.67,17.96l-25.96,23.98c-18.87,17.43-30.81,27.87-56.73,39.53-16.96,7.63-32.71,11.44-47.58,11.44ZM214.71,454.73l4.34,1.38c20.92,6.66,43.59,4.26,69.33-7.32,25.21-11.35,36.9-21.56,55.39-38.65l25.96-23.98c4.01-3.71,7.22-9.95,10.62-16.57,3.92-7.62,7.97-15.51,13.97-21.22l22.58-21.49,25.43-3.62.89.92c4.06,4.22,8.69,4.48,14.39,3.57l.76-.12.69.32c9.79,4.56,18.01,6.76,25.94,2.76-.04-.44-.1-.91-.17-1.38l-2.47.78c-9.96,3.13-17.19-1.24-23.58-5.1-.27-.17-.55-.33-.82-.5-3.67,2.16-7.8,2.18-10.67-.05-4.18-3.24-4.68-7.06-5.05-9.84-.36-2.76-.5-2.97-2.05-3.22-1.48-.25-2.25.65-4.16,3.87-1.59,2.68-3.56,6.01-7.39,7.1l-3.01.86-.17-3.13c-.3-5.66,2.23-9.77,4.47-13.39,1.19-1.92,2.26-3.67,2.83-5.46l-12.67.86c-2.14.15-5.42-1.92-6.29-3.57-.53-1.01-.5-2.28.08-3.66.57-1.36,1.76-2.99,3.36-3.47l13.78-4.12c.03-.07.07-.15.1-.24-.39-.09-.74-.16-.95-.18l-16.09,4.47c-.54.23-1.9,1.59-2.19,2.22-.06.64.37,2.74.86,3.88,2.11,4.86,5.08,6.07,13.23,5.41l4.83-.39-10.5,17.61c.03.28.1.69.15.98.25,1.49.77,4.59-2.01,5.33-6.68,1.8-10.06,5.24-14.74,9.99-1.29,1.31-2.63,2.67-4.16,4.13-14.91,14.19-22.45,26.96-27.44,35.42-2.14,3.63-3.84,6.5-5.49,8.39-12.11,13.84-27.02,26.8-45.58,39.6-23.41,16.15-50.45,27.14-82.67,33.63l-5.81,1.17,12.16-18.79c6.92-10.7,13.81-21.12,21.89-30.98l34.56-42.17c14.11-17.22,30.44-32.42,49.91-46.46.7-.93,1.4-1.83,2.12-2.71-3.11,2.44-6.25,4.81-9.32,7.13-10.86,8.19-21.11,15.92-29.79,26.15l-30.6,36.06c-19.61,23.11-33.57,42.43-45.26,62.66-2.67,4.62-7.54,6.64-13.36,5.54-4.38-.82-7.46-.65-10.13-.41ZM268.52,410.53l1.93,1.58c-7.92,9.66-14.72,19.95-21.56,30.53l-5.67,8.76c28.98-6.47,53.55-16.83,74.96-31.6,18.22-12.57,32.82-25.25,44.66-38.78,1.35-1.54,2.94-4.23,4.95-7.64,5.13-8.69,12.89-21.83,28.3-36.5,1.47-1.4,2.78-2.73,4.04-4.01,4.69-4.76,8.46-8.6,15.41-10.84,0-.05-.02-.1-.03-.15-.21-1.28-.42-2.48.06-3.6l.15-.3,5.95-9.98c-6.23-.15-10.74-2.14-13.53-8.57-.56-1.28-1.62-4.81-1.16-6.96.5-2.34,3.71-5.38,5.74-5.95l16.28-4.52c1.62-.45,4.34.43,5.44.83.16.06.45.19.75.42-2.05-7.42,1.5-12.03,4.64-16.1.66-.85,1.33-1.72,1.96-2.63l-3.24-6.64c-10.03,5.17-18.58,12.01-27.59,19.23-1.62,1.3-3.25,2.6-4.89,3.9l-29.47,23.29-.18.1c-8.31,4.57-15.37,10.86-21.58,19.21l-.23.31-.31.23c-19.25,13.84-35.37,28.82-49.27,45.79l-34.56,42.17-1.93-1.58ZM470.2,314.96l1.72,1.29,12.35,10.47c-.45-1.72-1.04-3.16-1.54-3.54l-11.09-8.15c-.31-.11-.92-.19-1.37-.19-.02.04-.04.08-.07.12ZM457.66,318.54l1.46.85c.74.44,1.48.88,2.23,1.33,4.66,2.82,9.08,5.52,14.54,5.44l-7.15-6.06-2.61-1.96c-.66-.49-1.09-1.23-1.21-2.08-.03-.19-.04-.38-.03-.57-3.94,1.59-10.61,3.28-15.71-1.85-2.91-2.93-4.46-7.08-4.25-11.38.19-3.79,1.72-7.33,4.25-9.94l-3.61-15.53-8.64,11.91-.61-1.9c-.26,1.63-1.19,4.45-3.26,5.07l-14.16,4.23c-.08.09-.17.22-.26.36.41.27.93.55,1.23.63l18.21-1.24.05,2.62c.08,3.97-1.71,7.15-3.57,10.18,1.53-1.58,3.56-2.68,6.41-2.21,5.32.88,5.85,4.87,6.2,7.5.31,2.35.6,4.57,3.15,6.55,1.39,1.08,3.91.68,5.99-.94l1.34-1.04ZM420.28,319.83h0s0,0,0,0ZM471.7,315.05h0,0ZM447.96,265.01l6.77,29.13-1.2.99c-2.15,1.77-3.46,4.47-3.61,7.41-.14,2.9.88,5.67,2.8,7.6,1.66,1.67,4.75,3.47,12.38-.2,2.7-1.3,3.01-5.46,2.16-8.79-.8-3.11-3.31-4.99-7.69-5.75l-1.98-.35-.08-2.01c-.12-2.9,2.39-8.55,6.29-8.95,4.37-.45,8.16,1.85,9.66,5.86.03.07.05.12.07.16.68.08,2.52-.6,3.76-1.05,3.64-1.31,8.63-3.11,13.7-.88l1.08.47.32,1.13c1.56,5.49-.9,11.1-6.74,15.38-.17.12-.33.24-.5.35,2.64-1.34,5.16-3.34,7.54-5.97l1.41-1.56.15.09,1.99-2.1c1.98-2.08,2.2-4.72,1.83-5.09l-25.05-24.6,26.52,1.18,16.06-9.95c1.4-.87,2.81-1.75,4.21-2.64-7.91,4.99-15.43,8.63-21.06,11.05-3.33,1.43-9.17.41-15.36-.67-3.83-.67-10.11-1.77-11.86-1.09.02.09.05.22.11.38,1.41,4.07,1.86,7.3,1.37,9.77.67-.94,1.25-1.58,1.26-1.59l1.78-1.84,10.15,10.29-2.04,1.74c-2.19,1.87-6.61,1.38-8.89.63-2.92-.96-3.86-2.57-4.14-3.76-.15-.63-.08-1.31.1-2-2.58,2.48-8.12,3.33-10.04,3.43l-1.28.07-1.98-2.46c-2.87-3.55-6.13-7.57-8.07-11.44l-6.18-12.34c-1.33-2.67-2.12-3.68-2.54-4.06-15.2,6.16-26.91,15.91-39.29,26.23l-17.98,14.98,19.1-15.1c1.64-1.3,3.26-2.59,4.87-3.88,9.9-7.93,19.25-15.41,30.78-20.94l2.24-1.07,6.67,13.67-.74,1.18c-.96,1.51-1.99,2.85-2.99,4.15-1.49,1.93-2.78,3.61-3.52,5.42l7.69-10.6ZM472.64,303.08c4.7.3,7.28.06,10.04-1.96,2.17-1.59,5.53-4.74,5.12-8.77-2.92-.72-6.04.4-8.83,1.41-3.31,1.19-8.31,2.99-10.2-2.06-.69-1.84-2.33-2.83-4.39-2.64-.43.22-1.01,1.1-1.41,2.01,6.07,1.82,8.33,5.71,9.14,8.84.28,1.08.46,2.14.54,3.18ZM476.01,279.17h0ZM476.24,278.6c.17.08.37.16.6.22l-.47-.47c-.05.09-.09.17-.13.25ZM549.17,228.42c-7.43,10.15-17.01,18.23-26.32,24.46,9.85-6.52,19.36-14.06,26.32-24.46ZM729.21,226.22c-8.69,5.77-16.76,11.6-24.57,17.75,8.5-6.48,16.54-12.29,24.57-17.75ZM552.82,214.52c.16,2.46.22,5.12.04,7.19.32-1.9.19-4.61-.04-7.19ZM766.97,201.48c-6.8,4.33-13.58,8.79-20.49,13.36l20.49-13.36ZM551.32,202.98l.83,5.28c-.04-.42-.08-.81-.1-1.16l-.14-2.18.62-.13-.77-1.17c-.14-.22-.29-.43-.43-.63ZM861.1,130.54l-22.51,2.19-17.26,2.06c-.86.1-3.28,1.47-4.58,2.2-.94.53-1.76.99-2.44,1.3l-.23.11-99.16,22.87-54.72,14.66-28.09,5.39c-5.76,1.11-11.49,2.32-17.02,3.49-10.83,2.29-22.03,4.66-33.81,6.29-5.47.76-10.6,4.02-16.03,7.47-3.05,1.94-6.2,3.94-9.49,5.52,3.81-.92,7.58-2.34,10.8-4.08,7.62-6.39,16.98-8.94,28.6-7.79,25.87-7.09,48.62-12.3,71.55-16.39,13.89-2.48,26.7-5.94,40.26-9.6,4.84-1.31,9.84-2.66,14.86-3.95l50.31-12.94c12.71-3.27,23.62-5.15,35.41-6.09,4.33-.35,8.68-1.75,13.29-3.23,3.82-1.23,7.77-2.51,11.72-3.12l31.36-4.86c-.97-.78-2.21-1.49-2.82-1.5ZM835.76,159.98l-21.49,13.77c-6.37,4.08-11.55,6.88-18.12,10.42-9.62,5.19-18.79,10.71-27.89,16.48,2.15-1.25,5.33-2.37,8.53-3.4,5.46-4.14,11.3-7.32,16.94-10.4,3.92-2.14,7.97-4.35,11.84-6.85l23.22-15.01c2.4-1.55,4.71-3.26,6.96-5.01ZM863.5,137.5l-2.45,2.26,1.37-1.09c.38-.31.75-.71,1.09-1.17ZM461.6,308.36c-.23,0-.46-.03-.67-.08l-3.95-.97c-.85-.21-1.55-.77-1.93-1.55-.79-1.62,0-3.4,1.09-5.85.15-.34.3-.68.45-1.03l1.05-2.43,5.75,2.88c2.55,1.28,1.8,5.12,1.3,6.5-.69,1.89-1.98,2.53-3.09,2.53ZM455.55,294.08l-4.45-18.52,5.26,3.43c2.95,1.92,3.82,5.34,2.22,8.71l-3.04,6.38Z"/><path d="M431.38,613.74c-1.2.57-3.67,2.83-3.38,3.83s1.7,3.64,2.55,4.23l35.27,24.58c4.38,3.05,8.14,6.47,11.82,10.41-19.26-7.81-36.08-17.6-51.96-30.26-2.87-2.29-5.26-6.89-4.96-10.14,1.26-13.58,38.32-19.01,58.44-16.14-5.97-3.22-11.68-6.31-15.12-12.19-2.28-3.91.13-9.34,3.27-11.83,8.72-6.92,18.26-7.54,29.56-4.19l-2.25-9.33c-3.23-13.4-3.67-27.59,5.25-38.45,2.46-2.99,6.99-5.34,10.53-5.48,9.97-.38,24.71,18.64,18.02,29.64l-10.9-17.56c-1.01-1.63-4.78-3.96-6.56-4.28-6.45-1.15-16.17,15.49-9.21,35.41,1.57,4.49,2.99,9.66,1.43,14.58-2.2,6.89-24.1-6.68-33.44,8.58,9.99,9,24.73,11.06,27,17.29.59,1.62-2.91,4.99-4.78,4.94l-22.18-.51c-13.26-.3-25.98.93-38.39,6.85Z"/><path d="M487.19,663.36l-10.49-4.25c-19.41-7.88-36.61-17.89-52.58-30.63-3.22-2.57-6.3-7.88-5.89-12.33.3-3.23,2.09-6.16,5.34-8.72,9.4-7.42,29.76-10.58,45.44-10.39-2.76-2.05-5.24-4.5-7.12-7.73-2.95-5.05-.29-11.75,3.87-15.05,7.84-6.22,16.73-8.07,27.71-5.69l-1.27-5.29c-4.21-17.49-2.33-30.78,5.74-40.62,2.9-3.54,8.1-6.22,12.36-6.39,7.17-.26,14.62,6.75,18.53,13.4,4.35,7.39,4.97,14.69,1.73,20.04l-2.11,3.48-13.04-21.02c-.58-.93-3.67-2.92-4.87-3.13-.66-.12-1.99.39-3.54,2.21-4.55,5.34-7.4,16.98-2.88,29.92,1.79,5.13,3.21,10.64,1.45,16.16-1.51,4.72-6.91,4.04-12.63,3.33-7-.87-14.87-1.85-19.81,4.05,4.17,3.26,9.04,5.52,13.41,7.54,5.92,2.74,11.03,5.1,12.57,9.32.34.94.45,2.47-.97,4.45-1.13,1.58-3.76,3.87-6.22,3.85l-22.18-.51c-10.39-.23-24.03.3-37.26,6.6h0c-.45.22-1.32.98-1.79,1.52.38.8,1.03,1.92,1.38,2.27l35.21,24.54c4.25,2.96,8.13,6.38,12.22,10.76l7.72,8.28ZM467.46,602c-15.17,0-33.14,3.31-40.8,9.36-2.13,1.68-3.29,3.45-3.46,5.26-.21,2.31,1.71,6.11,4.03,7.96,11.16,8.9,22.93,16.44,35.68,22.82l-33.79-23.55c-1.59-1.11-3.19-4.43-3.53-5.6-.93-3.24,3.94-6.4,4.71-6.77h0c14.18-6.76,28.57-7.34,39.52-7.09l22.09.51c.14-.04.3-.12.48-.23l-13.6-1.94c-3.41-.49-7.27-.72-11.34-.72ZM431.98,619.74h0s0,0,0,0ZM491.88,604.9h0ZM484.69,572.57c-5.99,0-11.1,1.85-15.84,5.62-2.19,1.74-4.27,5.86-2.66,8.61,3.09,5.29,8.46,8.19,14.14,11.25l12.16,6.55c.63-.42,1.4-1.16,1.7-1.69-1.17-2.12-5.36-4.06-9.79-6.11-5.29-2.45-11.29-5.23-16.35-9.79l-1.54-1.39,1.08-1.77c6.47-10.57,18.18-9.11,25.94-8.14,2.45.31,6.55.81,7.23.16,1.33-4.17.12-8.73-1.39-13.05-5.17-14.79-1.66-28.41,3.79-34.81,2.55-3,5.47-4.38,8.22-3.89,2.4.43,6.82,3.13,8.24,5.42l7.94,12.79c.07-3.04-.97-6.56-3.06-10.12-3.7-6.3-9.86-11.11-14.03-10.94-2.81.11-6.71,2.16-8.69,4.56-7.01,8.54-8.57,20.41-4.75,36.27l3.26,13.54-4.15-1.23c-4.18-1.24-7.97-1.87-11.45-1.87Z"/><path d="M475.3,711.7c-25.29,11.35-51.15,18.28-78.43,20.39-12.5.97-24.17,2.46-36.45.48-2.25-1.04.19-7.44,2.86-8.56,30.19-12.71,58.04-28.33,86.04-45.43l19.42-12.86c5.76-3.81,13.58-6.69,16.37-2.75.87,1.23-.6,4.65-1.87,5.84l-36.4,21.27c-22.7,13.26-44.54,25.54-69.59,36.32,38.4.5,75.9-9.02,111.82-25.62-2.95,5.44-8.11,7.79-13.77,10.9Z"/><path d="M373.48,736.05c-4.43,0-8.88-.27-13.45-1.01l-.34-.05-.31-.14c-.72-.33-2.39-1.41-2.34-4.25.06-3.17,2.32-7.64,5.28-8.88,33.04-13.9,63.15-31.49,85.7-45.26l19.35-12.81c6.69-4.43,15.88-7.64,19.79-2.11,1.94,2.74-.44,7.45-2.2,9.1l-.21.19-36.65,21.42c-17.96,10.5-37.16,21.47-58.75,31.49,32.23-1.36,65.36-9.82,98.67-25.21l6.83-3.15-3.58,6.62c-2.99,5.52-7.85,8.16-13,10.94-.58.31-1.17.63-1.76.96l-.18.09c-26.21,11.76-52.13,18.5-79.26,20.6-1.81.14-3.6.29-5.38.44-6.19.52-12.18,1.03-18.21,1.03ZM362.05,730.29c9.77,1.39,19.23.59,29.22-.25,1.79-.15,3.59-.3,5.41-.44,23.24-1.8,45.58-7.08,68.01-16.1-29.58,10.61-58.91,15.78-87.48,15.41l-11.74-.15,10.78-4.64c25.94-11.17,48.47-24,69.32-36.19l36.11-21.1c.54-.64,1.1-1.97,1.19-2.65-1.68-1.57-7.23-.03-12.75,3.62l-19.42,12.86c-22.77,13.91-53.1,31.61-86.45,45.65-.81.34-2.01,2.64-2.2,3.97Z"/><path d="M575.63,684.63c-1.53-3.75-13.21,2.55-12.71,18.03l7.13.61c-.97,2.41-3.66,4.68-6.2,4.75-3.07.08-5.73-3.17-5.79-6.61-.22-12.46,7.62-23.81,16.68-22.54,2.13.3,5.87,3.55,5.88,5.75.06,7.89-5.65,13.48-12.2,15.61l7.66-11.25c.43-.64-.16-3.64-.46-4.36Z"/><path d="M563.74,710.52c-1.86,0-3.69-.77-5.17-2.19-1.83-1.75-2.95-4.32-3-6.87-.15-8.45,3.07-16.63,8.4-21.35,3.36-2.98,7.21-4.26,11.13-3.71,3,.42,8,4.43,8.03,8.2.06,6.89-3.83,13-10.17,16.4l.67.06-1.26,3.14c-1.2,2.98-4.57,6.21-8.45,6.32-.06,0-.12,0-.19,0ZM562.56,705.14c.34.22.77.4,1.23.39.29,0,.6-.08.92-.2l-2.15-.18ZM573.47,686.13c-.57.15-1.58.61-2.74,1.66-1.19,1.08-4.82,4.93-5.27,12.38l8.29-12.18c-.02-.48-.15-1.28-.28-1.86ZM571.44,681.53c-1.71.45-3.13,1.42-4.15,2.32-2.49,2.2-4.43,5.52-5.57,9.29,2.07-6.35,6.23-10.33,9.72-11.61Z"/><path d="M694.79,805.99c3.5,7.46-5.35,15.96-8.98,15.39-2.76-.43-5.23-3.25-6.27-6.39-1.45-4.39,1.51-10.8,6.15-12.91,3.16-1.44,7.84,1.24,9.09,3.91ZM692.3,813.95l.05-5.52c.01-1.35-3.65-2.29-4.46-2.01l4.41,7.53Z"/><path d="M686.16,823.91c-.25,0-.49-.02-.74-.06-4.07-.64-7.08-4.51-8.26-8.07-1.86-5.62,1.78-13.38,7.49-15.97,4.43-2.01,10.52,1.13,12.39,5.12,1.92,4.1,1.16,8.95-2.11,13.3-.06.08-.13.17-.19.25l-.04,4.53-1.58-2.71c-2.05,2-4.63,3.61-6.96,3.61ZM684.65,805.83c-2.25,2.21-3.57,5.85-2.73,8.38.8,2.42,2.64,4.44,4.28,4.7h.01c.54,0,2.48-.95,4.28-3.11l-5.84-9.98Z"/><path d="M696.48,697.42c-4.76,1.13-10.93.7-13.72-2.85-4.98-6.34-.95-15.74,6.38-18.13,4.1-1.33,9,1.12,10.26,5.27,1.6,5.26.36,10.37-2.92,15.71ZM696.95,685c-.29-2.22-3.32-5.53-5.05-5.44s-5,1.93-6.08,3.58c-1.83,2.8-2.32,7.2-.69,8.91,1.74,1.82,6.28,2.54,8.27,1.94,2.75-.83,4.15-4.3,3.55-8.98Z"/><path d="M691.79,700.47c-4.27,0-8.56-1.24-11-4.35-2.65-3.37-3.42-7.76-2.12-12.04,1.43-4.7,5.14-8.53,9.69-10.01,2.62-.85,5.61-.57,8.2.78,2.54,1.32,4.45,3.56,5.23,6.14,1.72,5.67.68,11.47-3.18,17.75l-.54.88-1.01.24c-1.66.39-3.46.62-5.26.62ZM691.88,682.07c-1.04.17-3.36,1.5-3.96,2.43-1.49,2.28-1.46,5.29-.98,5.81.97,1.01,4.44,1.67,5.74,1.27,1.47-.45,2.21-3.02,1.79-6.26-.13-.97-1.76-2.88-2.59-3.25ZM691.78,682.04h0Z"/><path d="M507.05,675.07c1.74,1.35,3.67,3.71,3.66,5.15-.08,6.71-11.83,11.97-21.16,10.17-4.98-2.73-1.34-10.29,1.96-13.06,4.56-3.83,9.33-5.6,14.67-3.12-8.41,1.11-16.04,3.22-16.41,12.08l16.21-4.7,1.08-6.52Z"/><path d="M493.38,693.24c-1.47,0-2.92-.13-4.3-.39l-.39-.07-.34-.19c-2.15-1.18-3.46-3.17-3.7-5.62-.41-4.12,2.35-9.11,5.25-11.55,5.23-4.4,10.25-5.8,15.27-4.26l.1-.62,1.65,1.28c.1.04.2.09.3.14l7.77,3.62-3.51.46c.98,1.29,1.74,2.78,1.72,4.22-.04,2.88-1.54,5.62-4.35,7.91-3.93,3.21-9.86,5.08-15.48,5.08ZM492.14,688.21c4.81.31,10.22-1.2,13.55-3.92,0,0,.01-.01.02-.02l-13.57,3.94ZM504.19,677.04c-6.29,1.06-9.67,2.74-11.1,5.69l10.67-3.09.43-2.59Z"/><path d="M495.2,775.3c-.94,3.6-7.37,7.6-11.35,6.92-2.95-.51-4.09-5.52-3.63-8.25.41-2.43,3.26-6.02,6.31-6.93,4.37-1.3,10.19,2.42,8.66,8.26Z"/><path d="M484.77,784.79c-.46,0-.91-.04-1.34-.11-4.89-.84-6.27-7.59-5.67-11.13.55-3.24,3.99-7.7,8.06-8.91,3.2-.96,6.9-.01,9.4,2.41,2.39,2.31,3.27,5.55,2.4,8.88h0c-1.18,4.5-7.75,8.86-12.85,8.86ZM488.36,769.28c-.38,0-.76.05-1.11.16-2.12.63-4.31,3.49-4.56,4.95-.35,2.09.71,5.22,1.58,5.37,2.83.48,7.93-2.88,8.51-5.09h0c.52-1.99-.27-3.28-1.03-4.02-.9-.87-2.19-1.37-3.39-1.37Z"/><path d="M730.25,581.52c-3.08-1.02-5.82-5.04-6.26-7.6-.54-3.08.63-8.98,3.12-9.97,4.74-1.88,9.63-1.12,12.9,2.05,2.57,2.49,2.68,7.03.78,11.4-1.33,3.06-5.97,5.63-10.54,4.12ZM734.78,578.8c4.21-.72,4.55-6.59,3.14-9.35-1.28-2.5-6.78-3.96-9.31-1.94-1.56,1.25-1.26,6.1-.41,7.92.74,1.6,4.38,3.75,6.58,3.37Z"/><path d="M733.05,584.47c-1.17,0-2.38-.18-3.58-.58-3.92-1.3-7.33-6.07-7.94-9.55-.62-3.55.44-11.04,4.66-12.72,5.65-2.24,11.61-1.26,15.57,2.58,3.26,3.16,3.76,8.6,1.33,14.2-1.46,3.35-5.5,6.07-10.04,6.07ZM730.26,569.39c-.44.88-.33,3.85.2,4.99.45.77,2.93,2.14,3.89,1.96.41-.07.93-.25,1.34-1.07.7-1.39.56-3.58,0-4.68-.19-.38-1.16-1.08-2.62-1.39-1.3-.28-2.32-.11-2.8.19Z"/><path d="M806.96,577.15c-3.6,1.29-7.83.93-9.36-1.65-1.17-1.99,1.12-6.97,2.93-8.38s6.01-2.52,8.46-1.63c2.13.78,3.83,3.97,3.45,5.56-.55,2.32-2.86,5.16-5.49,6.1Z"/><path d="M802.85,580.38c-2.99,0-5.86-1.02-7.4-3.61-2.04-3.44,1.17-9.77,3.55-11.63,2.18-1.7,7.36-3.28,10.85-2.01,3.15,1.15,5.74,5.51,5.03,8.49-.79,3.33-3.83,6.72-7.08,7.88-1.54.55-3.27.88-4.96.88ZM799.79,574.28c.81,1.22,3.67,1.46,6.33.51h0c1.8-.64,3.54-2.81,3.9-4.32,0-.58-1.01-2.32-1.88-2.64-1.44-.52-4.85.3-6.07,1.25-1.08.84-2.52,4.14-2.28,5.2Z"/><path d="M757.94,725.27c3.55-2.34,8.04-.82,9.99,2.41,1.68,2.77,1.11,7.44-2.14,9.41-2.49,1.52-7.35.98-9.18-.79-2.66-2.58-2.41-8.56,1.32-11.03ZM761.81,728.66l-1.89,3.85c-.31.63,2.65.82,3.02.23l1.36-2.22c.37-.6-2.18-2.48-2.49-1.86Z"/><path d="M761.99,740.47c-2.72,0-5.52-.83-7.11-2.37-1.83-1.78-2.76-4.62-2.49-7.6.29-3.09,1.81-5.76,4.17-7.32h0c2.14-1.41,4.7-1.88,7.21-1.31,2.62.59,4.91,2.24,6.29,4.51,2.3,3.81,1.52,10.11-2.97,12.84-1.38.84-3.22,1.24-5.11,1.24ZM766.27,732.08l-1.21,1.97c-.44.72-1.15,1.14-1.95,1.36.53-.08,1.01-.23,1.38-.45.99-.6,1.58-1.71,1.78-2.88ZM759.32,727.36c-1.09.72-1.8,2.03-1.95,3.61-.04.48-.03.95.03,1.39.03-.32.12-.64.27-.95l1.89-3.85c.09-.19.21-.37.34-.53-.2.09-.39.2-.59.33h0ZM764.05,729.77h0s0,0,0,0h0Z"/><path d="M737.09,934.71c-2.95-3.45-9.62-.93-10.25,3.15l6.43-.97c-.54,3.07-2.18,4.63-4.09,5.66-1.61.87-6.09-.24-6.66-2.24-1.06-3.7,2.16-7.51,4.67-9.06,3.45-2.14,8.19-2.44,11.82.52,1.92,1.56.75,6.61-2.17,8.29l.25-5.35Z"/><path d="M727.65,945.34c-1.37,0-2.8-.34-3.96-.82-1.91-.81-3.15-2.03-3.58-3.52-1.48-5.17,2.63-9.94,5.76-11.88,4.78-2.97,10.56-2.69,14.72.71,1.36,1.11,2.01,2.92,1.83,5.11-.2,2.5-1.62,5.73-4.34,7.29l-3.96,2.27.15-3.29c-.92,1.45-2.22,2.63-3.92,3.54-.78.42-1.73.59-2.71.59ZM727.21,940.33c.35.04.66.04.86-.02.09-.05.18-.1.26-.15l-1.13.17Z"/><path d="M864.94,586.5c3.34,5.93-1.53,9.77-4.64,10.9-4.46,1.63-10.2-1.66-10.23-5.93-.02-2.57,3.25-5.52,5.16-6.38,2.45-1.12,8.55-.67,9.72,1.41ZM859.9,593.61c.95.04,3.08-1.78,3.13-2.74.04-.72-.96-2.35-1.67-2.48l-2.99-.52-3.9,2.22c-.83.47-.24,3.29.7,3.33l4.73.19Z"/><path d="M857.82,600.33c-2.19,0-4.44-.69-6.34-2.01-2.47-1.72-3.9-4.21-3.92-6.83-.02-3.98,4.3-7.61,6.62-8.67,3.11-1.42,10.89-1.19,12.94,2.45,1.94,3.45,1.57,6.28.91,8.05-1.23,3.34-4.36,5.51-6.88,6.43-1.06.39-2.19.57-3.33.57ZM860.57,591.12h0ZM857.88,591.02l1.79.07c.15-.09.33-.23.5-.38l-1.34-.23-.95.54Z"/><path d="M591.73,252.93c1.72-9.67,4.89-17.03,1.36-25.66l-8.24-5.1c5.32-1.59,11.15,1.29,12.44,7.45,1.62,7.72,1.58,17.36-5.57,23.32Z"/><path d="M588.07,259.23l1.19-6.73c.39-2.19.84-4.23,1.28-6.2,1.44-6.47,2.59-11.63.51-17.34l-12.25-7.59,5.33-1.59c3.36-1,6.97-.58,9.91,1.17,2.94,1.75,4.96,4.64,5.7,8.16,2.39,11.37.17,20.27-6.42,25.75l-5.26,4.38Z"/><path d="M648.47,720.42c1.55,1.3,1.81,8.09.36,11.25-.69,1.5-6.06,2.37-7.46,1.28-3.31-2.58-2.3-11.25,3.09-12.91.89-.27,3.3-.21,4.01.39ZM645.85,724.5l-2.23,3.02c-.28.38,2.12,1.31,2.27.87.57-1.66,1.04-2.99-.04-3.89Z"/><path d="M643.55,735.93c-1.3,0-2.72-.23-3.73-1.02-2.3-1.8-3.34-5.39-2.65-9.16.74-4.05,3.19-7.08,6.54-8.11,1.11-.34,4.63-.59,6.36.86h0c2.81,2.36,2.69,10.58,1.02,14.21-.61,1.33-2.06,2.28-4.33,2.83-.42.1-1.74.39-3.21.39ZM642.79,730.88c.39.1,1.08.08,1.79,0-.82-.19-1.71-.57-2.38-1.11.15.49.36.88.59,1.12Z"/><path d="M729.96,739.61c1.04,4.36-1.21,7.72-3.74,9.11-2.92,1.6-8.61,1.51-10.31-1.56-2.64-4.76,1.76-10.67,6.47-11.88,2.06-.53,7.06,2.18,7.57,4.33ZM728.38,741.29c.3-1.82-5.34-4.01-6.74-2.82s-3.15,4.32-3.89,6.66c3.08,2.51,9.73,1.62,10.63-3.85Z"/><path d="M721.68,752.25c-3.17,0-6.42-1.1-7.95-3.88-1.39-2.5-1.47-5.44-.25-8.29,1.5-3.49,4.76-6.32,8.28-7.22,2.55-.65,5.72,1.1,6.64,1.65,1.55.94,3.5,2.48,3.99,4.52h0c1.33,5.59-1.53,10-4.96,11.89-1.51.83-3.61,1.33-5.75,1.33ZM720.95,743.88c.87.16,1.84.09,2.69-.23,1.05-.4,1.76-1.09,2.1-2.07-.7-.46-2.02-.93-2.74-.96-.59.64-1.4,1.92-2.05,3.26Z"/><path d="M795.43,467.9c-1.02,4.52-11.63,5.08-13.83,1.42-2.36-3.91,2.07-7.78,5.11-8.43,3.68-.78,10.05,1.12,8.72,7.01ZM792.21,466.63l-4.22-2.15c-.84-.43-3.26,2.04-2.95,2.93.61,1.81,5.94,1.69,7.18-.78Z"/><path d="M787.88,474.22c-3.35,0-6.88-1.03-8.43-3.61-1.2-1.99-1.35-4.26-.42-6.39,1.34-3.08,4.61-5.23,7.16-5.77,2.85-.61,7.12-.03,9.77,2.65,1.87,1.89,2.55,4.51,1.9,7.36h0c-.64,2.83-3.43,4.92-7.46,5.57-.8.13-1.66.2-2.52.2Z"/><path d="M718.17,514.33c-4.3-.78-8.95-3.99-8.39-7.93.26-1.83,4.47-3.81,6.09-3.27s4.84,2.45,5.96,3.65l-3.66,7.54ZM715.09,507.5l-.84.02.84.02h.86l.84-.02-.84-.02h-.86Z"/><path d="M719.59,517.13l-1.87-.34c-5.72-1.03-11.18-5.33-10.43-10.74.21-1.47,1.26-2.84,3.06-3.95,1.67-1.04,4.33-2.01,6.31-1.34,1.96.66,5.57,2.79,7,4.33l1.16,1.25-5.23,10.79ZM714.23,510.02c.75.55,1.65,1.02,2.59,1.36l1.9-3.91c-.57-.38-1.23-.79-1.86-1.14v3.68l-1.77.02-.86-.02ZM712.24,506.94c-.05,1.07.75,2.16,1.95,3.05v-4.21c-.76.29-1.62.78-1.95,1.16ZM712.17,507.04h0Z"/><path d="M509.31,742.24c-2.02.75-4.55,1.07-5.67.35s-2.92-3.17-2.75-4.49c.19-1.54,3.28-4.17,4.84-4.47,2.2-.41,5.57.55,6.49,1.91,1.21,1.8-.66,5.86-2.91,6.7Z"/><path d="M505.49,745.49c-1.13,0-2.27-.2-3.2-.8-1.53-.99-4.22-4.23-3.88-6.91.37-2.91,4.54-6.18,6.86-6.61,2.94-.55,7.43.6,9.02,2.98.91,1.35,1.05,3.19.41,5.18-.6,1.87-2.15,4.38-4.52,5.26h0c-.55.21-2.6.91-4.69.91ZM504.94,740.44c.44.12,1.9.04,3.5-.55h0c.81-.3,1.78-2.23,1.66-3-.48-.4-2.55-1.06-3.91-.81-.69.19-2.29,1.54-2.76,2.3.24.62,1.05,1.72,1.51,2.06ZM504.9,740.43h0ZM503.33,738.57s0,0,0,0h0Z"/><path d="M500.81,628.19c1.36,3.01,2.08,5.97.65,7.29-1.9,1.74-6.09,2.64-7.86,1.9-2.13-.9-3.6-5.45-2.63-8.06.67-1.78,2.74-4.21,4.12-4.78,1.65-.68,4.84,1.68,5.73,3.66ZM494.74,634.29c2.49.66,5.9-1.81,5.31-3.28s-3.03-3.8-4.26-3.42c-1.91.58-2.72,6.26-1.05,6.7Z"/><path d="M495.25,640.12c-.98,0-1.89-.14-2.62-.45-3.65-1.53-5.35-7.63-4-11.24.82-2.2,3.28-5.3,5.5-6.22,3.24-1.34,7.67,2.07,8.96,4.94.81,1.79,3.26,7.22.06,10.16-1.88,1.72-5.18,2.81-7.9,2.81ZM495.38,631.88s0,0,0,0c0,0,0,0,0,0h0ZM496.57,630.55c-.11.38-.2.82-.23,1.22.34-.12.68-.3.94-.48-.21-.25-.46-.51-.71-.73Z"/><path d="M769.98,494.72l.03,8.01c-2.75-.15-5.62-.58-7.3-1.44-1.59-.82-3.33-5.26-2.62-7.18.45-1.21,3.42-2.79,4.7-2.99,1.54-.24,5.18,2.06,5.19,3.61ZM764.28,495.22c-.57.42.21,2.94.74,3.42s2.78.59,2.73-.11l-.23-3.21c-.05-.71-2.57-.6-3.23-.1Z"/><path d="M772.53,505.37l-2.64-.14c-2.53-.13-6.02-.54-8.31-1.71-2.81-1.44-4.96-7.2-3.83-10.27.92-2.5,5.09-4.36,6.67-4.6,2.2-.33,4.78,1.29,5.96,2.3,1.4,1.19,2.11,2.46,2.11,3.77l.04,10.65ZM765.83,497.05s.05.04.08.06c.16-.14.28-.28.37-.42-.15.09-.3.21-.45.37ZM766.94,497.08h0Z"/><path d="M761.77,825.61l1.24,4.51c.27.99-2.98,2.49-4.01,2.46-2.14-.06-5.48-1.29-6.32-2.7-.98-1.66.19-6.28,1.89-7.27,1.13-.66,3.87-1.18,4.8-.75s2.07,2.54,2.4,3.76ZM756.7,825.8c-.85,1.19-1.44,1.91-.85,2.15s2.73,1.86,2.81,1.26l.37-3.12c.05-.42-1.94-.37-2.32-.29Z"/><path d="M759,835.08s-.05,0-.08,0c-2.59-.07-6.95-1.48-8.4-3.93-1.15-1.94-.6-4.71-.32-5.81.35-1.36,1.23-3.79,3.11-4.89,1.39-.81,5.05-1.81,7.11-.86,2.14.99,3.46,4.29,3.76,5.36l1.24,4.51c.15.55.27,1.66-.64,2.82-1.19,1.51-4.18,2.81-5.78,2.81ZM756.17,828.91s0,0,0,0h0ZM756.94,827.43s.02.02.03.04v-.05s-.02.01-.03.02Z"/><path d="M901.02,610.21c-1.83.74-6.23-.27-6.89-2.45-.44-1.45.95-4.9,2.38-5.38s5.03-.6,6.66-.28c1.18.23,3.56,2.93,3.16,4.08s-2.4,2.86-3.53,3.32l-1.78.72ZM901.2,608.82l2.61-2.52c.52-.5-2.03-2.13-2.77-2.03l-3.76.5c-.72.1-.05,2.65.6,3l2.57,1.41.75-.36Z"/><path d="M899.51,612.95c-1.61,0-3.28-.44-4.49-1.02-1.71-.82-2.85-2.01-3.29-3.45-.8-2.62,1.16-7.53,3.98-8.48,1.95-.66,6-.75,7.94-.37,1.91.38,3.73,2.48,4.49,3.81.74,1.29.92,2.48.55,3.54-.71,2.02-3.36,4.16-4.95,4.81l-1.78.72c-.74.3-1.58.43-2.44.43Z"/><path d="M513.12,570.24l2.85,5c-2.07-.35-4.62-.89-5.89-1.47s-.19-4.35.81-5.24c1.22-1.09,6.18-2.19,7.16-.88l4.1,5.49-9.03-2.89Z"/><path d="M520.75,578.56l-5.19-.87c-1.7-.28-4.8-.87-6.52-1.66-.62-.28-1.69-1.02-1.96-2.78-.27-1.79.43-4.37,1.52-5.89l-.84-1.47,1.72.55c1.73-1.31,5.31-2.08,7.44-1.86,1.41.14,2.46.67,3.13,1.56l8.77,11.75-10.35-3.32,2.27,3.99Z"/><path d="M474,625.91l-3.79,2.48c-.61.4-2.44-.82-2.55-1.54-.18-1.11,1.93-3.78,2.87-3.18,1.01.65,3.75,2.42,3.47,2.23Z"/><path d="M469.91,630.96c-.48,0-1.05-.1-1.69-.39-.27-.12-2.69-1.24-3.02-3.33-.34-2.1,1.5-4.54,2.95-5.49,1.24-.82,2.64-.89,3.73-.19l2.11,1.36h0s3.46,2.25,3.46,2.25l-1.33,2.11c-.37.57-.79.89-1.23,1.03l-3.31,2.16c-.33.22-.9.48-1.68.48Z"/><path d="M482.51,281.02c-1.62,1.39-8.4.66-8.97-1.8-.23-1,1.52-3.74,2.5-4.76l6.46,6.56Z" fill="#fff"/><path d="M479.59,284.22c-1.62,0-3.23-.3-4.34-.67-2.92-.96-3.86-2.57-4.14-3.76-.68-2.89,3.1-7.02,3.14-7.06l1.78-1.84,10.15,10.29-2.04,1.74c-1.12.96-2.84,1.3-4.55,1.3ZM481.03,279.02h0ZM476.24,278.6c.17.08.37.16.6.22l-.47-.47c-.05.09-.09.17-.13.25Z"/><path d="M458.88,299.88l3.39,1.69c.9.45.23,4.52-.75,4.28l-3.95-.97c-.97-.24.29-2.65,1.31-5.01Z" fill="#fff"/><path d="M461.6,308.36c-.23,0-.46-.03-.67-.08l-3.95-.97c-.85-.21-1.55-.77-1.93-1.55-.79-1.62,0-3.4,1.09-5.85.15-.34.3-.68.45-1.03l1.05-2.43,5.75,2.88c2.55,1.28,1.8,5.12,1.3,6.5-.69,1.89-1.98,2.53-3.09,2.53Z"/><path d="M456.33,286.63l-1.33-5.54c2.1,1.37,2.26,3.57,1.33,5.54Z" fill="#fff"/><path d="M455.55,294.08l-4.45-18.52,5.26,3.43c2.95,1.92,3.82,5.34,2.22,8.71l-3.04,6.38Z"/><path d="M692.3,813.95l-4.41-7.53c.82-.28,4.48.66,4.46,2.01l-.05,5.52Z" fill="#fff"/><path d="M694.71,823.01l-10.52-17.96,2.88-1c1.6-.55,4.58.28,6.08,1.36,1.49,1.07,1.7,2.36,1.7,3.04l-.14,14.56Z"/><path d="M696.95,685c.6,4.68-.8,8.15-3.55,8.98-1.99.6-6.53-.12-8.27-1.94-1.64-1.71-1.14-6.1.69-8.91,1.08-1.65,4.35-3.48,6.08-3.58s4.76,3.22,5.05,5.44Z" fill="#fff"/><path d="M691.62,696.69c-2.89,0-6.46-1.01-8.29-2.92-2.65-2.76-1.93-8.44.4-12,1.46-2.24,5.44-4.57,8.04-4.71,3.29-.2,7.23,4.29,7.66,7.62h0c.76,5.9-1.32,10.49-5.31,11.69-.71.21-1.57.32-2.5.32ZM691.88,682.07c-1.04.17-3.36,1.5-3.96,2.43-1.49,2.28-1.46,5.29-.98,5.81.97,1.01,4.44,1.67,5.74,1.27,1.47-.45,2.21-3.02,1.79-6.26h0c-.12-.97-1.76-2.89-2.59-3.25Z"/><path d="M734.78,578.8c-2.2.38-5.83-1.78-6.58-3.37-.85-1.83-1.15-6.68.41-7.92,2.52-2.02,8.03-.56,9.31,1.94,1.41,2.76,1.08,8.63-3.14,9.35Z" fill="#fff"/><path d="M734.26,581.34c-3.24,0-7.24-2.51-8.33-4.86-1.02-2.19-1.87-8.55,1.11-10.93,1.73-1.39,4.31-1.84,7.08-1.25,2.79.6,5.04,2.1,6.02,4,1.16,2.27,1.54,6.16.03,9.2-1.03,2.05-2.79,3.39-4.96,3.76h0c-.3.05-.62.08-.94.08ZM730.26,569.39c-.44.88-.33,3.85.2,4.99.45.77,2.93,2.14,3.89,1.96.41-.07.93-.25,1.34-1.07.7-1.39.56-3.58,0-4.68-.19-.38-1.16-1.08-2.62-1.39-1.3-.28-2.32-.11-2.8.19ZM730.3,569.31h0Z"/><path d="M761.81,728.66c.31-.63,2.86,1.26,2.49,1.86l-1.36,2.22c-.37.6-3.33.4-3.02-.23l1.89-3.85Z" fill="#fff"/><path d="M761.59,735.6c-1.11,0-2.16-.26-2.71-.57-1.34-.74-1.86-2.3-1.21-3.62l1.89-3.85c.44-.9,1.36-1.48,2.38-1.52,1.73-.06,3.74,1.57,4.44,2.77.58.99.59,2.12.04,3.02l-1.37,2.22c-.71,1.16-2.13,1.55-3.47,1.55Z"/><path d="M859.9,593.61l-4.73-.19c-.94-.04-1.53-2.86-.7-3.33l3.9-2.22,2.99.52c.71.12,1.71,1.75,1.67,2.48-.05.96-2.18,2.78-3.13,2.74Z" fill="#fff"/><path d="M859.91,596.11s-.08,0-.11,0l-4.73-.19c-1.59-.07-2.83-1.29-3.31-3.29-.51-2.1.06-3.91,1.48-4.72l4.68-2.66,3.87.67c2.2.38,3.84,3.35,3.74,5.08-.12,2.25-3.29,5.1-5.62,5.1ZM859.53,591.17h0ZM860.57,591.12h0ZM857.88,591.02l1.79.07c.15-.09.33-.23.5-.38l-1.34-.23-.95.54Z"/><path d="M645.85,724.5c1.08.9.61,2.24.04,3.89-.15.44-2.55-.49-2.27-.87l2.23-3.02Z" fill="#fff"/><path d="M645.65,731c-1.29,0-3.46-.77-4.21-2.11-.51-.91-.44-2.03.17-2.86l3.81-5.15,2.04,1.7c2.39,1.99,1.45,4.74.82,6.56-.37,1.07-1.27,1.76-2.37,1.86-.08,0-.16.01-.25.01Z"/><path d="M728.38,741.29c-.91,5.47-7.56,6.35-10.63,3.85.74-2.35,2.54-5.51,3.89-6.66s7.04,1,6.74,2.82Z" fill="#fff"/><path d="M721.87,748.97c-2.11,0-4.18-.65-5.7-1.9l-1.32-1.07.51-1.62c.82-2.59,2.78-6.23,4.66-7.82,2.22-1.88,6.15-.48,7.91.52,2.93,1.66,3.08,3.6,2.91,4.62-.51,3.1-2.5,5.52-5.45,6.63-1.13.43-2.34.64-3.53.64ZM720.95,743.88c.87.16,1.84.09,2.69-.23,1.05-.4,1.76-1.09,2.1-2.07-.7-.46-2.02-.93-2.74-.96-.59.64-1.4,1.92-2.05,3.26Z"/><path d="M792.21,466.63c-1.23,2.47-6.56,2.6-7.18.78-.3-.89,2.11-3.36,2.95-2.93l4.22,2.15Z" fill="#fff"/><path d="M787.9,471.14c-.21,0-.42,0-.62-.02-2.36-.16-4.04-1.22-4.62-2.91-.76-2.25,1.42-4.37,2.11-4.96,2.03-1.76,3.6-1.38,4.35-1l6.43,3.27-1.11,2.22c-1.19,2.38-4.04,3.4-6.54,3.4Z"/><polygon points="715.09 507.5 715.95 507.5 716.79 507.52 715.95 507.54 715.09 507.54 714.25 507.52 715.09 507.5" fill="#fff"/><polygon points="715.09 510.04 714.18 510.02 714.18 505.02 715.95 505 716.86 505.02 716.86 510.02 715.09 510.04"/><path d="M494.74,634.29c-1.67-.44-.85-6.12,1.05-6.7,1.23-.38,3.68,2,4.26,3.42s-2.82,3.94-5.31,3.28Z" fill="#fff"/><path d="M495.63,636.91c-.51,0-1.03-.06-1.54-.2h0c-.81-.21-2.7-1.07-2.76-4.42-.04-2.38.91-6.23,3.72-7.1,3.14-.96,6.55,2.99,7.31,4.88.54,1.35.19,2.88-.97,4.2-1.27,1.43-3.5,2.63-5.76,2.63ZM495.38,631.88s0,0,0,0c0,0,0,0,0,0h0ZM496.57,630.55c-.11.38-.2.82-.23,1.22.34-.12.68-.3.94-.48-.21-.25-.46-.51-.71-.73Z"/><path d="M764.28,495.22c.66-.49,3.18-.61,3.23.1l.23,3.21c.05.7-2.2.59-2.73.11s-1.31-3-.74-3.42Z" fill="#fff"/><path d="M766.54,501.53c-1.18,0-2.44-.33-3.21-1.04-1.18-1.08-1.81-3.56-1.75-4.87.07-1.37.78-2.1,1.2-2.41,1.26-.94,3.97-1.18,5.47-.5,1.02.47,1.67,1.37,1.75,2.43l.23,3.21c.08,1.18-.55,2.24-1.66,2.78-.54.26-1.27.4-2.04.4ZM765.83,497.05s.05.04.08.06c.16-.14.28-.28.37-.42-.15.09-.3.21-.45.37ZM766.94,497.08h0Z"/><path d="M756.7,825.8c.38-.08,2.37-.13,2.32.29l-.37,3.12c-.07.6-2.21-1.02-2.81-1.26s0-.97.85-2.15Z" fill="#fff"/><path d="M758.49,831.85c-1.05,0-2.05-.62-3.09-1.27-.23-.14-.44-.28-.58-.35-.76-.31-1.37-.98-1.6-1.82-.42-1.48.4-2.62,1.27-3.82l.76-1.05.96-.2s3.02-.55,4.46.78c.63.58.94,1.42.84,2.25l-.37,3.12c-.11.91-.66,1.68-1.47,2.07-.4.19-.79.27-1.17.27ZM756.17,828.91s0,0,0,0h0ZM756.94,827.43s.02.02.03.04v-.05s-.02.01-.03.02Z"/></g></svg>