<?xml version="1.0" encoding="UTF-8"?><svg id="Calque_1" xmlns="http://www.w3.org/2000/svg" viewBox="0 0 1920 1080"><path d="M782.96,760.3c1.82,3.33,4.77,8.46,4.44,13.18-.07.95-1.29,3.3-2.17,3.28-2.92-.07-3.44-4.31-9.54-9.91l-10.14-9.3-6.09-7.06-6.66-10.6-7.13-17.04c-1.27-3.03-1.31-8.28-3.44-10.79l-17.58-20.77-24.58-24.47-14.96-14.75c-8.16-8.05-16.59-15.27-22.22-26.28,18.71,2.76,34.72,12.86,46.52,26.92l10.96,13.06,10.98,14.46-6.97-27.94-4.74-19.26-10.54-43.17-7.55,2.94-16.9,8.99c-3.91,2.08-7.7-.74-9.06-4.4-7.65-20.58-26.4-46.73-39.12-66.25l-22.4-34.37c-10.03-15.4-20.13-30.32-26.69-47.44,3.59,4.2,6.55,8,9.26,12.03l15.89,23.61,22.29,35.23,22.24,34.25,18.85,31.14c2.39,3.95,1.02,10.48,6.64,13.22,8.62-1.95,14.9-9.91,25.79-11.23-3.01-13.52-5.85-26.85-7.01-40.9l-4.97-60.25-3.09-37.7c-1.02-12.37.06-24.06,1.14-36.39l1.48-16.86,3.78-25.13,4.24-29.43c-11.22,25.74-32.97,52.53-54.95,69.62-9.62,7.48-18.91,14.56-29.46,20.49l-27.48,15.46-2.51,2.09c-.49.41-2.32-1.45-1.98-2.05,1.26-2.26,5.09-5.43,7.78-6.92l25.43-14.11,12.85-9.15,13.89-10.09c9.06-6.59,17.46-14.68,24.07-23.69l13.01-17.74,10.04-14.9,11.35-20.39,2.68-31.01c2.03-23.5-6.44-41.82-7-60.76-.19-6.49-2.04-12.42-1.43-19.27,4.42,6.33,4.13,13.19,5.29,19.96l3.38,19.81c2.5,14.66,4.39,28.71,3.44,43.72-.89,14.06-3.02,27.32-4.85,41.24l-3.41,25.86c-1.15,8.72-3.64,16.82-4.1,25.76-1.35,26.06-2.32,51.58-.95,77.74l3.92,43.05,1.17,15.59c.59,7.84.74,15.05,2.31,22.67l8.67,42.05,3.48,15.79,6.72,28.86,5.91,21.99,13.08,44.61,5.49,15.76,7.7,16.86c3.84,8.4,9.74,13.96,16.5,20.2l8.94,8.24c-3.34-9.61-11.78-15.29-16.6-23.64s-7.71-17.43-10.96-26.54l-3.67-17.15c-.16-.74.33-2.69.62-3.29.36-.74,2.77.47,3.3,1.32l8.57,13.76c.6-5.86-2.13-10.65-4.94-15.7l-10.68-19.19-6.23-11.12c-2.65-4.73-4.52-10.01-5.55-15.46-2.84-14.87-5.53-29.15-10.01-43.66-3.11-10.09-4.82-20.21-6.13-30.61l-3.84-30.52c-2.63-20.9-4.1-41.34.06-62.14,2.18-10.92,2.79-21.83,5.98-32.52l14.96-50.04,7.24-23.48c6.31-20.48,9.93-40.69,13.09-61.86l2-13.46c1.32-8.89,3.2-17.38,6.96-25.43.72,4.08-.79,7.38-1.41,11.09l-3.36,19.97-2.24,18.76,25.54,17.08,11.94,6.4c15.34,8.22,30.5,15.36,46.5,22.31,14.12,6.13,26.83,13.67,37.57,24.94l.21-57.77c.02-4.7,1.5-10.16,2.5-14.75,1.63-7.47,7.07-13.37,13.31-17.26,5.77-3.6,13.39-3.5,18.34,1.81,4.39,4.71,9.49,10.1,12.35,16.23,11.17,23.91,13.52,58.88-3.52,80-6.17,7.65-12.6,13.6-21.01,18.48l-13.74,7.98,4.36,34.42c15.88-7.03,31.98,2.4,36.67,18.75,6.74,23.48,8.6,42.3-9.65,60.03-5.24,5.09-10.71,9.21-18.42,10.68l1.44,20.62,9.71,91.43c.76,7.15,3.56,13.37,3.52,20.74s2.36,14.13,3.31,21.16l2.83,21.03,2.3,18.68.79,27.42,1.4,21.49,5.23,51.17,3.17,34.8c1.79,19.72,2.25,38.79,5.58,58.34,1.64,9.62,3.08,19.15,2.38,28.82l-2.25,30.99c-.54,7.47-9.05,22.58-15,24.17-12.05,3.23-23.54-.57-34.1-6.17-19.64-10.42-26.02-26.09-29.71-47.18-3.64-20.82-1.35-48.45,17.45-56.93,9.62-4.34,24.94,7.08,30.04,21.03,5.25,14.36,7.41,29.18,5.73,44.36-.64,5.82-6.35,9.3-11.61,8.81-7.19-.67-11.76-6.71-11.79-13.23,0-1.55-2.47-3.11-3.87-4.3-1.74-1.48-1.68-6.1-.47-8.72.97-2.11,3.84-4.71,7.05-5.37,1.15-.24,4.28.57,4.89,1.54,2.54,4.02,3.74,10.83-.79,14.34-2.08,1.61-2.99,4.01-1.59,6.65,1.06,2,3.17,3.87,4.89,4.51s5.77-.68,6.19-2.66c4.27-20.14,0-34.94-8.44-53.23-4.02-6.56-10.51-10.87-18.35-10.19-7.65,4.78-13.18,12.24-14.43,21.26l-1.95,14.11c-.55,16.96,5.28,38.78,16.57,50.29,7.1,7.24,15.45,12.81,24.97,16.24,4.64,1.67,10.66,1.59,15.76,1.18,3.47-.28,6.99-4.53,8.21-7.63l5.16-13.21c3.35-18.61,4.21-37.52.87-56.25-3.75-21.07-5.18-41.05-6.15-62.32l-3.24-34.77-4.42-32.12-8.96-104.04-6.67-38.53c-1.96-11.31-2.2-22.14-3.42-33.49l-5.93-54.99-2.73-29.2c-14.73-2.08-27.84-9.94-37.79-21.47-13.38-15.52-17.8-41.81-14.61-62.62.95-6.17,5.41-11.91,8.41-17.1,4.6-7.98,10.82-13.54,18.8-17.73l13.37-7.03-2.19-27.43c-8.19-7.09-16.81-11.88-25.64-17.8l-9.12-6.1-28.41-13.83-32.27-17.56c-9.8-5.33-18.02-12.36-27.31-19.23-.76,16.02-4.67,30.36-8.53,45.28-2,7.77-5.45,14.28-7.66,21.94l-5.19,17.95-5.68,21.56-5.49,21.47c-4.55,17.8-9.4,34.77-8.16,53.19l2.61,38.64,3.35,27.19,7.7-4.58,14.22-9.68,19.83-14.59,1.91,1.83.28.87,7.67-18.98,4.19-8.2,8.78-12.24c3.52-4.91,7.35-8.64,10.3-14.2-6-1.06-9.51,1.02-14.32,2.44-10.71,3.17-20.63,7.23-30.57,12.68-3.25,1.78-6.93,3.75-10.59,1.9-2.05-1.03-3.35-6.34-1.91-8.5l23.14-34.66c5.02-7.52,16.26-10.65,13.82-11.96l-3.04-1.63c-11.3-6.07-22.07-11.16-33.96-15.95-1.09-.44-2.81-2.52-3.07-3.63-.31-1.3,1.31-4.2,2.58-4.77l19.25-8.7c12.32-5.57,34.45-7.22,49.6-7.27,3.61-.01,8.02-1.33,11.87-2.27,1.54-4.74-2.72-8.32,1.26-12.43l-9-2.48c-1.07-.3-2.57-3.12-2.29-4.15s1.58-2.84,2.56-3.49l8.11-5.42c5.16-3.44,12.11-3.33,16.62.66-8.69.2-15.93,1.53-21.95,8.28l14.1,5.72c.61.25,1.71,1.44,1.92,1.97.28.71-1.44,2.07-2.23,2.16l-6.07.67c2.71,4.14,4.2,9.91.35,13.07-3.43,2.82-9.86,4.26-14.53,4.35l-28.39.56c-9.22.18-17.79,2.62-25.86,6.54l-13.59,6.61c13.41,5.54,24.74,10.45,36.85,16.79,3.07,1.61,4.65,5.6,4.2,8.97l-6.26,3.29-10.92,12.33-8.38,12.75-12.13,16.6c6.55-1.26,11.92-4.1,17.89-7.08,7.42-3.7,15.38-4.85,23.46-7.68,4.84-1.7,11.93-5.47,16.11.41,2.24,11.09-15.74,24.55-22.64,40.36l-7.54,17.26c-5.62,12.87-3.98,27.19-3.7,40.78,2.54-3.42,3.79-6.23,5.1-9.56,9.58-24.39,20.72-31.95,39.96-48.16l.78-3.72c.17-.8,2.69-.78,3.56-.94,2.66-1.76,5.7-2.4,8.07-.9,7.94,5.03.66,14.33.09,29.39-.92,24,.99,47.3,4.41,70.96l3.37,14.92,5.98-15.4,10.23-24.49,10.07-24.07c3.16-7.55,7.79-18.75,14.4-17.52-5.34,7.4-8.49,13.89-11.42,21.5l-8.23,21.35-6.04,18.09-12.84,28.19c-.89,1.95-2.09,3.8-4.43,3.4-3.8-11.3-5.64-23.18-7.24-34.92l-1.81-13.24c-1.73,9.53-1.02,18.93-.64,28.9.33,8.79,2.62,16.2,5.39,24.43l9.21,27.35c1.88,5.59.66,12.31,1.11,18.28.48,6.3.11,12.11-1.05,18.21-1.29,6.83-5.92,15.05-10.35,16.44-1.23.39-3.6-1.56-4.3-3.1,2.76-17.59,2.58-34.51-1.81-51.59-1.2-4.05-2.16-7.69-5.94-10.76-2.64,13.21,11.11,35.69,2.4,39.44-1.2.52-4.41-.8-4.85-2.14l-5.02-15.36-3.37-17.77-2.82-19.19-4.48-25.97c-3.88-22.48-4.53-57.1,5.04-78.04,3.83,3.23-1.64,11.51-1.72,23.14-.13,20.01-.25,39.46,1.87,59.38l5.6,30.82c1.87,10.27,1.56,27.54,8.77,39.68l-5.34-22.33c-1.02-4.28-1.15-10.02.9-13.84.72-1.35,4.52-1.38,5.77-.74,6.62,3.42,9.66,21.35,10.55,32.19l-.3,30.5c6.54-8.01,6.64-19.99,6.15-30.74-.32-6.92-.11-13.88-2.38-20.46l-11.79-34.23c-3.1-9.01-2.62-19.36-2.34-28.91l.83-28.85-.71-34.72c-.12-6-.55-11.74-1.92-17.45l-19.88,17.7c-18.33,16.32-21.03,45.69-25.76,52.64-.68,1-3.74.74-4.54-.01s-1.35-3.11-1.36-4.57l-.08-24.11c-.04-10.14,1.13-19.7,3.19-29.64l-.5-.83c-9.75,8.55-20.32,16.09-31.56,23.53l-11.04,5.6,4.38,23.7c3.72,12.47,6.74,24.17,8.98,37.09,1.71,9.82,3.84,20.5,9.44,28.83,5.48,8.15,10,15.62,13.78,24.76,3.07,7.41,6.59,14.41,6.84,22.64l.08,2.54c.02.75-2.92,1.15-3.4.62l-6.86-7.65c.73,6.34,4.62,11.16,8.69,15.62l19.64,21.58,20.9,20.42c.25.5,1.28,2.27.89,2.66l-2.29,2.26c-.44.43-1.75,1.53-1.34,1.91.47.44,1.84,1.71,1.47,1.36,6.35-3.01,10.92,5.15,14.13,12.39,1.13-5.29-1.17-7.79-4.49-10.9l-6.85-6.42c8.95-3.24,18.93,5.37,24.41,14.94l5.19,9.07-1.17,1.64c-3.88-4.68-7.07-8.47-11.86-11.88l7.44,12.39c.89,1.47.75,4.75-.29,5.6l-8.5-15.02c-.92,11.46,9.87,18.17,9.6,19.03l-.76,2.43-8.63-4.53,3.76,7.56-1.6.85-10.49-14.55-1.17,2.54c-.25.55-1.61-.7-2.18-1.27-6.54-6.53-7.94-15.78-9.56-24.2-2.09.44-3.89.25-4.58-.54l-11-12.45-4.7-5.32-.5.82ZM929.33,378.57c2.15-14.64.57-28.35-4.15-42.32-2.75-8.13-6.27-16.11-12.07-22.39-3.82-4.13-9.47-4.05-13.85-.96-5.31,3.75-9.75,9.38-10.88,15.89-1.49,8.54-2.26,16.58-2.29,25.06l-.11,31.62c-.05,14.33,1.57,27.91,3.23,42.71,23.09-12.54,36.25-23.18,40.13-49.61ZM896.74,552.09l-3.33-36.98c-10.44-3.59-15.85-12.88-16.22-23.61-.27-7.89,5.01-14.79,11.11-19.89l-.66-7.59-2.44-28.03-4.71,3.05-5.35,3.18c-7.11,5.89-13.76,12.52-19.06,20.15-7.15,10.31-8.44,28.81-6.19,41.47,1.76,9.91,6.42,19.51,12.63,27.34,7.05,8.88,23.81,22.58,34.21,20.91ZM902.35,552.27c5.75-1.41,10.48-4.69,14.75-8.54,9.23-8.34,14.71-19.18,14.08-31.89-.49-9.79-2.67-19.06-6.81-28.25-4.85-10.77-17.72-14.66-29.38-10.03l.81,9.81,2.37,28.89,5.89-6.55c2.65,4.71-1.82,7.82-5.61,10.08l2.04,19.78,1.87,16.7ZM890.5,484.76l-1.15-6.46c-5.6,5.18-7.58,11.25-6.63,18.73.7,5.45,3.74,11.84,10.68,14.43l-2.91-26.7ZM823.69,546.87l1.56-11.81-4.04.94,2.48,10.88ZM737.43,700.07c0-4.84-2.59-6.66-4.45-9.37l-14.87-21.79c-8.1-9.8-15.53-20.16-26.45-27.1-6.85-4.35-13.84-7.93-21.35-10.63,6.52,7.98,12.95,13.62,19.62,20l23.5,22.51,15.89,16.72,8.11,9.65ZM783.47,758.69l-8.06-12.07c6.87,3.97,11.89,9.89,16.87,15.98l9.21,11.25,2.48-2.29-14.98-15.16-23.36-24.02c.43,3.78,1.69,8.26,3.78,10.86l13.12,16.29.93-.83ZM813.67,796.67l-1.69-3.72v2.99c0,.52,1.68.84,1.69.72ZM815.04,797.92l-.02.63v.65l.02.63.02-.63v-.65l-.02-.63Z" stroke="#000" stroke-miterlimit="10" stroke-width="5"/><path d="M1192.96,896.72c6.46,17.6,12.38,35.56,21.81,52.39l19.3,28.68,15.29,15.34,17.75,11.9,19.41,9.6,13.28,6.78c8.5,4.34,16.64,7.14,25.92,8.69,5.61.93,9.88,2.82,15.33-1.36,1.88-1.44,6.79-3.4,9.06-2.36,4.22,1.93,5.03,9.76,1.56,12.28-13.93,10.13-20.89,11.4-36.61,11.33l-52.29-.25-30.1-.41-24.13-1.81c-10.17-.76-19.14-4.11-26.85-11.03-1.55-9.66,7.77-15.51,12.1-27.09,1.62-4.33-.11-10.36-.49-14.91l-1.36-16.26c-2.12-25.34-10.14-48.87-14.69-73.82-5.17-28.36-9.65-55.6-18.98-83-15.11-44.4-32.95-86.89-52.72-129.31l-17.49-33.47-8.11-16.82-15.89-26.66c1.04,12.3,5.64,33.84.83,37.47-.8.6-3.08-.86-3.62-1.78l-6.66-11.53-16.01-25.32c-5.57-8.81-11.24-17.13-15.4-26.72l-13.9-32.09-6.82-18.05c-2.42-6.4-3.38-12.65-7.04-19.24l1.6,28.69,3.6,31.58,2.05,15,5.25,29.42c2.75,12.69,6.33,24.54,11.96,36.26l-.64,2.93c-.18.83-2.81-.6-3.33-1.48l-15.6-27.11-25.14-47.86-20.46-43.66c-4.29-9.15-7.09-19.12-9.09-29.03l-2.09-19.56,2.39-.81,2.83,16.07,8.02,26.59c6.63,17.71,14.75,34.29,23.36,51.11l12.7,24.8,6.23,11.12,7.03,13.07-5.59-27.01c-4.04-19.52-6.66-38.43-8-58.33-1.44-17.87-2.1-35.08-1.78-52.99l1.1-2.54c.29-.68,2.4.13,3.14.59l5.25,20.45c5.2,20.25,13.31,38.65,21.75,57.73,6.39,14.44,13.38,27.36,21.78,40.7l12.58,19.97,5.59,8.39c0-9.63-.96-17.52-2.95-26.31l-8.27-36.64-3.31-17.92c-.14-.77.91-3.17,1.68-3.24,3.83-.37,3.14,5.45,8.33,4.67l19.78,38.68,5.03,10.12,15.33,35.76,2.97,7.43,14.44,35.56,12.12,28.29,18.17,52.87,2.28,7.24,9.81,31.26,8.61,22.08,19.88,62.73,20.2,72.51,5.59,29.38c.94,4.93,0,9.58-2.68,13.86s-4.65,11.36-8.88,13.55l-13.73,7.09c.28,2.09,2.03,6.2,3.84,6.88,6.75,2.54,12.83,3.8,19.81,4.44l26.48,2.42,33.52-.05,42.19-.59,11.88-.31c8.19-.21,15.53-1.88,21.9-6.83l2.54-1.97c.76-.59-.06-3.64-.48-4.32l-8.21,4.08c-4.87,2.42-9.71.69-14.63,0-9.79-1.38-18.12-4.27-26.96-8.82l-36.78-18.92c-9.39-4.83-17.49-11.71-24.81-19.35l-6.25-7.99-10.93-15.08c-8.14-11.24-14.2-23.49-19.01-36.52l-8.33-30.77-.25-.55-.47-2.4c-.51-.25-.66-.29-.66-.47l.03-3.04.74,2.52.38.51.48,2.4.58.49Z" stroke="#000" stroke-miterlimit="10" stroke-width="5"/><path d="M1183.2,866.98l-18.13-56.83-14.45-48.1-3.54-10.88-9.18-29.18c-6.57-20.9-15.58-39.69-24.85-59.45l-20.51-43.77-9.39-23.18-8.1-22.61-6.15-14.96-13.04-32.97-7.63-18.37-14.06-33.48c7.74,3.59,11.96,8.83,17.38,13.96,13.36,12.66,25.65,25.98,40.86,36.6,13.99,9.77,27.57,19.14,44.44,24.91-5.3-14.2-13.13-25.65-21.63-37.15l-9.37-12.68c-.58-.79-.39-3.22-.02-4.13.44-1.09,3.85-1.59,4.95-.94,14.26,8.32,26.56,17.74,39.47,27.72,4.25,3.28,9.99,5.56,15.3,5.81,11.98.56,1.16-30.12-5.75-42l-8.85-15.22c-4.18-7.18-10.61-13.54-18.06-17.23l-14.96-7.42c-1.46-.73-3.85-3.26-4.44-4.74s.3-5.15.81-6.05l15.06-3.71,30.53-5.74,23.87-3.11,21.13-1.85c6.95-.61,14.22,2.03,20.86,3.86s12.14,5.34,20.16,5.34c-6.27-9.64-14.02-17.98-23.69-23.89-13.25-8.08-27.06-14.12-41.28-20.11l-21.65-9.12c-1.8-.76-3.73-3.19-3.91-4.75-.2-1.79,1.4-5.04,2.94-5.33l9.26-1.7c17.4-4.87,34.55-7.32,52.73-10.23-1.53-1.33-4.01-2.27-6.41-2.76l-13.32-2.74-32.34-5.12c-11.99-1.9-23.27,1.91-34.9-1.77-5.54-1.75-12.67-3.67-15.61-9.35-7.61-14.69,14.4-40.79,34.06-49.95l21.02-9.8c-15.98-5.25-31.97-5.55-48.54-5.54-14.05,0-27.44.97-41.32,2.63l-15.51,1.86-16.12.67c-5.78.24-2.89-9.8,2.85-15.58l10.5-10.57,18.58-17.07c-16.25,3.53-45.98,16.02-57.47,25l-11.03,8.62-1.18-11.17.88-37.32-.17-17.66-6.36,20.61-13.54,48.79c-2.26,8.12-3.56,15.92-2.65,24.43.31,2.9-.33,4.91-3.45,6.68-3.84-27.27,5.36-48.14,12.33-71.77l8.55-28.95c.71-2.42,3.51-6.45,6.14-6.22,2.74.78,4.38,5.99,4.35,9.1l-.49,43.11.88,11.23c7.85-7.56,16.89-11.66,26.29-16.39,10.09-5.07,19.46-8.71,30.72-11.66,10.6-2.77,24.48-12.63,24.46-8.43,0,.78-.52,3.14-1.1,3.61l-8.28,6.7-22.05,20.32c-6.43,5.92-11.85,12.21-16.87,19.49,2.46.54,5.66,1.14,7.68.91l37.1-4.28c17.42-2.01,34.76-1.87,52.23-.9l25.95,3.78,2.62,3.28c1.38,1.72-4.01,6.53-10.58,9.75l-11.69,5.72c-4.9,2.4-10.57,6.24-14.42,10.16l-12.91,13.16c-5.13,5.23-9.24,12.01-7.68,19.95.5,2.53,4.69,6.52,7.44,6.77l24.73,2.25c23.57.87,46.62,3.61,68.95,11.31,1.81.62,4.04,2.85,4.42,4.25.42,1.57-2.39,4.7-4.27,5.03l-24.36,4.3-25.42,6-10.56,3.21c17.83,9.07,34.43,11.29,50.84,22.24l24.79,16.54c4.58,3.06,15.72,16.66,11.93,22.17-2.35,3.41-7.96,3.24-12.87.79-9.37-4.67-18.63-7.09-29.13-8.5-8.48-1.14-16.93,1.23-25.37,1.66-13.38.68-25.82,3.31-38.86,6.67l-15.56,2.03c-2.27.3-5,2.01-7.23,3.55,21.37,8.53,35.74,25.31,43.98,45.82l6.62,16.48c3.74,9.31,6.83,23.27.57,28.37-2.65,2.16-6.84,3.21-10.04,2.07l-11.2-4c-7.74-2.76-14.06-6.2-20.38-11.56l-16.44-13.95c8.6,10.22,31.46,43.01,25.68,49.38-1.05,1.16-4.53,1.88-6.14,1.07l-18.71-9.36-8.65-4.77-21.17-14.45c-6.81-4.65-13.44-10.19-19.35-16.07-7.59-7.57-13.42-16.25-22.31-23.08l30.52,73.46,4.8,11.54,7.02,18.95c11.35,30.63,25.81,59.25,39.14,89.04l16.97,44.65,15.75,47.4,8.89,29.73,17.56,66.53.26.55,1.47,6.22.45.57v3.04s-.75-2.56-.75-2.56l-.52-.54-1.47-6.16-.35-.53Z" stroke="#000" stroke-miterlimit="10" stroke-width="5"/><path d="M603.48,54.39c.13,1.84-1.06,4.79-2.88,6.73-1.68,1.78-4.58,2.46-6.75,1.73-1.81-.61-3.2-4.13-2.8-6.21l1.81-9.44c-2.96-.93-6.31-4.87-4.96-7.75.61-1.4,4.01-2.42,6.04-2.7-.02-3.58-.37-8.74,2.52-11.48,1.49-1.41,5.59.92,5.59,3.91l-4.79-.4.23,10.61-6.78,1.05c.4,1.38,3.66,4,4.93,3.54l4.59-4.09c-.11-5.86,3.39-12.33,9.68-14,1.19,1.39,1.59,5.42,1.61,7,1.93.06,5.53.67,6.79,1.94,1.66,1.66.15,5.48-1.29,7.34,2.35,1.5,5.75,4.04,3.61,7.73l-8.08-.78c.3-1.41,2.23-2.53,3.69-2.55,2.06.24,1.74-.27.25-.67l-7.03-2.63,5.46-6.81-6.46,1.32c-1.24.26-1.02-4.21-.85-5.88-1.52-.37-4.64,3.97-3.45,5.28,1.6,1.75,3.82,3.86,3.64,5.36-.21,1.78-1.07,4.04-1.93,6.65-.46,1.41,4.26,1.55,5.44.29.28-.38,1.79,2.35,1.2,2.56l-4.35,1.61c2.8,6.11,7.52,12.28,13.32,16.98,6.82-7.56,15.38-8.96,23.71-4.82l17.79,8.84c7.77,3.86,11.65,11.15,13.71,19.01l5.21,19.9c2.68,10.23,5.9,19.76,9.74,29.69,2.27,5.86,6.49,12.92,11.17,17.32,15.79,14.87,34.02,26.38,53.64,35.38l13.51,4.83,17.55,6.97,7.49-10.67,12.28-17.52,5.4-9.89c1.84-3.36,5.26-5.24,8.94-3.08,21.61,12.71,44.14,22.42,68.47,28.92,5.06,1.35,8.69,3.68,12.74,6.59l13.47,9.7c3.1,2.23,6.57,5.18,8.7,8.52,3.86,6.07,7.65,11.8,9.35,18.89-3.68-3.58-5.98-6.66-8.46-10.11-3.37-4.69-7.24-8.52-11.63-12.46s-8.35-7.8-13.83-10.08l-20.21-8.39c-20.98-8.71-41.6-16.67-61.51-28.3l-18.56,27.66-9.09,11.52,27.95,12.87,43.19,21.91,30.92,18.34-4.33-6.44c-.45-.66-.51-2.95-.18-3.65.42-.88,2.65-2.27,3.71-2.12l16.68,2.26-1.34-8.76c-.23-1.49,2.87-3.97,4.34-3.5,4.62,1.48,9.6,3.06,12.91,6.24l12.62,12.1c-1-13.19-1.92-24.97.06-37.45,1.17-7.37,3.99-16.26,7.84-15.78,4.62.58,8.29,14.64,11.41,22.92l25.03,66.62c3.51,9.33,4.86,18.89,2.71,28.81-1.73-15.49-6.54-29.29-12.23-43.89l-16.68-42.81c-3.75-9.63-5.62-18.75-10.52-28.26l-2.83,13.21c-2.73,12.78-.79,24.73,2.43,37.32l1.23,8.14,1.54,3.61c.44,1.03-3.56,2.4-4.36,1.54l-16.56-17.99c-4.52-4.9-9.08-8.63-15.35-12.22-3.5,6.85,3.83,13.75,11.58,17.93,2.16,1.17,5.5,3.98,5.63,6.2-3.07,4.42-10.13-5.57-21.97-9.85-5.31-1.92-9.37-2.67-16.17-3.88,1.87,4.03,3.25,5.81,5.67,8.9l-1.51,1.56,27.3,20.02,16.72,12.09c8.03,5.81,15.41,11.88,21.85,19.39,4.75,5.53,10.37,10.12,14.79,15.86,8.8,11.45,17.87,22.28,24.41,35.07l11.08,21.66c3.14,6.13,7.3,11.71,8.17,19.06l-21.19-34.79-14.06-21.48c-10.07-15.39-23.23-27.52-36.71-40.04-11.55-10.73-23.62-19.48-36.22-29.06-24.99-19.01-51.55-33.93-79.63-47.84l-18.06-8.94c-17.67-8.75-35.51-15.92-54.24-22.34-11.34-3.88-21.4-8.85-31.18-15.77l-23.06-16.32c-3.37-2.39-5.16-5.72-7.32-8.94-6.59-9.85-12.14-19.47-15.57-30.76-2.25-7.42-4.31-14.4-5.63-22.07-2.03-11.76-4.77-25.23-14.68-30.18l-17.95-8.97c-6.48-3.24-12.92-2.41-18.06,2.93l-4.94,2.52-6.71,4.91c-5.08,3.72-11.92,5.19-17.16.68,8.74-.39,16.16-2.64,21.22-8.34-5.5-5.35-10.16-11.51-13.65-17.73l-.53.85ZM605.13,44.99c.01-2.73-.42-3.73-1.37-4.93.2,1.91.66,3.41,1.37,4.93ZM601.14,47.23l-.83-4.32c-.76,1.11-.7,3.22.83,4.32ZM603.89,52.76c-1.22-2.48-3.36-3.89-7.16-5.21l-2.1,9.42c-.12.52,1.72,2.9,2.06,2.5l1.91-2.26c1.47-1.75,2.67-3.22,4.21-3.85l1.08-.59Z" stroke="#000" stroke-miterlimit="10" stroke-width="5"/><path d="M698.53,195.45l5.75,9.51c-3.98-2.9-6.72-6.74-10.38-10.63l-5.5-5.86c-14.75-15.7-30.92-8.87-48.28.37-14.6,7.78-32.26,8.78-47.32.72-8.67-4.64-15.51-14.2-19.02-23.4-2.41-6.33-3.55-12.82-4.85-19.37-2.66-13.38.61-32.78,5.52-45.62,7.02-18.36-4.39-22.74.32-30.99,2.08-2.18,6.47-.03,8.73,1.46l10.55,6.98c-6.41,4.25-9.78-8.16-18.96-6.85,2.12,6.64,6.13,13.53,4.91,20.71-3.63,21.39-13.13,34.49-5.19,63.82,3.37,12.46,9.72,24.76,22.02,30.6,15.7,7.45,33.64,3.65,47.58-6.2,9.1-6.43,17.97-8.59,28.75-5.99,8.05,1.94,14.27,5.48,19.44,12.57l5.94,8.16Z" stroke="#000" stroke-miterlimit="10" stroke-width="5"/><path d="M801.81,1053.52l-8.82-1.48c4.83-2.44,6.86-3.61,9.69-5.75,4.3-3.25,10.62,1.09,15.01,1.31,6.22.32,9.13-6.02,12.83-10.2,2.04,4.92-.73,8.88-3.73,12.71l4.87,1.31,1.83.49c.53.14-.37,2.3-1.05,2.33l-15.56.56c-5.46.2-9.83-.39-15.08-1.27Z" stroke="#000" stroke-miterlimit="10" stroke-width="5"/><path d="M1057.23,308.83c-1.17,6.88-4.97,10.2-10.97,11.17-3.08.5-6.57.34-8.2-2.41l-3.38-5.69c-1.87-3.14-.96-7.37,1.22-9.66,2.84-2.99,6.23-2.93,10.34-2.93,5.52,0,12.05,3.29,10.99,9.53ZM1052.06,305.53l-4.38-1.73c-4.09-1.62-9.4,1.85-9.32,5.13.02.72,1.62,2.37,1.22,2.84l-1.72,2.01c2.43,1.77,5.52,3.17,8.37,1.94,4.78-2.05,8.02-9.33,5.82-10.2Z" stroke="#000" stroke-miterlimit="10" stroke-width="5"/><path d="M966.32,458.65c-.52.52-3.39.5-3.6,1.04l-1.37,3.56c-2.6-.52-7.9-2.75-9.66-5.59-3.09-4.98-.8-11.27,3.23-14.14,4.88-3.47,11.84-4.2,14.7,1.81,1.82,3.83-.61,10.64-3.3,13.31ZM966,450.46c.74-1.2-.55-4.78-1.86-5.14-1.12-.32-3.66-.14-4.78.41-3.06,1.5-5.32,4.13-4.65,7.08.58,2.55,3.42,5.16,6.41,5.58l4.88-7.92Z" stroke="#000" stroke-miterlimit="10" stroke-width="5"/><path d="M831.43,958.69c-5.58,1.4-6.81-4.34-5.93-7.86,1.59-6.33,2.69-12.13,2.89-18.51l.36-11.79c.04-1.38,1.45-3.58,2.36-3.82l1.45,13.65-2.33,15.16c3.72.87,4.26,3.84,4.5,6.44.17,1.89-1.33,6.23-3.29,6.73Z" stroke="#000" stroke-miterlimit="10" stroke-width="5"/><path d="M1070.04,374.33c-3.88,1.38-6.74-.03-8.56-4.02-.77-1.68-1.7-5.06-1.19-6.89.45-1.61,2.89-3.61,4.85-4.69,4.34-2.38,9.23,1.01,10.6,4.79,1.74,4.8-1.11,9.17-5.7,10.8ZM1066.63,362.71c-2.88,1.08-2.84,4.09-1.63,5.89.9,1.34,3.52,2.59,4.73,1.85,1.86-1.13,3.07-3.98,2.57-5.5-.63-1.93-3.3-3.14-5.67-2.25Z" stroke="#000" stroke-miterlimit="10" stroke-width="5"/><path d="M992.14,293.26l5.41-1.09c4.84-5.07,6.48-13.12,2.36-19.27-1.2-1.79-2.05-4.21-2.38-6.16,6.04,1.26,7.83,6.37,9.16,10.66,2.2,7.09-3.4,16.69-8.09,18.5-1.54.59-3.78-.18-6.47-2.63Z" stroke="#000" stroke-miterlimit="10" stroke-width="5"/><path d="M1004.73,321.29c-2.99-.59-6.07,1.36-6.8,3.21l3.87,4.26c-2.1.92-4.52,1.15-6,.52s-2.76-4.32-2.12-6.2c.99-2.94,4.4-5.71,6.86-6.11,3.31-.54,7.71.27,9.62,3.28,1.04,1.63.4,5.28-.45,6.73-1.01,1.73-3.95,3.3-5.73,2.87-.38-.09-2.06-1.51-1.75-1.75l1.93-1.5,2.59-2.01c.62-.48-1.15-3.12-2.01-3.29Z" stroke="#000" stroke-miterlimit="10" stroke-width="5"/><path d="M633.29,57.8c-3.15,3.97-9.83-3.28-18.55,4.6l4-7.12,5.09-8.39c4.65-1.09,9.2,2.76,10.35,6.82.27.94-.3,3.35-.9,4.1ZM629.73,55.72l-3.56-5.27-3.68,4.12,7.25,1.15Z" stroke="#000" stroke-miterlimit="10" stroke-width="5"/><path d="M981.74,519.75c1.41,5.51-4.63,10.49-9.35,8.98-3.23-1.04-4.87-4.69-4.66-7.52s2.01-6.02,5.3-6.66c3.02-.59,7.83,1.72,8.72,5.21ZM977.08,519.71l-3.19.47c-.83.12-1.89,1.89-1.8,2.74s1.38,3.06,2.13,2.65c4.08-2.18,3.63-5.97,2.86-5.86Z" stroke="#000" stroke-miterlimit="10" stroke-width="5"/><path d="M1086.13,468.35c1.68,3.82-3.11,9.76-6.89,10.04-5.36.39-8.84-7.51-5.91-11.6,2.56-3.58,10.78-3.04,12.8,1.57ZM1079.85,473.46c.9.71,2.82-2.14,2.61-3.29-.17-.96-3.21-1.63-4.34-1.53-.72.07-1.07,2.62-.49,3.07l2.22,1.75Z" stroke="#000" stroke-miterlimit="10" stroke-width="5"/><path d="M1045.43,422.69c-.76,1.24-2.21,2.96-3.3,3.29-1.28.38-3.9-1.19-4.99-2.16-3.21-2.86-3.64-5.74-1.48-8.77,1.99-2.8,6.07-3.38,8.48-1.63,3.06,2.22,3.29,5.99,1.29,9.27ZM1041.66,421.66l.87-5.04-2.84,2.02c-.49.35.79,2.15,1.97,3.01Z" stroke="#000" stroke-miterlimit="10" stroke-width="5"/><path d="M1028.16,337.29c-1.23.85-4.51.71-5.53-.19-1.16-1.03-2.26-3.29-2.56-4.86-.77-3.97.6-6.57,3.7-7.63,3.83-1.31,6.24.29,7.75,4.12,1.27,3.23.35,6-3.36,8.56ZM1025.05,333.78c1.7-.03,2.67-3.45,1.8-4.83-.59-.54-2.77.53-3.45,1.31-.54.62.77,3.54,1.65,3.52Z" stroke="#000" stroke-miterlimit="10" stroke-width="5"/><path d="M836.18,831.15c3.48,6.52-1.8,13.63-4.79,12.94-1.82-.42-3.46-2.7-3.69-4.59s2.21-3.37,4.42-3.9c-1.05-5.35-2.34-9.14-1.47-14.79l5.52,10.33Z" stroke="#000" stroke-miterlimit="10" stroke-width="5"/><path d="M974.82,295.49c.63.04,1.39,2.8.8,3.02s-2.04.67-2.74.72c-8.29.59-14.66-5.2-14.89-13.3-.13-4.55.21-10.81,5.7-11.46-2.99,6.5-4.06,13.32.41,18.11,1.89,2.02,7.83,2.71,10.72,2.91Z" stroke="#000" stroke-miterlimit="10" stroke-width="5"/><path d="M1018.09,457.69c-.35-1.14-.43-3.92.39-4.68.96-.89,3.5-2.04,4.96-2.05,3.21-.02,6.78,2.18,7.09,5.03.33,3.05-2.07,6.18-4.71,6.87-3.96,1.03-6.42-.86-7.73-5.18ZM1023.73,454.84c-.75-.24-1.81,2.92-1.04,3.06l3.22.61c.77.15.9-2.67.15-2.91l-2.33-.75Z" stroke="#000" stroke-miterlimit="10" stroke-width="5"/><path d="M1080.22,300.73c-.58-.35-2.8,2.16-3.18,3.78-.31,1.33,1.58,2.9,3.58,4.82-.32,1.09-3.68,1.49-5.13.7-1.88-1.01-2.62-3.72-2.41-6,.43-4.71,2.3-7.67,7.35-7.59,1.21.02,3.58.87,4.26,1.86.78,1.16.41,4.61-.28,5.87-.4.74-3.27,2-3.41,1.16l-.78-4.6Z" stroke="#000" stroke-miterlimit="10" stroke-width="5"/><path d="M1123.76,398.61c2.03,3.34.31,7.39-1.78,9-2.33,1.79-6.49,1.96-8.81-.94-.21-2,.86-6.1,2.24-8.01,1.61-2.21,7.02-2.24,8.35-.05ZM1118.06,401.76l-.02.63v.65l.02.63.02-.63v-.65l-.02-.63Z" stroke="#000" stroke-miterlimit="10" stroke-width="5"/><path d="M852.38,408.1c-.53-.56-3.35-.03-3.39.79l-.19,4.34c-1.68-1.96-3.85-3.37-6.18-4.11-.68-3.96,4.14-6.4,7.93-6.14s7.46,3.95,7.06,8.12c-.12,1.24-2.23,3.47-3.31,3.26s-2.7-1.54-3.38-2.36l2.94-1.24c.48-.2-.77-1.91-1.47-2.66Z" stroke="#000" stroke-miterlimit="10" stroke-width="5"/><path d="M1098.22,462.57c-3.62,1.93-7.06.46-8.26-2.9-.88-2.46-1.45-5.96,2.26-7.91,2.34-1.23,6.3.67,7.5,2.92s.71,6.71-1.5,7.89ZM1094.95,456.53l-1.46,2.25c-.16.25.87.27,1.08.06l.94-.95c.21-.21-.38-1.64-.56-1.36Z" stroke="#000" stroke-miterlimit="10" stroke-width="5"/><path d="M827.73,471.55c3.77.28,5.42-.37,8.99-1.64-.42,3.82-2.88,5.89-6.44,6.04-2.82.11-6.69-2.68-6.29-5.92.71-5.71,8.45-7.23,11.53-5.47.39.22,1.39,1.97,1.08,2.1l-2.14.87c-2.62,1.06-4.05,1.63-6.72,4.02Z" stroke="#000" stroke-miterlimit="10" stroke-width="5"/><path d="M1136.17,363.5c2.49,1.39,1.41,9.91-2.81,10.54-4.83.72-7.24-6.95-6.53-8.5,1.13-2.5,5.87-3.98,9.35-2.04ZM1131.18,366.49c-.52.09-1.36,1.79-.86,1.96l2.14.74c.5.17.44-1.74.1-2.15-.23-.27-1.04-.61-1.38-.55Z" stroke="#000" stroke-miterlimit="10" stroke-width="5"/><path d="M1082.71,438.76c-2.74,2.37-6.54,1.02-7.96-1.58-1.52-2.8-.58-7.44,3.48-7.33,1.61.04,4.52,1.63,5.49,2.79s.21,5.06-1.01,6.12Z" stroke="#000" stroke-miterlimit="10" stroke-width="5"/><path d="M808.6,445.96l9.19.63c.78.05,2.63-1.32,2.59-2.05s-1.44-2.56-2.21-2.65c-2.99-.36-6.98,1.55-10.5,3.21,1.3-5.78,8.52-7.83,13.14-4.44.99.73,2.32,2.69,2.38,3.75s-1.6,3.28-2.58,3.7c-3.95,1.71-8.81.45-12.01-2.14Z" stroke="#000" stroke-miterlimit="10" stroke-width="5"/><path d="M590.91,150.63l-11.85-23.3c-.26-.52-.89-2.18-.51-2.25l2.05-.34c5.54,7.52,9.98,16.01,10.3,25.89Z" stroke="#000" stroke-miterlimit="10" stroke-width="5"/><path d="M822.12,968.39c3.35,1.12,4.87,6.38,2.04,8.17-5.16-2.08-8.43-9.24-5.83-14.27.27-.53,2.52-.49,2.7-.07l1.09,6.17Z" stroke="#000" stroke-miterlimit="10" stroke-width="5"/><path d="M785.16,484.02l1.91-4.34-3.26,1.22c-.67.25-2.25-.52-2.15-1.22s.71-2.7,1.18-3.55c.82-1.5,4.39-1.67,5.5-.63,1.75,1.64,2.72,4.17,2.26,6.77-.16.9-1.64,2.95-2.55,2.95s-2.86-.95-2.89-1.17Z" stroke="#000" stroke-miterlimit="10" stroke-width="5"/><path d="M820.34,512.87l2.32-.87c.39-.15,1.13-1.26.74-1.41s-1.71-.56-2.11-.44l-2.47.74c-.47.14-1.35-1.59-1.15-1.98,1.14-2.25,7.42-2.11,8.33,1.27.28,1.03-.8,3.47-1.73,3.56s-2.99-.4-3.92-.87Z" stroke="#000" stroke-miterlimit="10" stroke-width="5"/><path d="M1186.96,878.24c.23,2.49.25,2.65.04.41-.1-1.05-.14-1.43-.04-.41Z" stroke="#000" stroke-miterlimit="10" stroke-width="5"/><path d="M1188.87,884.96c.23,2.49.25,2.65.04.41-.1-1.05-.14-1.43-.04-.41Z" stroke="#000" stroke-miterlimit="10" stroke-width="5"/><polygon points="563.97 372.48 564.61 372.48 565.24 372.49 564.61 372.51 563.97 372.51 563.34 372.49 563.97 372.48" stroke="#000" stroke-miterlimit="10" stroke-width="5"/><polygon points="1188.06 881.37 1188.08 882 1188.08 882.65 1188.06 883.27 1188.04 882.65 1188.04 882 1188.06 881.37" stroke="#000" stroke-miterlimit="10" stroke-width="5"/><path d="M737.43,700.07l-8.11-9.65-15.89-16.72-23.5-22.51c-6.67-6.39-13.09-12.02-19.62-20,7.51,2.69,14.51,6.28,21.35,10.63,10.92,6.94,18.35,17.3,26.45,27.1l14.87,21.79c1.85,2.71,4.45,4.53,4.45,9.37Z" fill="#fff" stroke="#000" stroke-miterlimit="10" stroke-width="5"/><path d="M890.5,484.76l2.91,26.7c-6.95-2.59-9.99-8.97-10.68-14.43-.96-7.49,1.02-13.55,6.63-18.73l1.15,6.46Z" fill="#fff" stroke="#000" stroke-miterlimit="10" stroke-width="5"/><path d="M813.67,796.67c-.01.12-1.69-.21-1.69-.72v-2.99s1.69,3.72,1.69,3.72Z" fill="#fff" stroke="#000" stroke-miterlimit="10" stroke-width="5"/><polygon points="815.04 797.92 815.06 798.55 815.06 799.19 815.04 799.82 815.03 799.19 815.03 798.55 815.04 797.92" fill="#fff" stroke="#000" stroke-miterlimit="10" stroke-width="5"/><polygon points="823.69 546.87 821.21 536 825.25 535.06 823.69 546.87" fill="#fff" stroke="#000" stroke-miterlimit="10" stroke-width="5"/><path d="M605.13,44.99c-.71-1.53-1.17-3.02-1.37-4.93.95,1.21,1.39,2.2,1.37,4.93Z" fill="#fff" stroke="#000" stroke-miterlimit="10" stroke-width="5"/><path d="M601.14,47.23c-1.53-1.1-1.6-3.21-.83-4.32l.83,4.32Z" fill="#fff" stroke="#000" stroke-miterlimit="10" stroke-width="5"/><path d="M1052.06,305.53c2.2.87-1.04,8.15-5.82,10.2-2.85,1.22-5.94-.17-8.37-1.94l1.72-2.01c.4-.47-1.2-2.13-1.22-2.84-.08-3.28,5.23-6.75,9.32-5.13l4.38,1.73Z" fill="#fff" stroke="#000" stroke-miterlimit="10" stroke-width="5"/><path d="M966,450.46l-4.88,7.92c-2.99-.41-5.83-3.03-6.41-5.58-.67-2.96,1.59-5.59,4.65-7.08,1.12-.55,3.66-.72,4.78-.41,1.31.37,2.6,3.94,1.86,5.14Z" fill="#fff" stroke="#000" stroke-miterlimit="10" stroke-width="5"/><path d="M1066.63,362.71c2.37-.89,5.04.32,5.67,2.25.5,1.52-.72,4.36-2.57,5.5-1.21.74-3.83-.51-4.73-1.85-1.21-1.8-1.25-4.81,1.63-5.89Z" fill="#fff" stroke="#000" stroke-miterlimit="10" stroke-width="5"/><polygon points="629.73 55.72 622.49 54.58 626.17 50.45 629.73 55.72" fill="#fff" stroke="#000" stroke-miterlimit="10" stroke-width="5"/><path d="M977.08,519.71c.76-.11,1.22,3.68-2.86,5.86-.76.41-2.04-1.8-2.13-2.65s.97-2.62,1.8-2.74l3.19-.47Z" fill="#fff" stroke="#000" stroke-miterlimit="10" stroke-width="5"/><path d="M1079.85,473.46l-2.22-1.75c-.58-.46-.23-3.01.49-3.07,1.14-.1,4.17.57,4.34,1.53.2,1.15-1.71,4-2.61,3.29Z" fill="#fff" stroke="#000" stroke-miterlimit="10" stroke-width="5"/><path d="M1041.66,421.66c-1.18-.86-2.46-2.66-1.97-3.01l2.84-2.02-.87,5.04Z" fill="#fff" stroke="#000" stroke-miterlimit="10" stroke-width="5"/><path d="M1025.05,333.78c-.88.02-2.19-2.9-1.65-3.52.68-.78,2.86-1.85,3.45-1.31.87,1.38-.1,4.8-1.8,4.83Z" fill="#fff" stroke="#000" stroke-miterlimit="10" stroke-width="5"/><path d="M1023.73,454.84l2.33.75c.75.24.62,3.06-.15,2.91l-3.22-.61c-.77-.15.29-3.3,1.04-3.06Z" fill="#fff" stroke="#000" stroke-miterlimit="10" stroke-width="5"/><polygon points="1118.06 401.76 1118.08 402.39 1118.08 403.03 1118.06 403.66 1118.04 403.03 1118.04 402.39 1118.06 401.76" fill="#fff" stroke="#000" stroke-miterlimit="10" stroke-width="5"/><path d="M1094.95,456.53c.18-.28.77,1.15.56,1.36l-.94.95c-.21.21-1.24.19-1.08-.06l1.46-2.25Z" fill="#fff" stroke="#000" stroke-miterlimit="10" stroke-width="5"/><path d="M1131.18,366.49c.35-.06,1.16.28,1.38.55.34.4.4,2.32-.1,2.15l-2.14-.74c-.5-.17.34-1.87.86-1.96Z" fill="#fff" stroke="#000" stroke-miterlimit="10" stroke-width="5"/></svg>