<?xml version="1.0" encoding="UTF-8"?><svg id="Calque_1" xmlns="http://www.w3.org/2000/svg" viewBox="0 0 841.92 1190.4"><path d="M562.68,657.84c2.4,6.58,5.73,14.36,5.04,22.12-.27,3.05-2.39,7.66-5.16,8.11-15.29,2.48-39.12-20.8-51.05-33.32l-21.53-22.59-28.52-30.92c-8.9-9.65-25.11-24.13-30.07-13.29-2.07,4.51-3.91,9.36-4.92,14.37l-12,59.72-5.6,20.3c-.44,1.59-3.34,3.48-4.79,3.65-7.91.9-8.97-22.11-8.91-34.76.12-25.26,3.06-49.67,6.54-74.68,1.57-11.32,3.62-33.46-2.29-37.57-5.01-3.48-16.37,6.89-21.82,14.39-12.46,17.15-24.15,34.71-35.2,52.65.08,15.25-1.36,29.43-3.91,44.44-8.97,52.93-20.08,104.48-33.15,156.59-8.27,32.98-17.54,64.58-27.74,96.9l-17.75,56.23-24.83,69.1c-9.5,26.43-19.35,51.65-31.49,76.87-5.36,11.13-11.21,21.42-19.11,30.72-3.42,4.04-8.29,6.13-13.2,5.76-4.34-.33-9.46-2.42-12.21-6.81-6.29-10.06-9.38-21.52-9.64-33.79-.58-27.49,3.23-54.54,11.55-80.7l9-22.7c3.4-8.56,9.68-16.01,17.2-20.8,5.51-3.51,12.23-2.03,15.31,3.41,2.24,3.96,3.72,8.58,4.11,13.22,1.41,16.44.78,32.5-2.93,48.52-2.82,12.16-11.28,29.17-20.29,26.99-2.68-.65-4.68-3.65-5.5-6.58-3.36-12.04-.57-23.68,4.58-34.9,1.79-3.91,4.69-7.47,9.51-7.83,6.36-.48,5.6,16.67.66,26.21-3.58-3.14,1.34-12.44-.07-22.37-3.71.7-4.98,2.89-6.34,5.83-4.76,10.23-7.1,20.79-4.47,32.02,2.15,9.2,13.24-1.9,17.11-17.44,4.47-17.89,5.48-36.03,2.9-54.28-.53-3.71-2.47-7.99-5.56-9.98-6.29-4.04-18.8,10.5-23.28,22.02l-7.25,18.61c-8,24.3-11.68,49.38-11.92,75.02-.15,15.65,4.74,41.08,17.48,41.78,3.91.21,7.82-1.68,10.44-4.93,5.71-7.09,10.45-14.47,14.61-22.79,14.24-28.53,25.57-57.38,36.09-87.59l30-86.11,19.5-62.94,21.37-78.57c12.89-47.38,21.87-94.81,30.13-143.16,2.23-13.04,4.35-24.89,4.11-38.72-10.08,13.83-19.82,26.17-30.83,38.71-9.59,10.92-18.92,21.25-31.22,29.27-15.42,10.06-32.59,17.18-50.34,21.35-9.54,2.24-18.34-2.79-20.05-11.78l-2.04-10.74c-.91-16.98,1.14-33.3,6.69-49.28l9.18-26.41,18.69-44.53c4.4-10.49,8.42-19.96,11.44-32.04-4.71,1.36-8.72,3.21-12.47,6.07l-18.48,14.12-9.33,7.08-13.19,8.86c-13.13,8.82-33.77,17.34-44.57,7.01-10.12-9.68-3.96-27.49,4.06-40.04,8.58-13.41,19.73-23.97,32.92-33.27,20.26-14.3,41.95-25.64,63.77-37.88-6.76-5.42-5.74-20.12-2.52-27.28l6.96-15.48c-37.07-8.99-74.35-10.03-111.1-17.09-6.13-1.18-11.77-3.53-15.13-9.15-1.13-1.89.6-6.45,2.4-8.05,6.33-5.62,13.62-8.63,21.8-10.99,54.59-15.74,118.01-15.61,174.84-9.79,5.14-19.1,12.47-30.58,26.76-43.65,3.35-3.06,12.91-7.1,17.3-4.45,1.69.78,2.47,1.66.58,1.56-9.55.05-15.87,5.68-21.53,11.81-9.26,10.01-15.54,21.75-18.73,35.45,5.5.75,10.34,1.04,14.14,4.75l-52.07-2.88-35.92-.67c-31.99-.6-83.5,5.04-113,16.54-4.65,1.81-8.39,3.93-11.56,8.34,4.95,4.15,10.45,5.57,16.76,6.41l43.98,5.86,15.67,1.85,22.69,2.19c14.46,1.4,28.45,3.74,42.49,7.17,5.85,1.43,10.62,5.98,15.38,9.54,3.66,2.75,7.46,7.6,6,12.69s-6.39,9.9-10.91,12.64l-14.44,8.79-25.57,13.86-24.52,13.69c-14.19,7.92-27.77,16.37-40.29,26.71l-12.25,11.81-7.58,9.66c-7.69,9.8-14.61,30.2-6.08,35.4,3.61,2.2,9.22,2.96,13.22,1.57l9.46-3.28c12.21-5.48,22.84-13,33.31-21.12l14.68-11.38c6.17-4.78,12.5-9.22,19.78-11.59,3.42-1.11,8.01.47,8.45,4.48.56,5.14-1.07,10.36-2.89,15.05l-5.13,13.28-19.7,46.41-8.7,22.17-6.07,18.85c-4.61,14.31-8.36,45.68.81,54.37,2.95,2.8,8.54,2.92,12.34,1.96,25.07-6.29,51.31-19.68,68.21-39.26l23.05-26.72,13.32-17.39c7.11-9.28,14.81-16.91,19.63-27.84,5.7-12.93,14.96-24.08,23.27-35.79,6.6-9.3,20.16-22.16,28.53-17.03,3.01,1.85,6.05,5.55,6.64,9.41,1.7,11.23.6,22.22-.72,33.53l-4.9,41.94-.74,10.66-.66,28.1c-.16,6.88.62,13.11,2.68,20.23l8-34.31,7.1-35.79c1.62-8.18,3.31-16.21,7.5-23.24,3.68-6.16,10.05-7.72,16.51-5.23,2.7,1.04,5.35,2.24,7.41,4.17l17.39,16.27,20.77,22.43,33.44,34.56c7.66,7.92,15.7,14.57,25.04,20.14,4.28,2.55,8.14,4.46,13.61,4.26-.07-6.98-1.41-12.74-3.89-18.95-8.18-20.45-16.21-40.37-22.75-61.5l-1.75-9.96c-.49-2.77,1.03-7.62,3.25-9.38,5.9-4.67,18.78-2.6,26.43.72l27.36,11.89,14.42,6.24c5.19,2.24,10.11,3.59,16.41,4.17-.01-5.22-1.58-8.92-3.86-13.15l-14.68-27.18c11.12,8.77,29.36,33.85,24.29,43.1-2.39,4.36-8.09,4.75-12.33,3.26l-17.23-6.06-10.41-4.43,11.51,39.06,24.03,97.7,22.48,95.47,7.64,28.76,8.48,41.71,8.17,42.35c3.26,16.89,6.87,32.59,11.25,49.2l14.65,55.55c4.01,15.21,10.73,29.16,18.54,42.79,3.64,6.36,8.9,12.27,14.13,17.54,25.01,25.19,38.89,24.57,49.43,30.99l22.63,13.8,11.77,8.02c-2.37,13.92-23.36,17.72-37.85,18.06-20.03.46-39.25-.89-58.14-7.01l-26.88-10.5c-1.7-1.68-4.23-6.13-4.63-8.44l-3.25-19.09c-1.69-9.9-6.75-19.95-10.02-16.57l-4.02,4.15-13.61-2.2c-4.7-13.07-4.9-25.59-3.65-39.13l2.45-26.68c1.66-18.07.92-35.81-1.77-53.93l-16.29-109.49-6.12-29.42-12.59-55.6-22.14-78.37c-8.56-24.44-18.23-47.45-28.71-70.99l-.91.44ZM274.18,440.31l5.89-7.84c.2,4.96-2.57,9.61-6.27,10.16-4.24.63-4.78-9.44-2.84-12.35,2.15-3.24,5.61-4.59,9.78-6.75l-20.14-5.86c-6.67,11.7-12.44,24.91-8.52,37.1.78,2.41,3.95,2.99,5.84,1.86,6.79-4.07,13.76-7.1,20.02-11.84,4.25-3.21,4.72-11.88,2.47-16.65-2.18.13-5.26,2.02-6.54,2.99-1.25,3.58-1.34,5.82.32,9.18ZM280.94,424.84l1.96-.7-1.96.7ZM283.55,424.9l-.58.54c2.61,4.22,2.53,9.56,1.21,15.1,3.1-1.13,7.61-4.56,7.06-9.01-.34-2.78-5.43-5.7-7.69-6.63ZM769.5,1176.1l17.07-1.4c7.62-.62,14.76-3.37,19.75-10.65l-24.59-15.49-4.99-2.27-23.12-10.41c-4.67-2.1-8.41-4.69-12.39-7.76-10.66-8.25-20.11-16.74-28.16-27.53l-8.69-14.41c-8.65-17.29-14.31-34.9-19.24-53.65l-12.01-45.66c-3.26-12.41-5.79-24.22-8.19-36.86l-9.74-51.33-14.6-65.07-21.38-90-24.16-98.56-13.45-47.82-27.54-11.05c-4.46-1.79-10.03-2.07-14.62-.49-.94,4.31-.23,9.63,1.27,13.85l8.86,24.94,7.73,12.23,18.7,38.94c13.02,29.15,24.1,58.1,31.82,89.08l15.73,63.07,15.42,71.57,11.95,78.32c3.81,24.94,6.43,49.23,5.05,74.55-.91,16.6-3.79,32.34-3.3,48.73l3.15,16.42,8.96,1.01c1.86-2.68,3.88-4.6,6.01-4.64,8.07-.15,12.25,12.85,14.11,22.85l3.18,17.12,2.65,5.93c22.45,10.75,53.05,18.54,78.76,16.44ZM554.73,647.49l-.02.63v.65l.02.63.02-.63v-.65l-.02-.63ZM561.48,654.59c-.08-1.86-.06-1.33-.02.12l.02-.12ZM562.52,655.29l-.64.36.4,1.09.61-.15-.37-1.29Z" stroke="#000" stroke-miterlimit="10" stroke-width="5"/><path d="M337.58,271.25c9.31,5.06,14.28-5.52,15.62-4.46l2.18,1.73c1.81,1.43-8.87,6.91-6.57,16.88l6.02-7.38c.69-.68,1.4-1.24,2.03-1.43s1.84,1.93,1.86,2.77l.32,14.61c2.47-5.14,2.67-9.68,3.56-14.79l.5-2.87c.13-.76,1.88-.95,3.56-.86-1.18,8.11-1.66,17.84-6.17,22.57-.64.67-3.94.26-4.18-.65-.93-3.44-1.15-9.45-1.45-13.78-1.9,2.32-5.57,7.4-8.05,5.63-4.27-3.05-1.45-9.08-2.05-13.35-3.82,1.19-10.96-.99-9.41-5.15,1.85-4.94,12.31-12.75,19.54-13.14l-3.41-15.08c-.34-1.49,1.47-5,2.93-5.36s4.44,1.01,5.26,2.28l4.06,6.2,3.64-9.58c-3.95-.13-8.54-.01-11.93-1.71-5.35-9.05-10.11-23.46-5.84-33.01,7.14,4.75,10.92,11.16,13.67,18.71l9.05,3.06c.27.28,1.22,1.21,1.19,1.33-.03.14.88-.74,1.13-.91.37-.26-.45-1.32-.85-1.64-5.38-4.3-8.91-8.97-12.48-14.54-6.77-10.58-11.26-21.56-11.56-34.39-.12-5.3-8.81-3.44-18.44-9.43-9.02-3.29-16.01-8.95-20.82-17.62-1.01-.67-3.27-1.67-4.69-1.88-1.23-.18-2.33,1.97-3.14,2.98l-8.44,7.26-9.07,9.16-31.28,31.07c-7.73,7.68-27.39,34.55-33.01,44.78l-34.64,63.06-9.66,18.16c3.8-2.69,6.82-4.06,10.59-3.35,32.21,6.08,50.11-24.76,82.62-40.46,12.14-5.86,20.68-14.9,27.84-26.04,7.2-5.53,17.31-7.77,26.48-8.18l15.92-.7c.64-.03,2.15,1.05,2.57,1.44s-1.41,2.01-2.04,2.06l-16.43,1.37c-8.19.68-17.09,2.08-23.65,6.88-7.12,11.01-15.69,20.23-27.64,26.14-11.32,5.6-21.34,12.54-31.2,20.51-18.19,14.69-34.75,25.63-58.63,20.41l-9.24,6.94c-3.22-2.9-2.34-6.59-.66-9.61,3.48-6.24,5.68-12.72,8.69-19.17s6.96-12.92,9.76-19.94c4.84-12.15,12.38-22.49,18.7-33.79,3.35-5.98,5.83-11.55,10.22-16.76l9.19-10.91c6.99-8.3,12.65-17.18,19.86-25.26l19.91-22.31c6.47-7.25,13.54-13.04,21.31-19.07,4.02-3.12,7.5-8.41,11.81-11.08,5.72-3.53,11.39,2.33,14.51,6.46,4.98,6.61,11.61,11,19.6,13.2l-5.33-6.32c-4.47-5.29-11.38-12.96-10.57-17.77.87-5.2,8.91-6.4,18.02-3.08,3.05,1.11,13.22.27,17.9-1.63l17.78-7.23c12.91-5.25,18.33-25.89,14.88-26.68-4.69-1.07-7.04,2.55-10.45,4.23-7.32,3.59-14.58,7.6-22.32,10.07-11.51,3.66-22.9,5.74-34.64,7.02l-12.19,1.33c-7.48.82-14.03.98-21.57-1.12-12.45,11.62-25.04,23.08-35.68,36.49l-44.13,55.66-14,17.78c-14.72,20.62-28.85,41.06-41.15,63.25l-18.69,38.97c-2.23,4.64-2.02,9.95,2.7,13.51,5.36,4.03,12.89,6.2,19.97,7.48,22.27,4,44.05,2.45,65.92-3.25,20.17-5.26,38.98-12.29,57.95-20.76,2.54-1.13,5.11-2.04,7.99-1.8-20.46,12.2-42.34,19.8-65.39,25.9-26.6,7.04-57.61,8.41-83.28-1.43-6.55-2.88-11.25-8.64-11.22-16.12,7.47-15.72,13.36-31.45,21.98-46.51,13.76-24.02,28.73-46.47,45.5-68.44l34.48-42.32,6.61-9.79c12.35-18.3,28.53-35.15,45.65-49.23l5.47-3.23c10.56.71,21.05.41,31.5-1.01l12.72-1.72c6.51-.88,13.05-2.6,19.43-4.14,3.74-10.3,9.28-19.52,18.43-24.9,8.56-5.03,15.66-10.94,23.78-16.71l8.09-4.38c15.88-2.33,41.53-.61,49.3,13.24l12.94,1.09-.67,13.13,6.93,3.01,1.21-14.28c.21-2.51,1.49-5.71,4.28-6.05,14.6-1.8,21.68,29.58,30.45,41.64,4.09,5.63,8.03,10.73,10.88,17.04,3.79,8.39,8.49,15.82,15.2,22.33l5.67,6.68c8.19,9.66,17.72,16.64,27.91,23.94,20.31,14.56,40.63,27.52,61.94,40.56l37.23,25.16,39.39,25.77c3.37,2.21,5.22,5.07,4.29,9.32-2.19,10.01-8.2,17.97-15.16,25.23-18.34,19.15-41.76,15.08-65.08,5.25-12.88-5.43-24.27-12.13-35.69-20.08l-35.04-24.43c-4.26-2.97-8.04-5.77-11.48-10.57,4.8,1.09,8.79,3.35,12.98,6.17l39.49,26.55,21.23,12.49c11.75,6.91,25.02,11.52,38.56,13.19,10.08,1.24,19.28-1.05,26.8-7.14,9.67-7.83,16.96-17.56,19.36-29.98l-12.6-8.07-44.81-30.88-32.03-20.81c-24.91-16.18-65.67-39.7-81.94-61.15-6.96-9.18-15.28-16.81-19.72-28.01-2.49-6.27-7.78-11.07-10.57-17.05l-13.15-28.23c-3.31-7.1-10.3-15.37-15.46-12.14l4.33,1.22c-7.63,8-.52,26.38,5.37,36.81l3.5,6.2c6.16,10.91,12.31,21.86,14.88,34.78-9.74.28-16.42-5.42-22.83-12.49-.88,4.02.61,7.89,2.71,11.61,2.32,4.11,4.16,9.57,7.13,12.93l3.61,4.08,9.75,8.45c4.44,3.85,8.39,4.77,14.38,2.86,2.96-.94,9.63-2.48,12.41-1.08l15.48,7.79,41.44,21.75c18.33,9.62,34.58,20.71,50.27,34.25l9.79,8.46,18.09,18.31,2.55,3.01c.98,1.15-2.33,7.75-8.59,7.28-22.53-1.71-43.11-9-62.47-20.38l-27.5-18.51c-4.44-2.99-7.38-7.34-11.1-11.07-5.81-5.83-12.95-10.85-19.39-15.8-7.83-6.01-15.85-7.05-25.24-6.88-11.75.21-21.97,2.07-31.46,9.19-8.41,6.31-27.32,12.45-29.86,4.6,9.8.98,19.28-1.48,27.11-7.31,10.32-7.69,21.5-10.2,34.17-10.4,9.65-.15,18.41.58,26.28,6.82l24.56,19.48,6.22,7.08,22.18,15.34c20.51,12.74,42.84,21.89,67.32,23.36-7.84-11.13-15.73-20.14-25.22-27.98-10.84-8.95-22.87-15.6-33.98-23.65-5.38-3.9-9.72-7.46-15.54-10.64l-22.76-12.42-25.53-12.81c-5.09-2.56-12.29-4.82-17.54-3.4-8.21,2.22-14.77,1.13-20.69-4.44l-9.67-9.09c-10.42,6.36-21.5,10.89-34.18,12.84-2.5,7.17-5.69,14.34-7.08,22.05-1.89,10.51,2.32,21.77,8.66,29.65,6.08,7.55,13.84,10.21,23.82,10.61-5.49,3.64-12.1,1.79-17.44-1.54-12.83-7.99-18.99-22.82-17.6-38.18-3.26,7.05-8.38,12.33-14.29,17.53-11.6,10.2-28.16,24.01-40.32,13.35l-11.67-10.23c-7.74,8.71-4.02,15.7-10.4,24.51l-3.32,4.59,3.78-.22c.84-.05,2.16,1.43,2.56,2.31,2.96,6.53-1.07,13.12-8.28,15.71-1.08.39-3.53-1.81-3.53-3.33,2.88-.71,5.81-1.31,7.7-3.25s2.31-4.63.99-8.76c-4.94,1.85-2.77,8.13-8.17,10.62-2.06-7.27.52-12.85,1.49-19.63-.75-3.88-3.3-9.09-8.04-10.88.91,7.26,2.6,13.71,4.25,20.83-5.1.46-10.24,1.48-13.95,4.8l-7.02,6.27ZM393.32,214.51c-4.46,1.59-8.04,3.61-9.33,7.95l11.91,10.6c9.46,2.12,17.35-1.53,24.22-7.64,12.7-11.3,22.35-25.27,30.56-40.16l-20.16-.28c-13.35-.19-25.73-3.21-37.67-8.31,2.93-.6,5.4-.63,8.02-.2,17.54,2.92,34.83,4.57,52.62,2.63,11.79-1.29,22.44-6.07,33.14-10.89-11.34-11.31-17.83-25.26-7.37-36.84,3.4,5.36,5.83,8.98,10.83,11.49-3.92-17.22-12.91-32-17.95-49.63-22.98-5.7-46.46-7-70.34-5.52-3.99.25-7.57,0-11.58-.8l21.44-2.64,1.93-9.09c2.06-9.71,16.5.62,31.72-2.12-9.99-6.19-20.8-6.14-32.03-6.09-4.77.02-8.38.79-12.4,2.95l-10.68,5.74c-4.32,2.32-7.83,5.4-11.44,8.67-6.08,5.51-12.49,10.22-15.8,18.71l12.35-5.04c2.85-1.16,6.28-3.91,9.22-4.81,4.51-1.38,8.73,1.35,9.2,6.15.88,8.91-3.21,21.96-11.13,27.28-.4,7.87.58,15.41,1.53,23.13.66,5.29,1.3,10.25,3.24,15.21,1.42,3.64,2.43,6.99,1.2,10.96-4.04-8.33-5.19-16.36-7.59-24.74l-1.76-6.17c-7.5-.45-12.18-4.37-15.45-9.92l-11.63,2.71c-2.78,20.53,1.64,31.36,7.38,49.25,3.37,10.52,11.4,24.01,19.81,30.64,4.57-4.89,8.7-7.94,15.52-9.28l-1.7,3.5c-.18.37-1.79,1.21-1.45,1.45l1.63,1.14ZM460.39,81.65l-5.67-.58-22.06-1.87-13.27-1.84-1.22,6.41c14.73-.24,28.64.95,43,4.25l-.79-6.36ZM378.71,143l-.42-14.06-11.47,4.63c2.34,4.97,6.4,8.49,11.89,9.43ZM344.18,138.28l-16.53-2.49c1.4,9.12,7.31,15.54,16.27,18.67l.26-16.18ZM494.86,146.45l-2.59-4.79-.05,4.14c0,.77,2.33.9,2.65.65ZM369.34,227.82c-4.49-1.51-8.23-2.72-9.51-5.1l-7.71-14.33c-1.65,9.17,2.88,14.6,4.8,23.05l8.97,1.64,3.45-5.25Z" stroke="#000" stroke-miterlimit="10" stroke-width="5"/><path d="M716.89,562.94l42.57,29.77c3.18,2.22,5.25,4.17,9.43,4.59l-7.14-14.52c-10.65-18.29-22.29-35.34-34.56-52.59-7.35-10.34-26.27-36.79-17.57-40.02,4.33-1.61,10.66,1.23,15.19,3,22.53,8.81,42.96,19.58,64.87,31.45-16.92-21.52-64.82-62.97-86.24-75.15l-31.84-18.11c-2.6-1.48-4.64-3.96-3.79-7.44l26.42-.84c11.03-.35,21.45-.67,32.29-3.66-10.16-10.3-22.15-18.74-36.35-19.71l-35.65-.04-18.11,3.03-18.19,5.87c-1.29.42-4.48-.69-5.22-1.79-.84-1.26.28-4.52,1.86-5.64l36.93-26.35c12.68-9.05,24.41-18.9,34.75-30.32,5.6-6.18,10.44-11.99,12.93-20.7-7.58-.16-13.83,2.14-20.74,4.11-16.99,4.84-32.72,11.2-48.13,19.91-11.24,6.35-22.31,11.73-34.12,16.73l-13.68,5.79c4.1-3.19,8.25-5.24,12.78-7.59l32.22-16.7c18.26-9.47,35.91-18.33,55.76-23.9,6-1.68,11.75-3.86,18.22-2.25,2.19,1.59,2.15,6.91.71,9.63-12.05,22.8-36.91,40.46-57.73,55.52l-25.87,18.72c12.31-3.65,22.78-8.17,35.15-8.36l35.46-.53c14.3,1.84,26.65,8.26,36.84,18.18,2.01,1.96,6.09,3.96,4.58,7.75-1.04,2.6-6.17,4.38-9.51,4.56l-47.1,2.55,34.04,19.49c13.18,7.55,24.46,17.28,35.7,27.5l32.19,29.27,21.39,22.21c.67.69,1.17,2.83,1.09,3.58-.11.94-2.74,1.86-3.7,1.48l-8.38-3.34c-19.76-11.49-39.57-21.66-60.75-30.27l-14.57-4.61c.41,3.16.72,6.04,1.77,7.69l16.54,25.93c12.56,17.39,24.2,34.59,34.8,53.35l7.72,16.28c.45.95-.28,3.41-1.04,3.83-4.18,2.34-11.14-3.15-17.11-7.69l-37.6-28.56-.65-.88-1.25-.71-1.03-.82c-.26-.2,1.18-.62,1.4-.4l1.2,1.16.81.56Z" stroke="#000" stroke-miterlimit="10" stroke-width="5"/><path d="M446.56,433.01c.63-4.91-1.18-6.97-4.67-8.82,1.66-.18,4.42,0,5.37.73s1.56,3.01,1.82,4.84c.98,6.92-3.89,15.39-11.74,13.83s-11.99-10.88-10.23-18.3c.86-3.65,8.54-8,7.76-8.88l2.25,2.52c17.13-3.8,33.51-13,47.09-24.6l8.55-23.25,5.29-13.7c3.02-7.83,5.84-15.47,9.86-22.88l12.48-23c6.13-11.31,12.44-22.14,20.84-32,3.84-4.51,13.25-10.7,15.96-6.71-10,1.97-18.43,13.64-23.94,22.84-9.61,16.04-18.34,32.08-26.76,48.82l-4.93,12.55-3.03,5.45-11.86,33.4c-13.06,12.5-29.72,20.86-46.96,25.39l-.22,2.03c-.15,1.38-3.54-1.96-6.87-.72-1.03.38-2.38,2.37-2.74,3.74-1.48,5.6,1.88,12.99,7.46,14.69,4.93,1.5,8.67-3.63,9.22-7.97Z" stroke="#000" stroke-miterlimit="10" stroke-width="5"/><path d="M524.54,377.43l-2.49,3.68c-.53.78-3.66-1.54-3.23-2.35,2.55-4.76,4.5-11.24,3.33-16.62-12.34,5.92-11.22,19.4-16.94,18.66-.89-11.76,15.13-26.32,18.91-23.14,1.87,1.57,2.47,4.35,2.98,7.11l13.9-24.1c.96-1.67,4.43-3.26,6.12-3.38,2.01-.14,5.14,1.79,6.42,4.01,9.2,15.97-2.54,44-15.05,58.16-1.21-2.96-.12-5.04,1.24-7.36,8.59-14.7,19.36-37.68,8.34-50.8-4.23,2.31-6.71,6.54-9.11,10.76l-14.41,25.37Z" stroke="#000" stroke-miterlimit="10" stroke-width="5"/><path d="M372.74,278.65c6.05,1.93,12.01,4.86,19.16,6.24-4.66-8.65-20.53-13.68-18.66-15.76l1.95-2.17c.32-.36,2.28-.73,2.18-1.19l-.64-3.16c4.06-2.2,8.82-5.18,9.07-10.47-4.37,1.95-7.75,4.92-12.3,2.79l10.35-5.47c.94-.5,3.22-.73,4.09-.23,3.69,2.12,1.65,7.49-2.44,12.54,1.77,3.38.96,7.5-2.96,9.01l13.48,11.39c.88.74,1.96,3.05,2.27,4.14.36,1.27-1.85,4.14-3.45,3.96-7.94-.91-22.75-6.9-24.58-10.81-.15-.33-.03-1.61.32-1.5l2.16.69ZM380.12,265.53c-.37.11.68,1.49.95,1.19l1.49-1.66c.18-.2-1.78.26-2.45.47Z" stroke="#000" stroke-miterlimit="10" stroke-width="5"/><path d="M346.27,401.43l13.08-16.98,15.84-24.46c4.09-6.32,7.09-13.27,9.36-20.4,1.8-5.63-.65-10.03-4.18-15.06,6.43.31,8.63,6.77,7.88,12.29-1.6,11.72-7.82,21.68-14.32,31.44l-16.47,24.74c-2.6,3.91-5.89,7.9-11.19,8.43Z" stroke="#000" stroke-miterlimit="10" stroke-width="5"/><path d="M361.72,307.65c-12.95-2.52-26-2.9-38.97-.23-10.77,2.21-19.06,8.41-28.55,14.07,20.62-25.85,67.81-22.95,95.99-6.53-9.92-1.32-18.73-5.42-28.47-7.31Z" stroke="#000" stroke-miterlimit="10" stroke-width="5"/><path d="M334.72,493.03c-3.89,5.96-14.82,5.11-18.19-.56-2.36-3.97-2.88-9.59-.15-13,3.43-4.27,10.21-3.94,14.71-.84,3.7,2.55,7.3,8.77,3.63,14.4ZM332.75,489.72c1-4-1.52-7.28-3.91-8.73s-7.03-2.22-9.21-.26c-3.85,3.47-1.98,10.01,1.42,12.05,3.76,2.25,10.41,2.1,11.7-3.05Z" stroke="#000" stroke-miterlimit="10" stroke-width="5"/><path d="M676.1,464.65c1.51,4.2-.3,8.52-3.19,10.42-3.17,2.08-7.27,2.11-10.61-.18s-3.25-5.43-3.42-9.9c-.12-3.17-.36-7.43,4.03-8.29,5.08-.99,11.25,2.55,13.2,7.95ZM662.63,471.53c1.77,1.92,5.26,3.16,7.57,1.86,2.66-1.5,3.96-4.81,2.75-7.96-1.27-3.32-6.48-7.03-9.76-5.29-5.55,2.93,7.24,11.74,2.06,11.51l-2.61-.12Z" stroke="#000" stroke-miterlimit="10" stroke-width="5"/><path d="M548.85,506.82c-3.25-1.72-3.52-3.79-3.59-7.17-.06-2.76-1.87-8.35,1.78-9.94,6.32-2.75,14.44,3.13,14.6,9.96.06,2.65-1.96,6.09-3.68,7.21-2.37,1.55-6.21,1.48-9.11-.06ZM551.36,505.19c.73.2,4.03.04,5.23-.65,1.03-.6,1.99-3.45,1.94-4.68-.22-5.29-5.05-8.38-10-7.5-.9,2.1-.02,5.17.8,7.38l2.03,5.46Z" stroke="#000" stroke-miterlimit="10" stroke-width="5"/><path d="M487.68,556.61c-.17,5.15-3.83,8.14-7.34,7.97-5.53-.27-6.48-3.15-8.11-7.98-1.27-3.77-3.66-10.33,2-12.26,6.94-2.36,13.69,4.92,13.44,12.27ZM476.5,560.38c.5,1.73,5.86,1.87,6.89.11,1.85-3.16,1.56-6.72-.49-9.77-1.31-1.94-4.59-4.45-8.1-3.42-3.41,4.82,2.08,7.52,1.7,13.08Z" stroke="#000" stroke-miterlimit="10" stroke-width="5"/><path d="M550.73,414.02c.64-3.1-4.64-6.41-8.04-5.16l.62,5.57c-2.99-.17-4.65-2.48-4.07-5.13.64-2.92,3.18-4.51,6.36-3.75,3.71.89,7.75,3.16,8.36,7.09.55,3.59-2.56,6.96-5.47,8.11s-7.36-.41-9.41-2.52c5.11.95,10.48,1.49,11.66-4.22Z" stroke="#000" stroke-miterlimit="10" stroke-width="5"/><path d="M677.35,525.42c-3.23,3.03-6.36.02-8.7-1.94-3.64-3.04-6.15-9.05-1.32-12.47,2.92-2.07,8.09.54,10.04,3.1,2.29,3.01,3.43,8.07-.02,11.31ZM676.28,522.94c1.33-1.55.4-5.93-1.04-7.47-1.23-1.31-4.98-3.17-6.44-2.16-3.01,2.08-.71,5.85,1.02,7.98,1.45,1.79,3.54,5.05,6.46,1.64Z" stroke="#000" stroke-miterlimit="10" stroke-width="5"/><path d="M302.02,390.55c1.65-.43,2.03-5.04,1.04-6.24-1.19-1.44-4.89-2.72-5.68-1.4l1.01,6.78c-2.53-1.3-3.49-2.44-3.92-3.96-.47-1.67.3-5.26,1.69-5.9,3.52-1.62,8.14.58,9.6,3.52,1.72,3.46.72,8.65-3.37,10.26-2.95,1.16-7.41-.25-8.4-2.77,2.68.08,5.39.37,8.03-.31Z" stroke="#000" stroke-miterlimit="10" stroke-width="5"/><path d="M288.31,581.02c-.43,1.16-2.24,2.93-3.32,3.16s-3.28-.65-4.42-1.53c-3.79-2.9-7.24-8.99-3.57-13.02,2.41-2.65,6.94-.51,8.88,1.41,2.58,2.55,3.85,6.16,2.43,9.98ZM286.4,578.49c.59-3.69-4.27-8.77-7.49-6.84-2.99,1.79,2.95,11.07,5.22,10.65.89-.16,2.03-2.3,2.27-3.8Z" stroke="#000" stroke-miterlimit="10" stroke-width="5"/><path d="M318.93,548.87c-.63,1.41-4.33,2.2-5.47,1.54-3.77-2.19-5.98-9.62-3.95-11.51s5.83-.2,7.48,1.12c2.37,1.87,3.45,5.49,1.93,8.85ZM311.55,541.02l2.63,5.96c.2.46,1.82.63,2.33.47,1.59-.5-.45-5.93-4.95-6.43Z" stroke="#000" stroke-miterlimit="10" stroke-width="5"/><path d="M677.4,538.23l-18.39-8.96c-10.13-4.94-20.91-6.4-32.05-9.94,18.32,1.21,35.57,8.62,51.02,18.25l.46.53,1.42.51.53.41,2.31,1.51.56.39,1.38.56.54.41,2.31,1.51.56.4,1.38.56.54.4,2.31,1.51.57.39,2.33,1.47,1.67,1.06c-2.19-.13-2.21-.13-1.18-.07l-1-.4-2.33-1.53-.56-.37-2.33-1.54-.49-.47-1.44-.48-.53-.41-2.34-1.5-.49-.49-1.44-.48-.53-.41-2.35-1.5-.48-.48-1.44-.48-.54-.38Z" stroke="#000" stroke-miterlimit="10" stroke-width="5"/><path d="M493.53,504.7c-5.25,2.31-10.89.06-12.74-5.57.05-1.19.45-3.4,1.22-4.08s3.01-.57,4.18-.39c4.36,1.74,7.27,3.8,7.34,10.04ZM491.08,503.32c-.93-4.29-4.37-6.7-7.89-5.64,1.19,3.55,4.83,5.8,7.89,5.64Z" stroke="#000" stroke-miterlimit="10" stroke-width="5"/><path d="M250.89,507.28c-1.52,4.53-5.83,4.1-8.56,2.77-3.16-1.53-4.94-5.67-2.13-9.25,1.33-1.7,5.41-1.54,7.89-.44,1.85.82,3.73,4.2,2.81,6.92ZM248.41,506.02c.16-1.75-1.81-3.75-2.85-3.99-.87-.2-3.24.13-3.73.86-.85,1.27.39,4.39,1.6,5.04,1.41.75,4.76.48,4.98-1.91Z" stroke="#000" stroke-miterlimit="10" stroke-width="5"/><path d="M519.21,619.65c-.72,1.09-4.36,1.55-5.41.99-4.57-2.43-4.31-11.43-.04-12.92,1.72-.6,4.83,1.95,5.79,3.45,1.15,1.78,1.24,6.1-.33,8.48ZM516.2,618.73c1.35-.61,2.45-4.9,1.47-5.77l-3.34-2.93c-2.17,3.04-1.45,7.65,1.87,8.69Z" stroke="#000" stroke-miterlimit="10" stroke-width="5"/><path d="M197.29,533.23l2.02-1.5c-1.9-.67-3.92-1.72-4.49-2.94-.73-1.56.3-5.39,1.83-5.74,3.21-.73,5.65,1.91,5.86,4.1.27,2.77-.01,6.65-5.23,6.07ZM200.07,530.51c1.02-1.78-.07-4.86-2.25-5.59-.54.82-1.02,2.62-.46,3.13l2.71,2.46Z" stroke="#000" stroke-miterlimit="10" stroke-width="5"/><path d="M370.26,509.57l-6.22-6.01,5.29,1.48c.23-1.45,1.65-3.81,2.62-3.52,2.12.78,2.3,6.92-1.69,8.05Z" stroke="#000" stroke-miterlimit="10" stroke-width="5"/><path d="M230.62,390.61c-.2.25-2.55.59-2.88.55s-.27-.29-.07-.56l1.25-1.66c-2.05-.69-4.12-1.8-5.11-4.77,1.58-.51,3.92-.01,5.42.93,1.4.88,2.31,4.34,1.38,5.51Z" stroke="#000" stroke-miterlimit="10" stroke-width="5"/><path d="M709.04,558.36l-1.25-.73-1.01-.81c-.27-.21,1.15-.61,1.39-.4l1.2,1.06.79.7,1.23.72,1.04.82c.24.19-1.18.59-1.41.38l-1.19-1.06-.78-.69Z" stroke="#000" stroke-miterlimit="10" stroke-width="5"/><polygon points="698.72 551.06 699.37 551.06 699.99 551.08 699.37 551.09 698.72 551.09 698.09 551.08 698.72 551.06" stroke="#000" stroke-miterlimit="10" stroke-width="5"/><polygon points="701.6 552.98 702.24 552.98 702.87 552.99 702.24 553.01 701.6 553.01 700.97 552.99 701.6 552.98" stroke="#000" stroke-miterlimit="10" stroke-width="5"/><polygon points="704.47 554.9 705.12 554.9 705.75 554.91 705.12 554.93 704.47 554.93 703.85 554.91 704.47 554.9" stroke="#000" stroke-miterlimit="10" stroke-width="5"/><polygon points="580.77 371.68 581.42 371.68 582.05 371.7 581.42 371.72 580.77 371.72 580.15 371.7 580.77 371.68" stroke="#000" stroke-miterlimit="10" stroke-width="5"/><path d="M280.94,424.84l1.96-.7.65.75c2.27.93,7.35,3.85,7.69,6.63.55,4.46-3.97,7.88-7.06,9.01,1.32-5.55,1.39-10.88-1.21-15.1l-2.03-.59Z" fill="#fff" stroke="#000" stroke-miterlimit="10" stroke-width="5"/><polygon points="554.73 647.49 554.74 648.11 554.74 648.76 554.73 649.39 554.71 648.76 554.71 648.11 554.73 647.49" fill="#fff" stroke="#000" stroke-miterlimit="10" stroke-width="5"/><path d="M460.39,81.65l.79,6.36c-14.36-3.29-28.27-4.49-43-4.25l1.22-6.41,13.27,1.84,22.06,1.87,5.67.58Z" fill="#fff" stroke="#000" stroke-miterlimit="10" stroke-width="5"/><path d="M344.18,138.28l-.26,16.18c-8.97-3.13-14.88-9.55-16.27-18.67l16.53,2.49Z" fill="#fff" stroke="#000" stroke-miterlimit="10" stroke-width="5"/><path d="M369.34,227.82l-3.45,5.25-8.97-1.64c-1.93-8.45-6.45-13.88-4.8-23.05l7.71,14.33c1.28,2.38,5.02,3.59,9.51,5.1Z" fill="#fff" stroke="#000" stroke-miterlimit="10" stroke-width="5"/><path d="M378.71,143c-5.49-.94-9.55-4.45-11.89-9.43l11.47-4.63.42,14.06Z" fill="#fff" stroke="#000" stroke-miterlimit="10" stroke-width="5"/><path d="M494.86,146.45c-.32.26-2.66.12-2.65-.65l.05-4.14,2.59,4.79Z" fill="#fff" stroke="#000" stroke-miterlimit="10" stroke-width="5"/><path d="M380.12,265.53c.67-.2,2.63-.67,2.45-.47l-1.49,1.66c-.27.3-1.33-1.08-.95-1.19Z" fill="#fff" stroke="#000" stroke-miterlimit="10" stroke-width="5"/><path d="M332.75,489.72c-1.29,5.15-7.93,5.3-11.7,3.05-3.4-2.04-5.27-8.58-1.42-12.05,2.17-1.96,6.75-1.23,9.21.26s4.91,4.73,3.91,8.73Z" fill="#fff" stroke="#000" stroke-miterlimit="10" stroke-width="5"/><path d="M662.63,471.53l2.61.12c5.18.23-7.61-8.57-2.06-11.51,3.28-1.73,8.49,1.97,9.76,5.29,1.21,3.15-.09,6.46-2.75,7.96-2.31,1.3-5.8.06-7.57-1.86Z" fill="#fff" stroke="#000" stroke-miterlimit="10" stroke-width="5"/><path d="M551.36,505.19l-2.03-5.46c-.82-2.21-1.7-5.28-.8-7.38,4.95-.89,9.78,2.21,10,7.5.05,1.23-.9,4.08-1.94,4.68-1.21.7-4.5.85-5.23.65Z" fill="#fff" stroke="#000" stroke-miterlimit="10" stroke-width="5"/><path d="M476.5,560.38c.38-5.55-5.1-8.26-1.7-13.08,3.51-1.02,6.79,1.48,8.1,3.42,2.04,3.04,2.34,6.6.49,9.77-1.03,1.76-6.39,1.61-6.89-.11Z" fill="#fff" stroke="#000" stroke-miterlimit="10" stroke-width="5"/><path d="M676.28,522.94c-2.92,3.41-5.01.15-6.46-1.64-1.73-2.14-4.04-5.9-1.02-7.98,1.46-1.01,5.21.84,6.44,2.16,1.44,1.54,2.37,5.92,1.04,7.47Z" fill="#fff" stroke="#000" stroke-miterlimit="10" stroke-width="5"/><path d="M286.4,578.49c-.24,1.5-1.39,3.64-2.27,3.8-2.27.42-8.21-8.86-5.22-10.65,3.23-1.92,8.08,3.15,7.49,6.84Z" fill="#fff" stroke="#000" stroke-miterlimit="10" stroke-width="5"/><path d="M311.55,541.02c4.5.49,6.55,5.93,4.95,6.43-.51.16-2.13,0-2.33-.47l-2.63-5.96Z" fill="#fff" stroke="#000" stroke-miterlimit="10" stroke-width="5"/><path d="M491.08,503.32c-3.06.16-6.7-2.09-7.89-5.64,3.52-1.06,6.96,1.35,7.89,5.64Z" fill="#fff" stroke="#000" stroke-miterlimit="10" stroke-width="5"/><path d="M248.41,506.02c-.22,2.39-3.57,2.66-4.98,1.91-1.21-.65-2.45-3.77-1.6-5.04.49-.74,2.86-1.06,3.73-.86,1.05.24,3.01,2.24,2.85,3.99Z" fill="#fff" stroke="#000" stroke-miterlimit="10" stroke-width="5"/><path d="M516.2,618.73c-3.32-1.05-4.05-5.65-1.87-8.69l3.34,2.93c.98.86-.12,5.16-1.47,5.77Z" fill="#fff" stroke="#000" stroke-miterlimit="10" stroke-width="5"/><path d="M200.07,530.51l-2.71-2.46c-.56-.51-.07-2.31.46-3.13,2.18.73,3.27,3.81,2.25,5.59Z" fill="#fff" stroke="#000" stroke-miterlimit="10" stroke-width="5"/><path d="M468.22,136.03c2.17,6.44,1.85,13-1.84,18.96-9.26,14.95-38.47,13.92-49.7-2.87-6.16-9.21-4.24-20.62-1.04-30.6,1.63-5.09,9.92-12.08,15.14-13.04,7.8-1.44,15.8,1.98,22.93,5.9l2.63-2.41c.25,3.7.68,5.11,2.7,7.21,4.55,4.73,7.11,10.69,9.19,16.84ZM437.49,125.48l-3.83-11.55c-5.02,1.53-8.39,4.11-10.72,7.82l3.46,9.08,11.09-5.35ZM450.97,124.1l6.35,3.07c-.72-2.01-3.16-4.4-5.53-5.3-.56-1.37-2.5-3.36-3.83-3.83l-11.75-4.11,1.98,10.86,12.77-.69ZM425.74,131.49l-4.76-6.35-1.89,12.53,6.65-6.18ZM442.17,128.25l-2.85.93c-7.58,1.99-14.73,6.29-19.09,13,.45,7.34,5.33,11.84,12.04,14.51,7.08,3.75,16.86,3.71,24.07-.44,7.21-4.15,8.4-13.12,5.24-19.85-3.43-7.3-11.41-10.75-19.41-8.15Z" stroke="#000" stroke-miterlimit="10" stroke-width="5"/><path d="M439.32,129.18l2.85-.93c4.72-1.33,10.92,1.14,13.83,5.1,3.46,4.71,3.57,10.32.42,15.35-4.49,7.19-14.18,9.29-20.86,3.46l-3.28-7.01c-2.82-6.03,2.23-13.45,7.04-15.98ZM436.87,150.16c4.54,4.09,10.37,3.51,14.26.53,3.53-2.7,5.98-7.5,4.08-12.17-2.03-4.99-6.44-7.05-11.64-6.03-3.14.62-8.16,3.96-8.22,8.66-.02,2.21.93,6.68,1.52,9.01Z" stroke="#000" stroke-miterlimit="10" stroke-width="5"/><path d="M450.97,124.1c-.08-.54-.25-1.87-.33-1.78-.1.1.81-.29,1.15-.44l-.82,2.23Z" stroke="#000" stroke-miterlimit="10" stroke-width="5"/><path d="M405.75,102.77c3.79,3.55,1.46,8.5-1.53,10.58s-8.82,1.05-10.08-3.23c-.67-2.27,1.3-5.93,2.87-7.13,2.02-1.54,6.67-2.16,8.75-.22ZM404.09,109.05c.54-.91.53-4.04-.4-4.08l-3.68-.17c-1.3-.06-3.24,2.81-3.34,4.12s2.16,3.35,3.59,3.32c1.11-.02,2.83-1.52,3.83-3.19Z" stroke="#000" stroke-miterlimit="10" stroke-width="5"/><path d="M442.17,128.25l-2.85.93,2.85-.93Z" fill="#fff" stroke="#000" stroke-miterlimit="10" stroke-width="5"/><path d="M439.32,129.18c-4.81,2.53-9.86,9.95-7.04,15.98l3.28,7.01c6.68,5.83,16.37,3.72,20.86-3.46,3.15-5.04,3.04-10.65-.42-15.35-2.91-3.96-9.1-6.43-13.83-5.1,8-2.6,15.98.86,19.41,8.15,3.16,6.73,1.97,15.7-5.24,19.85-7.21,4.15-16.99,4.19-24.07.44-6.71-2.67-11.59-7.17-12.04-14.51,4.36-6.71,11.51-11.01,19.09-13Z" fill="#fff" stroke="#000" stroke-miterlimit="10" stroke-width="5"/><path d="M437.49,125.48l-11.09,5.35-3.46-9.08c2.33-3.71,5.7-6.29,10.72-7.82l3.83,11.55Z" fill="#fff" stroke="#000" stroke-miterlimit="10" stroke-width="5"/><path d="M451.79,121.87c-.34.15-1.25.54-1.15.44.08-.08.25,1.24.33,1.78l-12.77.69-1.98-10.86,11.75,4.11c1.33.46,3.26,2.46,3.83,3.83Z" fill="#fff" stroke="#000" stroke-miterlimit="10" stroke-width="5"/><path d="M450.97,124.1l.82-2.23c2.37.9,4.81,3.29,5.53,5.3l-6.35-3.07Z" fill="#fff" stroke="#000" stroke-miterlimit="10" stroke-width="5"/><polygon points="425.74 131.49 419.09 137.67 420.98 125.14 425.74 131.49" fill="#fff" stroke="#000" stroke-miterlimit="10" stroke-width="5"/><path d="M404.09,109.05c-1,1.67-2.72,3.17-3.83,3.19-1.44.03-3.7-2.01-3.59-3.32s2.04-4.18,3.34-4.12l3.68.17c.94.04.95,3.17.4,4.08Z" fill="#fff" stroke="#000" stroke-miterlimit="10" stroke-width="5"/><path d="M436.87,150.16c-.59-2.33-1.54-6.81-1.52-9.01.05-4.71,5.08-8.04,8.22-8.66,5.2-1.02,9.61,1.04,11.64,6.03,1.9,4.67-.55,9.47-4.08,12.17-3.89,2.98-9.72,3.56-14.26-.53Z" fill="#fff" stroke="#000" stroke-miterlimit="10" stroke-width="5"/></svg>