<?xml version="1.0" encoding="UTF-8"?>
<svg id="Calque_1" xmlns="http://www.w3.org/2000/svg" version="1.1" viewBox="0 0 1242.54 1191.01">
  <!-- Generator: Adobe Illustrator 30.4.0, SVG Export Plug-In . SVG Version: 2.1.4 Build 226)  -->
  <defs>
    <style>
      .st0, .st1 {
        stroke: #000;
        stroke-miterlimit: 10;
        stroke-width: 5px;
      }

      .st1 {
        fill: #fff;
      }
    </style>
  </defs>
  <path class="st0" d="M411.76,469.88l-3.07-5.65c-1.1-2.02-3.54-3.4-4.82-5.17l-4.25-5.92-3.45-6.12,2.99-8.29c10.61-3.92,21.19-7.16,32.38-8.77l5.22-.16c-1.07,1.98-2.17,3.53-3.84,4.8l-16.59,12.63c-4.25,3.23-10.63,9.46-7.19,11.66,1.86,1.2,3.95.95,5.69-.2,4.92-3.27,9.93-5.82,15.63-7.91-3.47-2.33-6.36-.49-10.47.13l9.89-7.83,8.53-6.87c2.22-1.79,3.93-5.16,2.95-7.83l-5.89-3.46c-2.01-.2-4.98.17-7.29.58-9.22,1.63-17.98,4.11-26.73,7.28l10.25-34.68,6.25-26.89c2.03-8.76,2.58-17.48,1.86-26.38-.64-7.92-4.34-13.82-11.53-16.8l.93-4.47c.94-4.55,1.26-8.88,3.27-13.53,3.88,7.97,3.82,17.74,6.6,24.42.81,1.95,1.14,3.55,1.57,5.68l2.46,12.37c1.59,7.99,2.76,15.74,4.81,23.54l.77,2.91,2.09,7.96,1.73,5.97,2.63,8.48,5.68,17.9,2.78,6.69,5.71,11.6c4.5,9.13,10.13,17.23,17.05,24.73l9.11,9.85-14.7.26c-2.54.04-4.75.8-6.15,3,1.71,1.48,3.6,1.4,5.79,1.39l8.62-.04c5.75-.03,11.27.35,16.67,1.52,3.64,3.84,8.86,4.35,13.76,2.43l31.92,6.93,43.95,10.13,6.01,1.15c13.72,2.62,29.69,5.42,40.86,13.35,2.94,2.08,4.03,5.71,2.45,8.98-3.49,7.19-11.32,11.08-19.13,11.01l-10.32-.1-11.33-1.69-22.67-4.68c-1.54-.32-3.45.04-4.2,1.35-.68,1.19-.52,3.03.5,4.23l2.44,2.89,6.84,5.67,9.16,6.22,17.92,11.78c6.38,4.2,11.49,9.73,15.59,16.12l4.14,6.44,4.22,8.25c2.27,4.43,3.31,9.75,2.77,14.87-.97,9.17-13.83,12-23.31,9.88-10.64-2.38-20.45-6.52-29.95-11.72l-15.18-8.3-8.38-3.68c-1.79-.79-5.14-.6-5.72,1.54-2.35,8.75,19.25,27.93,21.85,58.8.59,6.98.52,18.14-4.46,20.95-5.3,2.98-11.39-2.58-16.12-7.28-7.02-6.97-12.62-14.82-18.38-22.81l-1.87-2.59c-.68-.94-2.12-2.84-3.34-2.63-4.7.81-2.41,8.52-1.03,13.36l3.63,12.7c1.92,6.72,3.81,21.68-1.4,24.12-3.15,1.48-6.52.72-9.76-.56-11.11-4.39-21.31-10.29-31.68-16.25l-9.88-5.68c2.32,3.02,4.89,5.14,7.92,7.16l12.13,8.08c8.28,4.65,16.44,9.48,25.47,12.13,3.19.94,6.8-.21,9.17-1.94s3.74-4.74,4-8.09c.53-6.96-.14-13.77-2.02-20.51l-4.51-16.1,3.16,4c6.37,8.97,13.15,17.36,21.59,24.41,4.57,3.82,10.8,5.53,15.94,2.09,3.57-2.39,5.44-6.92,5.93-11.26.97-8.62.32-17.27-1.93-25.62l-1.05-3.87c-2.66-9.85-7.65-18.7-12.51-27.57l-6.37-11.64c1.35-.1,2.57.14,3.72.75l18.21,9.7c13.64,7.26,32.79,16.48,47.63,12.42,5.47-1.5,10.55-5.21,12.33-10.61,1.93-5.84.95-12.22-1.28-17.68l-1.43-3.5-5.4-9.98c-4.74-7.59-10.31-14.42-17.37-20.05l-18.64-12.55-9.77-6.49c-2.5-1.66-4.55-3.3-6.67-5.58l9.33,2.05,9.87,2.06,13.15,1.73c4.77.63,9.7.3,14.52-.47,7.53-1.21,14.13-5.72,17.79-12.32,2.34-4.22,2.01-9.67-1.07-13.19-6.79-7.78-23.14-12.03-33.62-14.26l-2.49-.53-9.88-1.92-12.28-2.5-33.67-7.99-17.84-4.09-12.76-2.73c4.1-4.81,2.41-9.45,2.42-13.89,0-3.48-.15-6.6-.93-10.11-2.01-9.09-4.42-17.96-8.83-26.21-.84-1.57-1.1-2.73-1.29-4.6l-2.51-24.35-.38-2.97c-1.71-13.3-4.47-26.08-7.75-39.14l-8.26-32.98-.88-3.53-8.55-35.96c-.64-2.69-1.11-6.02-3.21-7.82-4.51-3.85-9.85-6.06-14.55-9.43-7.52-5.39-14.33-11.1-20.1-18.33-3.03-3.8-6.87-7.66-8.84-12.22-3.59-8.31-5.5-17.44-6.99-26.31-.93-5.5-.17-11.26.7-16.68,1.23-7.67,5.87-14.23,3.37-18.19-1.15-1.83-5.04-.91-7.58-5.14l-6.33-10.55c-3.81-7.43-7.17-14.73-9.67-22.75,4.95-7.96,8.36-16.17,10.75-25.21,1.7-6.43,3.05-12.79,2.13-19.46-.76-5.5,1.44-10.3-3.98-21.05-4.93-9.78-10.95-18.63-18.31-26.78l-.04-15.11,18.06-9c1.82-.9,3.46-2.88,2.36-4.88-1.35-2.45-4.46-2.71-7.19-2.77l-2.93-.06c-.43,0-.63-1.42-.79-1.89-1.35-3.95-11.01-.42-11.01-.02l-.03-1.5c-.04-2.29-.36-4.87-2.4-6.02-1.7-.96-4.33-1.29-6.17,0-4.28,3.02-6.13,8.18-4.58,13.32l2.75-1.21c.71-3.85,1.81-8.21,4.95-9s.24,9.65.28,9.67l1.9.88,3.2-3.26c2.18-2.22,5.03-3.95,8.37-2.44-.31,2.34-1.89,3.93-3.59,5.31l-5.43,4.45c-2.12-3.84-7.3-4.94-10.91-2.6-1.97,1.28-2.25,3.63-1.22,5.55l1.59,2.99-.7,2.37-1.27,2.05c-.33.54-1.77,1.02-2.36.8s-1.22-1.5-1.3-2.12l-.2-1.69-7.68.19c-.33,0-1.33-.99-1.24-1.32.79-3.08,5.6-1.28,7.47-3.4.49-.55.77-2.46.1-2.85-6.84-3.91-9.22-8.01-7.93-7.39l.91.44,5.2,3.85,2.97,2.83c.16.15.6.58.6.59s.36-.75.45-.89l1.79-2.58c-4.39-4.84-9.84-9.09-16.44-10.18-1.83-.3-2.37,2.94-1.65,4.21,2.35,4.2,5,7.54,9.04,10.61l-3.64,2.24-8.27-2.28-4.03-.58-4.62-.42h-6.71c-2.05,0-1.77-3.92-9.52,3.62l-5.77,5.62c-11.22,10.92-10.19,19.17-7.38,15.69l7.49-9.26,11.3-11.36c.44-.44,1.31-1,1.88-.97l4.66.27c7.08.41,13.89,1.73,20.33,4.7,2.31,1.07,5.22,1.74,7.03,3.44,1.08,1.02,1.33,1.41,2.99,1.57l4.8,2.84-1.69,5.71c-.97-.96-2.09-1.74-3.12-1.93-3.48-.66-2.74-3.2-6.04-5.43-1.41-.96-3.4.4-4.25,1.56-2.04,2.77-3.97,5.07-6.56,7.4-.95.86-1.68,2.24-1.65,3.5.07,2.85,5.73,4.03,7.69,3.42,4.32-1.34,6.56-7.53,7.58-6.72l1.58,1.23,1.63,1.32c.06.05.62-.07.66-.13l.47-.78c.12-.19.75.8.68,1.02l-1.13,3.54c-.89,2.81-1.51,5.42-.14,7.98l3.74-7.3,2.32-6.29,1.76-5.23c1.04.73,3.26,2.45,3.84,3.84l2.44,5.82c.19.46,1.05,1.38,1.51,1.42.55.05,1.5-.3,2.49-.65,8.38,11.1,18.09,23.59,19.7,37.55.86,7.47-2.22,22.82-5.19,29.41l-6.07,13.5c-1.3-2.92-1.76-5.22-2.3-7.89l-3.64-17.85c-1.38-6.77-.81-13.56-1-20.51l-.24-8.52c-.04-1.35-1.43-3.3-2.74-3.38-2.74-.18-5.59,1.06-7.02,3.48-7.12,12.1-8.52,24.01-7.36,38.27,0,.21-.62.87-.78.86-5.89-1-10.35,1.83-13.96,5.88s-6.41,8.66-6.48,14.22c-.06,4.69.66,9.14,4.07,12.4-2.27.05-4.44.1-5.99,1.43-.81.7-1.51,2.72-1.41,3.64s1.09,2.36,2.2,3.09l9.88,6.45c.27.17.72,1.12.82,1.34.14.29-.5.81-.92.93-7.53,2.11-15.25,2.06-22.85.41-1.73-.37-3.05-1.45-3.66-3.05-.74-1.58-1.95-2.61-3.5-3.19l-5.05-7.48c-5.29-6.48-9.12-13.58-12.06-21.53-4.2-11.38-7.09-23.02-8.32-35.11l-.17-5.87c-.27-9.39.03-18.84,2.65-27.66.57-.05,1.71-.18,1.58-.36l-.93-1.31c-.57-.8-3.03-.26-3.53.77-3.7,7.55-4.1,22.57-3.75,31.96.63,16.87,7.33,43.2,17.19,56.35l7.22,9.63,3.69,5.46c1.05,1.55,3.65,3.16,5.33,4.12,4.87,2.77,10.46,2.34,15.84,2.51,5.05.15,9.96-1.14,14.79-2.7,1.74,1.67,3.17,2.93,5.51,4.25l.77,5.23c.07.46-.12,1.88.26,1.97l2.13.51c.33.08,1.15.4,1.07.71l-.39,1.47c-.09.34-.91,1.17-.73,1.45l1.08,1.6c1.2,1.78.32,4.4-.8,6.02-1.21,1.74,3.04,3.28,1.73,5.99-1.39,2.9-.1,4.19,1.57,6.01,1.96,2.13.56,5.8,1.12,8.44,1.98,9.3,2.86,18.31,2.04,27.79-.45,5.28.81,10,1.61,15.11l1.7,10.97c-.17.73.14,1.65.55.62l-1.64-12.29c-.64-4.81-1.4-9.42-1.02-14.38.73-9.5-.29-18.46-1.88-27.8-.49-2.87.53-6-.91-8.71-.46-.86-2.17-2.64-1.78-3.53,1.23-2.8.21-5.3-1.15-7.39,1.48-2.91,1.74-5.81.26-8.65.28-1,.53-2.51.29-3.56-.2-.89-1.61-1.46-3.22-1.62l-.62-4.59,4.36,1.56c2.42-.43,4.52-.31,6.89.23l7.47,1.72c2.25.52,3.74,2.86,4.03,5.12l2.76,21.29,8.71,34.37,6.61,27.37c.47-.05,1.06-.11.8-.09l.51-1.45,3.94,17.44,2.3,12.48.32,12.82c0,.21-.25,1.17-.37,1.05l-.67-.68c-.77-.79-2.28-1.95-3.26-1.96-3.26-.04-6.14,4.61-6.72,7.73l-2.72,14.58c-.05.27-.12.78-.29.78l-.8.03-9.04.58c-9.48.61-14.86,10.02-16.97,19.03l-1.56,6.68c-2.52,14.17-3.48,28.39-1.09,42.66,1.84,10.98,4.75,21.34,7.98,31.87l-2.63,9.75-10.45,35.97-5.33,18.8-7.5,24.54-12.66,34.34-5.19,14.07-3.23,7.86c-.62,1.51.12,2.75-.09,4.18l-1.92,13.34c-.83,5.81-.16,13.5,1.47,12.33.21-.15.86-.71.94-1l1.76-6.63,6.24-25.96,4.85-14.31,5.81-14.35,2.64-5.03.4-.76c.08-.15.48-.7.51-.52l.27,1.34,1.55,5.74c.89,3.3,3.19,7.21,6.57,8.59s7.42-.22,10.39-1.81c6.02-3.21,10.44-7.54,14.84-12.57,6.43-7.36,11.75-15.15,15.81-24.12l3.88-8.57c2.23-4.92,3.92-10.07,3.75-15.64-.18-5.87-.62-11.71-2.31-17.55v.1ZM375.9,30.75l.39-3.28c3.57-1.15,5.02-3.27,6.76-5.07.89-.92,1.57-1.75,1.97-2.81,4.56-3.83,10.48-5.65,16.72-3.66l-17.73,8.91c-.67.34-1.91,1.66-1.88,2.47l.41,12.64c-1.31-.9-3.07-2.27-3.66-3.42l-2.98-5.79h0ZM376.01,22.23l2.17-1.17c-.33.87-.63,1.58-.96,1.5-.36-.1-1.48-.4-1.21-.33h0ZM355.71,45.06c-.87,1.05-1.77,1.7-3.28,1.46l6.53-7.09,1.01.49-4.25,5.13h-.01ZM458.78,440.54c-1.54-1.15-2.47-2.01-3.26-3.45l-3.47-6.33-5.88-13.5-2.69-8.96-3.91-11.42-1.43-4.58-2.04-7.26c-3.27-11.67-5.81-23.06-7.92-34.94l-4.76-26.75-2.11-19.79-1.74-11.38c-2.35-15.34-5.39-30.02-9.65-44.99-2.22-7.8-5.34-14.99-6.81-22.91l-5.92-31.86-2.63-15.82c-1.06-1.39-3.37-2.02-4.81-2.82-5.44-3.02-10.79-4.17-16.87-4.92-3.97-.49-7.86-2.89-11.22-4.94-2.01-1.23-3-3.96-4.34-5.62l-4.01-1.86-6.68-3.9c-.03-.85.24-2.07.7-2.42.39-.29,1.64-.71,2.12-.64l6.27.88,3.08.5c5.7.93,13.36-.38,14.75-4.24l4.13-11.47c2.06-5.73-.04-11.98-3.85-17.19-.95-1.3-1.16-4.51-1.14-6.24l.23-13.48c.08-4.8,4.02-18.63,8.45-22.1l.5,2.7c-.12,7.05-.84,13.83-.18,20.89.72,7.76,2.73,15.03,4.17,22.62.43,2.28,1.15,4.08,2.03,6.2,3.35,8.19,5.92,16.44,8.73,24.79,1.21,3.6,3.19,6.61,4.87,9.86,3.05,5.9,6.31,12.24,12.84,14.49l-1.95,5.46c-2.52,7.06-3.46,13.97-3.21,21.35.13,3.9.19,7.77,1.17,11.53l3.9,14.85,8.75,27.67,13.43,39.86,13.55,38.18,7.59,24.66,4.08,13.12c1.25,4.02,2.38,8.16,4.61,11.65l10.08,15.77,6.96,12.81,4.34,8.03,3.12,6.01c1.29,2.49,2.25,4.92,4.21,6.98l4.48,12.81.91,5.28,3.37,14.43c-.13,3.6-1.22,6.46-4.65,7.72l-12.71-2.48-3.98-3.7-3.51-2.15-6.22-6.88-6.61-7.31c-4.4-4.87-5.01-11.15-7.28-12.83l.02.03ZM373.86,142.04c-1.37,3.91-4.87,6.46-9,6.47s-8.67-.82-11.3-4.36c-3.32-4.46-3.37-10.87-.79-15.61,2.25-4.13,4.94-7.6,9.28-9.6,1.77-.82,5.12-.66,6.58.43l3.48,2.61c1.45,1.09,2.49,3.93,2.53,5.92l.16,6.59c-1.75,1.84-2.7,6.23-.94,7.55h0ZM485.98,378.66l4.95,34.53-4.1-6.32-2.71-5.5c-3.82-7.75-6.74-15.6-12.25-22.59-4.96-11.39-9.53-22.89-13.82-34.78l-9.07-25.09-24.25-70.98,9.79,10.58c4.5,4.86,9.55,8.64,15.16,12.21l11.75,7.47c.87.55,1.51,2.9,1.76,3.97l10.28,43.76,3.94,15.88,2.99,11.93,5.59,24.92h0ZM378.12,389.35l-.36-18.99,1.97-14.89c.71-5.38,2.02-10.44,4.39-15.24,3.8-7.7,9.53-8.09,17.89-7.66l-1.19,8.09-3.45,19.57-4.49,23.13-3.51,14.93-5.12,18.91c-3.1-9.44-5.05-18.35-6.13-27.83v-.02ZM386.62,425.5l7.64-28.61,2.54-11.45,1.95-9.57,2.53-7.56,4.93-26.16,1.39-8.36c3.85,1.46,5.87,5,6.49,9.11,1.29,8.64.73,17.36-1.3,26.02l-5.75,24.53-8.99,31.22-3.05,8.93c-.65,1.89-1.56,3.19-3.8,3.53l-4.58-11.63h0ZM381.7,443.68l2.35-8.52,2.58,4.98-4.93,3.54h0ZM376.47,461.14l3-10.05c.42-1.4,2.3-2.42,3.41-3.18l5.68-3.84,1.29,3.12-4.02,10.08c-4.09-1.03-6.65.88-9.37,3.87h0ZM366.04,544.88c-2.67-4.85-3.95-10.11-4.03-15.68l2.59-3.2.07-7.13,10.08-20.48c4.32,4.03,10.13,3.54,13.72-.86,3.82-4.68,6.21-10.19,7.18-16.3.27-7.67.91-16.41-4.47-21.61l2.42-5.55,7.64,10.9,6.6,10.85c.55,3.76.89,7.81.21,11.58-.52,2.91-.83,5.27-.64,8.27.05.76-.42,2.33-.78,3.16l-2.92,6.75c-4.7,10.86-10.66,20.61-18.95,29.05l-4.29,4.37-7.39,5.12c-1.88,1.3-4.98,1.98-7.01.76h-.03ZM366.35,501.87c.97-9.91,3.67-18.38,6.25-27.24,1.77-3.67,3.93-6.82,6.42-9.98,1.38-1.74,2.68-2.91,5.28-3.64l-2.38,6-4.08,9.9c-3.26,3.18-5.04,7.27-5.26,11.86l-6.23,13.1h0ZM380.9,484.5l1.47,1.13c.77.59,4.43-3.62,1.57-8.02l3.54-8.7c.68-1.68,1.15-3.14,2.06-4.6,1.74,3.12,1.86,5.93,2.12,9.23.65,8.3-1.63,16.22-7.31,22.43-.96,1.05-3.33,1.23-4.64.92-1.01-.24-2.48-1.91-2.6-3.09l3.78-9.29h.01Z"/>
  <path class="st0" d="M429.67,1063.34c1.43,8.57,1.25,16.72,1.31,25.32.08,11.56-2.9,22.62-8.49,32.6-7.31,13.05-23.78,19.43-33.72,12.13l-4.74-3.48c-7.04-6.28-12.61-13.69-17.48-21.81l-11.87-19.77c-5.88-10.9-11.57-21.48-15.83-33.09l-5.15-14.06-8.47-30.4-4.65-23.27-.47-2.99-2.75-19.75c-3.24-27.42-4.57-54.69-4.73-82.36l-.07-12.25.05-8.52,2.72-53.57.23-2.72,1.18-11.99,2.32-19.84,1.02-7.64c3.99-29.88,10.99-58.92,19.38-87.83l6.36-9.13,8.81-15.65c.6-1.07,1.52-1.98,2.63-2.97l3.74,7.54c3.33,6.72,9.52,15.52,16.84,15.37,3.32-.07,5.92-2.35,7.73-5.18,5.22,7.34,10.6,14.12,16.73,20.38l.43,2.08c.08.4,1.17.18,1.75.16,9.05,8.56,26.5,24.38,37.18,28.08,5.23,1.81,11.15-.68,14.5-5.29,3.78-5.18,5.99-11.39,6.95-17.96,2.96-20.24-1.7-40.96-9.32-59.89l-3.97-9.87-4.43-10.58-5.31-10.45c-1.49-2.93-4.23-4.97-7.44-5.63l-2.31,1.82-2.51,9.31.63.38c1.82-2.86,2.77-4.37,4.94-6.58,2.54,3.78,4.3,6.8,5.9,10.59l3.24,7.67,5.73,14.43,4.69,13.59c2.41,6.99,3.72,13.99,4.83,21.29l.22,2.96c.89,12.13.59,26.15-6.53,35.72-1.82,2.45-4.71,4.06-7.97,3.05-7.87-2.45-22.09-14.67-29.38-21.25l-5.05-5.18c.75-1.52,1.56-2.86,1.79-4.16.38-2.54-1.03-5.1-2.41-7.13-2.39-3.49-7.22-2.55-9.95-.04-4.34-4.53-7.7-10.05-11.21-15.19-1.62-2.38-1.64-5.16-2.91-7.77l-10.01-20.56c-.51-.7-2.84-.85-3.63-.64l-1.36,3.01,3.28,8.47,4.98,11.23,2.7,5.51c.61,1.25.34,4.15.08,5.46-.42,2.07-2.32,3.29-4.24,2.48-6.39-2.7-11.01-12.01-14.78-18.76-1.12-2-3.82-3.86-6.1-2.33-1.68,1.13-3.75,4.06-4.05,6.19-.85,5.89-2.48,11.26-6.9,15.37-2.41,2.24-5.91,3.17-8.88,4.52-.61,1.91-1.64,4.01-3.44,5.17l-10.26,6.63c-.45.29-1.63.65-2.16.68-2.05.12-4.17-8.65-4.31-13.8l-.22-8.39c-.09-3.36-1.75-6.23-1.42-9.75l.49-5.33c.02-.25-.15-1-.35-1-1.13-.03-2.06,1.6-2.32,3.19l-1.97,12.18c-.74,4.6-3.12,8.89-5.9,12.58-2.29,3.05-7.59,4.42-10.65,1.51-2.49-2.36-.27-6.93-1.2-6.77l-1.34.23-.98-13.82-1.66,1c-.57-6.35-4.26-11.6-6.63-8.92-2.92,3.29-3.99,7.85-6.53,11.41l-3.64,4.37-15.92,25.63c-3.83-1-1.77,2.9-4.94,7.28-7.19,9.92-14.76,19.11-23.82,27.48l-18.26,14.83c-3.85,3.13-7.88,5.26-12.58,7.4-.21-3.17.33-5.66,1.53-8.31l9.28-20.5,7.33-16.71,2.62-6.57,11.19-26.62,3.45-7.08c1.32-2.71,3.34-4.46,4.23-7.43l2.38-8.01c2.97-10.01,1.06-20.32-4.28-18.15-2.26.92-3.07,3.94-4.67,5.83l-5.92,7.01c-2.81,3.32-9.16,8.48-13.85,8.62-2.39-5.57.52-12.51,3.38-18.13,2.26-4.44,5.34-11.68,2.82-13.83-3.22-2.76-9.53,1.8-13.94,4.61l-14.12,8.98-5.48,3.13c-6.31,3.6-18.44,9.03-19.64,2.67-.45-2.4-.79-5.22.56-7.42l5.46-8.94,4.66-5.32,6.45-6.05,12.56-9.52c1.43-1.08,2.16-2.09,2.07-3.59-.22-3.61-5.59-3.93-10.65-3.1l-26.16,4.25-12.39.53c-9.84.42-22.7-1.87-28.78-9.56-3.83-4.84,4.04-10.97,9.78-13.43l16.06-6.89,9.63-4.79,6.56-4.03c1.99-1.23,3.93-2.89,5.2-4.81,1.49-2.26.91-4.87-1.26-6.36-5.7-3.9-15.59-2.49-26.28-5.76-6.85-2.1-12.35-8.05-11.77-15.41.42-5.34,8.23-11.01,13.41-14.31.63-.4,1.61-1.98,1.58-2.8-1.47-1.63-3.93-.71-5.58.18-3.34,1.8-6.27,3.56-8.89,6.11-5.01,4.87-7.59,11.05-4.91,17.84,1.61,4.08,4.06,7.6,7.7,10.14,1.96,1.36,4,2.62,6.37,3.22l6.14,1.57,6.38,1.01,11.62,1.63.1,1.34c-7.64,5.92-16.16,9.66-25.02,13.3-7.82,3.21-14.82,5.62-20.51,12.01-3.72,4.18-3.44,9.83-.13,14,2.52,3.18,5.77,5.68,9.63,7.19,5.04,1.98,10.16,4.01,15.7,3.85l19.93-.57,13.73-1.92,13.62-2.52c.79-.04.32.55-.28.79l-7.62,6.09c-4.05,3.24-7.93,6.33-11.07,10.61l-5.01,6.83c-3.5,4.78-5.07,10.74-3.5,16.54,2.64,9.79,16.65,5.98,23.88,1.37l27.78-17.71c1.27-.81,2.25-1.27,3.95-1.76l-2.19,6.84-4.65,10.73c-1.54,3.56-2.09,7.53-1.46,11.27.57,3.35,3.47,5.04,6.65,4.45,4.99-.93,9.07-3.63,12.53-7.17l3.78-3.88,3.24-3.47c-.21-2.5,1.5-4.93,2.38-5.29l.86-.36c.18-.07.71,6.47-1.45,11.25l-3.01,6.67-15.98,37.64-10.21,23.93-8.59,19.01c-2.8,6.19-6.08,12.66-2.93,18.46,2.28,4.19,11.4-.94,16.36-4.38,10.87-7.56,20.93-15.94,30.05-25.52.92-.97,1.55-2.01,2.63-2.77l9.42-11.6.27-.73c.07-.19.76-.7.79-.5l.17,1.02-.66,23.16-.1,53.08c-.05,30.38.3,60.43,2.12,90.7l.21,3.46,2.71,44.59,2.07,34.23.52,10.06c1.47,28.19,2.06,56.05.76,84.27-.54,11.82-2.62,23.23-5.08,34.6-3.51,1.77-5.44,4.71-7.73,7.73-5,6.59-9.53,13.32-15.71,18.8l-14.24,12.62-1.79,1.6-12.2,9.54c-3.81,2.98-7.3,6.51-12.44,7.56-6.69,1.37-7.7,7.55-6.36,14.27,4.85,3.3,10.79,3.5,16.17,2.11l5.69-1.47c1.98-.51,5.2-2.09,6.92-.13,1.3,1.49,2.41,3.15,4.66,3.07l17.91-.63,9.76-.28,16.44-2.25,9.14-.05,9.6-1.42c3.34-1.4,6.89-1.93,10.49-1.68,1.97,2.07,4.96,1.61,6.68-.33,2.88-1.53,3.67-4.44,3.63-7.49l-.15-14.57.6-11.03c.15-2.8,1.25-5.75.76-8.63-.51-3.06-.89-6.41-1.9-9.14l-4.67-12.68-2.53-8.03-9-49.88-7.24-51.63-1.64-14.76-.65-7.48-1.63-27.78-.12-6.05v-33.76s.03-3.94.03-3.94l3.28-87.56,2.25-38,1.47-19.1,5.09-41.26,4.23-17.5.53-1.21c.14-.31.95.24,1.18.48l.53.54.48.49.62.39c7.18,2.5,14.42-.56,18.1-6.99l.31,1.03.19.68.17.83c1.22,6.08,3.52,12.8,9.69,12.1,2.1-.24,4.23-1.2,6.16-2.04l.68-.3.6-.41.55-.38.55-.38.55-.39.57-.4.54-.49.63-.57c.12-.11.51-.03.46.13l-.28.96c-7.29,24.7-12.95,49.59-16.71,75.09l-.59,4.01-6.04,58.03-.72,11.45-.79,19.14-.09,7.31.06,32.06.6,17.98c.84,25.16,2.98,50.02,7.19,74.86l.52,3.06,3.64,19.21,5.31,21.15c6.76,24.09,16.83,46.61,29.65,68.08,8.74,14.65,18.98,31.89,33.08,40.8,5.12,3.24,10.5,3.81,16.41,2.98,8.89-1.26,16.78-6.26,21.82-13.67l4.82-8.23c4.13-8.67,6.54-18.24,6.9-28.01l-.27-20c-.15-10.78-3.25-21.13-7.87-30.93-5.08-10.79-13.09-19.99-23.36-25.85-5.13-2.93-10.45-2.92-15.96-2.42-7.41.67-13.59,4.11-16.95,11.03-2.94,6.06-5.09,13.06-4.88,19.92l.31,10.37c.14,4.54,1.47,8.98,2.89,13.3l2.17,4.48c1.4,2.89,4.75,6.8,7.33,7.39,5.02,1.15,10.21-3.59,11.08-8.39,1.05-5.73-.1-11.99-3.36-16.9l-2.6-2.23c-1.25-1.07-3.28-.81-4.59.19-1.02.79-1.93,2.9-1.85,4.51l.2,3.69.33.9.32.98c.07.23.71-.17.89-.39l1.13-5.62c.08-.4.46-1.16.68-1.48.88-1.28,4.25,2.9,4.74,7.42l.49,4.5c.38,3.53-1.01,6.86-4.36,8.55-4.53,2.28-9.98-10.81-10.82-18.59-1.27-11.73-.83-24.74,6.66-34.13,3.67-4.6,12.65-5.49,18.6-4.46,5.17.89,9.16,4.35,12.86,7.71,10.96,9.96,17.04,23.46,19.51,38.23h0ZM268.28,1150.77c-6.1-.09-11.01.35-16.6,1.22l-7.38,1.14-9.94.28-17.37.58c-1.46-3.11-4.28-3.72-7.31-3.87-2.6-.13-4.28.02-6.64,1.24-4.6,2.37-10.18,2.33-15.21,1.12-.18-2.2.27-4.17,1.25-5.94,4.12-.81,7.26-2.45,10.48-4.92l3.48-2.67c6.73-5.16,13.1-10.04,19.34-15.74l12.81-11.69c5.3-5.56,9.72-11.67,14.1-18.01l3.36-4.86,5.79-.03c2.28-9.72,4.54-19.29,5.5-29.29l.29-3.05,1.01-16.48.28-15.89-.54-42.24-.68-14.89-1.36-24.98-3.64-57.96-.69-12.31-1.97-57.1-.3-36.33-.14-44.46.14-19.26.31-18.47,14.89-23.98,6.54-10.73c-.34-1.1-.22-2.22.27-2.96l1.95-2.97,2.33-3.41c1.14,2.65,1.08,4.74.5,7.33-.36,1.63.06,2.93.37,4.54l1.71,8.97,1.17,3.62-4,12.25-3.39,15.33-3.07,20.79-2.61,27.07-.24,2.93-1.51,19.55-.4,6.32-2.2,39.16-.46,10.48-.88,22.36-.39,13.76-.46,45.89.02,10.46.28,9.18,1.21,22.18.45,5.54,1.41,14.34,8.44,61.36,7.75,43.1c1.18,6.57,2.61,12.83,5.06,18.94l2.64,6.58c1.39,3.46,1.55,7.65,1.5,11.44l-.57,3.07-.51,11.54.58,15.86c.03.72-.68,2.41-.98,2.82-8.11-3.65-16.32,2.29-25.76,2.16h0ZM399.49,676.9c1.76-.25,4.04-.59,5.11.11,2.38,1.55,3.37,5.04,1.77,7.35l-6.88-7.46h0Z"/>
  <path class="st0" d="M163.13,445.22l3.93,9.23,16.16,33.24,1.63,3.22c3.15,6.23,6.04,12.22,7.75,19.05l3.49.95c3.28.89,6.69.58,8.53-2.96,5.99-11.52,10.75-23.55,15.38-35.78l5.7-15.04,5.52-14.58,4.24-11.48,2.91-8.14,10.96-31.31,4.34-12.02,5.89-15.97,21.75-56.91,1.19,18.63c1.52,23.8,4.24,47.13,7.07,71.03l-4.52-3.34-15.49-8.42c-.66-.36-2.43-.44-3.06-.23s-1.46,1.25-1.71,2.04c-2.73,8.76,3.29,28.02,6.55,38.53l5.63,14.49-9.84-3.96c-6.76-3.32-13.51-6-20.8-7.8-1.27-.31-3.28,1.03-3.17,2.09.28,2.74,2.75,3.23,4.56,4.59,2.18,1.63,3.47,4.65,4.74,7.14l10.26,20.2-14.91.35c-6.01.14-14.58,1.24-14.86,6.25-.2,3.61,4.65,5.84,9.26,7.35-5.29.59-14.87,1.91-15.31,6.07-.32,3.02,1.86,5.84,4.76,6.03l-1.02-5c2.39-1.59,5.56-2.11,8.46-2.63l6.95-1.25c1.59-.28,3.97-1.98,4.35-3.38,1.24-4.52-8.05-2.55-13.54-6.81,3.05-2.13,6.49-2.64,9.98-2.71l15.21-.31c1.39-.03,3.24-1.28,3.84-2.2.78-1.18.57-3.11-.15-4.51l-10.84-21.33-1.79-3.55,8.3,3.37c8,3.24,23.28,10.92,28.74,7.62l-7.74-3.31-4.86-1.64,1.74-.67c.38-.15.38-1.48.24-1.95l-2.81-9.25c-3.72-12.23-9.09-26.34-8.45-39.74l13.71,6.73,8.23,4.68,8.55,57.17,8.56,47.13c.34,1.86.44,2.54.34,4.48-.09,1.72,1.25,4.38,1.82,6.44.21.75,2.27,1.46,2.94.98,1.59-1.14,1.45-3.18,1.1-4.9l-4.89-24.18-3.6-20.84-5.34-34.83-.6-3.96c-3.92-25.91-7.66-51.41-10.19-77.49l-3.43-35.3c-.5-5.15-3.04-6.66-3.53-9.89l11.89-34.2.63-4.66c-2.58,4.23-4.27,7.96-6.03,12.31l-18.49,45.69-4.42,11.54-.96,2.3-6.78,17.29-6.19,16.36-2.57,7.03-12.92,36.4-1.36,3.92-3.55,9.92-5.54,15.11-10.84,28.92-13.33,33.22c-.41,1.02-1.98,2.36-2.54,2.67l-.04-3.38c0-.6-1.68-.79-2.36-.97l-3.77-9.16-16.54-33.88-9.67-21.55-17.04-38.12c-8.67-17.06-17.23-33.79-27-50.13-5.3-8.87-16.24-21.24-26.33-17.63-1.14-.61-2.85-1.5-4.11-1.14-4.91,1.4-9.15,3.33-13.5,5.82l-15.25,8.76-20.07,12.5-8.06,5.43c-8.32,5.61-16.34,11.14-25.62,15.13l-3.8,1.97-.86.51c-.18.11-.22-.16-.31-.71l1.59-4.7c3.11-5.98,6.77-11.51,11.1-16.62l5.54-6.55,10.12-11.46,5.47-5.58,17.07-15.52,15.99-12.3c7.45-5.73,11.98-2.73,13.61-6.43,1.27-2.88-3.53-6.71-7.19-9.1l-5.87-3.82,8.34-.26,3.82.07c6.03.12,11.43,1.45,16.79,4.72,2.27-6.22-10.54-9.14-17.27-9.06l-13.77.16c-1.29.01-3.59,1.01-4.1,2.02-.97,1.93.64,4.05,2.11,4.99l8.32,5.3,2.96,2.25c.19.15.73.72.51.75l-1.05.17c-3.71.59-6.94,2.67-10,4.92l-8.57,6.31c-7.83,5.76-15.35,11.66-22.03,18.75l-7.49,7.94-16.61,18.8-5.63,7.37c-3.4,4.45-6.18,9.28-7.76,14.73-.91,3.15-1.01,7.51,1.22,8.5,1.11.49,2.88.02,3.91-.82,2.31-1.88,4.58-2.81,7.24-3.95,6.08-2.61,11.69-5.88,17.19-9.57l13.81-9.26,10.3-6.52,21.34-12.71c5.46-3.25,11.14-6.09,16.96-8.18,3.94,3.36,6.87-1.47,11.79,1.87,4.08,2.77,7.53,6.13,10.44,10.21,4.39,6.16,7.82,12.6,11.4,19.3l11.84,22.17,10.08,20.16,7.28,15.63,6.05,14.2,1.7,4.38-.03-.04Z"/>
  <path class="st0" d="M168.95,407.63l8.29,17.55c1.68,3.55,3.06,7,6.58,9.23s7.71-2.5,8.5-6.59c1.01-5.28,2.15-10.08,3.78-15.22l9.3-29.25,3.57-11.96,5.19-14.5c13.73-38.37,32.74-80.44,53.08-115.76,4.93-8.56,10.61-16.31,17.97-22.83,1.96-1.74,3.95-3.17,5.03-5.66,4.3-.69,8.47.6,12.29,2.72l7.08,3.95c7.9,4.4,16.34,7.31,25.47,6.18,5.31-.66,6.46-2.09,8.28-7.16-4.62,4.02-6.24,3.43-11.51,3.57-7.82.2-14.77-2.7-21.32-6.8-6.87-4.3-14.92-8.67-22.61-6.14-1.6,2.11-3.31,4.01-5.33,5.75-8.55,7.35-15.14,16.12-20.51,26.01l-11.8,21.72-10.46,21.38c-13.15,26.87-24.36,54.25-33.87,82.64l-4.64,14.57-10.66,33.95c-1.11,3.55-1.92,6.9-2.4,10.53-.28,2.11-.78,3.89-2.81,5.2-2.2-2.98-3.41-5.89-4.87-9l-10.1-21.45-11.88-25.18-11.52-23-14.59-28.06-6.72-12.5-8.82-13.71c-2.05-3.18-7.72-8.22-9.7-7.1-.47.27-.53,1.58-.39,2.33,4.82,4.62,8.33,9.77,11.96,15.38l9.95,18.34c14.38,26.52,27.18,53.39,40.18,80.9v-.03Z"/>
  <path class="st0" d="M356.79,237.34c2.59-2.6,3.06-6.63,3.16-10l.31-10.79c.18-6.37-.45-12.64-1.58-19.03l-3.7-13.45c-.94-3.41-2.64-6.43-4.8-9.12-1.41-1.76-2.87-3.51-5.7-2.57,3.96,5.34,5.94,11.33,7.84,17.72,3.78,12.71,4.4,31.71,2.31,44.92-.16,1.03,1.2,3.28,2.15,2.33h.01Z"/>
  <path class="st0" d="M428.88,649.71c2.46,2.95,6.8,3.7,9.38.88,3.51-3.84,6.02-9.3,3.61-12.92-.7-1.05-2.84-2.22-4.34-2.19-5.6.1-8.12,2.33-9.85,7.82-.75,2.36-.46,4.42,1.2,6.41h0ZM434.57,648.25c-1.78.11-2.98-1.55-3.09-2.67-.2-2.05.26-2.66,1.91-3.88.99-.73,3.06-1.85,4.23-1.64,1.86.33-.09,5.44-3.06,8.19h.01Z"/>
  <path class="st0" d="M332.42,116.99c1.25.08,3.42-1.24,2.61-2.29-2.15-2.77-9.78-1.19-17.78-15.76l-3.59-6.55,1.39,9.75c.73,5.11,9.44,14.31,17.38,14.85h-.01Z"/>
  <path class="st0" d="M223.44,559.12c3.45,1.1-.38,7.28,1.82,9.84,4.02-2.58,4.25-7.99,1.49-11.8-2.01-2.78-6.63-2.32-9.07-.11-2.19,2-3.26,4.24-2.93,7.26.24,2.26,1.73,5.11,4.33,5.87,2.07.6,3.98.47,4.77-1.74-3.27.45-5.24-1.78-5.62-4.74-.29-2.23,2.19-5.55,5.21-4.59h0Z"/>
  <path class="st0" d="M239.19,520l3.11-2.74,1.62,1.47c2.59-3.16,3.01-7.47,1.35-10.97-1.06-2.24-3.48-2.64-5.48-2.13-3.49.9-5.29,3.21-5.86,6.56-.5,2.93-.7,6.12,1.66,7.95.66.51,2.91.47,3.6-.14ZM237.41,517.24l-.25-1.47c-.55-3.27,1.22-6.48,4.91-6.65.67,1.47,1.17,3.87.3,5.48-1.43,2.64-4.75,3.84-4.96,2.64Z"/>
  <path class="st0" d="M254.4,566.53c.97,1.17,3,1.24,4.32.78,3.28-1.13,6-8.79,2.61-13.29-1.61-2.14-4.56-1.71-6.42.12-3.25,3.2-3.72,8.53-.51,12.38h0ZM256.74,564.41c-1.43-2.81-1.23-6.24,1.55-7.96,1.64,2.71.62,5.53-1.55,7.96Z"/>
  <path class="st0" d="M296.46,586.14c2.58,2.04-2.08,8.39,1.36,9.56,3.42-2.88,4.52-8.91,1.35-12.29-2.82-3-7.61-1.42-9.88,1.74-1.92,2.67-1.73,7.11,1.13,9.42,1.52.99,3.9,1.74,6.01,2.37l-4.74-5.19c-.9-.98-.32-3.62.36-4.56.74-1.02,2.63-2.47,4.41-1.06h0Z"/>
  <path class="st0" d="M498.18,587.18c2.6,2.22,7.21,1.03,8.87-1.4.34-2.94,2.32-5.44-.55-7.95-1.62-1.42-3.95-1.65-6.15-.44-1.61.88-3.09,2.38-3.61,3.9-.57,1.66-.18,4.5,1.44,5.89ZM501.08,585.1c-.91-1.49-.77-2.68-.03-3.52s1.88-1.12,3.4-.68l-3.37,4.2Z"/>
  <path class="st0" d="M316.12,538.08c-2.16-3.06.02-6.7,2.98-7.7.98-.33,3.16,1.28,3.32,2.28l.82,5.16c.08.5.33,1.22.64,1.42s1.2-.31,1.58-.57c1.84-4.68-.36-9.93-5.22-11.5-3.6-.19-5.99,2.21-7.33,5.37-1.15,2.7-1.06,6.95,2.42,7.74,2.89.66,6.18-2.46,6.48-5.47-1.9,1.24-3.49,2.37-5.7,3.28h0Z"/>
  <path class="st0" d="M257.96,678.85c-3.29-1.33-3.46-3.65-2.5-6.27.75-2.06,2.39-4.07,4.94-4.01l5.74.14c-2.83-3.51-7.86-4.82-11.23-1.79-2.58,2.32-4.06,5.94-3.73,9.5.25,2.69,2.12,4.65,4.74,4.97.7-.52,1.52-1.62,2.03-2.54h.01Z"/>
  <path class="st0" d="M419.73,568.77c.56-.3,1.81-1.44,1.68-2.03l-.51-2.4c.2-1.73-.13-3.55-1.3-4.69-1.54-1.5-3.43-.55-5.07.46-2.55,1.57-3.34,4.21-2.12,6.74,1.32,2.72,4.11,3.64,7.31,1.92h.01Z"/>
  <path class="st0" d="M385.63,610.71c1.34,3.56,6.94,3.15,7.54,2.71,2.11-1.53,3.23-6.15,1.01-8.41-1.97-2.01-4.87-1.18-6.73.42-1.62,1.39-2.66,3.06-1.82,5.28h0ZM389.68,610.36c-.58-1.43.01-1.99,1.14-2.36l-1.14,2.36Z"/>
  <path class="st0" d="M382.92,267.38c-.11.21-.92.78-1.06.84-.54.23.97,3.17,5.86-5.12,1.4-2.38,3.02-4.79,3.42-7.4.43-2.78-.92-3.88-2.9-5.28-1.61-1.14-1.24-4.28-.71-6.13,1.86-6.53,3.84-12.56,4.74-19.4-1.37,2.49-1.49,5.21-2.27,7.93l-3.43,11.97c-.49,1.7-.98,5.03-.04,6.35,2.77,2.58,2.15,4.95.55,8.09l-4.14,8.14h-.02Z"/>
  <path class="st0" d="M474.83,544.9l-1.95-.49c.19-.3.63-1.09.96-1.07l2.05.1c.8.04,1.29-1.82,1-2.56-.48-1.23-1.53-2.22-2.84-1.95-2.13.43-3.66,1.72-4.32,3.33s-.31,4.47,1.54,5.29c1.26.56,3.1-1.21,3.55-2.65h0Z"/>
  <path class="st0" d="M510.69,514.96c.54-.5-.95-2.3-1.62-1.98-.96.46-1.14,1.41-.64,1.98s1.52.69,2.26,0Z"/>
  <path class="st1" d="M373.86,142.04c-1.76-1.32-.81-5.71.94-7.55l-.16-6.59c-.05-1.99-1.08-4.83-2.53-5.92l-3.48-2.61c-1.46-1.09-4.81-1.25-6.58-.43-4.34,2-7.03,5.47-9.28,9.6-2.58,4.74-2.53,11.15.79,15.61,2.64,3.54,7.14,4.38,11.3,4.36s7.63-2.56,9-6.47h0Z"/>
  <path class="st1" d="M380.9,484.5l-3.78,9.29c.12,1.17,1.59,2.85,2.6,3.09,1.31.31,3.68.13,4.64-.92,5.68-6.2,7.96-14.13,7.31-22.43-.26-3.29-.37-6.11-2.12-9.23-.91,1.46-1.38,2.92-2.06,4.6l-3.54,8.7c2.86,4.4-.8,8.62-1.57,8.02l-1.47-1.13h-.01Z"/>
  <path class="st1" d="M366.35,501.87l6.23-13.1c.22-4.59,2-8.67,5.26-11.86l4.08-9.9,2.38-6c-2.6.73-3.9,1.9-5.28,3.64-2.5,3.16-4.65,6.32-6.42,9.98-2.57,8.87-5.28,17.33-6.25,27.24h0Z"/>
  <path class="st1" d="M375.9,30.75l2.98,5.79c.59,1.15,2.35,2.52,3.66,3.42l-.41-12.64c-.03-.82,1.2-2.14,1.88-2.47l17.73-8.91c-6.24-2-12.16-.17-16.72,3.66-.4,1.07-1.07,1.89-1.97,2.81-1.74,1.8-3.19,3.92-6.76,5.07l-.39,3.28h0Z"/>
  <path class="st1" d="M376.47,461.14c2.72-3,5.28-4.91,9.37-3.87l4.02-10.08-1.29-3.12-5.68,3.84c-1.11.75-3,1.78-3.41,3.18l-3,10.05h0Z"/>
  <polygon class="st1" points="381.7 443.68 386.64 440.14 384.05 435.17 381.7 443.68"/>
  <path class="st1" d="M355.71,45.06l4.25-5.13-1.01-.49-6.53,7.09c1.52.23,2.41-.41,3.28-1.46h.01Z"/>
  <path class="st1" d="M376.01,22.23c-.27-.07.85.23,1.21.33.33.09.63-.62.96-1.5l-2.17,1.17h0Z"/>
  <path class="st1" d="M399.49,676.9l6.88,7.46c1.6-2.32.61-5.81-1.77-7.35-1.07-.7-3.36-.36-5.11-.11h0Z"/>
  <path class="st1" d="M434.57,648.25c2.96-2.75,4.91-7.86,3.06-8.19-1.17-.21-3.25.91-4.23,1.64-1.65,1.22-2.11,1.83-1.91,3.88.11,1.12,1.31,2.78,3.09,2.67h0Z"/>
  <path class="st1" d="M237.41,517.24c.2,1.2,3.53,0,4.96-2.64.87-1.61.38-4.01-.3-5.48-3.69.17-5.46,3.38-4.91,6.65l.25,1.47Z"/>
  <path class="st1" d="M256.74,564.41c2.17-2.43,3.19-5.25,1.55-7.96-2.78,1.72-2.98,5.15-1.55,7.96Z"/>
  <path class="st1" d="M501.08,585.1l3.37-4.2c-1.52-.45-2.65-.18-3.4.68s-.88,2.03.03,3.52Z"/>
  <path class="st1" d="M389.68,610.36l1.14-2.36c-1.13.37-1.71.93-1.14,2.36Z"/>
  <path class="st0" d="M1020.47,720.23c2.15,5.89,5.13,12.85,4.51,19.8-.24,2.73-2.14,6.86-4.62,7.26-13.68,2.22-35.01-18.62-45.69-29.82l-19.27-20.22-25.53-27.67c-7.97-8.64-22.47-21.6-26.91-11.89-1.85,4.04-3.5,8.38-4.4,12.86l-10.74,53.45-5.01,18.17c-.39,1.42-2.99,3.11-4.29,3.27-7.08.81-8.03-19.79-7.97-31.11.11-22.61,2.74-44.46,5.85-66.84,1.41-10.13,3.24-29.95-2.05-33.63-4.48-3.11-14.65,6.17-19.53,12.88-11.15,15.35-21.61,31.07-31.5,47.12.07,13.65-1.22,26.34-3.5,39.77-8.03,47.37-17.97,93.51-29.67,140.15-7.4,29.52-15.7,57.8-24.83,86.73l-15.89,50.33-22.22,61.85c-8.5,23.66-17.32,46.23-28.18,68.8-4.8,9.96-10.03,19.17-17.1,27.49-3.06,3.62-7.42,5.49-11.81,5.16-3.88-.3-8.47-2.17-10.93-6.1-5.63-9-8.4-19.26-8.63-30.24-.52-24.6,2.89-48.81,10.34-72.23l8.06-20.32c3.04-7.66,8.66-14.33,15.39-18.62,4.93-3.14,10.95-1.82,13.7,3.05,2,3.54,3.33,7.68,3.68,11.83,1.26,14.71.7,29.09-2.62,43.43-2.52,10.88-10.1,26.11-18.16,24.16-2.4-.58-4.19-3.27-4.92-5.89-3.01-10.78-.51-21.19,4.1-31.24,1.6-3.5,4.2-6.69,8.51-7.01,5.69-.43,5.01,14.92.59,23.46-3.2-2.81,1.2-11.13-.06-20.02-3.32.63-4.46,2.59-5.67,5.22-4.26,9.16-6.35,18.61-4,28.66,1.92,8.23,11.85-1.7,15.31-15.61,4-16.01,4.9-32.25,2.6-48.58-.47-3.32-2.21-7.15-4.98-8.93-5.63-3.62-16.83,9.4-20.84,19.71l-6.49,16.66c-7.16,21.75-10.45,44.2-10.67,67.14-.13,14.01,4.24,36.77,15.64,37.39,3.5.19,7-1.5,9.34-4.41,5.11-6.35,9.35-12.95,13.08-20.4,12.74-25.53,22.89-51.36,32.3-78.39l26.85-77.07,17.45-56.33,19.13-70.32c11.54-42.41,19.57-84.86,26.97-128.13,2-11.67,3.89-22.28,3.68-34.65-9.02,12.38-17.74,23.42-27.59,34.65-8.58,9.77-16.93,19.02-27.94,26.2-13.8,9-29.17,15.38-45.05,19.11-8.54,2-16.41-2.5-17.94-10.54l-1.83-9.61c-.81-15.2,1.02-29.8,5.99-44.11l8.22-23.64,16.73-39.85c3.94-9.39,7.54-17.86,10.24-28.68-4.22,1.22-7.8,2.87-11.16,5.43l-16.54,12.64-8.35,6.34-11.81,7.93c-11.75,7.89-30.22,15.52-39.89,6.27-9.06-8.66-3.54-24.6,3.63-35.84,7.68-12,17.66-21.45,29.46-29.78,18.13-12.8,37.55-22.95,57.07-33.9-6.05-4.85-5.14-18.01-2.26-24.42l6.23-13.85c-33.18-8.05-66.54-8.98-99.44-15.3-5.49-1.06-10.53-3.16-13.54-8.19-1.01-1.69.54-5.77,2.15-7.2,5.67-5.03,12.19-7.72,19.51-9.84,48.86-14.09,105.62-13.97,156.48-8.76,4.6-17.09,11.16-27.37,23.95-39.07,3-2.74,11.55-6.35,15.48-3.98,1.51.7,2.21,1.49.52,1.4-8.55.04-14.2,5.08-19.27,10.57-8.29,8.96-13.91,19.47-16.76,31.73,4.92.67,9.25.93,12.66,4.25l-46.6-2.58-32.15-.6c-28.63-.54-74.73,4.51-101.14,14.8-4.16,1.62-7.51,3.52-10.35,7.46,4.43,3.71,9.35,4.99,15,5.74l39.36,5.24,14.02,1.66,20.31,1.96c12.94,1.25,25.46,3.35,38.03,6.42,5.24,1.28,9.51,5.35,13.77,8.54,3.28,2.46,6.68,6.8,5.37,11.36s-5.72,8.86-9.76,11.31l-12.92,7.87-22.89,12.4-21.95,12.25c-12.7,7.09-24.85,14.65-36.06,23.91l-10.96,10.57-6.78,8.65c-6.88,8.77-13.08,27.03-5.44,31.68,3.23,1.97,8.25,2.65,11.83,1.41l8.47-2.94c10.93-4.9,20.44-11.64,29.81-18.9l13.14-10.19c5.52-4.28,11.19-8.25,17.7-10.37,3.06-.99,7.17.42,7.56,4.01.5,4.6-.96,9.27-2.59,13.47l-4.59,11.89-17.63,41.54-7.79,19.84-5.43,16.87c-4.13,12.81-7.48,40.88.72,48.66,2.64,2.51,7.64,2.61,11.04,1.75,22.44-5.63,45.92-17.61,61.05-35.14l20.63-23.91,11.92-15.56c6.36-8.31,13.26-15.13,17.57-24.92,5.1-11.57,13.39-21.55,20.83-32.03,5.91-8.32,18.04-19.83,25.53-15.24,2.69,1.66,5.41,4.97,5.94,8.42,1.52,10.05.54,19.89-.64,30.01l-4.39,37.54-.66,9.54-.59,25.15c-.14,6.16.55,11.73,2.4,18.11l7.16-30.71,6.35-32.03c1.45-7.32,2.96-14.51,6.71-20.8,3.29-5.51,8.99-6.91,14.78-4.68,2.42.93,4.79,2,6.63,3.73l15.56,14.56,18.59,20.08,29.93,30.93c6.86,7.09,14.05,13.04,22.41,18.03,3.83,2.28,7.29,3.99,12.18,3.81-.06-6.25-1.26-11.4-3.48-16.96-7.32-18.3-14.51-36.13-20.36-55.04l-1.57-8.91c-.44-2.48.92-6.82,2.91-8.4,5.28-4.18,16.81-2.33,23.66.64l24.49,10.64,12.91,5.58c4.65,2,9.05,3.21,14.69,3.73,0-4.67-1.41-7.98-3.45-11.77l-13.14-24.33c9.95,7.85,26.28,30.3,21.74,38.57-2.14,3.9-7.24,4.25-11.04,2.92l-15.42-5.42-9.32-3.96,10.3,34.96,21.51,87.44,20.12,85.45,6.84,25.74,7.59,37.33,7.31,37.9c2.92,15.12,6.15,29.17,10.07,44.03l13.11,49.72c3.59,13.61,9.6,26.1,16.59,38.3,3.26,5.69,7.97,10.98,12.65,15.7,22.38,22.55,34.81,21.99,44.24,27.74l20.25,12.35,10.53,7.18c-2.12,12.46-20.91,15.86-33.88,16.16-17.93.41-35.13-.8-52.04-6.27l-24.06-9.4c-1.52-1.5-3.79-5.49-4.14-7.55l-2.91-17.09c-1.51-8.86-6.04-17.86-8.97-14.83l-3.6,3.71-12.18-1.97c-4.21-11.7-4.39-22.9-3.27-35.02l2.19-23.88c1.49-16.17.82-32.05-1.58-48.27l-14.58-97.99-5.48-26.33-11.27-49.76-19.82-70.14c-7.66-21.87-16.32-42.47-25.7-63.54l-.81.39v.02ZM762.25,525.53l5.27-7.02c.18,4.44-2.3,8.6-5.61,9.09-3.79.56-4.28-8.45-2.54-11.05,1.92-2.9,5.02-4.11,8.75-6.04l-18.03-5.24c-5.97,10.47-11.13,22.29-7.63,33.2.7,2.16,3.54,2.68,5.23,1.66,6.08-3.64,12.32-6.35,17.92-10.6,3.8-2.87,4.22-10.63,2.21-14.9-1.95.12-4.71,1.81-5.85,2.68-1.12,3.2-1.2,5.21.29,8.22h0ZM768.3,511.69l1.75-.63-1.75.63ZM770.64,511.74l-.52.48c2.34,3.78,2.26,8.56,1.08,13.51,2.77-1.01,6.81-4.08,6.32-8.06-.3-2.49-4.86-5.1-6.88-5.93ZM1205.57,1184.08l15.28-1.25c6.82-.55,13.21-3.02,17.68-9.53l-22.01-13.86-4.47-2.03-20.69-9.32c-4.18-1.88-7.53-4.2-11.09-6.95-9.54-7.38-18-14.98-25.2-24.64l-7.78-12.9c-7.74-15.47-12.81-31.24-17.22-48.02l-10.75-40.87c-2.92-11.11-5.18-21.68-7.33-32.99l-8.72-45.94-13.07-58.24-19.14-80.55-21.62-88.21-12.04-42.8-24.65-9.89c-3.99-1.6-8.98-1.85-13.09-.44-.84,3.86-.21,8.62,1.14,12.4l7.93,22.32,6.92,10.95,16.74,34.85c11.65,26.09,21.57,52,28.48,79.73l14.08,56.45,13.8,64.06,10.7,70.1c3.41,22.32,5.75,44.06,4.52,66.72-.81,14.86-3.39,28.94-2.95,43.61l2.82,14.7,8.02.9c1.66-2.4,3.47-4.12,5.38-4.15,7.22-.13,10.96,11.5,12.63,20.45l2.85,15.32,2.37,5.31c20.09,9.62,47.48,16.59,70.49,14.71h0ZM1013.35,710.96l-.02.56v.58l.02.56.02-.56v-.58l-.02-.56ZM1019.39,717.32c-.07-1.66-.05-1.19-.02.11l.02-.11ZM1020.32,717.94l-.57.32.36.98.55-.13-.33-1.15h0Z"/>
  <path class="st0" d="M819,374.22c8.33,4.53,12.78-4.94,13.98-3.99l1.95,1.55c1.62,1.28-7.94,6.18-5.88,15.11l5.39-6.61c.62-.61,1.25-1.11,1.82-1.28s1.65,1.73,1.66,2.48l.29,13.08c2.21-4.6,2.39-8.66,3.19-13.24l.45-2.57c.12-.68,1.68-.85,3.19-.77-1.06,7.26-1.49,15.97-5.52,20.2-.57.6-3.53.23-3.74-.58-.83-3.08-1.03-8.46-1.3-12.33-1.7,2.08-4.99,6.62-7.2,5.04-3.82-2.73-1.3-8.13-1.83-11.95-3.42,1.07-9.81-.89-8.42-4.61,1.66-4.42,11.02-11.41,17.49-11.76l-3.05-13.5c-.3-1.33,1.32-4.48,2.62-4.8s3.97.9,4.71,2.04l3.63,5.55,3.26-8.57c-3.54-.12-7.64,0-10.68-1.53-4.79-8.1-9.05-21-5.23-29.54,6.39,4.25,9.77,9.99,12.23,16.75l8.1,2.74c.24.25,1.09,1.08,1.07,1.19-.03.13.79-.66,1.01-.81.33-.23-.4-1.18-.76-1.47-4.82-3.85-7.97-8.03-11.17-13.01-6.06-9.47-10.08-19.3-10.35-30.78-.11-4.74-7.89-3.08-16.5-8.44-8.07-2.94-14.33-8.01-18.63-15.77-.9-.6-2.93-1.49-4.2-1.68-1.1-.16-2.09,1.76-2.81,2.67l-7.55,6.5-8.12,8.2-28,27.81c-6.92,6.87-24.51,30.92-29.54,40.08l-31,56.44-8.65,16.25c3.4-2.41,6.1-3.63,9.48-3,28.83,5.44,44.85-22.16,73.95-36.21,10.87-5.24,18.51-13.34,24.92-23.31,6.44-4.95,15.49-6.95,23.7-7.32l14.25-.63c.57-.03,1.92.94,2.3,1.29s-1.26,1.8-1.83,1.84l-14.71,1.23c-7.33.61-15.3,1.86-21.17,6.16-6.37,9.85-14.04,18.11-24.74,23.4-10.13,5.01-19.1,11.22-27.92,18.36-16.28,13.15-31.1,22.94-52.47,18.27l-8.27,6.21c-2.88-2.6-2.09-5.9-.59-8.6,3.11-5.58,5.08-11.38,7.78-17.16s6.23-11.56,8.74-17.85c4.33-10.87,11.08-20.13,16.74-30.24,3-5.35,5.22-10.34,9.15-15l8.23-9.76c6.26-7.43,11.32-15.38,17.77-22.61l17.82-19.97c5.79-6.49,12.12-11.67,19.07-17.07,3.6-2.79,6.71-7.53,10.57-9.92,5.12-3.16,10.19,2.09,12.99,5.78,4.46,5.92,10.39,9.85,17.54,11.81l-4.77-5.66c-4-4.73-10.19-11.6-9.46-15.9.78-4.65,7.97-5.73,16.13-2.76,2.73.99,11.83.24,16.02-1.46l15.91-6.47c11.55-4.7,16.41-23.17,13.32-23.88-4.2-.96-6.3,2.28-9.35,3.79-6.55,3.21-13.05,6.8-19.98,9.01-10.3,3.28-20.5,5.14-31,6.28l-10.91,1.19c-6.69.73-12.56.88-19.31-1-11.14,10.4-22.41,20.66-31.93,32.66l-39.5,49.82-12.53,15.91c-13.17,18.46-25.82,36.75-36.83,56.61l-16.73,34.88c-2,4.15-1.81,8.91,2.42,12.09,4.8,3.61,11.54,5.55,17.87,6.69,19.93,3.58,39.43,2.19,59-2.91,18.05-4.71,34.89-11,51.87-18.58,2.27-1.01,4.57-1.83,7.15-1.61-18.31,10.92-37.89,17.72-58.52,23.18-23.81,6.3-51.56,7.53-74.54-1.28-5.86-2.58-10.07-7.73-10.04-14.43,6.69-14.07,11.96-28.15,19.67-41.63,12.32-21.5,25.71-41.59,40.72-61.25l30.86-37.88,5.92-8.76c11.05-16.38,25.53-31.46,40.86-44.06l4.9-2.89c9.45.64,18.84.37,28.19-.9l11.38-1.54c5.83-.79,11.68-2.33,17.39-3.71,3.35-9.22,8.31-17.47,16.5-22.29,7.66-4.5,14.02-9.79,21.28-14.96l7.24-3.92c14.21-2.09,37.17-.55,44.12,11.85l11.58.98-.6,11.75,6.2,2.69,1.08-12.78c.19-2.25,1.33-5.11,3.83-5.41,13.07-1.61,19.4,26.47,27.25,37.27,3.66,5.04,7.19,9.6,9.74,15.25,3.39,7.51,7.6,14.16,13.6,19.99l5.07,5.98c7.33,8.65,15.86,14.89,24.98,21.43,18.18,13.03,36.36,24.63,55.44,36.3l33.32,22.52,35.25,23.06c3.02,1.98,4.67,4.54,3.84,8.34-1.96,8.96-7.34,16.08-13.57,22.58-16.41,17.14-37.38,13.5-58.25,4.7-11.53-4.86-21.72-10.86-31.94-17.97l-31.36-21.87c-3.81-2.66-7.2-5.16-10.27-9.46,4.3.98,7.87,3,11.62,5.52l35.34,23.76,19,11.18c10.52,6.18,22.39,10.31,34.51,11.81,9.02,1.11,17.26-.94,23.99-6.39,8.65-7.01,15.18-15.72,17.33-26.83l-11.28-7.22-40.11-27.64-28.67-18.63c-22.29-14.48-58.78-35.53-73.34-54.73-6.23-8.22-13.68-15.05-17.65-25.07-2.23-5.61-6.96-9.91-9.46-15.26l-11.77-25.27c-2.96-6.35-9.22-13.76-13.84-10.87l3.88,1.09c-6.83,7.16-.47,23.61,4.81,32.95l3.13,5.55c5.51,9.76,11.02,19.56,13.32,31.13-8.72.25-14.7-4.85-20.43-11.18-.79,3.6.55,7.06,2.43,10.39,2.08,3.68,3.72,8.57,6.38,11.57l3.23,3.65,8.73,7.56c3.97,3.45,7.51,4.27,12.87,2.56,2.65-.84,8.62-2.22,11.11-.97l13.85,6.97,37.09,19.47c16.41,8.61,30.95,18.54,44.99,30.65l8.76,7.57,16.19,16.39,2.28,2.69c.88,1.03-2.09,6.94-7.69,6.52-20.16-1.53-38.58-8.06-55.91-18.24l-24.61-16.57c-3.97-2.68-6.61-6.57-9.93-9.91-5.2-5.22-11.59-9.71-17.35-14.14-7.01-5.38-14.19-6.31-22.59-6.16-10.52.19-19.66,1.85-28.16,8.23-7.53,5.65-24.45,11.14-26.73,4.12,8.77.88,17.26-1.32,24.26-6.54,9.24-6.88,19.24-9.13,30.58-9.31,8.64-.13,16.48.52,23.52,6.1l21.98,17.43,5.57,6.34,19.85,13.73c18.36,11.4,38.34,19.59,60.25,20.91-7.02-9.96-14.08-18.03-22.57-25.04-9.7-8.01-20.47-13.96-30.41-21.17-4.82-3.49-8.7-6.68-13.91-9.52l-20.37-11.12-22.85-11.47c-4.56-2.29-11-4.31-15.7-3.04-7.35,1.99-13.22,1.01-18.52-3.97l-8.65-8.14c-9.33,5.69-19.24,9.75-30.59,11.49-2.24,6.42-5.09,12.83-6.34,19.74-1.69,9.41,2.08,19.48,7.75,26.54,5.44,6.76,12.39,9.14,21.32,9.5-4.91,3.26-10.83,1.6-15.61-1.38-11.48-7.15-17-20.42-15.75-34.17-2.92,6.31-7.5,11.04-12.79,15.69-10.38,9.13-25.2,21.49-36.09,11.95l-10.44-9.16c-6.93,7.8-3.6,14.05-9.31,21.94l-2.97,4.11,3.38-.2c.75-.04,1.93,1.28,2.29,2.07,2.65,5.84-.96,11.74-7.41,14.06-.97.35-3.16-1.62-3.16-2.98,2.58-.64,5.2-1.17,6.89-2.91s2.07-4.14.89-7.84c-4.42,1.66-2.48,7.28-7.31,9.51-1.84-6.51.47-11.5,1.33-17.57-.67-3.47-2.95-8.14-7.2-9.74.81,6.5,2.33,12.27,3.8,18.64-4.56.41-9.16,1.32-12.49,4.3l-6.28,5.61h.03ZM868.89,323.44c-3.99,1.42-7.2,3.23-8.35,7.12l10.66,9.49c8.47,1.9,15.53-1.37,21.68-6.84,11.37-10.11,20-22.62,27.35-35.94l-18.04-.25c-11.95-.17-23.03-2.87-33.72-7.44,2.62-.54,4.83-.56,7.18-.18,15.7,2.61,31.17,4.09,47.1,2.35,10.55-1.15,20.08-5.43,29.66-9.75-10.15-10.12-15.96-22.61-6.6-32.97,3.04,4.8,5.22,8.04,9.69,10.28-3.51-15.41-11.55-28.64-16.07-44.42-20.57-5.1-41.58-6.27-62.96-4.94-3.57.22-6.78,0-10.36-.72l19.19-2.36,1.73-8.14c1.84-8.69,14.77.55,28.39-1.9-8.94-5.54-18.62-5.5-28.67-5.45-4.27.02-7.5.71-11.1,2.64l-9.56,5.14c-3.87,2.08-7.01,4.83-10.24,7.76-5.44,4.93-11.18,9.15-14.14,16.75l11.05-4.51c2.55-1.04,5.62-3.5,8.25-4.31,4.04-1.24,7.81,1.21,8.23,5.5.79,7.97-2.87,19.65-9.96,24.42-.36,7.04.52,13.79,1.37,20.7.59,4.73,1.16,9.17,2.9,13.61,1.27,3.26,2.17,6.26,1.07,9.81-3.62-7.46-4.65-14.64-6.79-22.14l-1.58-5.52c-6.71-.4-10.9-3.91-13.83-8.88l-10.41,2.43c-2.49,18.37,1.47,28.07,6.61,44.08,3.02,9.42,10.2,21.49,17.73,27.42,4.09-4.38,7.79-7.11,13.89-8.31l-1.52,3.13c-.16.33-1.6,1.08-1.3,1.3l1.46,1.02h0ZM928.91,204.53l-5.07-.52-19.74-1.67-11.88-1.65-1.09,5.74c13.18-.21,25.63.85,38.49,3.8l-.71-5.69h0ZM855.81,259.44l-.38-12.58-10.27,4.14c2.09,4.45,5.73,7.6,10.64,8.44ZM824.91,255.21l-14.79-2.23c1.25,8.16,6.54,13.91,14.56,16.71l.23-14.48ZM959.77,262.53l-2.32-4.29-.04,3.71c0,.69,2.09.81,2.37.58h0ZM847.42,335.35c-4.02-1.35-7.37-2.43-8.51-4.56l-6.9-12.83c-1.48,8.21,2.58,13.07,4.3,20.63l8.03,1.47,3.09-4.7h0Z"/>
  <path class="st0" d="M1158.49,635.29l38.1,26.64c2.85,1.99,4.7,3.73,8.44,4.11l-6.39-13c-9.53-16.37-19.95-31.63-30.93-47.07-6.58-9.25-23.51-32.93-15.73-35.82,3.88-1.44,9.54,1.1,13.6,2.69,20.16,7.89,38.45,17.52,58.06,28.15-15.14-19.26-58.01-56.36-77.19-67.26l-28.5-16.21c-2.33-1.32-4.15-3.54-3.39-6.66l23.65-.75c9.87-.31,19.2-.6,28.9-3.28-9.09-9.22-19.82-16.77-32.53-17.64l-31.91-.04-16.21,2.71-16.28,5.25c-1.15.38-4.01-.62-4.67-1.6-.75-1.13.25-4.05,1.66-5.05l33.05-23.58c11.35-8.1,21.85-16.92,31.1-27.14,5.01-5.53,9.34-10.73,11.57-18.53-6.78-.14-12.38,1.92-18.56,3.68-15.21,4.33-29.28,10.02-43.08,17.82-10.06,5.68-19.97,10.5-30.54,14.97l-12.24,5.18c3.67-2.86,7.38-4.69,11.44-6.79l28.84-14.95c16.34-8.48,32.14-16.41,49.91-21.39,5.37-1.5,10.52-3.45,16.31-2.01,1.96,1.42,1.92,6.18.64,8.62-10.78,20.41-33.03,36.21-51.67,49.69l-23.15,16.75c11.02-3.27,20.39-7.31,31.46-7.48l31.74-.47c12.8,1.65,23.85,7.39,32.97,16.27,1.8,1.75,5.45,3.54,4.1,6.94-.93,2.33-5.52,3.92-8.51,4.08l-42.16,2.28,30.47,17.44c11.8,6.76,21.89,15.47,31.95,24.61l28.81,26.2,19.14,19.88c.6.62,1.05,2.53.98,3.2-.1.84-2.45,1.66-3.31,1.32l-7.5-2.99c-17.69-10.28-35.42-19.39-54.37-27.09l-13.04-4.13c.37,2.83.64,5.41,1.58,6.88l14.8,23.21c11.24,15.56,21.66,30.96,31.15,47.75l6.91,14.57c.4.85-.25,3.05-.93,3.43-3.74,2.09-9.97-2.82-15.31-6.88l-33.65-25.56-.58-.79-1.12-.64-.92-.73c-.23-.18,1.06-.55,1.25-.36l1.07,1.04.72.5h0Z"/>
  <path class="st0" d="M916.54,519c.56-4.39-1.06-6.24-4.18-7.89,1.49-.16,3.96,0,4.81.65s1.4,2.69,1.63,4.33c.88,6.19-3.48,13.77-10.51,12.38s-10.73-9.74-9.16-16.38c.77-3.27,7.64-7.16,6.95-7.95l2.01,2.26c15.33-3.4,29.99-11.64,42.15-22.02l7.65-20.81,4.73-12.26c2.7-7.01,5.23-13.85,8.82-20.48l11.17-20.59c5.49-10.12,11.13-19.82,18.65-28.64,3.44-4.04,11.86-9.58,14.28-6.01-8.95,1.76-16.5,12.21-21.43,20.44-8.6,14.36-16.41,28.71-23.95,43.69l-4.41,11.23-2.71,4.88-10.61,29.89c-11.69,11.19-26.6,18.67-42.03,22.72l-.2,1.82c-.13,1.24-3.17-1.75-6.15-.64-.92.34-2.13,2.12-2.45,3.35-1.32,5.01,1.68,11.63,6.68,13.15,4.41,1.34,7.76-3.25,8.25-7.13h0Z"/>
  <path class="st0" d="M986.33,469.26l-2.23,3.29c-.47.7-3.28-1.38-2.89-2.1,2.28-4.26,4.03-10.06,2.98-14.88-11.04,5.3-10.04,17.36-15.16,16.7-.8-10.53,13.54-23.56,16.92-20.71,1.67,1.41,2.21,3.89,2.67,6.36l12.44-21.57c.86-1.49,3.96-2.92,5.48-3.03,1.8-.13,4.6,1.6,5.75,3.59,8.23,14.29-2.27,39.38-13.47,52.05-1.08-2.65-.11-4.51,1.11-6.59,7.69-13.16,17.33-33.72,7.46-45.47-3.79,2.07-6.01,5.85-8.15,9.63l-12.9,22.71h0Z"/>
  <path class="st0" d="M850.47,380.85c5.41,1.73,10.75,4.35,17.15,5.58-4.17-7.74-18.37-12.24-16.7-14.11l1.75-1.94c.29-.32,2.04-.65,1.95-1.07l-.57-2.83c3.63-1.97,7.89-4.64,8.12-9.37-3.91,1.75-6.94,4.4-11.01,2.5l9.26-4.9c.84-.45,2.88-.65,3.66-.21,3.3,1.9,1.48,6.7-2.18,11.22,1.58,3.03.86,6.71-2.65,8.06l12.06,10.19c.79.66,1.75,2.73,2.03,3.71.32,1.14-1.66,3.71-3.09,3.54-7.11-.81-20.36-6.18-22-9.68-.13-.3-.03-1.44.29-1.34l1.93.62h0ZM857.07,369.1c-.33.1.61,1.33.85,1.07l1.33-1.49c.16-.18-1.59.23-2.19.42h0Z"/>
  <path class="st0" d="M826.78,490.74l11.71-15.2,14.18-21.89c3.66-5.66,6.35-11.88,8.38-18.26,1.61-5.04-.58-8.98-3.74-13.48,5.75.28,7.72,6.06,7.05,11-1.43,10.49-7,19.4-12.82,28.14l-14.74,22.14c-2.33,3.5-5.27,7.07-10.02,7.54h0Z"/>
  <path class="st0" d="M840.6,406.8c-11.59-2.26-23.27-2.6-34.88-.21-9.64,1.98-17.06,7.53-25.55,12.59,18.46-23.14,60.69-20.54,85.91-5.84-8.88-1.18-16.76-4.85-25.48-6.54Z"/>
  <path class="st0" d="M816.44,572.72c-3.48,5.33-13.26,4.57-16.28-.5-2.11-3.55-2.58-8.58-.13-11.64,3.07-3.82,9.14-3.53,13.17-.75,3.31,2.28,6.53,7.85,3.25,12.89ZM814.68,569.76c.9-3.58-1.36-6.52-3.5-7.81s-6.29-1.99-8.24-.23c-3.45,3.11-1.77,8.96,1.27,10.78,3.37,2.01,9.32,1.88,10.47-2.73h0Z"/>
  <path class="st0" d="M1121.98,547.32c1.35,3.76-.27,7.63-2.86,9.33-2.84,1.86-6.51,1.89-9.5-.16s-2.91-4.86-3.06-8.86c-.11-2.84-.32-6.65,3.61-7.42,4.55-.89,10.07,2.28,11.81,7.12h0ZM1109.92,553.48c1.58,1.72,4.71,2.83,6.78,1.66,2.38-1.34,3.54-4.31,2.46-7.12-1.14-2.97-5.8-6.29-8.74-4.73-4.97,2.62,6.48,10.51,1.84,10.3l-2.34-.11h0Z"/>
  <path class="st0" d="M1008.09,585.06c-2.91-1.54-3.15-3.39-3.21-6.42-.05-2.47-1.67-7.47,1.59-8.9,5.66-2.46,12.92,2.8,13.07,8.91.05,2.37-1.75,5.45-3.29,6.45-2.12,1.39-5.56,1.32-8.15-.05h0ZM1010.33,583.6c.65.18,3.61.04,4.68-.58.92-.54,1.78-3.09,1.74-4.19-.2-4.73-4.52-7.5-8.95-6.71-.81,1.88-.02,4.63.72,6.61l1.82,4.89h0Z"/>
  <path class="st0" d="M953.34,629.62c-.15,4.61-3.43,7.29-6.57,7.13-4.95-.24-5.8-2.82-7.26-7.14-1.14-3.37-3.28-9.25,1.79-10.97,6.21-2.11,12.25,4.4,12.03,10.98h0ZM943.33,633c.45,1.55,5.24,1.67,6.17.1,1.66-2.83,1.4-6.01-.44-8.74-1.17-1.74-4.11-3.98-7.25-3.06-3.05,4.31,1.86,6.73,1.52,11.71h0Z"/>
  <path class="st0" d="M1009.77,502c.57-2.77-4.15-5.74-7.2-4.62l.55,4.99c-2.68-.15-4.16-2.22-3.64-4.59.57-2.61,2.85-4.04,5.69-3.36,3.32.8,6.94,2.83,7.48,6.35.49,3.21-2.29,6.23-4.9,7.26s-6.59-.37-8.42-2.26c4.57.85,9.38,1.33,10.44-3.78h0Z"/>
  <path class="st0" d="M1123.1,601.71c-2.89,2.71-5.69.02-7.79-1.74-3.26-2.72-5.5-8.1-1.18-11.16,2.61-1.85,7.24.48,8.99,2.77,2.05,2.69,3.07,7.22-.02,10.12h0ZM1122.14,599.49c1.19-1.39.36-5.31-.93-6.69-1.1-1.17-4.46-2.84-5.76-1.93-2.69,1.86-.64,5.24.91,7.14,1.3,1.6,3.17,4.52,5.78,1.47h0Z"/>
  <path class="st0" d="M787.17,481c1.48-.38,1.82-4.51.93-5.58-1.07-1.29-4.38-2.43-5.08-1.25l.9,6.07c-2.26-1.16-3.12-2.18-3.51-3.54-.42-1.49.27-4.71,1.51-5.28,3.15-1.45,7.29.52,8.59,3.15,1.54,3.1.64,7.74-3.02,9.18-2.64,1.04-6.63-.22-7.52-2.48,2.4.07,4.82.33,7.19-.28v.02Z"/>
  <path class="st0" d="M774.9,651.47c-.38,1.04-2,2.62-2.97,2.83s-2.94-.58-3.96-1.37c-3.39-2.6-6.48-8.05-3.2-11.65,2.16-2.37,6.21-.46,7.95,1.26,2.31,2.28,3.45,5.51,2.17,8.93h0ZM773.19,649.21c.53-3.3-3.82-7.85-6.7-6.12-2.68,1.6,2.64,9.91,4.67,9.53.8-.14,1.82-2.06,2.03-3.4h0Z"/>
  <path class="st0" d="M802.31,622.7c-.56,1.26-3.88,1.97-4.9,1.38-3.37-1.96-5.35-8.61-3.54-10.3s5.22-.18,6.69,1c2.12,1.67,3.09,4.91,1.73,7.92h0ZM795.7,615.67l2.35,5.33c.18.41,1.63.56,2.09.42,1.42-.45-.4-5.31-4.43-5.75h0Z"/>
  <path class="st0" d="M1123.14,613.17l-16.46-8.02c-9.07-4.42-18.71-5.73-28.69-8.9,16.4,1.08,31.84,7.71,45.66,16.33l.41.47,1.27.46.47.37,2.07,1.35.5.35,1.24.5.48.37,2.07,1.35.5.36,1.24.5.48.36,2.07,1.35.51.35,2.09,1.32,1.49.95c-1.96-.12-1.98-.12-1.06-.06l-.9-.36-2.09-1.37-.5-.33-2.09-1.38-.44-.42-1.29-.43-.47-.37-2.09-1.34-.44-.44-1.29-.43-.47-.37-2.1-1.34-.43-.43-1.29-.43-.48-.34.02.02Z"/>
  <path class="st0" d="M958.58,583.16c-4.7,2.07-9.75.05-11.4-4.99.04-1.07.4-3.04,1.09-3.65s2.69-.51,3.74-.35c3.9,1.56,6.51,3.4,6.57,8.99ZM956.38,581.93c-.83-3.84-3.91-6-7.06-5.05,1.07,3.18,4.32,5.19,7.06,5.05Z"/>
  <path class="st0" d="M741.41,585.47c-1.36,4.05-5.22,3.67-7.66,2.48-2.83-1.37-4.42-5.07-1.91-8.28,1.19-1.52,4.84-1.38,7.06-.39,1.66.73,3.34,3.76,2.51,6.19h0ZM739.19,584.35c.14-1.57-1.62-3.36-2.55-3.57-.78-.18-2.9.12-3.34.77-.76,1.14.35,3.93,1.43,4.51,1.26.67,4.26.43,4.46-1.71Z"/>
  <path class="st0" d="M981.56,686.05c-.64.98-3.9,1.39-4.84.89-4.09-2.17-3.86-10.23-.04-11.56,1.54-.54,4.32,1.75,5.18,3.09,1.03,1.59,1.11,5.46-.3,7.59h0ZM978.87,685.22c1.21-.55,2.19-4.39,1.32-5.16l-2.99-2.62c-1.94,2.72-1.3,6.85,1.67,7.78h0Z"/>
  <path class="st0" d="M693.44,608.7l1.81-1.34c-1.7-.6-3.51-1.54-4.02-2.63-.65-1.4.27-4.82,1.64-5.14,2.87-.65,5.06,1.71,5.24,3.67.24,2.48,0,5.95-4.68,5.43h0ZM695.93,606.26c.91-1.59-.06-4.35-2.01-5-.48.73-.91,2.34-.41,2.8l2.43,2.2Z"/>
  <path class="st0" d="M848.25,587.52l-5.57-5.38,4.73,1.32c.21-1.3,1.48-3.41,2.34-3.15,1.9.7,2.06,6.19-1.51,7.2Z"/>
  <path class="st0" d="M723.27,481.05c-.18.22-2.28.53-2.58.49s-.24-.26-.06-.5l1.12-1.49c-1.83-.62-3.69-1.61-4.57-4.27,1.41-.46,3.51,0,4.85.83,1.25.79,2.07,3.88,1.24,4.93h0Z"/>
  <path class="st0" d="M1151.46,631.19l-1.12-.65-.9-.72c-.24-.19,1.03-.55,1.24-.36l1.07.95.71.63,1.1.64.93.73c.21.17-1.06.53-1.26.34l-1.07-.95-.7-.62h0Z"/>
  <polygon class="st0" points="1142.22 624.66 1142.8 624.66 1143.36 624.67 1142.8 624.68 1142.22 624.68 1141.66 624.67 1142.22 624.66"/>
  <polygon class="st0" points="1144.8 626.38 1145.37 626.38 1145.94 626.38 1145.37 626.4 1144.8 626.4 1144.24 626.38 1144.8 626.38"/>
  <polygon class="st0" points="1147.37 628.09 1147.95 628.09 1148.51 628.1 1147.95 628.12 1147.37 628.12 1146.81 628.1 1147.37 628.09"/>
  <polygon class="st0" points="1036.66 464.11 1037.24 464.11 1037.8 464.13 1037.24 464.15 1036.66 464.15 1036.1 464.13 1036.66 464.11"/>
  <path class="st1" d="M768.3,511.69l1.75-.63.58.67c2.03.83,6.58,3.45,6.88,5.93.49,3.99-3.55,7.05-6.32,8.06,1.18-4.97,1.24-9.74-1.08-13.51l-1.82-.53Z"/>
  <polygon class="st1" points="1013.35 710.96 1013.36 711.52 1013.36 712.1 1013.35 712.66 1013.33 712.1 1013.33 711.52 1013.35 710.96"/>
  <path class="st1" d="M928.91,204.53l.71,5.69c-12.85-2.94-25.3-4.02-38.49-3.8l1.09-5.74,11.88,1.65,19.74,1.67,5.07.52h0Z"/>
  <path class="st1" d="M824.91,255.21l-.23,14.48c-8.03-2.8-13.32-8.55-14.56-16.71l14.79,2.23Z"/>
  <path class="st1" d="M847.42,335.35l-3.09,4.7-8.03-1.47c-1.73-7.56-5.77-12.42-4.3-20.63l6.9,12.83c1.15,2.13,4.49,3.21,8.51,4.56h0Z"/>
  <path class="st1" d="M855.81,259.44c-4.91-.84-8.55-3.98-10.64-8.44l10.27-4.14.38,12.58Z"/>
  <path class="st1" d="M959.77,262.53c-.29.23-2.38.11-2.37-.58l.04-3.71,2.32,4.29h0Z"/>
  <path class="st1" d="M857.07,369.1c.6-.18,2.35-.6,2.19-.42l-1.33,1.49c-.24.27-1.19-.97-.85-1.07h0Z"/>
  <path class="st1" d="M814.68,569.76c-1.15,4.61-7.1,4.74-10.47,2.73-3.04-1.83-4.72-7.68-1.27-10.78,1.94-1.75,6.04-1.1,8.24.23s4.39,4.23,3.5,7.81h0Z"/>
  <path class="st1" d="M1109.92,553.48l2.34.11c4.64.21-6.81-7.67-1.84-10.3,2.94-1.55,7.6,1.76,8.74,4.73,1.08,2.82-.08,5.78-2.46,7.12-2.07,1.16-5.19.05-6.78-1.66h0Z"/>
  <path class="st1" d="M1010.33,583.6l-1.82-4.89c-.73-1.98-1.52-4.73-.72-6.61,4.43-.8,8.75,1.98,8.95,6.71.04,1.1-.81,3.65-1.74,4.19-1.08.63-4.03.76-4.68.58h0Z"/>
  <path class="st1" d="M943.33,633c.34-4.97-4.56-7.39-1.52-11.71,3.14-.91,6.08,1.32,7.25,3.06,1.83,2.72,2.09,5.91.44,8.74-.92,1.58-5.72,1.44-6.17-.1h0Z"/>
  <path class="st1" d="M1122.14,599.49c-2.61,3.05-4.48.13-5.78-1.47-1.55-1.92-3.62-5.28-.91-7.14,1.31-.9,4.66.75,5.76,1.93,1.29,1.38,2.12,5.3.93,6.69h0Z"/>
  <path class="st1" d="M773.19,649.21c-.21,1.34-1.24,3.26-2.03,3.4-2.03.38-7.35-7.93-4.67-9.53,2.89-1.72,7.23,2.82,6.7,6.12h0Z"/>
  <path class="st1" d="M795.7,615.67c4.03.44,5.86,5.31,4.43,5.75-.46.14-1.91,0-2.09-.42l-2.35-5.33h0Z"/>
  <path class="st1" d="M956.38,581.93c-2.74.14-6-1.87-7.06-5.05,3.15-.95,6.23,1.21,7.06,5.05Z"/>
  <path class="st1" d="M739.19,584.35c-.2,2.14-3.2,2.38-4.46,1.71-1.08-.58-2.19-3.37-1.43-4.51.44-.66,2.56-.95,3.34-.77.94.21,2.69,2,2.55,3.57Z"/>
  <path class="st1" d="M978.87,685.22c-2.97-.94-3.62-5.06-1.67-7.78l2.99,2.62c.88.77-.11,4.62-1.32,5.16h0Z"/>
  <path class="st1" d="M695.93,606.26l-2.43-2.2c-.5-.46-.06-2.07.41-2.8,1.95.65,2.93,3.41,2.01,5Z"/>
  <path class="st0" d="M935.92,253.2c1.94,5.76,1.66,11.64-1.65,16.97-8.29,13.38-34.43,12.46-44.48-2.57-5.51-8.24-3.79-18.46-.93-27.39,1.46-4.56,8.88-10.81,13.55-11.67,6.98-1.29,14.14,1.77,20.52,5.28l2.35-2.16c.22,3.31.61,4.57,2.42,6.45,4.07,4.23,6.36,9.57,8.23,15.07h0ZM908.42,243.76l-3.43-10.34c-4.49,1.37-7.51,3.68-9.59,7l3.1,8.13,9.93-4.79ZM920.48,242.52l5.68,2.75c-.64-1.8-2.83-3.94-4.95-4.74-.5-1.23-2.24-3.01-3.43-3.43l-10.52-3.68,1.77,9.72,11.43-.62h0ZM897.9,249.14l-4.26-5.68-1.69,11.21,5.95-5.53h0ZM912.61,246.24l-2.55.83c-6.78,1.78-13.18,5.63-17.09,11.64.4,6.57,4.77,10.6,10.78,12.99,6.34,3.36,15.09,3.32,21.54-.39,6.45-3.71,7.52-11.74,4.69-17.77-3.07-6.53-10.21-9.62-17.37-7.29h0Z"/>
  <path class="st0" d="M910.06,247.07l2.55-.83c4.22-1.19,9.77,1.02,12.38,4.56,3.1,4.22,3.2,9.24.38,13.74-4.02,6.44-12.69,8.31-18.67,3.1l-2.94-6.27c-2.52-5.4,2-12.04,6.3-14.3h0ZM907.86,265.85c4.06,3.66,9.28,3.14,12.76.47,3.16-2.42,5.35-6.71,3.65-10.89-1.82-4.47-5.76-6.31-10.42-5.4-2.81.55-7.3,3.54-7.36,7.75-.02,1.98.83,5.98,1.36,8.06h0Z"/>
  <path class="st0" d="M920.48,242.52c-.07-.48-.22-1.67-.3-1.59-.09.09.72-.26,1.03-.39l-.73,2h0Z"/>
  <path class="st0" d="M880.01,223.43c3.39,3.18,1.31,7.61-1.37,9.47s-7.89.94-9.02-2.89c-.6-2.03,1.16-5.31,2.57-6.38,1.81-1.38,5.97-1.93,7.83-.2h0ZM878.53,229.05c.48-.81.47-3.62-.36-3.65l-3.29-.15c-1.16-.05-2.9,2.51-2.99,3.69s1.93,3,3.21,2.97c.99-.02,2.53-1.36,3.43-2.86Z"/>
  <path class="st1" d="M912.61,246.24l-2.55.83,2.55-.83Z"/>
  <path class="st1" d="M910.06,247.07c-4.31,2.26-8.82,8.91-6.3,14.3l2.94,6.27c5.98,5.22,14.65,3.33,18.67-3.1,2.82-4.51,2.72-9.53-.38-13.74-2.6-3.54-8.14-5.75-12.38-4.56,7.16-2.33,14.3.77,17.37,7.29,2.83,6.02,1.76,14.05-4.69,17.77-6.45,3.71-15.21,3.75-21.54.39-6.01-2.39-10.37-6.42-10.78-12.99,3.9-6.01,10.3-9.85,17.09-11.64h0Z"/>
  <path class="st1" d="M908.42,243.76l-9.93,4.79-3.1-8.13c2.09-3.32,5.1-5.63,9.59-7l3.43,10.34Z"/>
  <path class="st1" d="M921.22,240.53c-.3.13-1.12.48-1.03.39.07-.07.22,1.11.3,1.59l-11.43.62-1.77-9.72,10.52,3.68c1.19.41,2.92,2.2,3.43,3.43h0Z"/>
  <path class="st1" d="M920.48,242.52l.73-2c2.12.81,4.31,2.94,4.95,4.74l-5.68-2.75Z"/>
  <polygon class="st1" points="897.9 249.14 891.95 254.67 893.64 243.45 897.9 249.14"/>
  <path class="st1" d="M878.53,229.05c-.9,1.49-2.43,2.84-3.43,2.86-1.29.03-3.31-1.8-3.21-2.97s1.83-3.74,2.99-3.69l3.29.15c.84.04.85,2.84.36,3.65Z"/>
  <path class="st1" d="M907.86,265.85c-.53-2.09-1.38-6.1-1.36-8.06.04-4.22,4.55-7.2,7.36-7.75,4.65-.91,8.6.93,10.42,5.4,1.7,4.18-.49,8.48-3.65,10.89-3.48,2.67-8.7,3.19-12.76-.47h0Z"/>
</svg>