<?xml version="1.0" encoding="UTF-8"?><svg id="Calque_1" xmlns="http://www.w3.org/2000/svg" viewBox="0 0 841.92 1190.4"><path d="M386.01,329.58c1.44-.09,3.29-.23,4.4.07s1.15,3.66,1.25,5.28c3.81-4.55,7.06-8.91,10.23-14.47-5.15-1.65-5.38,4.97-10.82,6.76,1.1-4.52,3.98-6.84,6.31-10.15s4.05-5.91,7.63-7.86c21.45-11.67,56.51-16.13,68.88,6.28l10.64,19.27c.96,1.74-.06,6.43-.56,7.85-7.9-16.41-15.99-36.88-34.06-38.74-17.44-1.79-35.21,2.5-49.4,11.9l3.59,2.8c.86.67.27,3.97-.34,4.87l-7.94,11.59c2.57.72,6.26,4.29,5.43,7.14-.41,1.4-3.6,2.7-5.23,3.28l.57,3.09c.12.65-1.25,2.23-1.96,2.44-5.89,1.74-13.66-.26-12.46-3.41l11.38,1.45-2.97-6.18,8.04-1.34c-.99-3.43-5.9-4.45-8.35-3l-3.48,2.07c-.96.57-3.59-1.64-3.2-2.04,2.35-.81,3.93-1.63,4.75-3.43.61-1.33-.94-3.53-2.37-4.45l-1.03-.75-4.72,12.19-3.4-.25c-18.81,29.61-6.31,82.97,7.35,115.21,3.58,8.46,12.02,19.84,22.34,18.9,13.67-1.24,25.88-10.99,35.56-20.38,22.82-22.16,35.77-51.25,42.76-82.71,1.07,3.12,1.15,7.46.11,11.46-8.87,33.92-28.93,70.75-59.73,87.97-2.74,1.53-3.45,3.18-5.13,5.44-9.06,12.17-14.26,25.81-14.1,41.26.07,6.9.55,13.87-.42,21.12-5.37-15.96-3.94-33.14,1.95-48.06l7.63-14.48-9.49,2.02c-7.66-2.67-13.96-6.29-19.25-12.61,1.62,14.8-2.61,27.6-8.24,40.68-13.38,31.09-19.62,46.64-48.46,67.67l-15.39,11.22c-1.05,3.41-2.67,6.24-4.67,8.99l-8.08,11.12-9.48,21.25c-4.87,10.91-11.95,20.34-16.22,31.79-7.66,20.53-14.93,40.73-24.3,60.77l-9.51,20.33-10.76,21.05-14.58,26.7-10.78,17.78-9.26,14.57,16.68-5.18c3.62-1.12,6.37-2.55,8.62-5.73l13.68-19.9c3.62-17.69,18.25-26.94,21.75-35.87,8.08-20.64,16.63-40.55,27.01-60.11l7.17-12.01c5.24-11.81,12.19-21.83,19.28-32.55l9.55-14.44c1.76-2.66,3.82-4.99,7.08-6.74-5.43,12.22-12.36,22.52-19.54,33.54l-10.31,19.45-7.63,13.5c-10.03,17.75-17.53,36.05-25.55,55.3l14.92-6.58c6.84-3.02,13.8-5.85,21.48-6.23l5.62-22.02,8.28-28.27,10.12-31.23c3.07-9.46,10.63-24.49,20.27-26.38l-3.11-11.38-8.13,6.58-2.05-1.79c-.5-.44,1.01-2.22,1.56-2.64l8.39-6.38c5.51,3.92,4.78,10.33,6.17,15.51,16.68,11.49,17.02,40.23,9.38,59.01-9.57,23.54-28.67,45.75-53.62,53.1l-6.94,17.5,8.17,8.38c4.73,4.85,6.33,11.39,5.6,18.26,3.5.42,6.27,1.19,8.31,4.3-10.8,1.4-20.58,2.85-30.6,6.79l-27.6,10.85c-5.23,2.05-9.19,4.2-14.57,5.84l-14.46,4.41-33.41,10.05-8.29,2.79-10.41,4.09-19.68,6.31-43.61,15.63-16.41,6-6.24,3.46c4.12,2.01,7.22,2.49,11.41,3.42,27.49,6.08,54.58,10.53,82.8,11.51l46.21,1.6-3.67,4.98-18.86,9.87c-10.3,5.39-16.96,3.85-16.11,11.47.39,3.53,3.49,4.63,8.49,5.53l-18.05,11.06-30.9,17.88-26.43,15.76c-5.8,3.46-17.11,14.9-13.23,19.1,15.52,4.66,31.55,3.69,47.73,2.18l32.66-3.04,44.26-4.43c1.47-.15,4.18.76,4.92,1.78s.42,4.42-.52,5.35l-18.75,18.53c-2.05,2.02-2.65,2.47-2.94,5.32-.37,3.66-1.16,8.44,3.32,10.54,2.44,1.14,8.27.11,10.41-1.99,6.27-6.16,4.44-14.9-1-21.46,5.74,1.14,7.38,6.69,7.79,11.24s-1.28,9.8-5.11,12.72c-3.85,2.94-9.65,4.3-14.04,2.16-4.18-2.04-5.11-7.44-5.24-11.89l-20.68,11.04c-12.04,6.43-23.73,12.71-34.37,21.19-2.62,2.09-4.38,4.68-5.61,8.06,6.25,1.3,11.31.36,17.21-1.05l27.91-6.66,21.84-6.74c15.2-4.69,29.56-9.06,43.18-17.53l13.36-6.61c4.25-11.43,15.74-22.42,21.82-14.26l7.16-4.01c.87-.49,3.92.74,4.04,1.7l.51,4.11c.44,3.52-2.2,5.82-3.32,8.82l-4.51,12.01c-4.31,11.48-5.13,26.16,4.8,30.06,8.76,3.44,21.29-13.65,22.45-19.57l6.1-31.12c.25-1.3,1.15-3.29,1.95-3.98.93-.8,4.36-.39,5.19.55,4.4,5.02,6.63,11.65,9.04,17.75,3.16,8,7.59,15.42,8.21,24.11.35,4.97.83,10.02,3.55,13.92,2.11-2.41,7.01-4.69,8.28-2.62,6.61,10.82,14.84,19.15,26.25,24.78,6.44,3.18,13.91,3.38,19.87-1.76,4.03-3.48,9.37-7.69,12.12-12.51,7.79-13.64,11.78-28.21,15.01-43.6,4.36-20.8,7.29-41.38,9.3-62.6.75-7.88-1.4-15.45,4.17-22.73l3.04,7.78-1.99,31.37-.13,1.88c-.03.48,1.32.44,1.85.25,7.42-15,13.13-30.04,17.4-46.11.46-5.52.89-10.9,4.21-15.71,6.45,11.49-1.2,30.69-5.99,43.64-3.19,8.64-6.92,16.84-12.15,24.3-2.04,2.9-5.21,4.28-9.09,2.97-3.98,28.02-9.16,58.62-22.82,84.01-2.27,4.23-5.58,6.65-9.14,9.24-5.9,4.28-11.32,7.88-17.98,11.02l-6.88,5.3c-10.36,2.94-20.28,4.28-30.87,5.68l-21.18,2.79c-7.49.99-15.43,1.51-23.13.52l-34.12-4.4c-9.89-1.27-19.63-3.09-28.74-6.75l-20.53-8.26c-9.68-3.9-25.95-13.43-24.68-22.18.83-5.73,5.88-10.94,11.24-11.6l12.41-1.54,46.21-.27c3.98-.02,8.35,2.02,11.48,3.4-2.17-6.23-2.85-11.96-2.34-18.3l-16.5-6.31c-4.39-11.1-18.43,5.58-37.77,11.29l-24.48,7.23-33.33,9.62-21.17,4.98c-2.89.68-8.72,1.72-10.67-.69-4.54-5.64-.92-13.01,3.92-16.57l10.61-7.8,17.73-11.83,22.68-12.41-.79-1.95c-8.1-2.75-16.77-4.78-22.99-10.45-3.88-3.54-6.27-5.39-12.41-4.7l-7.1.81,2.6-2.07c-18.01,2.58-35.07,3.17-52.62-.47-3.24-.67-6.58-3.45-7.15-5.91-.94-4.06.98-7.51,3.54-10.27l1.32-1.42c.41-.44-1.21-.99-1.87-1.08l-17.18-6.92-31.12-14.01c-6.9-3.1-12.45-8.71-18.89-12.6-1.8-1.09-4.23-2.37-4.69-3.79-1.1-3.36,2.66-9.67,8.5-12.82,17.74-9.56,58.57-11.12,81.63-11.88l36.35-1.21c7.55-.25,15.59.64,22.57-1.89l15.98-5.78c5.1-1.84,9.84-4.64,14.46-8.29l-53.82-3.18-6.14,1.65-41.97.26-40.45-6.54-2.26-1.39c-2.96-1.83,2.94-9.3,13.5-11.88,1.13-2.75,3.21-6.05,6.3-7.17l14.13-5.13,22.06-8.62,41.04-14.63,15.83-6.02c10.26-11.13,15.87-24.56,22.83-37.84,8.58-16.4,16.4-32.32,23.01-49.67l9.02-19.63,11.57-27.94,12.3-27.12,7.86-16.09,12.33-23.05c3.22-6.03,4.84-12.76,8.31-18.69,3.31-5.66,8.38-10.17,12.56-15.1,3.7-4.36,7.19-7.96,12.03-11.19,30.59-20.4,41.2-37.49,54.58-71.73,7.24-13.89,10.45-28.76,7.68-44.27-6.94-15-11.36-30.44-14.58-46.72-3-12.81-3.65-24.86-4.29-38.83-3.05,9.54-3.1,19.18-3.84,29.62-.56,1.45-1.57,2.13-1.96.04-1.24-16.34.97-32.73,8.05-47l3.76-7.58c-2.49.85-4.21,1.49-5.4,1.42-1.39-.08-2.08-4.05-1.66-5.38l1.11-3.45c.27-.83-2.7-1.67-3.08-2.48-1.53-3.25,1.99-9.58,6.39-9.03.07-.89.14-1.77.09-1.19l-6.15-5.39c-1.69-1.48-3.31-5.55-.51-7.14,1.83-1.03,5.32.06,7.8,1.51-.06.07.83-.86.86-.89-2.45-9.14.29-17.56,3.86-16.31,1.01.35,2.75,1.74,3.29,2.78l7.02,13.5c1.1,2.12.33,6.17-.99,8.12-2.03-8.09-5-14.49-9.7-20.7-2.87,8.8,1.81,14.87,1.79,19.83-.01,2.77-6.8-3.32-11.73-4.59,3.46,5.87,10.75,8.24,9.79,11.26-.82,2.58-6.8,1.24-7.57,2.76l-2,3.97,5.89.56c5.17.49-5.22,3.48-2.67,9.38l8.6-9.83c-1.7-2.92-1.76-5.39-.26-7.76,1.14-1.79,4.29-1.58,6.66-.87l3.58-1.19c.2-.07.49.11.79.24ZM378.07,337.1c2.71-.23,3.11-4.63,1.55-4.99-.91-.21-2.81.99-3.28,1.75s.7,3.33,1.74,3.24ZM321.72,728.57c16.17-13.69,27.49-27.18,33.71-47.65,4.41-14.51,3.41-29.64-3.83-42.63-1-1.79-3.71-3.77-5.28-4.18-6.84-1.79-15.59,16.49-18.96,27.21l-10.96,34.96-6.99,23.7c-1.69,5.75-3.46,10.99-4.2,16.58,5.86-2.65,11.98-4.16,16.51-7.99ZM266.51,767.28c5.22-6.47,17.65-13.37,26.33-9.29l6.36-15.94c-5.26.45-9.85,1.89-14.48,4.02l-16.64,7.65c-3.2,1.47-6.09,5.74-8.93,8.15-13.52,11.51-21.73,27.88-21.87,45.9l9.25-2.79,16.29-6.14c-5.76-8.78-2.53-23.85,3.69-31.56ZM280.06,784.35c-2.11-1.47-3.48-3.35-3.32-4.83.12-1.14,1.72-3.53,2.85-3.89l5.15-1.61,6.2-12.53c-8.73-3.22-21.05,5.05-24.62,13.34-5.02,11.67-2.8,23.14.73,22.92,6.06-.38,10.23-7.11,13-13.4ZM306.71,785.88c.97-10.25-4.17-16.81-12.03-22.84l-6.08,12.25c3.59,3.34,4.67,8.17,4,13.08l14.11-2.49ZM283.14,777.52c-2.71.54-4.36,1.81-3.96,2.62l1.44,2.98,2.52-5.6ZM289.52,789.38c.54-4.27.46-8.2-2.13-11.02l-6.64,14.26,8.77-3.24ZM233.52,809.85l-.87-10.26-8.4,12.98,9.27-2.73ZM143.89,880.29l-47.82-9.48c-5.36-1.06-10.65-2.19-15.34,3.64,13.97,2.52,27.05,6.13,41.02,6.02l22.14-.18ZM121.92,958.94l4.64-3.55,12.37-9.7c12.68-9.95,26.89-16.43,41.7-22.62l14.05-7.22c-3.98-4.95-8.21-4.47-13.29-4.24l-43.6,1.95c-22.59,1.01-44.07.68-66.13,6.93l-19.94,3.8c.91,3.43,3.69,5.56,7.07,6.9l11.06,4.38,52.07,23.38ZM221.19,996.56l18.77-18.71-48.5,5.59,25.27,8.56c1.02.35,3.28.57,3.53,1.43l.92,3.13ZM299.11,996c.51-.33,1-2.08,1.09-2.65.29-1.93-9.7,2.3-12.45,9.95l11.36-7.3ZM300.37,1014.93l6.53-18.6-22.29,14.41,15.75,4.19ZM360.26,1029.97l-8.81-18.53c-.42-5.7-2.42-10.55-6.05-15.16l-2.81,13.95-3.17,14.88,20.84,4.87ZM306.73,1049.29c-13.12-3.11-26.2-1.4-39.1-1.18l-7.68.13-18.42,1.45-5.48.82-4.37,1.04c-1.05.25-1.63,2.91-1.56,4.43,8.85,6.67,18.03,11.28,28.27,15.01l20.59,7.08c18.67,3.88,36.66,6.67,55.63,7.98,7.5.52,13.81-1.18,21.05-2l16.31-1.85,11.94-1.52c6.84-.87,13.64-1.94,19.27-5.89-12.74-5.91-21.71-14.65-29.31-25.9-2.79,2.79-8.65,4.1-10.14-.04l-3.35-9.34c-7.52-.76-11.84-9.22-22.87-9.04l-8.94,14.87c9.75,1.14,17.78,4.66,25.64,9.36,3.08,1.84,7.4,4.1,7.78,8.01-5.58,12.21-28.52,16.8-41.05,15.05l-20.4-2.85c-2.02-.28-5.57-3.33-6.37-5.09-1.9-4.16.49-10.83,4.51-12.96,8.1-4.29,16.07-7.13,19.28-.43.75,1.57.79,6.15-.59,7.14l-6.97,4.96,23.41.15c3.86.02,14.08-2.85,16.66-5.92-6.59-4.12-12.24-6.55-19.58-8.24-3.75-.86-8.47-3.92-12.42-3.7-4.45.25-7.3-.46-11.75-1.51ZM309.83,1067.12l-6.93-1.38c1.96,1.68,4.22,2.23,6.93,1.38Z" stroke="#000" stroke-miterlimit="10" stroke-width="5"/><path d="M550.91,731.34c24.85-36.07,45.32-74.16,59.76-115.59,10.15-29.11,17.1-58.08,19.83-88.68l1.18-26.39c.02-.44.35-1.9.75-1.8l2.15.57-1.43,32.11c-7.44,71.89-38.84,142.32-79.83,201.26-13.49,19.4-27.97,36.65-45.55,52.36-19.58,17.5-37.91,30.27-64.55,33.48-2.92.35-6.85,1.14-9.63.5l-21.11-4.88c-3.5-.81-6.42-4.03-9.16-6.08l-31.32-23.41-10.16-8.07c-5.46-6.27-8.39-24.38-1.69-29.14l9.6-1.61c-5.67-19.27-8.03-38.71-7.38-59.18.44-22.77,4.48-44.7,11.41-66.12l2.1-2.42c.52-.6,2.72.41,3.28,1.11l8.09,10.08.61-7.08c2.17,2.38,3,5.62,1.54,9.29,12.59,12.12,26.66,23.35,42.37,31.71,3.79,2.02,7.99,3.04,12.42,1.6-6.9-4.46-12.67-8.8-18.19-14.91-7.94-8.79-17.4-16.88-27.1-23.17-.93.24-2.96,1.05-3.26.41l-1.42-3.03-9.48-5.97c3.86.29,5.93,1.17,9.93,2.57l.95-15.74c.06-.97,1.85-3.38,2.77-3.45,3.45,1.45,7.52,5.15,10.49,7.96l16.82,15.94,3.06.58,5.95,5.61c.52-17.18,3.77-33,8.42-49.63l2.46-8.8,10.85-16.04c6.66-9.85,16.8-15.82,26.61-22.3l23.18-12.38,27.5-10.88,20-6.74c4.64-1.56,10.58-.53,14.91-.09,3.03-2.83,6.38-5.94,9.91-7.6,5.79-2.72,12.18-.05,15.75,4.56.6-.22,2.2-1.33,1.95-1.77l-1.51-2.71c-.58-1.04.13-3.8,1.11-4.27s3.29-.73,4.29-.32l4.13,1.7c1.11.46,1.31,4.01,1.04,5.28l-6.08,28.61c-6.25,29.42-13.55,57.84-24.41,85.82l-12.39,31.91-8.7,21.11-12.65,27.63-12.92,23.44-19.4,26.54-16.48,17.25-24.61,32.76c-6.04,8.04-13.05,16.05-23.01,19.28,2.43-5.6,7.19-8.37,10.88-12.19,6.88-7.11,13.03-14.01,17.63-22.66l12.33-23.19c8.77-21.55,15.62-43.34,20.04-66.27l7.72-40.09.13-22.16-16.08,15.66c-7.19,7.01-16.18,10.62-24.83,15.52l-15.1,8.55c-10.33,4.46-21.54,4.67-30.68-1.57l-22.79-15.56c-10.45-7.14-18.79-16.21-26.86-26.25-13.08,40.52-14.08,82.3-4.15,122.35,3.99.44,7.58,1.28,10.94,2.62l15.91,6.36c16.36,6.54,31.1,15.26,46.21,24.5,3-1.19,5.57-2.92,8.08-5.33,2.15-2.05,8.02-4.27,9.6-.87,2.94,6.31-2.39,12.3-6.28,16.67s-7.1,7.45-12.07,10.36-4.13,8.55-8.72,4.03c2-3.79,4.82-6.56,8.78-9.15,3.89-2.54,6.99-6.38,10.06-9.91,2.13-2.45,3.82-4.21,4.02-7.83-8.81,3.35-10.46,10.82-19.5,8.45l-2.35-3.72c-4.93-4.31-11.58-5.67-17.07-8.91-9.08-5.35-17.86-9.57-27.63-13.54l-12.93-5.26c-5.02-2.04-11.14-1.57-16.64-1.06-2.82,11.21,1.89,21.69,11.88,26.99,12.39,11.55,25,22.67,40.27,30.48,16.46,5.59,29.85,6.98,46.42.87s30.26-16.58,43.48-28.35c17.6-15.66,32.18-32.87,45.58-52.32ZM490.34,757.57c19.57-24.12,34.08-49.5,46.82-76.48l2.6-48.1,3.49-1.85-2.25,40.92,13.53-29.1,17.65-42.98,3.89-12.48,8.24-29.03,7.53-35.47c1.07-5.03,2.86-11.22,1.34-16.39-1.68-5.7-10.33-6.86-14.91-4.01-5.34,3.32-7.82,8.84-11.97,12.71-5.47,5.1-9.1,11.09-12.68,17.58l-5.43,9.85-16.43,29.57c-9.94,17.89-18.23,35.67-25.63,55.17l7.48-6.09c.62-.51,2.83-.94,3.18-.29l1.31,2.42-.36,29.62-6.17,30.32c-5.17,25.42-12.62,49.45-21.26,74.12ZM490.02,591.97c4.5,7.65,4.25,14.03,1.93,20.74l-1.8-14.1-16.58,39.24-9.22,15.73c6.74-5.16,12.55-11.23,16.99-18.61l24.5-40.66.15,5.14.62,15.87c9.52-21.01,18.53-41.91,30.09-62.12l10.14-17.73c5.47-9.57,10.91-18.39,18.34-27.55-9.07,0-17.19,3.55-25.76,6.71l-23.13,8.52-16.46,7.78c-10.82,5.11-20.75,12.07-30.08,19.43-6.29,4.96-10.55,11.3-15.13,17.58-10.67,14.61-14.44,45.92-16.21,65.66-.19,2.07-1.17,3.67.48,5.42,6.09,6.46,10.95,12.9,15,21.01,8.55-8.2,15.1-17.89,19.74-28.94l16.41-39.12ZM469.04,654.96c12.56-4.54,22.55-11.4,30.81-20.74,3.49-10.38,4.57-20.81,4.29-32.01l-19.11,33.58c-4.25,7.47-10.36,13.06-15.98,19.18ZM451.57,660.58l-7.99-11.7-21.68-22.61-14.27-13.33c-2.92-2.73-4.9-5.03-8.57-7.14l-.85,17.24c11.99,6.93,21.37,15.36,30.62,25.19,7.27,7.72,17.24,18.18,22.74,12.35Z" stroke="#000" stroke-miterlimit="10" stroke-width="5"/><path d="M486.12,958.92l5.72-17.87c6.4-20,8.83-40.53,10.95-61.41l3.2-31.53,3.24-13.6,3.2-17.81c1.17-6.51,2.93-12.19,5.75-18.09l5.92-12.42,11.66-22.86c-1.2,7.98-2.95,15.74-5.89,23.84s-8.32,15.12-9.99,23.22l-7.42,35.93c-4.42,21.41-5.6,42.84-8.43,64.51-.79,6.02-3.47,11.26-4.97,17.01l-7,26.83c-3.55,9.22-6.78,17.55-8,27.56l-2.55,9.71-3.51,11.06c-2.35,7.43-3.49,13.57-1.11,21.38,1.19,3.91-1.98,9.03-2.71,12.77l-2.47,12.71,18.42,3.05,70.96-.11,15.48.05,29.89.73-25.84-16.31-64.51-49.38-9.06-8.52c-.3-12.63-1.58-24.69-.13-36.64,1.06-8.78,4.64-16.13,7.75-23.75l11.76-28.75,19.35-42.15c19.37-42.2,35-85.35,49.61-129.45l7.1-28.43,7.98-45.78,3.48-21.14c.12-.71,1.82-3.03,2.16-2.51s1.47,2.57,1.37,3.33l-3.16,24.96-3.49,24.67-7.63,33.21-6.48,25.1-11.22,32.93-8.1,23.5c6.06-.28,12.04.64,17.16,3.68,3.55,2.11,4.7,6.06,2.78,10.05l28.45-1.15c1.25-.05,3.79,1.01,3.9,2.01l.54,4.77c-7.81,12.47-18.64,23.77-32.81,29.35.73-4.84,4.73-6.71,7.87-9.11,8.01-6.15,15.41-11.95,20.25-22.07-11.63-.74-23.38-.53-34.81,2.81-3.24.95-6.86,5.06-10.63,1.04-4.13-4.4,14.25-3.95,13.05-12.28-3.56-5.05-11.88-4.91-17.59-4.12l-12.14,30.22-19.8,40.5-19.47,43.67c-6.77,15.18-11.22,31.03-13.22,47.55l1.06,22.9c26.99,22.07,53.76,42.91,82.1,62.73,12.99,9.09,23.53,9.73,26.36,12.79.62.67-1.1,3.61-2.17,3.65l-18.96.72-61.37-.33-39.3-.04c-11.09-.01-21.2-2.28-31.86-5.31-5.99-1.71,2.48-13.84,1.37-28.93-.54-7.3.37-13.26,2.8-20.01l7.36-20.47,7.79-24.18Z" stroke="#000" stroke-miterlimit="10" stroke-width="5"/><path d="M534.68,937.83l9.59,2.69,49.87,14.37,73.44,18.3c13.49,3.36,42.77,8.94,47.4,2.43,3-4.21-1.38-11.33-5.66-17.11-9.45-10.49-20.06-18.81-32.24-26.43l-62.14-22.05-16.56-7.87c-.64-.3-1.59-1.79-1.74-2.3-.2-.68,1.56-1.27,2.84-1.58,21.05,5.32,41.09,12.17,60.82,20.91l15.13,8.04c6.63,3.52,15.13,4.53,22.85,4.5-2.23-7.92-7.95-12.12-13.27-17.09-16.78-15.65-34.67-29.07-53.38-42.37l-15.2-10.81c2.26-2.82,5.21-3.09,8.17-2.45l10.43,2.25-29.26-18.45c11.6,3.65,22.26,10.02,32.11,16.27.86.55,1.9,2.82,2.08,3.78s-2.23,2.73-3.25,2.51l-12.88-2.75,45.69,33.97c11.11,8.26,20.47,17.65,29.51,27.96,1.96,2.23,3.23,7.77.67,9.52-3.17,2.17-8.18.84-12.47.47,7.83,6.31,15.74,12.22,22.43,19.73s12.5,17.64,7.72,23.62c-1.47,1.84-4.89,3.76-7.71,3.84-9.95.28-19.2-.05-28.89-2.41l-53.13-12.91-60.91-15.82-32.7-11.77-1.6-1.25,1.18.07,1.04.18ZM616.83,906.9l1.2.06-1.2-.06ZM618.99,907.4l-.48.5,2.37.51.48-.5-2.38-.51ZM621.85,908.38l-.49.5,2.4.48.48-.5-2.39-.48ZM624.81,909.14l-.6.9,10,3.39.61-.93-10.02-3.35ZM635.37,912.98l-.6.9,10,3.39.59-.94-9.99-3.34ZM645.93,916.88l-.63.86,6.99,2.12c-1.97-1.79-4.13-2.48-6.36-2.98ZM653.65,920.36l-.63.02.63.02h.65l.63-.02-.63-.02h-.65Z" stroke="#000" stroke-miterlimit="10" stroke-width="5"/><path d="M513.64,484.52l-27.1,4.42c-10.74,1.75-19.8,8.62-29.49,13.26l-43.96,22.23-2.33-.6c-.61-.16.8-2.18,1.34-2.53l58.47-30.36c8.09-4.2,16.37-6.15,25.24-7.57,31.23-5,53.52-8.85,86.26-7.47,12.35.52,23.95,3.25,35.13,7.86,6.24,2.57,14.97,10.64,10.81,14.05l-8.64-8.52c-29.06-14.67-72.34-10.23-105.7-4.78Z" stroke="#000" stroke-miterlimit="10" stroke-width="5"/><path d="M610.48,940.04c-1.25,5.57-13.69,5.3-23.86.81-3.76-1.66-5.63-10.54-1.27-12.74,10.31-5.2,26.86,4.19,25.13,11.93ZM592.32,939.76c4.53,1.14,9.59,1.86,15.04-.1-3.09-8.09-12.84-11.31-20.58-8.46-.51,1.64-.4,3.88.61,4.35,4.27,1.97,8.07-.13,7.77,1.17-.13.55-.31,1.42-.75,1.7l-2.09,1.34Z" stroke="#000" stroke-miterlimit="10" stroke-width="5"/><path d="M335.18,794.86l-2.5,8.78c5.24-2.98,9.82-12.42,6.99-15.69-.59-.68-2.63.53-3.27,1.19l-7.21,7.48c-.54-5.75,3.95-9.83,8-12.42,1.19-.76,4.33-.05,5.31.85,4.79,4.42.37,16.14-8.07,22.48-1.13.85-4.54.03-5.43-.81-.4-4.9-.11-9.53,6.18-11.86Z" stroke="#000" stroke-miterlimit="10" stroke-width="5"/><path d="M210.64,848.74c-4.93,8.02-22.43,12.41-20.92,4.15.92-5.05,4.38-7.84,8.37-10.3,3.16-1.95,5.38-3.28,8.85-1.66,2.38,1.11,5.84,4.33,3.7,7.81ZM206.87,848.61c0-1.5-1.65-4.28-2.87-4.09-4.1.64-10.28,3.74-10.44,9.58,4.59-.89,9.31-3.06,13.31-5.49Z" stroke="#000" stroke-miterlimit="10" stroke-width="5"/><path d="M365.41,864.38l-5.48,4.12c-3.75,2.82-8.64-.23-10.55-3.95-1.78-3.47-1.72-9.18,3.08-11.36s13.67.09,15.08,5.06c.43,1.51-.88,5.19-2.14,6.13ZM355.37,861.99l6.15.92c1.1.17,2.72-3.53,1.95-4.39-2.04-2.26-7.99-3.75-10.67-.94-.99,1.04-.82,4.73.19,5.87.94,1.07,3.21,2.33,4.35,2.65l-1.97-4.12Z" stroke="#000" stroke-miterlimit="10" stroke-width="5"/><path d="M253.39,960.19c-3.52,2.95-8.66-1.02-10.63-3.57-2.75-3.56-3.12-9,.24-12.43,2.76-2.83,8.79-2.9,11.6.21,3.66,4.04,3.54,11.83-1.2,15.8ZM252.19,946.87c-.94-1.47-5.79-1.85-6.85-.44-1.6,2.13-1.33,6.23-.08,8.31.89,1.49,3.6,3.61,5.54,3.49,3.37-2.33,3.88-7.47,1.39-11.36Z" stroke="#000" stroke-miterlimit="10" stroke-width="5"/><path d="M560.82,868.89c2.58-2-1.49-6.37-4.17-6.86l-3.68-.67c-.78-.14-1.15,2.23-1.36,3.01l-.73,2.76c-.15.57-2.51-.5-2.71-1.05-.78-2.14.57-7.56,3.44-8.13,5.86-1.17,12.11,2.96,13.55,8.29,1.06,3.95-2.43,7.27-6.19,7.46-4.89.25-10.76-1.2-12.17-6.17,4.93.97,9.67,4.74,14,1.38Z" stroke="#000" stroke-miterlimit="10" stroke-width="5"/><path d="M589.57,823.5c-.44,3.24-3.3,6.76-6.34,6.66-2.75-.09-6.35-2.57-7.13-4.63-1.01-2.67-.19-6.33,1.52-9.04,1.58-2.5,5.46-2.77,8.02-1.52,2.69,1.32,4.49,4.31,3.93,8.53ZM586.38,822.09c.16-1.74-2.06-4.84-3.75-4.8-1.3.03-3.04,1.95-3.75,3.65-1.01,2.44.3,5.03,2.1,5.62,3.02,1,4.98.1,5.4-4.48Z" stroke="#000" stroke-miterlimit="10" stroke-width="5"/><path d="M422.03,863.45c-1.82.38-5.84-1.37-7.34-2.46-1.24-3.74-.36-9.23,3.32-11.13,3.84-1.99,7.61,1.02,8.88,4.23s.04,8.32-4.86,9.35ZM421.9,859.91c1.32-.53,2.19-3.38,1.68-4.33-.43-.79-1.96-2.23-3-2.53-1.21-.35-2.65,2.75-2.64,4.01s2.16,3.57,3.96,2.85Z" stroke="#000" stroke-miterlimit="10" stroke-width="5"/><path d="M189.84,967.99l-8.96-.61c-2.3-3.97-2.08-9.71,1.84-12.41,3.03-2.08,7.92.1,9.61,3.1,1.51,2.67,2.02,7.36-2.49,9.91ZM189.62,963.73c1.37-3.47-1.63-6.66-4.8-6.13-1.85.31-2.25,4.47-.91,6.1,1.01,1.24,5.09,1.6,5.71.03Z" stroke="#000" stroke-miterlimit="10" stroke-width="5"/><path d="M262.02,904.71l-3.39-3.23c-1.5-1.43-.96-5.97.79-7.43,2.26-1.89,6.55-1.73,8.87.03,3.13,2.39,3.93,5.79,2.15,9.01-1.32,2.39-5.45,4.44-8.41,1.62ZM267.44,902.25c1.13-2.08.31-4.37-.7-5.17-1.12-.9-4.4-1.54-5.06-.47-1.02,1.66-.58,5,.44,6.09.89.95,4.63.81,5.32-.44Z" stroke="#000" stroke-miterlimit="10" stroke-width="5"/><path d="M670.24,965.75c-2.23.33-5.02-2.82-5.72-4.64-.92-2.41-.31-7.27,1.68-8.61,3.8-2.55,7.81.93,9.25,3.96,1.58,3.33.05,8.5-5.21,9.29ZM669.97,962.96c2.22.33,3.71-3.89,2.66-5.4-.78-1.12-3.14-2.73-4.2-2.8-1.9,2.59-2.29,7.63,1.54,8.2Z" stroke="#000" stroke-miterlimit="10" stroke-width="5"/><path d="M283.15,839.67c.71-.74.8-4.05-.11-4.55-2.84-1.54-9.43-1.59-12.17-.36-1.07.48-1.12,3.26-1.07,4.76-.76.03-2.58-2.23-2.37-3.34.95-4.96,10.69-6.09,17.2-2.3,2.4,1.4,1.54,5.99-.49,7.66-4.3,3.52-10.7,5.48-15.76,2,5.14,1.14,11.03.06,14.77-3.86Z" stroke="#000" stroke-miterlimit="10" stroke-width="5"/><path d="M605.88,856.13c-.35,1.46-3.76,2.9-5.01,2.5-4.44-1.42-6.99-5.61-5.77-7.86.68-1.27,3.57-2.34,4.91-2.09,3.88.71,6.9,3.23,5.87,7.45ZM602.97,854.69c.25-1.61-3.53-4.36-4.2-3.08-1.43,2.72,3.14,4.77,4.2,3.08Z" stroke="#000" stroke-miterlimit="10" stroke-width="5"/><path d="M399.69,963.09l4.42,3.19c2.67-2.77,3.96-6.83,2.84-10.67-.88-3.01-3.59-8.22-8.29-7.54-2.77.4-2.41,6.75-.77,9.8-3.73-1.21-4.03-8.38-.62-10.56s6.47.52,8.76,3.04c3.48,3.84,3.48,10.37.88,14.95-.57,1.01-3.47,2.1-4.46,1.58s-2.23-2.33-2.76-3.78Z" stroke="#000" stroke-miterlimit="10" stroke-width="5"/><path d="M427.97,422.81l13.32-1.39,13.17-7.34c-6.08,8.82-16.28,12.5-26.49,8.72Z" stroke="#000" stroke-miterlimit="10" stroke-width="5"/><path d="M409.6,1023.28c-1.4.37-5.42.3-6.6-.97-2.59-2.77-.98-9.26,3.7-9.47,1.8-.08,4.53,2.17,4.61,3.72.11,2.1-.34,4.76-.99,6.19-.05.11-.36.29-.72.54ZM409.28,1021.9c1.55-1.89,1.66-6.03-2.19-7.08-1.66-.46-3.68,3.27-3.13,5.25.48,1.71,3.04,2.61,4.81,2.4l.5-.57Z" stroke="#000" stroke-miterlimit="10" stroke-width="5"/><path d="M221.19,996.56l-.92-3.13c-.25-.85-2.51-1.08-3.53-1.43l-25.27-8.56,48.5-5.59-18.77,18.71Z" fill="#fff" stroke="#000" stroke-miterlimit="10" stroke-width="5"/><path d="M360.26,1029.97l-20.84-4.87,3.17-14.88,2.81-13.95c3.63,4.62,5.63,9.47,6.05,15.16l8.81,18.53Z" fill="#fff" stroke="#000" stroke-miterlimit="10" stroke-width="5"/><path d="M306.71,785.88l-14.11,2.49c.67-4.91-.42-9.73-4-13.08l6.08-12.25c7.86,6.02,13,12.58,12.03,22.84Z" fill="#fff" stroke="#000" stroke-miterlimit="10" stroke-width="5"/><path d="M143.89,880.29l-22.14.18c-13.97.11-27.05-3.5-41.02-6.02,4.68-5.83,9.97-4.7,15.34-3.64l47.82,9.48Z" fill="#fff" stroke="#000" stroke-miterlimit="10" stroke-width="5"/><polygon points="300.37 1014.93 284.62 1010.74 306.9 996.33 300.37 1014.93" fill="#fff" stroke="#000" stroke-miterlimit="10" stroke-width="5"/><path d="M289.52,789.38l-8.77,3.24,6.64-14.26c2.6,2.83,2.67,6.75,2.13,11.02Z" fill="#fff" stroke="#000" stroke-miterlimit="10" stroke-width="5"/><polygon points="233.52 809.85 224.25 812.57 232.66 799.59 233.52 809.85" fill="#fff" stroke="#000" stroke-miterlimit="10" stroke-width="5"/><path d="M299.11,996l-11.36,7.3c2.75-7.65,12.74-11.88,12.45-9.95-.09.57-.58,2.32-1.09,2.65Z" fill="#fff" stroke="#000" stroke-miterlimit="10" stroke-width="5"/><path d="M378.07,337.1c-1.04.09-2.21-2.49-1.74-3.24s2.37-1.96,3.28-1.75c1.57.36,1.16,4.76-1.55,4.99Z" fill="#fff" stroke="#000" stroke-miterlimit="10" stroke-width="5"/><path d="M283.14,777.52l-2.52,5.6-1.44-2.98c-.39-.81,1.25-2.08,3.96-2.62Z" fill="#fff" stroke="#000" stroke-miterlimit="10" stroke-width="5"/><path d="M309.83,1067.12c-2.71.85-4.97.31-6.93-1.38l6.93,1.38Z" fill="#fff" stroke="#000" stroke-miterlimit="10" stroke-width="5"/><path d="M451.57,660.58c-5.5,5.83-15.48-4.63-22.74-12.35-9.25-9.83-18.63-18.26-30.62-25.19l.85-17.24c3.67,2.12,5.65,4.41,8.57,7.14l14.27,13.33,21.68,22.61,7.99,11.7Z" fill="#fff" stroke="#000" stroke-miterlimit="10" stroke-width="5"/><path d="M469.04,654.96c5.63-6.12,11.73-11.71,15.98-19.18l19.11-33.58c.28,11.2-.8,21.63-4.29,32.01-8.26,9.35-18.25,16.2-30.81,20.74Z" fill="#fff" stroke="#000" stroke-miterlimit="10" stroke-width="5"/><path d="M616.83,906.9l1.2.06.96.45,2.38.51.49.47,2.39.48.56.27,10.02,3.35.54.49,9.99,3.34.57.56c2.22.49,4.38,1.18,6.36,2.98l-6.99-2.12-.53-.48-10-3.39-.55-.45-10-3.39-.45-.67-2.4-.48-.48-.47-2.37-.51-1.68-1.01Z" fill="#fff" stroke="#000" stroke-miterlimit="10" stroke-width="5"/><polygon points="653.65 920.36 654.3 920.36 654.92 920.38 654.3 920.39 653.65 920.39 653.02 920.38 653.65 920.36" fill="#fff" stroke="#000" stroke-miterlimit="10" stroke-width="5"/><path d="M592.32,939.76l2.09-1.34c.44-.28.62-1.15.75-1.7.31-1.3-3.5.8-7.77-1.17-1.01-.47-1.12-2.7-.61-4.35,7.74-2.85,17.49.36,20.58,8.46-5.45,1.95-10.51,1.24-15.04.1Z" fill="#fff" stroke="#000" stroke-miterlimit="10" stroke-width="5"/><path d="M206.87,848.61c-4,2.43-8.71,4.6-13.31,5.49.16-5.84,6.34-8.94,10.44-9.58,1.21-.19,2.86,2.58,2.87,4.09Z" fill="#fff" stroke="#000" stroke-miterlimit="10" stroke-width="5"/><path d="M355.37,861.99l1.97,4.12c-1.14-.32-3.4-1.58-4.35-2.65-1.01-1.14-1.17-4.84-.19-5.87,2.67-2.81,8.63-1.33,10.67.94.77.86-.84,4.55-1.95,4.39l-6.15-.92Z" fill="#fff" stroke="#000" stroke-miterlimit="10" stroke-width="5"/><path d="M252.19,946.87c2.5,3.9,1.99,9.03-1.39,11.36-1.95.12-4.65-2-5.54-3.49-1.25-2.09-1.52-6.18.08-8.31,1.06-1.41,5.9-1.03,6.85.44Z" fill="#fff" stroke="#000" stroke-miterlimit="10" stroke-width="5"/><path d="M586.38,822.09c-.42,4.58-2.38,5.47-5.4,4.48-1.8-.59-3.11-3.18-2.1-5.62.71-1.71,2.44-3.62,3.75-3.65,1.7-.04,3.91,3.06,3.75,4.8Z" fill="#fff" stroke="#000" stroke-miterlimit="10" stroke-width="5"/><path d="M421.9,859.91c-1.79.72-3.95-1.57-3.96-2.85s1.43-4.36,2.64-4.01c1.04.3,2.57,1.74,3,2.53.51.95-.35,3.8-1.68,4.33Z" fill="#fff" stroke="#000" stroke-miterlimit="10" stroke-width="5"/><path d="M189.62,963.73c-.62,1.58-4.69,1.21-5.71-.03-1.34-1.63-.93-5.79.91-6.1,3.16-.54,6.17,2.66,4.8,6.13Z" fill="#fff" stroke="#000" stroke-miterlimit="10" stroke-width="5"/><path d="M267.44,902.25c-.68,1.25-4.43,1.39-5.32.44-1.02-1.08-1.46-4.42-.44-6.09.65-1.07,3.93-.43,5.06.47,1.01.81,1.83,3.1.7,5.17Z" fill="#fff" stroke="#000" stroke-miterlimit="10" stroke-width="5"/><path d="M669.97,962.96c-3.83-.57-3.44-5.61-1.54-8.2,1.05.07,3.42,1.68,4.2,2.8,1.05,1.51-.43,5.73-2.66,5.4Z" fill="#fff" stroke="#000" stroke-miterlimit="10" stroke-width="5"/><path d="M602.97,854.69c-1.06,1.69-5.62-.35-4.2-3.08.67-1.28,4.45,1.47,4.2,3.08Z" fill="#fff" stroke="#000" stroke-miterlimit="10" stroke-width="5"/></svg>