<?xml version="1.0" encoding="UTF-8"?><svg id="Calque_1" xmlns="http://www.w3.org/2000/svg" viewBox="0 0 841.92 1190.4"><path d="M202.03,973.09c6.19,15.24-1.27,37.71-10.87,50.81l-9.36,12.76c-.81,1.11-3.58,2.3-4.9,2.57-7.42,1.53-6.08-15.87-3-26.84,1.12-4,5.72-8.25,9.92-6.68,2.22.83,2.56,5.92,1.86,8.05-.95,2.86-2.05,4.86-6.08,5.72l-1.69,12.05c2.78-3.35,4.94-6.14,6.53-9.66,6.29-13.9,15.46-35.8,6.8-45.89l-10.47-.18-12.58,9.65c-5.75,6.06-8.54,14.07-12.4,21.29-10.86,20.33-19.21,46.47-18.87,69.53.18,12.18,1.26,24.07,4.73,35.55,2.39,7.9,7.15,12.77,13.28,17.7,4.25,3.42,7.5,6.19,13.63,3.8,10.69-4.17,18.13-13.02,23.61-23.15l6.03-11.15,11.24-22.3,7.42-17.47,9.12-22.53,7.08-18.79c5.95-15.79,8.49-32.22,13-48.45l4.57-16.44,10.96-39.99,9.21-28.14,8.4-29.9,8.32-30.99,6.5-26.19,10.2-43.66c3.61-15.46,7.03-30.29,8.75-46.04l8.59-36.28c-15.18,3.99-25.29,1.16-32.97-12.79-3.47-6.3-5.58-12.85-5.5-20.32.21-20.41,5.71-39.57,14.87-57.65,7.4-14.6,15.28-28.16,25.04-41.32,7.46-10.06,15.27-19.08,22.24-29.85l2.46-23.61.67-8.27,2.21-25.33c2.33-26.7,6.17-52.82,16.86-77.32,4.42-10.13,9.66-22.89,18.34-27.14l3.56-18.09,3.78-11.68c-5.02-6.28-11.87-11.12-18.35-16.17l-24.34-18.96-33.1,7.39c-22.17,4.95-42.85,11.98-64.54,18.69-24.88,7.7-49.23,13.32-74.81,18.18l-33.77,6.41c-5.39,1.02-8.37,4.83-10.75,10.35,27.53,10.66,54.93,22.21,81.33,37.35l57.31,32.85c12.62,7.24,22.81,16.34,34.19,25.32,4.04,3.19,10.64,4.54,15.22,8.57.67-11.62,8.33-21.16,16.39-30.2,3.61-4.06,11.53,5.53,11.37,23.96-.08,9.13-.19,18.01-3.36,26.74l-4.7,8.66-7.76.33c2.89,1.98,5.82,3.89,6.09,7.8-9.63-5.48-18.09-10.04-28.26-12.46l-21.23-5.03c-.45,1.98.65,6.11,2.67,7.05,3.75,1.74,6.96-.73,10.86-3.05.57,5.68-5.64,8.7-10.24,7.75-5.22-1.08-8.36-6.03-7.64-12.43-20.59-3.82-41.12-5.15-62.22-5.16l-43.79-.02,26.96,12.73,18.09,8.01,59.32,22.84-.37,4.4c-10.61-2.4-20.31-3.3-31.57-3.1l-13.66,18.08c-5.4,7.15-10.59,14.09-17.24,20.09l-11.06,9.97,1.46,1.25,17.98-6.59c8.19-3,19.14-5.92,21.91-1.18.68,1.16.74,4.44-.05,5.64-10.86,16.52-23.42,30.48-37.16,44.36l4.55-.22c3.09-.15,3.89,11.4-1.21,22.98-3.21,7.3-5.18,14.46-6.39,21.99-2.22-14.7,6.86-26.87,6.38-40.48l-6.07,4.52c-.76.57-3.4.7-4.29.39-5.26-1.84,3.66-12.14,10.12-18.42,10.94-11,20.52-22.08,30.05-34.28l1.51-5.46c-5.11-.21-9.37.06-13.91,1.64l-23.64,8.22c-2.59.9-5.25.4-7.18-1.89l15.13-16.21c5.18-5.55,10.26-10.8,14.46-17.17,4.86-7.37,9.37-14.52,15.94-20.69,2.12-1.99,8.01-.94,11.21-1.37-21.16-7.66-42.32-15.22-62.65-25.46-9.26-4.66-17.98-8.14-27.7-11.73-1.27-.47-3.21-1.72-4.05-2.52-.97-.93-.75-4.38-.2-5.82l38.13.26c15.18.1,29.72-.07,44.82.82,17.54,1.03,34.28,4.03,51.87,7.46l-3.69-8.12c-4.37-1.17-8.42-2.55-12.49-4.84l-60.65-34.12-33.16-17.83-57.18-32.02c-12.59-7.05-24.56-13.79-37.55-19.87-8.81-4.12-20.17-7.94-19.75-16.28.12-2.51,2.41-6.37,5.16-7.94,15.99-9.12,32.84-14.71,50.84-19.16,25.54-6.31,50.41-11.53,76.25-16.52,16.18-3.13,31.38-6.3,47.18-10.57,19.67-5.32,36.59-15.38,51.65-28.7,5.49-4.85,9.83-9.15,13.3-15.77,1.74-3.32,4.96-7.08,6.32-10.52l2.84-7.18c5.93.61,9.67,4.13,13.48,8.06,8.17,8.41,25.98,17.76,32.67,12.42,14.08-11.24,11.3-36.22,7.87-53.43-4.09,5.17-10.28,4.3-14.4.24-2.58-2.55-3.89-3.95-8.62-4.23l-1.03-10.18-3.2,1.56c-.94.46-3.72-1.47-3.54-2.47l1.2-6.5-3.6-2.97c-.85-.7.49-4.08,1.49-4.66l8.19-4.76c-3.52-6.53-5.82-15.77-1.47-23.02.99-1.64,4.73,1.5,5.56,2.91l10.35,17.8,1.42-2.84c-7-15.31-10.67-31.13-11.66-48.03.19-16.98,4.03-33.08,10.18-48.6,6.51-16.42,20.07-31.3,37.94-32.61,11.83-.86,23.34-2.26,35.3,1.36,15.99,4.83,31.25,17.68,35.96,34.44,4.97,17.67,1.48,37.01-5.39,53.28l-7.27,13.43c-1.27,2.35-8.87,10.21-11.57,9.07-.85-.36-.66-2.78.05-3.53l6.54-7c13.02-19.06,16.74-42.55,12.25-65.11-5.06-10.17-12.34-18.49-21.55-24.59-9.8-4.82-19.59-6.69-30.57-6.13-6.28.32-13.94.38-20.09,2.43-13.16,4.4-21.74,16.49-26.46,29.04-11.15,29.66-11.95,53.6-1.25,82.85l9.56-11.04c.45-.52,1.78-1.41,2.36-1.6.76-.26,1.5,2.13,1.5,3.14l-.05,13.53,8.78-4.13c1.33-.63,4.29-.1,5.77,1.14-6.25,4.39-10.9,7.88-16.29,13.6l6.34,4.84-1.92,4.88c10.82,4.58,21.59,1.02,31.32-5.53l15.81-10.65c.72-.49,3.34-.4,3.39.28.28,3.58-16.31,16.25-20.75,18.23l-11.66,5.21c-4.61,15.39-6.66,42.33,7.33,46.27,7.66,2.16,16.9,2.17,24.72.72,11.31-2.09,20.37-8.2,30.38-13.63,1.68-.91,2.88-3.47,3.32-5.4l12.71-2.33c6.64-1.22,12.68-1.44,18.57,2.01l14.85,8.72c0,2.38.77,3.25,2.12,4.87l11.82,14.25,11.09,14.7,14.04,17.82,34.91,48.3,27.06,37.31-.73,2.39c-.15.49-1.66-.37-2-.84l-64.02-87.25-5.99-6.59-11.13-13.92-11.84-15.85c-5.02-6.72-10.07-12.12-17.73-16.03-4.22-2.15-9.11-5.89-14.25-5.25-4.1.51-11.08.88-14.43,2.96l-17.14,10.63c-18.06,11.21-50.65,13.98-57.72-4.13-5.02-12.85-3.3-26.34,1.37-38.95l-15.91-2.57c-2.62-.42-4.99-4.46-7.9-.62,2.21,2.01,2.26,5.76.77,8.91,2.98,13.67,5.3,27.23,4.53,40.9-.48,8.47-4.26,14.63-8.89,20.92-4.21,5.72-9,9.22-17.04,7.36-11.9-2.75-22.49-10.28-31.44-19.89-2.16,5.2-5.33,9.31-7.74,13.62-4.36,7.82-9.02,13.42-15.77,19.15-16,13.59-33.35,24.1-53.94,29.43-15.81,4.09-30.89,7.51-47.02,10.52-27.45,5.13-53.93,10.89-80.98,17.76-14.62,3.71-27.86,8.67-41.33,15.29-1.96.96-4.08,3.22-5.52,5.24,2.1,2.91,4.84,5.04,8.08,6.46,14.4,6.31,27.56,13.27,41.32,20.95l59.68,33.31c33.82,18.87,67.38,36.65,100.41,56.83l8.02,4.08c2.69,1.37,4.98,6.8,6.87,10.31l30.08,7.93c1.8-1.63,3.77-4.59,4.32-6.9,2.88-12.19,4.63-30.34-.94-41.33-4.89,5.78-8.83,11.07-12.06,18.06l-.7,10.21c-2.61,3.24-7.39,2.48-10.18.02-3.4-3-8.83-3.56-12.07-6.12l-25.16-19.84-40.87-24.57c-31.24-18.79-63.29-34.68-97.18-48.19l-17.61-7.58c-1.24-.53-2.73-3.29-2.57-4.57.66-5.21,7.06-.33,10.41-6.78s19.75-8.79,30.31-10.63c18.96-3.31,37.26-6.47,56.03-11.29,19.69-5.05,38.18-10.88,57.55-16.96,19.91-6.25,39.47-10.42,59.77-15.08l22.73-5.22c1.39-.32,2.94-.09,5.26.65l-8.63,5.18,15.15,11.48c8.45,6.4,16.91,12.32,24.52,19.45,3.32,3.96,4.09,8.13.79,12.06-1.69,7.84-3.63,15.6-6.74,23.15,10.54,2.82,11.77,15.51,12.3,28.02,1.8,42.01-11.18,76.21-33.41,110.86l-7.92,12.34c-2.77,4.31-6.4,8.89-7.16,13.79l-2.9,18.69c2.36,3.67-1.94,6.9-.44,13.56,6.51,2.08,9.67,7.05,11.02,13.5,4.02,19.22,4.24,39.01.6,58.43s-13.58,37.17-28.95,49.85l-3.58,12.4-1.94,6.77-1.48,5.04c-.3,1.03-.14,2.7.25,4.12l-.81,5.65c-2.28,5-3.12,9.84-3.99,15.3l-1.55,9.66-6.36,32.79-11.12,47.49-4.53,16.56c-1.34,4.89-2.91,9.39-3.25,14.23l-1.51,1.9c-.37.47.32,2.55.09,3.17l-3.45,9.21c1.29,2.41.48,1.07-.64-.78-.38,6.27-1.58,10.39-3,15.89l-11.3,43.74-6.21,23.35-7.03,25.67-5.37,19.37-14.38,44.95-3.69,11.29-6.94,20.6-3.91,10.22-3.8,8.57-3.05,7.67c-6.57,13.28-13.27,26.12-23.07,37.49l-16.33,16.4c-10.29,10.33-26.63,6.16-35.07-4.99-8.42-11.14-12.64-23.53-14.44-37.59-1.15-8.96-1.77-18.42-.24-27.48l3.67-21.83c2.39-14.24,8.16-27.69,14.19-41.05l10.8-18.9,3.07-4.71,11.1-11.62c1.33-1.39,5.16-2.86,6.86-3.58,8.95-3.77,18.36.07,22.02,9.07ZM386.42,134.18c.74-.33,2.72-.83,2.7-1.61l-.09-4.24-6.74,7.05.92,1.07,3.21-2.26ZM380.15,181.97l-3.83-11.57c-.33-1-.11-3.34.42-4.12s2.85.26,3.77.56l2.46.8c.43.14.36-1.5.03-1.82l-1.1-1.07-2.29-2.24c-3.14-3.07,9.02-2.16,12.04-7.86l-9.35-2.33-2.22-7.35c-3.27,2.06-3.8,3.48-5.94,7.23l-12.87-22.11c-1.52,6.06-.53,11.87,2.81,16.93l2.01,3.04c.46.7-1.93,2.03-2.78,2.4l-4.93,2.16,2.87,1.5c.5.26-.05,1.95-.35,2.47l-4.88,8.49c4.03-.48,3.98-.66,8.3-2.29l.48,9.31c.32-.05,1.96-.25,2.28.28l1.22,2.03c2.36,3.91,6.43,6.95,11.84,5.54ZM388.7,146.94l-.96-8.71-2,4.56c-.53,1.22,2.45,4.56,2.97,4.15ZM356.39,155.86l-.63.02.63.02h.65l.63-.02-.63-.02h-.65ZM382.12,171.71l-.02.63v.65l.02.63.02-.63v-.65l-.02-.63ZM355.06,486.91c-.29,3.16-.73,5.54,0,9.19l12.69-19.98c20.78-32.71,29.75-67.23,27.57-106.08-.38-6.84-2.47-15.24-6.68-16.07-5.23-1.04-11.73,14.46-15.45,23.27-4.26,10.1-6.78,20.25-9.31,30.95l-1.75,7.41-5.39,48.46-.28,7.91-1.39,14.93ZM367.74,382.74l-.02.63v.65l.02.63.02-.63v-.65l-.02-.63ZM357.19,430.75q0-1.17,0,0,0,2.25,0,0ZM354.32,471.95l-.02.63v.65l.02.63.02-.63v-.65l-.02-.63ZM351.04,481.03c.19.44,1.14,1.94,1.22,1.65l.28-1.12c.07-.29-1.61-.81-1.5-.53ZM349.42,515.27c-.1-1.05-.14-1.43-.04-.41.23,2.49.25,2.65.04.41ZM348.56,520.87l-.02.63v.65l.02.63.02-.63v-.65l-.02-.63ZM328.06,635.29c-5.24.58-7.72-1.05-9.71-4.14-10.1-15.72-8.19-39.51-1.24-57.16,4.64-11.78,14.26-20.52,24.45-27.99l2.07-23.42-17.76,23.09c-22.08,28.7-58.78,102.02-23.15,122.17,6.09,3.44,13.6,1.1,19.57-.9l2.28-10.92,3.49-20.73ZM344.73,550.61l-.02.63v.65l.02.63.02-.63v-.65l-.02-.63ZM336.17,635.82l-2.28,23.85c26.12-24.56,28.87-66.98,21.95-100.26-.85-4.09-3.28-7.49-6.99-9.2l-2.24,11.21-.96,9.84c2.41,2.87,3.91,6.13,4.48,10.05,2.12,14.53.51,29.66-8.28,41.73-2.77,3.8-5.91,7.13-5.67,12.78ZM329.03,626.92c.9-8.97,3.07-17.07,3.36-25.43s1.81-14.56,3.94-22.24c2.39-8.61,2.45-17.38,3.68-26.36l-15.39,15.63c-9.16,18.27-13.63,43.9-2.84,61.11.8,1.28,3.3,2.43,4.53,2.15,1.47-.34,2.49-2.58,2.71-4.86ZM340.61,607.71l-1.6,12.15c7.89-12.24,9.48-26.74,5.84-40.7l-2.95,19.75-1.29,8.79ZM340.89,581.3l-.02.63v.65l.02.63.02-.63v-.65l-.02-.63ZM340.89,585.14l-.02.63v.65l.02.63.02-.63v-.65l-.02-.63ZM302.54,794.25l-.02.63v.65s.02.63.02.63l.02-.63v-.65s-.02-.63-.02-.63ZM272.81,901.73c0-1.18,0-1.17,0,0q0,2.25,0,0ZM267.91,918.15c-.1-1.05-.14-1.43-.04-.41.23,2.49.25,2.65.04.41ZM265.76,924.04c.02.5.32,1.69.62,1.33l1.08-1.27c.2-.24-1.71-.37-1.7-.05ZM265.14,926.62l-.02.63v.65l.02.63.02-.63v-.65l-.02-.63ZM249.8,984.18l-.02.63v.65l.02.63.02-.63v-.65l-.02-.63ZM233.49,1038.85l-.02.63v.65l.02.63.02-.63v-.65l-.02-.63ZM224.53,1059.29c.01.48.32,1.69.63,1.33l1.08-1.27c.2-.24-1.71-.36-1.7-.05ZM217.19,1078.18l-.02.63v.65l.02.63.02-.63v-.65l-.02-.63Z"/><path d="M443.41,692.62l3.37,11.46,6.4,22.49,18.59,69.63,28.16,94.64,18.72,56.07,13.47,36.28,7.29,18.58,3.25,7.39,11.71,24.86,9.8,19.91,20.68,41.54,12.26,19.46c4.55,7.23-6.62,9.39-7.7,15.46-.79,4.45-.35,8.71.13,13.27,10.66-3.89,24.83-8.09,24.58-.26,20.59,8.3,41.47,15.61,63.27,21.5l52.58,14.21-27.57-17.84-15.4-8.78c-10.23-5.83-20.38-10.51-31.52-14.48-10.37-3.7-20.03-8.82-28.75-15.33-.33-.25-2.06-.46-2.03-.88l.12-2.07-19.42-23.68-10.35-15.67-16.41-25.7-10.57-21.19-10.63-20.94-16.76-37.99c-11.05-30.02-19.6-60.17-24.84-91.82l-5.3-32.04c-8.13-49.11-12.75-97.77-16.04-147.49l-1.74-62.4c-8.57-6.46-11.25-16.73-21.56-20.12l-1.29,15.3c-.62,7.4-.17,20.06-6.41,21.31-5.6,1.12-11.72-12.36-13.35-20.74l-4.49-22.98c-11.7,21.81-19.64,44.34-26.98,68.08l-20.12,65.04-16.78,44.56-3.62,2.24c-.95.59-3.37-1.41-3.8-2.63-7.57-21.72-12.56-43.4-13.3-66.44-1.15-35.39,3.33-70,13.64-103.87l8.76-10.49c-1.72,5.24-4.76,9.56-6.18,14.79-7.01,25.76-10.68,51.47-11.82,78.26-1.25,29.46,2.62,57.57,12.96,84.71l13.6-34.97,12.15-37.81,13.54-43.9c4.31-13.98,8.94-27.14,15.1-40.43l9.78-21.09c.46-.98,2.65-2.62,3.62-2.28s2.85,2.34,3.1,3.55l5.55,26.71c1.25,6.02,4.08,11.33,8.04,16,3.1-4.73,3.68-9.51,4.01-14.74l1.02-16.26c.16-2.54,3.21-4.96,5.73-4.12,5.89,1.96,9.71,6.24,13.23,10.97s7.89,7.39,12.91,10.24c9.62,5.46,18.03,13.59,27.13,20.14,6.6-1.69,15.3-2.19,18.41,6.25l-1.62,6.49,22.32,9.25,32.17,12.82c8.48,3.38,17.5,4.92,26.44,2,5.92-8.17-.22-23.82-5.24-34.87-8.84-19.43-20.34-37.49-34.12-53.74-7.22-3.81-14.79-7.59-20.17-13.17-1.83,1.89-4.42,3.71-6.59,3.81-3.6.17-7.76-7.81-6.77-10.7.67-1.93,3.15-3.08,5.2-3.23,4.17-.31,5.76,2.11,8.42,3.55,7.53,4.08,13.96,8.47,20.56,14.23,5.39,4.7,14.28,6.44,21.52,4.96-2.58-8.33-9.21-13.16-14.92-18.39l-7.06-6.47c-4.62-4.23-9.98-9.11-11.41-15.7,1.52-2.9,6.71-2.87,9.71-1.86,16.67,5.62,41.43,12.14,52.68-.35,3.07-3.41,3.47-9.46,1.69-13.62-8.33-19.39-43.59-29.28-65.28-30.56-.79-1.24-1.08-3.42-.98-4.94l19.81-.07c26.39-.09,48.15,4.52,70.87-16.79,8.87-8.32,16.31-18.17,18.23-30.73.74-4.8-3.59-10.09-7.47-12.37l-11.36-6.66c-3.23,5.07-4.59,9.36-6.8,14.84-1.9,4.72-5.56,9.92-8.6,14.37-1.99.82-5.86-1.64-6.53-3.78l-6.01-19.11-6.8-18.08c-3.47,2.08-5.74,2.7-9.13,2.6-19.44-.57-38.46-1.37-57.95.05l-41.11,4.9c-1.59,5.76-3.57,9.92-6.13,14.42l-10.87,19.19c-6.26,11.04-11.42,23.4-13.21,36.15l-2.01,28.69c-3.37-5.61-3.17-11.51-3.5-17.54-1.16-21.15,3.88-34.5,13.77-52.41l9.58-17.35c9.15-16.58,14.3-50.45,13.15-68.91l-1.4-22.27-.57-7.18-1.86-15.98-3.82-22.66-.92-6.55-4.68-20.23c-1.26-5.43-2.53-12.68-5.5-17.17l-7.39-11.2-16.21-26.61-8.94-15.69,4.97-3.76,16.85,27.52,3.7,5.71,3.12-6.02c.64-1.23,2.8-3,4.08-3.22,1.46-.25,4.67.96,5.79,2.06l16.15,15.78,26.4,27.98,13.42,15.64,7.14,10.98,15.54,23.81c7.85,12.03,15.18,23.61,20.22,37.2,3.54,9.54,8.93,17.7,13.43,26.66,4.82,9.6,7.75,19.86,11.54,29.88l8.64,22.88,4.93,16.69c1.9-2.77,4.33-5.39,5.4-8.18,7.99-20.78,12.29-38.72,8.51-61.04l-4.71-27.76c-1.06-6.24-.85-12.04-.76-18.37l.24-16.68c.29-20.01,1.33-39.37,5.74-58.99l9.13-40.62c.55-.83,1.53-2.32,1-1.52l-.46,8.65c5.65-13.3,11.09-25.96,14.22-40.86-5.93,4.52-8.17,13.18-12.14,15.93-.65.45-1.88-2.44-1.65-3.34l4.69-18.45c4.58-18,5.63-36.24,5.01-54.71-.19-5.77-1.42-10.43-3.37-16.78-.2-.9-1.17-.26-2.04.92-6.8,8.95-11.08,18.48-15.52,28.72-12.53,28.9-17.17,41.16-14.66,74.83.08,1.13-1.12,3.53-2.23,3.56s-2.99-2.06-3.55-3.29c-1.01-13.12-.64-25.52,1.36-38.53,3-14.37,8.58-26.7,14.68-40.55l-11.99,8c-3.58,8.96-5.91,18.11-6.38,27.87l-1.48,30.63-.12,16.77-2.57-19.79-1.42,26.52,7.08-2.04c.57-.17,1.38,2.07.86,2.49-2.17,1.71-7.64,3.36-11.17,2.01l.64-28.91c.45-20.14,2.15-39.39,5.45-59.21.64-3.85.72-7.68,4.82-9.69l12.18-5.99,11.34-3.87,10.68-14.09c.61-.8,2.62-1.83,3.48-1.99,5.12-.95,7.76,18.1,7.83,29.66.12,20.48-2.46,39.84-8.87,59.59l7.18-8.34c.39-.46,2.77-.73,3.34-.53,6.07,2.09-11.93,39.75-16.4,51.17-4.32,11.06-4.45,24.2-6.69,36.31-2.37,12.81-3.38,25.3-3.36,38.26.02,16.21-.21,31.8,1.29,47.94l5.02,29.15c1.71,9.95.73,19.28.09,29.22l.4,8.55c12.45,5.82,25.8,15.83,21.59,28.8-6.66,20.51-22.58,37.38-42.78,44.9-12.12,4.51-23.9,4.51-36.67,3.66-1.66-.23-1.66.09-.43.76,15.19,5.83,31.93,13.84,37.11,28.71,2.35,6.73.92,13.69-4.23,18.76-13.97,13.76-39.85,5.66-59.33.14,7.16,12.26,35.03,28.83,31.39,39.24-.54,1.55-3.61,4.03-5.31,3.85l-12.5-1.33,14.74,21.64c9.13,13.41,16,27.61,21.08,43.09,1.9,5.78,2.32,11.96,1.31,17.84-1.95,11.28-20.87,9.54-33.97,4.28l-30.77-12.36c-8.44-3.39-17.53-5.19-24.84-10.72l-28.29-21.43c-6.14-4.65-11.59-9.02-19.02-12.64l4.54,56.82c4.65,58.18,10.65,115.59,20.51,173.27,6.73,39.37,15.66,77.92,31.22,114.6l22.46,46.51c4.13,8.55,8.22,17.01,13.4,24.97l14.71,22.62,12.17,16.64,13.17,15.66,10.21,8.08c8.63,6.83,17.95,11.1,28.41,14.85l16.97,7.75,12.07,6.27,22.52,12.9,37.58,21.13c3.76,6.29-9.51,4.13-20.41,1.15l-62.59-17.11c-17.48-4.78-33.8-10.7-50.49-17.56-2.92-1.2-5.64-3.6-7.89-6.05-8.1.55-16.19,3.64-24.36,7.03-2.35-.27-4.1-4.36-4.1-7.02v-13.06c0-5.11,5-8.95,8.74-12.15-7.25-9.41-13.09-19.6-18.41-30.15l-5.83-11.54-5.78-11.24-4.12-7.62-14.37-27.8-7.71-16.2-4.21-10.17-3.91-8.6-19.03-51.99-6.57-19.32-13.95-42.96-7.25-25.18-8.8-32.39-4.39-17.53-7.19-29.6-18.19-82.37-.28-1.13-.1-2.97.7,2.01.36,1.04ZM631.99,192.33c1.62-11.22,2.73-20.43,6.36-30.4,2.45-2.55,5-4.73,7.86-6.58l9.56-6.18,3.25-7.25-19.16,8.99c-1.28.6-3.53,3.23-3.73,4.63l-4.03,28.58c-.38,2.68-.41,5.79-.11,8.21ZM631.48,195.62l-.22,3.88.22-3.88ZM630.48,209.12l-.02.63v.65l.02.63.02-.63v-.65l-.02-.63ZM626.28,434.93c-7.56-20.68-16.17-39.53-24.8-58.95-5.55-12.49-11.98-23.22-19.16-34.76l-10.28-16.53c-3.28-5.27-6.2-10.98-10.32-15.55l-28.66-31.8-15.7-15.92-14.95-15.42-6.1,8.19,7.47,12.16c1.9,3.1,5.07,4.61,6.12,8.39,6.54,23.63,11.03,46.93,13.88,71.4,4.76,31.88,5.84,64.95-4.2,96.35,17.07-5.9,34.14-8.61,51.94-8.95,18.61-.35,36.29-.38,54.77,1.4ZM512.69,308.37l-.63.02.63.02h.65l.63-.02-.63-.02h-.65ZM514.61,316.05l-.63.02.63.02h.65l.63-.02-.63-.02h-.65ZM522.28,387.99l-.63.02.63.02h.65l.63-.02-.63-.02h-.65ZM560.43,594.56c.98-2.49.78-4.8-.25-5.16s-3.31-.24-4.7.11l4.95,5.05ZM538.34,663.31c-2.03-.64-5.24-.6-7.21-.29l10.35,8.03c1.69-3.61.08-6.72-3.14-7.74ZM485.69,857.56l-.02.63v.65l.02.63.02-.63v-.65l-.02-.63ZM495.28,890.17l-.02.63v.65l.02.63.02-.63v-.65l-.02-.63ZM502.81,917.08c1.12-1.69.86-3.89-1.33-4.84l1.33,4.84ZM503.91,917.99l-.02.63v.65l.02.63.02-.63v-.65l-.02-.63ZM507.74,926.62l-.02.63v.65l.02.63.02-.63v-.65l-.02-.63ZM507.9,930.91l-.63.02.63.02h.65l.63-.02-.63-.02h-.65ZM528.03,988.47l-.63.02.63.02h.65l.63-.02-.63-.02h-.65ZM549.52,1033.76l-1.7-3.72v3.01c0,.51,1.68.82,1.7.71ZM550.88,1037.22c.05-.5-.14,1.26-.17,1.58l.17-1.58ZM552.03,1038.82l-.85.69,2.12,2.29-1.27-2.97ZM555.69,1046.53l-.02.63v.65l.02.63.02-.63v-.65l-.02-.63ZM564.03,1061.2l-2.12-2.29,1.27,2.97.85-.68ZM564.33,1063.49l.18-1.57c-.03.3-.24,2.06-.18,1.57ZM569.11,1070.51l-.02.63v.65l.02.63.02-.63v-.65l-.02-.63Z"/><path d="M264.56,608.98c-6.5,9.35-13.83,17.76-21.48,26.47-8.79,10-24.74,26.73-34.25,20.02-.99-.7-1.68-3.28-1.46-4.36s2.63-3.29,3.33-2.88l2.01,2.95c2.35,3.45,17.75-10.23,24.33-17.82l15.66-18.08c3.53-4.07,6.52-9.22,8.83-13.98.62-1.28,4-3.6,4.62-2.54l3.28,5.61-5.71,30.8c-.89,4.78-1.74,10.94-.2,15.37,1.15,3.29,6.7,1.53,8.35-.56,1.35-1.71,4.67-2.32,5.65-.63-3.16,7.37-11.61,9.89-16.35,6.14-7.1-5.62.3-32.72,3.39-46.51Z"/><path d="M636.1,413.18c-3.74-6.02-3.71-12.21-4.53-18.75-2.3-18.44-2.2-36.49-1.24-55.16.73-14.19,4.25-27.68,6.44-41.82l5.55-35.8,1.72-12.69c.27-2.02-2.04-5.42-3.34-7.23,4.5,1.15,6.8,6.55,6.46,11.6l-1.27,18.91-10.41,63.86c-2.74,16.83-1.41,33.44-.53,50.41.83,8.89,1.82,16.96,1.13,26.66Z"/><path d="M277.54,537.91c-.5,3.79-2.94,7.16-5.59,7.44-4.16.45-7.04-1.31-8.69-5.08-1.11-2.52-1.88-6.23-1.4-8.9.38-2.1,2.94-5.44,5.63-5.78,6.76-.86,10.89,5.92,10.05,12.31ZM273.44,537.7c.71-4.19-1.68-9.07-5.63-7.78-3.37,1.11-1.65,10.89,2.27,11.79,1.28.29,3.01-1.92,3.36-4.01Z"/><path d="M379.46,551.9c-2.66,1.21-7.86-1.96-8.84-4.6-.81-2.2.46-5.61,1.79-7.32,1.42-1.83,4.85-3.38,7.52-2.01,4.84,2.48,5.38,11.26-.47,13.93Z"/><path d="M431.11,537.66c-1.28,4.98-4.45,8.95-7.69,8.78-1.2-.06-3.54-1.66-4.16-2.84-1.87-3.51-.49-7.84,2.37-10.67,1.48-1.46,4.99-2.05,6.82-1.14,1.52.75,3.15,3.96,2.66,5.87ZM426.49,536.51c-3.25-.67-4.76,3.27-3.12,5.57,1.22-.98,3.09-4.1,3.12-5.57Z"/><path d="M407.31,622.35c3.25,1.95,2.98,9.03-1.69,13.34-1.61,1.48-6.19,2.01-7.44.13-2.74-4.12-.5-9.83,2.92-13.12,1.31-1.26,4.69-1.26,6.21-.35ZM402.07,633.95c3.52-2.07,4.89-5.85,2.87-9.01-3.63,2.12-4.29,6.27-2.87,9.01Z"/><path d="M475.72,560.64c-.3,2.82-2.1,5.64-3.75,6.19-2.23.74-5.92-.27-7.3-2.04s-.35-5.45,1.18-7.65c1.45-2.07,3.96-3.14,6.2-2.6,2.11.5,4.01,2.98,3.67,6.1ZM467.92,561.66l1.72,1.33c.47.36,1.66-.91,1.54-1.48l-.54-2.64-2.72,2.79Z"/><path d="M256.65,589.34l-.11-4.17c-.02-.78-2.82-1.12-3.14-.81l-.79,5.09c-3.85-1.62-2.81-6.46-.44-8.23,1.77-1.32,5.86-.66,7.58,2.34,2.05,3.58.77,8.49-2.08,12.02-.95,1.18-4.21,2.18-5.59,1.71-1.89-.64-3.73-3.27-3.92-5.06l5.3,1.3c1.16.29,3.23-2.92,3.19-4.19Z"/><path d="M488.8,619.56c-4.31-.32-4.35-3.54-4.03-6.69.23-2.31,1.16-6.19,3-6.61,5.03-1.14,7.47,2.5,7.7,6.21.21,3.25-2.44,7.41-6.68,7.09ZM488.36,616.19c3.39-1.22,3.81-4.48,1.25-6.76l-1.25,6.76Z"/><path d="M547.54,545.01l-7.73-.89c-2.04-1.13-.95-5.68.88-7.53,2.17-2.2,5.82-3.36,9-1.42,1.2.73,2.07,3.82,2.09,5.36s-2.44,4.68-4.23,4.48ZM544.63,538.37c-.67.58-.66,2.64.04,3.18.56.44,2.83.67,2.94-.03l.43-2.62c.11-.7-2.88-.99-3.41-.53Z"/><path d="M623.6,508.15c-3.33,3.16-9.19,1-10.58-2.95-.8-2.27,2.09-6.76,4.58-7.37s4.98,1.06,6.32,2.8,1.75,5.55-.32,7.52ZM618.53,501.97c-.64.67-1.19,2.98-1.1,3.76s2.65,1.33,2.89.62l.91-2.66c.25-.72-2.19-2.26-2.71-1.72Z"/><path d="M458.76,115.37l-17.28-7.39-1.92-.44c-.48-.11.44-2.16,1.02-2.16,5.27-.01,16.98,1.18,18.18,9.99Z"/><path d="M588,468.01c1.25,1.37.84,5.83.06,7.17-.88,1.51-3.91,3.78-5.81,3.25-3.37-.94-2.55-5.69-1.51-8.14s5.32-4.42,7.26-2.28ZM586.08,473.22c.41-.42.82-2.46.26-2.46s-1.75-.07-1.87.29l-.62,1.78-.59,1.67c-.11.31,1.02.57,1.25.34l1.58-1.61Z"/><path d="M551.43,454.84c1.01,1.18.87,4.63.07,6.07s-4.66,3.14-6.07,1.68c-1.18-1.21-1.56-5.45-.94-7,.98-2.46,5.16-2.84,6.95-.75ZM548.02,457.56l-.02.63v.65l.02.63.02-.63v-.65l-.02-.63Z"/><path d="M248.75,477.94c-.33,2.41-1.28,4.48-2.3,5-1.18.6-4.19.28-4.96-.8s-.75-4.11-.05-5.51,2.52-2.75,3.66-2.95c1.58-.28,3.93,2.19,3.64,4.27Z"/><path d="M306.58,524.71c-.04,1.11-2.13,2.99-3.21,2.83-1.37-.21-3.53-1.51-4.15-2.62s.86-4.26,2.18-4.64c2.46-.71,5.26,2.14,5.18,4.43Z"/><path d="M589.52,440.73c.51-.48,3.48-.04,3.55.66.09.87-.08,2.42-.48,3.21-.32.63-2.46.53-2.91-.01-.56-.67-.8-3.25-.16-3.86Z"/><path d="M285.77,568.99l2.47.9c.53.2.78,2.3.2,2.35l-2.29.18c-.57.05-.56-1.74-.38-3.44Z"/><path d="M380.15,181.97c-5.41,1.41-9.48-1.63-11.84-5.54l-1.22-2.03c-.32-.53-1.96-.33-2.28-.28l-.48-9.31c-4.33,1.63-4.27,1.8-8.3,2.29l4.88-8.49c.3-.52.86-2.21.35-2.47l-2.87-1.5,4.93-2.16c.85-.37,3.24-1.7,2.78-2.4l-2.01-3.04c-3.34-5.07-4.33-10.87-2.81-16.93l12.87,22.11c2.14-3.75,2.67-5.17,5.94-7.23l2.22,7.35,9.35,2.33c-3.02,5.7-15.18,4.79-12.04,7.86l2.29,2.24,1.1,1.07c.33.32.4,1.96-.03,1.82l-2.46-.8c-.92-.3-3.23-1.34-3.77-.56s-.75,3.12-.42,4.12l3.83,11.57ZM372.17,165.77l-6-2.88,1.52,4.12c.33.9,3.39,1.04,4.28.66,1.6-2.71,2.81-7.59,1.42-10.49-.94-1.95-3.87-2.92-4.94-2.02-1.35,1.13-2.16,3.92-1.95,5.01.65-1.16,2.92-3.44,3.71-2.86,1.7,1.34,2.74,6.25,1.96,8.46Z" fill="#fff"/><path d="M340.61,607.71l1.29-8.79,2.95-19.75c3.64,13.96,2.05,28.46-5.84,40.7l1.6-12.15Z" fill="#fff"/><path d="M386.42,134.18l-3.21,2.26-.92-1.07,6.74-7.05.09,4.24c.02.79-1.96,1.29-2.7,1.61Z" fill="#fff"/><path d="M388.7,146.94c-.51.42-3.5-2.93-2.97-4.15l2-4.56.96,8.71Z" fill="#fff"/><path d="M349.38,514.86c.23,2.49.25,2.65.04.41-.1-1.05-.14-1.43-.04-.41Z" fill="#fff"/><path d="M351.04,481.03c-.12-.27,1.57.24,1.5.53l-.28,1.12c-.07.29-1.03-1.21-1.22-1.65Z" fill="#fff"/><path d="M224.53,1059.29c0-.31,1.91-.19,1.7.05l-1.08,1.27c-.31.36-.62-.85-.63-1.33Z" fill="#fff"/><path d="M272.81,901.73q0,2.25,0,0c0-1.18,0-1.17,0,0Z" fill="#fff"/><path d="M267.87,917.74c.23,2.49.25,2.65.04.41-.1-1.05-.14-1.43-.04-.41Z" fill="#fff"/><path d="M265.76,924.04c-.01-.32,1.91-.19,1.7.05l-1.08,1.27c-.31.36-.61-.83-.62-1.33Z" fill="#fff"/><path d="M357.19,430.75q0,2.25,0,0,0-1.17,0,0Z" fill="#fff"/><polygon points="354.32 471.95 354.33 472.57 354.33 473.22 354.32 473.85 354.3 473.22 354.3 472.57 354.32 471.95" fill="#fff"/><polygon points="340.89 581.3 340.91 581.93 340.91 582.57 340.89 583.2 340.87 582.57 340.87 581.93 340.89 581.3" fill="#fff"/><polygon points="340.89 585.14 340.91 585.76 340.91 586.41 340.89 587.04 340.87 586.41 340.87 585.76 340.89 585.14" fill="#fff"/><polygon points="348.56 520.87 348.58 521.5 348.58 522.14 348.56 522.77 348.55 522.14 348.55 521.5 348.56 520.87" fill="#fff"/><polygon points="367.74 382.74 367.76 383.37 367.76 384.01 367.74 384.64 367.72 384.01 367.72 383.37 367.74 382.74" fill="#fff"/><polygon points="382.12 171.71 382.14 172.34 382.14 172.98 382.12 173.61 382.11 172.98 382.11 172.34 382.12 171.71" fill="#fff"/><polygon points="302.54 794.25 302.56 794.87 302.56 795.52 302.54 796.15 302.52 795.52 302.52 794.87 302.54 794.25" fill="#fff"/><polygon points="265.14 926.62 265.15 927.25 265.15 927.9 265.14 928.52 265.12 927.9 265.12 927.25 265.14 926.62" fill="#fff"/><polygon points="249.8 984.18 249.81 984.8 249.81 985.45 249.8 986.08 249.78 985.45 249.78 984.8 249.8 984.18" fill="#fff"/><polygon points="233.49 1038.85 233.51 1039.48 233.51 1040.13 233.49 1040.75 233.48 1040.13 233.48 1039.48 233.49 1038.85" fill="#fff"/><polygon points="344.73 550.61 344.74 551.23 344.74 551.88 344.73 552.51 344.71 551.88 344.71 551.23 344.73 550.61" fill="#fff"/><polygon points="217.19 1078.18 217.21 1078.81 217.21 1079.45 217.19 1080.08 217.18 1079.45 217.18 1078.81 217.19 1078.18" fill="#fff"/><polygon points="356.39 155.86 357.04 155.86 357.66 155.87 357.04 155.89 356.39 155.89 355.76 155.87 356.39 155.86" fill="#fff"/><path d="M631.99,192.33c-.29-2.42-.26-5.52.11-8.21l4.03-28.58c.2-1.4,2.45-4.03,3.73-4.63l19.16-8.99-3.25,7.25-9.56,6.18c-2.86,1.85-5.41,4.02-7.86,6.58-3.62,9.97-4.74,19.18-6.36,30.4Z" fill="#fff"/><path d="M538.34,663.31c3.22,1.02,4.83,4.14,3.14,7.74l-10.35-8.03c1.97-.31,5.18-.35,7.21.29Z" fill="#fff"/><path d="M560.43,594.56l-4.95-5.05c1.39-.36,3.65-.49,4.7-.11s1.23,2.67.25,5.16Z" fill="#fff"/><path d="M502.81,917.08l-1.33-4.84c2.19.95,2.45,3.15,1.33,4.84Z" fill="#fff"/><path d="M549.52,1033.76c-.02.11-1.69-.2-1.69-.71v-3.01s1.69,3.72,1.69,3.72Z" fill="#fff"/><path d="M550.7,1038.8c.03-.32.23-2.07.17-1.58l1.15,1.6,1.27,2.97-2.12-2.29-.48-.71Z" fill="#fff"/><path d="M563.18,1061.88l-1.27-2.97,2.12,2.29.48.71c-.03.3-.24,2.06-.18,1.57l-1.15-1.6Z" fill="#fff"/><path d="M631.27,199.5l.22-3.88-.22,3.88Z" fill="#fff"/><polygon points="630.48 209.12 630.5 209.75 630.5 210.39 630.48 211.02 630.46 210.39 630.46 209.75 630.48 209.12" fill="#fff"/><polygon points="522.28 387.99 522.93 387.99 523.55 388.01 522.93 388.02 522.28 388.02 521.65 388.01 522.28 387.99" fill="#fff"/><polygon points="514.61 316.05 515.26 316.05 515.88 316.07 515.26 316.08 514.61 316.08 513.98 316.07 514.61 316.05" fill="#fff"/><polygon points="512.69 308.37 513.34 308.37 513.96 308.39 513.34 308.41 512.69 308.41 512.07 308.39 512.69 308.37" fill="#fff"/><polygon points="507.74 926.62 507.76 927.25 507.76 927.9 507.74 928.52 507.72 927.9 507.72 927.25 507.74 926.62" fill="#fff"/><polygon points="507.9 930.91 508.54 930.91 509.17 930.93 508.54 930.95 507.9 930.95 507.27 930.93 507.9 930.91" fill="#fff"/><polygon points="528.03 988.47 528.68 988.47 529.31 988.48 528.68 988.5 528.03 988.5 527.41 988.48 528.03 988.47" fill="#fff"/><polygon points="503.91 917.99 503.92 918.62 503.92 919.26 503.91 919.89 503.89 919.26 503.89 918.62 503.91 917.99" fill="#fff"/><polygon points="495.28 890.17 495.29 890.8 495.29 891.45 495.28 892.07 495.26 891.45 495.26 890.8 495.28 890.17" fill="#fff"/><polygon points="555.69 1046.53 555.7 1047.15 555.7 1047.8 555.69 1048.43 555.67 1047.8 555.67 1047.15 555.69 1046.53" fill="#fff"/><polygon points="485.69 857.56 485.7 858.18 485.7 858.83 485.69 859.46 485.67 858.83 485.67 858.18 485.69 857.56" fill="#fff"/><polygon points="569.11 1070.51 569.13 1071.13 569.13 1071.78 569.11 1072.41 569.09 1071.78 569.09 1071.13 569.11 1070.51" fill="#fff"/><path d="M273.44,537.7c-.35,2.09-2.08,4.3-3.36,4.01-3.92-.9-5.63-10.68-2.27-11.79,3.94-1.3,6.34,3.59,5.63,7.78Z" fill="#fff"/><path d="M426.49,536.51c-.03,1.46-1.9,4.59-3.12,5.57-1.64-2.29-.13-6.23,3.12-5.57Z" fill="#fff"/><path d="M402.07,633.95c-1.42-2.74-.76-6.89,2.87-9.01,2.02,3.16.65,6.94-2.87,9.01Z" fill="#fff"/><path d="M467.92,561.66l2.72-2.79.54,2.64c.12.58-1.07,1.84-1.54,1.48l-1.72-1.33Z" fill="#fff"/><path d="M488.36,616.19l1.25-6.76c2.57,2.28,2.14,5.53-1.25,6.76Z" fill="#fff"/><path d="M544.63,538.37c.54-.46,3.53-.17,3.41.53l-.43,2.62c-.11.71-2.39.47-2.94.03-.7-.55-.71-2.6-.04-3.18Z" fill="#fff"/><path d="M618.53,501.97c.52-.54,2.96.99,2.71,1.72l-.91,2.66c-.25.72-2.8.13-2.89-.62s.45-3.09,1.1-3.76Z" fill="#fff"/><path d="M586.08,473.22l-1.58,1.61c-.23.23-1.36-.03-1.25-.34l.59-1.67.62-1.78c.13-.36,1.3-.29,1.87-.29s.15,2.05-.26,2.46Z" fill="#fff"/><polygon points="548.02 457.56 548.03 458.19 548.03 458.83 548.02 459.46 548 458.83 548 458.19 548.02 457.56" fill="#fff"/><path d="M372.17,165.77c.78-2.21-.26-7.12-1.96-8.46-.79-.58-3.06,1.7-3.71,2.86-.21-1.09.6-3.88,1.95-5.01,1.07-.89,4,.07,4.94,2.02,1.4,2.9.18,7.78-1.42,10.49-.89.38-3.95.24-4.28-.66l-1.52-4.12,6,2.88Z"/><path d="M201.57,973.39c6.19,15.24-1.27,37.71-10.87,50.81l-9.36,12.76c-.81,1.11-3.58,2.3-4.9,2.57-7.42,1.53-6.08-15.87-3-26.84,1.12-4,5.72-8.25,9.92-6.68,2.22.83,2.56,5.92,1.86,8.05-.95,2.86-2.05,4.86-6.08,5.72l-1.69,12.05c2.78-3.35,4.94-6.14,6.53-9.66,6.29-13.9,15.46-35.8,6.8-45.89l-10.47-.18-12.58,9.65c-5.75,6.06-8.54,14.07-12.4,21.29-10.86,20.33-19.21,46.47-18.87,69.53.18,12.18,1.26,24.07,4.73,35.55,2.39,7.9,7.15,12.77,13.28,17.7,4.25,3.42,7.5,6.19,13.63,3.8,10.69-4.17,18.13-13.02,23.61-23.15l6.03-11.15,11.24-22.3,7.42-17.47,9.12-22.53,7.08-18.79c5.95-15.79,8.49-32.22,13-48.45l4.57-16.44,10.96-39.99,9.21-28.14,8.4-29.9,8.32-30.99,6.5-26.19,10.2-43.66c3.61-15.46,7.03-30.29,8.75-46.04l8.59-36.28c-15.18,3.99-25.29,1.16-32.97-12.79-3.47-6.3-5.58-12.85-5.5-20.32.21-20.41,5.71-39.57,14.87-57.65,7.4-14.6,15.28-28.16,25.04-41.32,7.46-10.06,15.27-19.08,22.24-29.85l2.46-23.61.67-8.27,2.21-25.33c2.33-26.7,6.17-52.82,16.86-77.32,4.42-10.13,9.66-22.89,18.34-27.14l3.56-18.09,3.78-11.68c-5.02-6.28-11.87-11.12-18.35-16.17l-24.34-18.96-33.1,7.39c-22.17,4.95-42.85,11.98-64.54,18.69-24.88,7.7-49.23,13.32-74.81,18.18l-33.77,6.41c-5.39,1.02-8.37,4.83-10.75,10.35,27.53,10.66,54.93,22.21,81.33,37.35l57.31,32.85c12.62,7.24,22.81,16.34,34.19,25.32,4.04,3.19,10.64,4.54,15.22,8.57.67-11.62,8.33-21.16,16.39-30.2,3.61-4.06,11.53,5.53,11.37,23.96-.08,9.13-.19,18.01-3.36,26.74l-4.7,8.66-7.76.33c2.89,1.98,5.82,3.89,6.09,7.8-9.63-5.48-18.09-10.04-28.26-12.46l-21.23-5.03c-.45,1.98.65,6.11,2.67,7.05,3.75,1.74,6.96-.73,10.86-3.05.57,5.68-5.64,8.7-10.24,7.75-5.22-1.08-8.36-6.03-7.64-12.43-20.59-3.82-41.12-5.15-62.22-5.16l-43.79-.02,26.96,12.73,18.09,8.01,59.32,22.84-.37,4.4c-10.61-2.4-20.31-3.3-31.57-3.1l-13.66,18.08c-5.4,7.15-10.59,14.09-17.24,20.09l-11.06,9.97,1.46,1.25,17.98-6.59c8.19-3,19.14-5.92,21.91-1.18.68,1.16.74,4.44-.05,5.64-10.86,16.52-23.42,30.48-37.16,44.36l4.55-.22c3.09-.15,3.89,11.4-1.21,22.98-3.21,7.3-5.18,14.46-6.39,21.99-2.22-14.7,6.86-26.87,6.38-40.48l-6.07,4.52c-.76.57-3.4.7-4.29.39-5.26-1.84,3.66-12.14,10.12-18.42,10.94-11,20.52-22.08,30.05-34.28l1.51-5.46c-5.11-.21-9.37.06-13.91,1.64l-23.64,8.22c-2.59.9-5.25.4-7.18-1.89l15.13-16.21c5.18-5.55,10.26-10.8,14.46-17.17,4.86-7.37,9.37-14.52,15.94-20.69,2.12-1.99,8.01-.94,11.21-1.37-21.16-7.66-42.32-15.22-62.65-25.46-9.26-4.66-17.98-8.14-27.7-11.73-1.27-.47-3.21-1.72-4.05-2.52-.97-.93-.75-4.38-.2-5.82l38.13.26c15.18.1,29.72-.07,44.82.82,17.54,1.03,34.28,4.03,51.87,7.46l-3.69-8.12c-4.37-1.17-8.42-2.55-12.49-4.84l-60.65-34.12-33.16-17.83-57.18-32.02c-12.59-7.05-24.56-13.79-37.55-19.87-8.81-4.12-20.17-7.94-19.75-16.28.12-2.51,2.41-6.37,5.16-7.94,15.99-9.12,32.84-14.71,50.84-19.16,25.54-6.31,50.41-11.53,76.25-16.52,16.18-3.13,31.38-6.3,47.18-10.57,19.67-5.32,36.59-15.38,51.65-28.7,5.49-4.85,9.83-9.15,13.3-15.77,1.74-3.32,4.96-7.08,6.32-10.52l2.84-7.18c5.93.61,9.67,4.13,13.48,8.06,8.17,8.41,25.98,17.76,32.67,12.42,14.08-11.24,11.3-36.22,7.87-53.43-4.09,5.17-10.28,4.3-14.4.24-2.58-2.55-3.89-3.95-8.62-4.23l-1.03-10.18-3.2,1.56c-.94.46-3.72-1.47-3.54-2.47l1.2-6.5-3.6-2.97c-.85-.7.49-4.08,1.49-4.66l8.19-4.76c-3.52-6.53-5.82-15.77-1.47-23.02.99-1.64,4.73,1.5,5.56,2.91l10.35,17.8,1.42-2.84c-7-15.31-10.67-31.13-11.66-48.03.19-16.98,4.03-33.08,10.18-48.6,6.51-16.42,20.07-31.3,37.94-32.61,11.83-.86,23.34-2.26,35.3,1.36,15.99,4.83,31.25,17.68,35.96,34.44,4.97,17.67,1.48,37.01-5.39,53.28l-7.27,13.43c-1.27,2.35-8.87,10.21-11.57,9.07-.85-.36-.66-2.78.05-3.53l6.54-7c13.02-19.06,16.74-42.55,12.25-65.11-5.06-10.17-12.34-18.49-21.55-24.59-9.8-4.82-19.59-6.69-30.57-6.13-6.28.32-13.94.38-20.09,2.43-13.16,4.4-21.74,16.49-26.46,29.04-11.15,29.66-11.95,53.6-1.25,82.85l9.56-11.04c.45-.52,1.78-1.41,2.36-1.6.76-.26,1.5,2.13,1.5,3.14l-.05,13.53,8.78-4.13c1.33-.63,4.29-.1,5.77,1.14-6.25,4.39-10.9,7.88-16.29,13.6l6.34,4.84-1.92,4.88c10.82,4.58,21.59,1.02,31.32-5.53l15.81-10.65c.72-.49,3.34-.4,3.39.28.28,3.58-16.31,16.25-20.75,18.23l-11.66,5.21c-4.61,15.39-6.66,42.33,7.33,46.27,7.66,2.16,16.9,2.17,24.72.72,11.31-2.09,20.37-8.2,30.38-13.63,1.68-.91,2.88-3.47,3.32-5.4l12.71-2.33c6.64-1.22,12.68-1.44,18.57,2.01l14.85,8.72c0,2.38.77,3.25,2.12,4.87l11.82,14.25,11.09,14.7,14.04,17.82,34.91,48.3,27.06,37.31-.73,2.39c-.15.49-1.66-.37-2-.84l-64.02-87.25-5.99-6.59-11.13-13.92-11.84-15.85c-5.02-6.72-10.07-12.12-17.73-16.03-4.22-2.15-9.11-5.89-14.25-5.25-4.1.51-11.08.88-14.43,2.96l-17.14,10.63c-18.06,11.21-50.65,13.98-57.72-4.13-5.02-12.85-3.3-26.34,1.37-38.95l-15.91-2.57c-2.62-.42-4.99-4.46-7.9-.62,2.21,2.01,2.26,5.76.77,8.91,2.98,13.67,5.3,27.23,4.53,40.9-.48,8.47-4.26,14.63-8.89,20.92-4.21,5.72-9,9.22-17.04,7.36-11.9-2.75-22.49-10.28-31.44-19.89-2.16,5.2-5.33,9.31-7.74,13.62-4.36,7.82-9.02,13.42-15.77,19.15-16,13.59-33.35,24.1-53.94,29.43-15.81,4.09-30.89,7.51-47.02,10.52-27.45,5.13-53.93,10.89-80.98,17.76-14.62,3.71-27.86,8.67-41.33,15.29-1.96.96-4.08,3.22-5.52,5.24,2.1,2.91,4.84,5.04,8.08,6.46,14.4,6.31,27.56,13.27,41.32,20.95l59.68,33.31c33.82,18.87,67.38,36.65,100.41,56.83l8.02,4.08c2.69,1.37,4.98,6.8,6.87,10.31l30.08,7.93c1.8-1.63,3.77-4.59,4.32-6.9,2.88-12.19,4.63-30.34-.94-41.33-4.89,5.78-8.83,11.07-12.06,18.06l-.7,10.21c-2.61,3.24-7.39,2.48-10.18.02-3.4-3-8.83-3.56-12.07-6.12l-25.16-19.84-40.87-24.57c-31.24-18.79-63.29-34.68-97.18-48.19l-17.61-7.58c-1.24-.53-2.73-3.29-2.57-4.57.66-5.21,7.06-.33,10.41-6.78s19.75-8.79,30.31-10.63c18.96-3.31,37.26-6.47,56.03-11.29,19.69-5.05,38.18-10.88,57.55-16.96,19.91-6.25,39.47-10.42,59.77-15.08l22.73-5.22c1.39-.32,2.94-.09,5.26.65l-8.63,5.18,15.15,11.48c8.45,6.4,16.91,12.32,24.52,19.45,3.32,3.96,4.09,8.13.79,12.06-1.69,7.84-3.63,15.6-6.74,23.15,10.54,2.82,11.77,15.51,12.3,28.02,1.8,42.01-11.18,76.21-33.41,110.86l-7.92,12.34c-2.77,4.31-6.4,8.89-7.16,13.79l-2.9,18.69c2.36,3.67-1.94,6.9-.44,13.56,6.51,2.08,9.67,7.05,11.02,13.5,4.02,19.22,4.24,39.01.6,58.43-3.71,19.76-13.58,37.17-28.95,49.85l-3.58,12.4-1.94,6.77-1.48,5.04c-.3,1.03-.14,2.7.25,4.12l-.81,5.65c-2.28,5-3.12,9.84-3.99,15.3l-1.55,9.66-6.36,32.79-11.12,47.49-4.53,16.56c-1.34,4.89-2.91,9.39-3.25,14.23l-1.51,1.9c-.37.47.32,2.55.09,3.17l-3.45,9.21c1.29,2.41.48,1.07-.64-.78-.38,6.27-1.58,10.39-3,15.89l-11.3,43.74-6.21,23.35-7.03,25.67-5.37,19.37-14.38,44.95-3.69,11.29-6.94,20.6-3.91,10.22-3.8,8.57-3.05,7.67c-6.57,13.28-13.27,26.12-23.07,37.49l-16.33,16.4c-10.29,10.33-26.63,6.16-35.07-4.99-8.42-11.14-12.64-23.53-14.44-37.59-1.15-8.96-1.77-18.42-.24-27.48l3.67-21.83c2.39-14.24,8.16-27.69,14.19-41.05l10.8-18.9,3.07-4.71,11.1-11.62c1.33-1.39,5.16-2.86,6.86-3.58,8.95-3.77,18.36.07,22.02,9.07ZM385.96,134.48c.74-.33,2.72-.83,2.7-1.61l-.09-4.24-6.74,7.05.92,1.07,3.21-2.26ZM379.69,182.27l-3.83-11.57c-.33-1-.11-3.34.42-4.12s2.85.26,3.77.56l2.46.8c.43.14.36-1.5.03-1.82l-1.1-1.07-2.29-2.24c-3.14-3.07,9.02-2.16,12.04-7.86l-9.35-2.33-2.22-7.35c-3.27,2.06-3.8,3.48-5.94,7.23l-12.87-22.11c-1.52,6.06-.53,11.87,2.81,16.93l2.01,3.04c.46.7-1.93,2.03-2.78,2.4l-4.93,2.16,2.87,1.5c.5.26-.05,1.95-.35,2.47l-4.88,8.49c4.03-.48,3.98-.66,8.3-2.29l.48,9.31c.32-.05,1.96-.25,2.28.28l1.22,2.03c2.36,3.91,6.43,6.95,11.84,5.54ZM388.24,147.24l-.96-8.71-2,4.56c-.53,1.22,2.45,4.56,2.97,4.15ZM355.93,156.16l-.63.02.63.02h.65l.63-.02-.63-.02h-.65ZM381.66,172.01l-.02.63v.65l.02.63.02-.63v-.65l-.02-.63ZM354.6,487.21c-.29,3.16-.73,5.54,0,9.19l12.69-19.98c20.78-32.71,29.75-67.23,27.57-106.08-.38-6.84-2.47-15.24-6.68-16.07-5.23-1.04-11.73,14.46-15.45,23.27-4.26,10.1-6.78,20.25-9.31,30.95l-1.75,7.41-5.39,48.46-.28,7.91-1.39,14.93ZM367.28,383.04l-.02.63v.65l.02.63.02-.63v-.65l-.02-.63ZM356.73,431.05q0-1.17,0,0,0,2.25,0,0ZM353.86,472.25l-.02.63v.65l.02.63.02-.63v-.65l-.02-.63ZM350.58,481.33c.19.44,1.14,1.94,1.22,1.65l.28-1.12c.07-.29-1.61-.81-1.5-.53ZM348.96,515.57c-.1-1.05-.14-1.43-.04-.41.23,2.49.25,2.65.04.41ZM348.1,521.17l-.02.63v.65l.02.63.02-.63v-.65l-.02-.63ZM327.6,635.59c-5.24.58-7.72-1.05-9.71-4.14-10.1-15.72-8.19-39.51-1.24-57.16,4.64-11.78,14.26-20.52,24.45-27.99l2.07-23.42-17.76,23.09c-22.08,28.7-58.78,102.02-23.15,122.17,6.09,3.44,13.6,1.1,19.57-.9l2.28-10.92,3.49-20.73ZM344.27,550.91l-.02.63v.65l.02.63.02-.63v-.65l-.02-.63ZM335.71,636.12l-2.28,23.85c26.12-24.56,28.87-66.98,21.95-100.26-.85-4.09-3.28-7.49-6.99-9.2l-2.24,11.21-.96,9.84c2.41,2.87,3.91,6.13,4.48,10.05,2.12,14.53.51,29.66-8.28,41.73-2.77,3.8-5.91,7.13-5.67,12.78ZM328.57,627.22c.9-8.97,3.07-17.07,3.36-25.43s1.81-14.56,3.94-22.24c2.39-8.61,2.45-17.38,3.68-26.36l-15.39,15.63c-9.16,18.27-13.63,43.9-2.84,61.11.8,1.28,3.3,2.43,4.53,2.15,1.47-.34,2.49-2.58,2.71-4.86ZM340.15,608.01l-1.6,12.15c7.89-12.24,9.48-26.74,5.84-40.7l-2.95,19.75-1.29,8.79ZM340.43,581.6l-.02.63v.65l.02.63.02-.63v-.65l-.02-.63ZM340.43,585.44l-.02.63v.65l.02.63.02-.63v-.65l-.02-.63ZM302.08,794.55l-.02.63v.65s.02.63.02.63l.02-.63v-.65s-.02-.63-.02-.63ZM272.35,902.03c0-1.18,0-1.17,0,0q0,2.25,0,0ZM267.45,918.45c-.1-1.05-.14-1.43-.04-.41.23,2.49.25,2.65.04.41ZM265.3,924.34c.02.5.32,1.69.62,1.33l1.08-1.27c.2-.24-1.71-.37-1.7-.05ZM264.68,926.92l-.02.63v.65l.02.63.02-.63v-.65l-.02-.63ZM249.34,984.48l-.02.63v.65l.02.63.02-.63v-.65l-.02-.63ZM233.03,1039.15l-.02.63v.65l.02.63.02-.63v-.65l-.02-.63ZM224.07,1059.59c.01.48.32,1.69.63,1.33l1.08-1.27c.2-.24-1.71-.36-1.7-.05ZM216.73,1078.48l-.02.63v.65l.02.63.02-.63v-.65l-.02-.63Z" stroke="#000" stroke-miterlimit="10" stroke-width="5"/><path d="M442.95,692.92l3.37,11.46,6.4,22.49,18.59,69.63,28.16,94.64,18.72,56.07,13.47,36.28,7.29,18.58,3.25,7.39,11.71,24.86,9.8,19.91,20.68,41.54,12.26,19.46c4.55,7.23-6.62,9.39-7.7,15.46-.79,4.45-.35,8.71.13,13.27,10.66-3.89,24.83-8.09,24.58-.26,20.59,8.3,41.47,15.61,63.27,21.5l52.58,14.21-27.57-17.84-15.4-8.78c-10.23-5.83-20.38-10.51-31.52-14.48-10.37-3.7-20.03-8.82-28.75-15.33-.33-.25-2.06-.46-2.03-.88l.12-2.07-19.42-23.68-10.35-15.67-16.41-25.7-10.57-21.19-10.63-20.94-16.76-37.99c-11.05-30.02-19.6-60.17-24.84-91.82l-5.3-32.04c-8.13-49.11-12.75-97.77-16.04-147.49l-1.74-62.4c-8.57-6.46-11.25-16.73-21.56-20.12l-1.29,15.3c-.62,7.4-.17,20.06-6.41,21.31-5.6,1.12-11.72-12.36-13.35-20.74l-4.49-22.98c-11.7,21.81-19.64,44.34-26.98,68.08l-20.12,65.04-16.78,44.56-3.62,2.24c-.95.59-3.37-1.41-3.8-2.63-7.57-21.72-12.56-43.4-13.3-66.44-1.15-35.39,3.33-70,13.64-103.87l8.76-10.49c-1.72,5.24-4.76,9.56-6.18,14.79-7.01,25.76-10.68,51.47-11.82,78.26-1.25,29.46,2.62,57.57,12.96,84.71l13.6-34.97,12.15-37.81,13.54-43.9c4.31-13.98,8.94-27.14,15.1-40.43l9.78-21.09c.46-.98,2.65-2.62,3.62-2.28s2.85,2.34,3.1,3.55l5.55,26.71c1.25,6.02,4.08,11.33,8.04,16,3.1-4.73,3.68-9.51,4.01-14.74l1.02-16.26c.16-2.54,3.21-4.96,5.73-4.12,5.89,1.96,9.71,6.24,13.23,10.97,3.5,4.71,7.89,7.39,12.91,10.24,9.62,5.46,18.03,13.59,27.13,20.14,6.6-1.69,15.3-2.19,18.41,6.25l-1.62,6.49,22.32,9.25,32.17,12.82c8.48,3.38,17.5,4.92,26.44,2,5.92-8.17-.22-23.82-5.24-34.87-8.84-19.43-20.34-37.49-34.12-53.74-7.22-3.81-14.79-7.59-20.17-13.17-1.83,1.89-4.42,3.71-6.59,3.81-3.6.17-7.76-7.81-6.77-10.7.67-1.93,3.15-3.08,5.2-3.23,4.17-.31,5.76,2.11,8.42,3.55,7.53,4.08,13.96,8.47,20.56,14.23,5.39,4.7,14.28,6.44,21.52,4.96-2.58-8.33-9.21-13.16-14.92-18.39l-7.06-6.47c-4.62-4.23-9.98-9.11-11.41-15.7,1.52-2.9,6.71-2.87,9.71-1.86,16.67,5.62,41.43,12.14,52.68-.35,3.07-3.41,3.47-9.46,1.69-13.62-8.33-19.39-43.59-29.28-65.28-30.56-.79-1.24-1.08-3.42-.98-4.94l19.81-.07c26.39-.09,48.15,4.52,70.87-16.79,8.87-8.32,16.31-18.17,18.23-30.73.74-4.8-3.59-10.09-7.47-12.37l-11.36-6.66c-3.23,5.07-4.59,9.36-6.8,14.84-1.9,4.72-5.56,9.92-8.6,14.37-1.99.82-5.86-1.64-6.53-3.78l-6.01-19.11-6.8-18.08c-3.47,2.08-5.74,2.7-9.13,2.6-19.44-.57-38.46-1.37-57.95.05l-41.11,4.9c-1.59,5.76-3.57,9.92-6.13,14.42l-10.87,19.19c-6.26,11.04-11.42,23.4-13.21,36.15l-2.01,28.69c-3.37-5.61-3.17-11.51-3.5-17.54-1.16-21.15,3.88-34.5,13.77-52.41l9.58-17.35c9.15-16.58,14.3-50.45,13.15-68.91l-1.4-22.27-.57-7.18-1.86-15.98-3.82-22.66-.92-6.55-4.68-20.23c-1.26-5.43-2.53-12.68-5.5-17.17l-7.39-11.2-16.21-26.61-8.94-15.69,4.97-3.76,16.85,27.52,3.7,5.71,3.12-6.02c.64-1.23,2.8-3,4.08-3.22,1.46-.25,4.67.96,5.79,2.06l16.15,15.78,26.4,27.98,13.42,15.64,7.14,10.98,15.54,23.81c7.85,12.03,15.18,23.61,20.22,37.2,3.54,9.54,8.93,17.7,13.43,26.66,4.82,9.6,7.75,19.86,11.54,29.88l8.64,22.88,4.93,16.69c1.9-2.77,4.33-5.39,5.4-8.18,7.99-20.78,12.29-38.72,8.51-61.04l-4.71-27.76c-1.06-6.24-.85-12.04-.76-18.37l.24-16.68c.29-20.01,1.33-39.37,5.74-58.99l9.13-40.62c.55-.83,1.53-2.32,1-1.52l-.46,8.65c5.65-13.3,11.09-25.96,14.22-40.86-5.93,4.52-8.17,13.18-12.14,15.93-.65.45-1.88-2.44-1.65-3.34l4.69-18.45c4.58-18,5.63-36.24,5.01-54.71-.19-5.77-1.42-10.43-3.37-16.78-.2-.9-1.17-.26-2.04.92-6.8,8.95-11.08,18.48-15.52,28.72-12.53,28.9-17.17,41.16-14.66,74.83.08,1.13-1.12,3.53-2.23,3.56s-2.99-2.06-3.55-3.29c-1.01-13.12-.64-25.52,1.36-38.53,3-14.37,8.58-26.7,14.68-40.55l-11.99,8c-3.58,8.96-5.91,18.11-6.38,27.87l-1.48,30.63-.12,16.77-2.57-19.79-1.42,26.52,7.08-2.04c.57-.17,1.38,2.07.86,2.49-2.17,1.71-7.64,3.36-11.17,2.01l.64-28.91c.45-20.14,2.15-39.39,5.45-59.21.64-3.85.72-7.68,4.82-9.69l12.18-5.99,11.34-3.87,10.68-14.09c.61-.8,2.62-1.83,3.48-1.99,5.12-.95,7.76,18.1,7.83,29.66.12,20.48-2.46,39.84-8.87,59.59l7.18-8.34c.39-.46,2.77-.73,3.34-.53,6.07,2.09-11.93,39.75-16.4,51.17-4.32,11.06-4.45,24.2-6.69,36.31-2.37,12.81-3.38,25.3-3.36,38.26.02,16.21-.21,31.8,1.29,47.94l5.02,29.15c1.71,9.95.73,19.28.09,29.22l.4,8.55c12.45,5.82,25.8,15.83,21.59,28.8-6.66,20.51-22.58,37.38-42.78,44.9-12.12,4.51-23.9,4.51-36.67,3.66-1.66-.23-1.66.09-.43.76,15.19,5.83,31.93,13.84,37.11,28.71,2.35,6.73.92,13.69-4.23,18.76-13.97,13.76-39.85,5.66-59.33.14,7.16,12.26,35.03,28.83,31.39,39.24-.54,1.55-3.61,4.03-5.31,3.85l-12.5-1.33,14.74,21.64c9.13,13.41,16,27.61,21.08,43.09,1.9,5.78,2.32,11.96,1.31,17.84-1.95,11.28-20.87,9.54-33.97,4.28l-30.77-12.36c-8.44-3.39-17.53-5.19-24.84-10.72l-28.29-21.43c-6.14-4.65-11.59-9.02-19.02-12.64l4.54,56.82c4.65,58.18,10.65,115.59,20.51,173.27,6.73,39.37,15.66,77.92,31.22,114.6l22.46,46.51c4.13,8.55,8.22,17.01,13.4,24.97l14.71,22.62,12.17,16.64,13.17,15.66,10.21,8.08c8.63,6.83,17.95,11.1,28.41,14.85l16.97,7.75,12.07,6.27,22.52,12.9,37.58,21.13c3.76,6.29-9.51,4.13-20.41,1.15l-62.59-17.11c-17.48-4.78-33.8-10.7-50.49-17.56-2.92-1.2-5.64-3.6-7.89-6.05-8.1.55-16.19,3.64-24.36,7.03-2.35-.27-4.1-4.36-4.1-7.02v-13.06c0-5.11,5-8.95,8.74-12.15-7.25-9.41-13.09-19.6-18.41-30.15l-5.83-11.54-5.78-11.24-4.12-7.62-14.37-27.8-7.71-16.2-4.21-10.17-3.91-8.6-19.03-51.99-6.57-19.32-13.95-42.96-7.25-25.18-8.8-32.39-4.39-17.53-7.19-29.6-18.19-82.37-.28-1.13-.1-2.97.7,2.01.36,1.04ZM631.53,192.63c1.62-11.22,2.73-20.43,6.36-30.4,2.45-2.55,5-4.73,7.86-6.58l9.56-6.18,3.25-7.25-19.16,8.99c-1.28.6-3.53,3.23-3.73,4.63l-4.03,28.58c-.38,2.68-.41,5.79-.11,8.21ZM631.02,195.92l-.22,3.88.22-3.88ZM630.02,209.42l-.02.63v.65l.02.63.02-.63v-.65l-.02-.63ZM625.82,435.23c-7.56-20.68-16.17-39.53-24.8-58.95-5.55-12.49-11.98-23.22-19.16-34.76l-10.28-16.53c-3.28-5.27-6.2-10.98-10.32-15.55l-28.66-31.8-15.7-15.92-14.95-15.42-6.1,8.19,7.47,12.16c1.9,3.1,5.07,4.61,6.12,8.39,6.54,23.63,11.03,46.93,13.88,71.4,4.76,31.88,5.84,64.95-4.2,96.35,17.07-5.9,34.14-8.61,51.94-8.95,18.61-.35,36.29-.38,54.77,1.4ZM512.23,308.67l-.63.02.63.02h.65l.63-.02-.63-.02h-.65ZM514.15,316.35l-.63.02.63.02h.65l.63-.02-.63-.02h-.65ZM521.82,388.29l-.63.02.63.02h.65l.63-.02-.63-.02h-.65ZM559.97,594.86c.98-2.49.78-4.8-.25-5.16s-3.31-.24-4.7.11l4.95,5.05ZM537.88,663.61c-2.03-.64-5.24-.6-7.21-.29l10.35,8.03c1.69-3.61.08-6.72-3.14-7.74ZM485.23,857.86l-.02.63v.65l.02.63.02-.63v-.65l-.02-.63ZM494.82,890.47l-.02.63v.65l.02.63.02-.63v-.65l-.02-.63ZM502.35,917.38c1.12-1.69.86-3.89-1.33-4.84l1.33,4.84ZM503.45,918.29l-.02.63v.65l.02.63.02-.63v-.65l-.02-.63ZM507.28,926.92l-.02.63v.65l.02.63.02-.63v-.65l-.02-.63ZM507.44,931.21l-.63.02.63.02h.65l.63-.02-.63-.02h-.65ZM527.57,988.77l-.63.02.63.02h.65l.63-.02-.63-.02h-.65ZM549.06,1034.06l-1.7-3.72v3.01c0,.51,1.68.82,1.7.71ZM550.42,1037.52c.05-.5-.14,1.26-.17,1.58l.17-1.58ZM551.57,1039.12l-.85.69,2.12,2.29-1.27-2.97ZM555.23,1046.83l-.02.63v.65l.02.63.02-.63v-.65l-.02-.63ZM563.57,1061.5l-2.12-2.29,1.27,2.97.85-.68ZM563.87,1063.79l.18-1.57c-.03.3-.24,2.06-.18,1.57ZM568.65,1070.81l-.02.63v.65l.02.63.02-.63v-.65l-.02-.63Z" stroke="#000" stroke-miterlimit="10" stroke-width="5"/><path d="M264.1,609.28c-6.5,9.35-13.83,17.76-21.48,26.47-8.79,10-24.74,26.73-34.25,20.02-.99-.7-1.68-3.28-1.46-4.36s2.63-3.29,3.33-2.88l2.01,2.95c2.35,3.45,17.75-10.23,24.33-17.82l15.66-18.08c3.53-4.07,6.52-9.22,8.83-13.98.62-1.28,4-3.6,4.62-2.54l3.28,5.61-5.71,30.8c-.89,4.78-1.74,10.94-.2,15.37,1.15,3.29,6.7,1.53,8.35-.56,1.35-1.71,4.67-2.32,5.65-.63-3.16,7.37-11.61,9.89-16.35,6.14-7.1-5.62.3-32.72,3.39-46.51Z" stroke="#000" stroke-miterlimit="10" stroke-width="5"/><path d="M635.64,413.48c-3.74-6.02-3.71-12.21-4.53-18.75-2.3-18.44-2.2-36.49-1.24-55.16.73-14.19,4.25-27.68,6.44-41.82l5.55-35.8,1.72-12.69c.27-2.02-2.04-5.42-3.34-7.23,4.5,1.15,6.8,6.55,6.46,11.6l-1.27,18.91-10.41,63.86c-2.74,16.83-1.41,33.44-.53,50.41.83,8.89,1.82,16.96,1.13,26.66Z" stroke="#000" stroke-miterlimit="10" stroke-width="5"/><path d="M277.08,538.21c-.5,3.79-2.94,7.16-5.59,7.44-4.16.45-7.04-1.31-8.69-5.08-1.11-2.52-1.88-6.23-1.4-8.9.38-2.1,2.94-5.44,5.63-5.78,6.76-.86,10.89,5.92,10.05,12.31ZM272.98,538c.71-4.19-1.68-9.07-5.63-7.78-3.37,1.11-1.65,10.89,2.27,11.79,1.28.29,3.01-1.92,3.36-4.01Z" stroke="#000" stroke-miterlimit="10" stroke-width="5"/><path d="M379,552.2c-2.66,1.21-7.86-1.96-8.84-4.6-.81-2.2.46-5.61,1.79-7.32,1.42-1.83,4.85-3.38,7.52-2.01,4.84,2.48,5.38,11.26-.47,13.93Z" stroke="#000" stroke-miterlimit="10" stroke-width="5"/><path d="M430.65,537.96c-1.28,4.98-4.45,8.95-7.69,8.78-1.2-.06-3.54-1.66-4.16-2.84-1.87-3.51-.49-7.84,2.37-10.67,1.48-1.46,4.99-2.05,6.82-1.14,1.52.75,3.15,3.96,2.66,5.87ZM426.03,536.81c-3.25-.67-4.76,3.27-3.12,5.57,1.22-.98,3.09-4.1,3.12-5.57Z" stroke="#000" stroke-miterlimit="10" stroke-width="5"/><path d="M406.85,622.65c3.25,1.95,2.98,9.03-1.69,13.34-1.61,1.48-6.19,2.01-7.44.13-2.74-4.12-.5-9.83,2.92-13.12,1.31-1.26,4.69-1.26,6.21-.35ZM401.61,634.25c3.52-2.07,4.89-5.85,2.87-9.01-3.63,2.12-4.29,6.27-2.87,9.01Z" stroke="#000" stroke-miterlimit="10" stroke-width="5"/><path d="M475.26,560.94c-.3,2.82-2.1,5.64-3.75,6.19-2.23.74-5.92-.27-7.3-2.04s-.35-5.45,1.18-7.65c1.45-2.07,3.96-3.14,6.2-2.6,2.11.5,4.01,2.98,3.67,6.1ZM467.46,561.96l1.72,1.33c.47.36,1.66-.91,1.54-1.48l-.54-2.64-2.72,2.79Z" stroke="#000" stroke-miterlimit="10" stroke-width="5"/><path d="M256.19,589.64l-.11-4.17c-.02-.78-2.82-1.12-3.14-.81l-.79,5.09c-3.85-1.62-2.81-6.46-.44-8.23,1.77-1.32,5.86-.66,7.58,2.34,2.05,3.58.77,8.49-2.08,12.02-.95,1.18-4.21,2.18-5.59,1.71-1.89-.64-3.73-3.27-3.92-5.06l5.3,1.3c1.16.29,3.23-2.92,3.19-4.19Z" stroke="#000" stroke-miterlimit="10" stroke-width="5"/><path d="M488.34,619.86c-4.31-.32-4.35-3.54-4.03-6.69.23-2.31,1.16-6.19,3-6.61,5.03-1.14,7.47,2.5,7.7,6.21.21,3.25-2.44,7.41-6.68,7.09ZM487.9,616.49c3.39-1.22,3.81-4.48,1.25-6.76l-1.25,6.76Z" stroke="#000" stroke-miterlimit="10" stroke-width="5"/><path d="M547.08,545.31l-7.73-.89c-2.04-1.13-.95-5.68.88-7.53,2.17-2.2,5.82-3.36,9-1.42,1.2.73,2.07,3.82,2.09,5.36s-2.44,4.68-4.23,4.48ZM544.17,538.67c-.67.58-.66,2.64.04,3.18.56.44,2.83.67,2.94-.03l.43-2.62c.11-.7-2.88-.99-3.41-.53Z" stroke="#000" stroke-miterlimit="10" stroke-width="5"/><path d="M623.14,508.45c-3.33,3.16-9.19,1-10.58-2.95-.8-2.27,2.09-6.76,4.58-7.37s4.98,1.06,6.32,2.8,1.75,5.55-.32,7.52ZM618.07,502.27c-.64.67-1.19,2.98-1.1,3.76s2.65,1.33,2.89.62l.91-2.66c.25-.72-2.19-2.26-2.71-1.72Z" stroke="#000" stroke-miterlimit="10" stroke-width="5"/><path d="M458.3,115.67l-17.28-7.39-1.92-.44c-.48-.11.44-2.16,1.02-2.16,5.27-.01,16.98,1.18,18.18,9.99Z" stroke="#000" stroke-miterlimit="10" stroke-width="5"/><path d="M587.54,468.31c1.25,1.37.84,5.83.06,7.17-.88,1.51-3.91,3.78-5.81,3.25-3.37-.94-2.55-5.69-1.51-8.14s5.32-4.42,7.26-2.28ZM585.62,473.52c.41-.42.82-2.46.26-2.46s-1.75-.07-1.87.29l-.62,1.78-.59,1.67c-.11.31,1.02.57,1.25.34l1.58-1.61Z" stroke="#000" stroke-miterlimit="10" stroke-width="5"/><path d="M550.97,455.14c1.01,1.18.87,4.63.07,6.07s-4.66,3.14-6.07,1.68c-1.18-1.21-1.56-5.45-.94-7,.98-2.46,5.16-2.84,6.95-.75ZM547.56,457.86l-.02.63v.65l.02.63.02-.63v-.65l-.02-.63Z" stroke="#000" stroke-miterlimit="10" stroke-width="5"/><path d="M248.29,478.24c-.33,2.41-1.28,4.48-2.3,5-1.18.6-4.19.28-4.96-.8s-.75-4.11-.05-5.51,2.52-2.75,3.66-2.95c1.58-.28,3.93,2.19,3.64,4.27Z" stroke="#000" stroke-miterlimit="10" stroke-width="5"/><path d="M306.12,525.01c-.04,1.11-2.13,2.99-3.21,2.83-1.37-.21-3.53-1.51-4.15-2.62s.86-4.26,2.18-4.64c2.46-.71,5.26,2.14,5.18,4.43Z" stroke="#000" stroke-miterlimit="10" stroke-width="5"/><path d="M589.06,441.03c.51-.48,3.48-.04,3.55.66.09.87-.08,2.42-.48,3.21-.32.63-2.46.53-2.91-.01-.56-.67-.8-3.25-.16-3.86Z" stroke="#000" stroke-miterlimit="10" stroke-width="5"/><path d="M285.31,569.29l2.47.9c.53.2.78,2.3.2,2.35l-2.29.18c-.57.05-.56-1.74-.38-3.44Z" stroke="#000" stroke-miterlimit="10" stroke-width="5"/><path d="M379.69,182.27c-5.41,1.41-9.48-1.63-11.84-5.54l-1.22-2.03c-.32-.53-1.96-.33-2.28-.28l-.48-9.31c-4.33,1.63-4.27,1.8-8.3,2.29l4.88-8.49c.3-.52.86-2.21.35-2.47l-2.87-1.5,4.93-2.16c.85-.37,3.24-1.7,2.78-2.4l-2.01-3.04c-3.34-5.07-4.33-10.87-2.81-16.93l12.87,22.11c2.14-3.75,2.67-5.17,5.94-7.23l2.22,7.35,9.35,2.33c-3.02,5.7-15.18,4.79-12.04,7.86l2.29,2.24,1.1,1.07c.33.32.4,1.96-.03,1.82l-2.46-.8c-.92-.3-3.23-1.34-3.77-.56s-.75,3.12-.42,4.12l3.83,11.57ZM371.71,166.07l-6-2.88,1.52,4.12c.33.9,3.39,1.04,4.28.66,1.6-2.71,2.81-7.59,1.42-10.49-.94-1.95-3.87-2.92-4.94-2.02-1.35,1.13-2.16,3.92-1.95,5.01.65-1.16,2.92-3.44,3.71-2.86,1.7,1.34,2.74,6.25,1.96,8.46Z" fill="#fff" stroke="#000" stroke-miterlimit="10" stroke-width="5"/><path d="M340.15,608.01l1.29-8.79,2.95-19.75c3.64,13.96,2.05,28.46-5.84,40.7l1.6-12.15Z" fill="#fff" stroke="#000" stroke-miterlimit="10" stroke-width="5"/><path d="M385.96,134.48l-3.21,2.26-.92-1.07,6.74-7.05.09,4.24c.02.79-1.96,1.29-2.7,1.61Z" fill="#fff" stroke="#000" stroke-miterlimit="10" stroke-width="5"/><path d="M388.24,147.24c-.51.42-3.5-2.93-2.97-4.15l2-4.56.96,8.71Z" fill="#fff" stroke="#000" stroke-miterlimit="10" stroke-width="5"/><path d="M348.92,515.16c.23,2.49.25,2.65.04.41-.1-1.05-.14-1.43-.04-.41Z" fill="#fff" stroke="#000" stroke-miterlimit="10" stroke-width="5"/><path d="M350.58,481.33c-.12-.27,1.57.24,1.5.53l-.28,1.12c-.07.29-1.03-1.21-1.22-1.65Z" fill="#fff" stroke="#000" stroke-miterlimit="10" stroke-width="5"/><path d="M224.07,1059.59c0-.31,1.91-.19,1.7.05l-1.08,1.27c-.31.36-.62-.85-.63-1.33Z" fill="#fff" stroke="#000" stroke-miterlimit="10" stroke-width="5"/><path d="M272.35,902.03q0,2.25,0,0c0-1.18,0-1.17,0,0Z" fill="#fff" stroke="#000" stroke-miterlimit="10" stroke-width="5"/><path d="M267.41,918.04c.23,2.49.25,2.65.04.41-.1-1.05-.14-1.43-.04-.41Z" fill="#fff" stroke="#000" stroke-miterlimit="10" stroke-width="5"/><path d="M265.3,924.34c-.01-.32,1.91-.19,1.7.05l-1.08,1.27c-.31.36-.61-.83-.62-1.33Z" fill="#fff" stroke="#000" stroke-miterlimit="10" stroke-width="5"/><path d="M356.73,431.05q0,2.25,0,0,0-1.17,0,0Z" fill="#fff" stroke="#000" stroke-miterlimit="10" stroke-width="5"/><polygon points="353.86 472.25 353.87 472.87 353.87 473.52 353.86 474.15 353.84 473.52 353.84 472.87 353.86 472.25" fill="#fff" stroke="#000" stroke-miterlimit="10" stroke-width="5"/><polygon points="340.43 581.6 340.45 582.23 340.45 582.87 340.43 583.5 340.41 582.87 340.41 582.23 340.43 581.6" fill="#fff" stroke="#000" stroke-miterlimit="10" stroke-width="5"/><polygon points="340.43 585.44 340.45 586.06 340.45 586.71 340.43 587.34 340.41 586.71 340.41 586.06 340.43 585.44" fill="#fff" stroke="#000" stroke-miterlimit="10" stroke-width="5"/><polygon points="348.1 521.17 348.12 521.8 348.12 522.44 348.1 523.07 348.09 522.44 348.09 521.8 348.1 521.17" fill="#fff" stroke="#000" stroke-miterlimit="10" stroke-width="5"/><polygon points="367.28 383.04 367.3 383.67 367.3 384.31 367.28 384.94 367.26 384.31 367.26 383.67 367.28 383.04" fill="#fff" stroke="#000" stroke-miterlimit="10" stroke-width="5"/><polygon points="381.66 172.01 381.68 172.64 381.68 173.28 381.66 173.91 381.65 173.28 381.65 172.64 381.66 172.01" fill="#fff" stroke="#000" stroke-miterlimit="10" stroke-width="5"/><polygon points="302.08 794.55 302.1 795.17 302.1 795.82 302.08 796.45 302.06 795.82 302.06 795.17 302.08 794.55" fill="#fff" stroke="#000" stroke-miterlimit="10" stroke-width="5"/><polygon points="264.68 926.92 264.69 927.55 264.69 928.2 264.68 928.82 264.66 928.2 264.66 927.55 264.68 926.92" fill="#fff" stroke="#000" stroke-miterlimit="10" stroke-width="5"/><polygon points="249.34 984.48 249.35 985.1 249.35 985.75 249.34 986.38 249.32 985.75 249.32 985.1 249.34 984.48" fill="#fff" stroke="#000" stroke-miterlimit="10" stroke-width="5"/><polygon points="233.03 1039.15 233.05 1039.78 233.05 1040.43 233.03 1041.05 233.02 1040.43 233.02 1039.78 233.03 1039.15" fill="#fff" stroke="#000" stroke-miterlimit="10" stroke-width="5"/><polygon points="344.27 550.91 344.28 551.53 344.28 552.18 344.27 552.81 344.25 552.18 344.25 551.53 344.27 550.91" fill="#fff" stroke="#000" stroke-miterlimit="10" stroke-width="5"/><polygon points="216.73 1078.48 216.75 1079.11 216.75 1079.75 216.73 1080.38 216.72 1079.75 216.72 1079.11 216.73 1078.48" fill="#fff" stroke="#000" stroke-miterlimit="10" stroke-width="5"/><polygon points="355.93 156.16 356.58 156.16 357.2 156.17 356.58 156.19 355.93 156.19 355.3 156.17 355.93 156.16" fill="#fff" stroke="#000" stroke-miterlimit="10" stroke-width="5"/><path d="M631.53,192.63c-.29-2.42-.26-5.52.11-8.21l4.03-28.58c.2-1.4,2.45-4.03,3.73-4.63l19.16-8.99-3.25,7.25-9.56,6.18c-2.86,1.85-5.41,4.02-7.86,6.58-3.62,9.97-4.74,19.18-6.36,30.4Z" fill="#fff" stroke="#000" stroke-miterlimit="10" stroke-width="5"/><path d="M537.88,663.61c3.22,1.02,4.83,4.14,3.14,7.74l-10.35-8.03c1.97-.31,5.18-.35,7.21.29Z" fill="#fff" stroke="#000" stroke-miterlimit="10" stroke-width="5"/><path d="M559.97,594.86l-4.95-5.05c1.39-.36,3.65-.49,4.7-.11s1.23,2.67.25,5.16Z" fill="#fff" stroke="#000" stroke-miterlimit="10" stroke-width="5"/><path d="M502.35,917.38l-1.33-4.84c2.19.95,2.45,3.15,1.33,4.84Z" fill="#fff" stroke="#000" stroke-miterlimit="10" stroke-width="5"/><path d="M549.06,1034.06c-.02.11-1.69-.2-1.69-.71v-3.01s1.69,3.72,1.69,3.72Z" fill="#fff" stroke="#000" stroke-miterlimit="10" stroke-width="5"/><path d="M550.24,1039.1c.03-.32.23-2.07.17-1.58l1.15,1.6,1.27,2.97-2.12-2.29-.48-.71Z" fill="#fff" stroke="#000" stroke-miterlimit="10" stroke-width="5"/><path d="M562.72,1062.18l-1.27-2.97,2.12,2.29.48.71c-.03.3-.24,2.06-.18,1.57l-1.15-1.6Z" fill="#fff" stroke="#000" stroke-miterlimit="10" stroke-width="5"/><path d="M630.81,199.8l.22-3.88-.22,3.88Z" fill="#fff" stroke="#000" stroke-miterlimit="10" stroke-width="5"/><polygon points="630.02 209.42 630.04 210.05 630.04 210.69 630.02 211.32 630 210.69 630 210.05 630.02 209.42" fill="#fff" stroke="#000" stroke-miterlimit="10" stroke-width="5"/><polygon points="521.82 388.29 522.47 388.29 523.09 388.31 522.47 388.32 521.82 388.32 521.19 388.31 521.82 388.29" fill="#fff" stroke="#000" stroke-miterlimit="10" stroke-width="5"/><polygon points="514.15 316.35 514.8 316.35 515.42 316.37 514.8 316.38 514.15 316.38 513.52 316.37 514.15 316.35" fill="#fff" stroke="#000" stroke-miterlimit="10" stroke-width="5"/><polygon points="512.23 308.67 512.88 308.67 513.5 308.69 512.88 308.71 512.23 308.71 511.61 308.69 512.23 308.67" fill="#fff" stroke="#000" stroke-miterlimit="10" stroke-width="5"/><polygon points="507.28 926.92 507.3 927.55 507.3 928.2 507.28 928.82 507.26 928.2 507.26 927.55 507.28 926.92" fill="#fff" stroke="#000" stroke-miterlimit="10" stroke-width="5"/><polygon points="507.44 931.21 508.08 931.21 508.71 931.23 508.08 931.25 507.44 931.25 506.81 931.23 507.44 931.21" fill="#fff" stroke="#000" stroke-miterlimit="10" stroke-width="5"/><polygon points="527.57 988.77 528.22 988.77 528.85 988.78 528.22 988.8 527.57 988.8 526.95 988.78 527.57 988.77" fill="#fff" stroke="#000" stroke-miterlimit="10" stroke-width="5"/><polygon points="503.45 918.29 503.46 918.92 503.46 919.56 503.45 920.19 503.43 919.56 503.43 918.92 503.45 918.29" fill="#fff" stroke="#000" stroke-miterlimit="10" stroke-width="5"/><polygon points="494.82 890.47 494.83 891.1 494.83 891.75 494.82 892.37 494.8 891.75 494.8 891.1 494.82 890.47" fill="#fff" stroke="#000" stroke-miterlimit="10" stroke-width="5"/><polygon points="555.23 1046.83 555.24 1047.45 555.24 1048.1 555.23 1048.73 555.21 1048.1 555.21 1047.45 555.23 1046.83" fill="#fff" stroke="#000" stroke-miterlimit="10" stroke-width="5"/><polygon points="485.23 857.86 485.24 858.48 485.24 859.13 485.23 859.76 485.21 859.13 485.21 858.48 485.23 857.86" fill="#fff" stroke="#000" stroke-miterlimit="10" stroke-width="5"/><polygon points="568.65 1070.81 568.67 1071.43 568.67 1072.08 568.65 1072.71 568.63 1072.08 568.63 1071.43 568.65 1070.81" fill="#fff" stroke="#000" stroke-miterlimit="10" stroke-width="5"/><path d="M272.98,538c-.35,2.09-2.08,4.3-3.36,4.01-3.92-.9-5.63-10.68-2.27-11.79,3.94-1.3,6.34,3.59,5.63,7.78Z" fill="#fff" stroke="#000" stroke-miterlimit="10" stroke-width="5"/><path d="M426.03,536.81c-.03,1.46-1.9,4.59-3.12,5.57-1.64-2.29-.13-6.23,3.12-5.57Z" fill="#fff" stroke="#000" stroke-miterlimit="10" stroke-width="5"/><path d="M401.61,634.25c-1.42-2.74-.76-6.89,2.87-9.01,2.02,3.16.65,6.94-2.87,9.01Z" fill="#fff" stroke="#000" stroke-miterlimit="10" stroke-width="5"/><path d="M467.46,561.96l2.72-2.79.54,2.64c.12.58-1.07,1.84-1.54,1.48l-1.72-1.33Z" fill="#fff" stroke="#000" stroke-miterlimit="10" stroke-width="5"/><path d="M487.9,616.49l1.25-6.76c2.57,2.28,2.14,5.53-1.25,6.76Z" fill="#fff" stroke="#000" stroke-miterlimit="10" stroke-width="5"/><path d="M544.17,538.67c.54-.46,3.53-.17,3.41.53l-.43,2.62c-.11.71-2.39.47-2.94.03-.7-.55-.71-2.6-.04-3.18Z" fill="#fff" stroke="#000" stroke-miterlimit="10" stroke-width="5"/><path d="M618.07,502.27c.52-.54,2.96.99,2.71,1.72l-.91,2.66c-.25.72-2.8.13-2.89-.62s.45-3.09,1.1-3.76Z" fill="#fff" stroke="#000" stroke-miterlimit="10" stroke-width="5"/><path d="M585.62,473.52l-1.58,1.61c-.23.23-1.36-.03-1.25-.34l.59-1.67.62-1.78c.13-.36,1.3-.29,1.87-.29s.15,2.05-.26,2.46Z" fill="#fff" stroke="#000" stroke-miterlimit="10" stroke-width="5"/><polygon points="547.56 457.86 547.57 458.49 547.57 459.13 547.56 459.76 547.54 459.13 547.54 458.49 547.56 457.86" fill="#fff" stroke="#000" stroke-miterlimit="10" stroke-width="5"/><path d="M371.71,166.07c.78-2.21-.26-7.12-1.96-8.46-.79-.58-3.06,1.7-3.71,2.86-.21-1.09.6-3.88,1.95-5.01,1.07-.89,4,.07,4.94,2.02,1.4,2.9.18,7.78-1.42,10.49-.89.38-3.95.24-4.28-.66l-1.52-4.12,6,2.88Z" stroke="#000" stroke-miterlimit="10" stroke-width="5"/></svg>