<?xml version="1.0" encoding="UTF-8"?><svg id="Calque_1" xmlns="http://www.w3.org/2000/svg" viewBox="0 0 747.6 1190.4"><path d="M278.45,497.27l3.07-5.65c1.1-2.02,3.54-3.4,4.82-5.17l4.25-5.92,3.45-6.12-2.99-8.29c-10.61-3.92-21.19-7.16-32.38-8.77l-5.22-.16c1.07,1.98,2.17,3.53,3.84,4.8l16.59,12.63c4.25,3.23,10.63,9.46,7.19,11.66-1.86,1.2-3.95.95-5.69-.2-4.92-3.27-9.93-5.82-15.63-7.91,3.47-2.33,6.36-.49,10.47.13l-9.89-7.83-8.53-6.87c-2.22-1.79-3.93-5.16-2.95-7.83l5.89-3.46c2.01-.2,4.98.17,7.29.58,9.22,1.63,17.98,4.11,26.73,7.28l-10.25-34.68-6.25-26.89c-2.03-8.76-2.58-17.48-1.86-26.38.64-7.92,4.34-13.82,11.53-16.8l-.93-4.47c-.94-4.55-1.26-8.88-3.27-13.53-3.88,7.97-3.82,17.74-6.6,24.42-.81,1.95-1.14,3.55-1.57,5.68l-2.46,12.37c-1.59,7.99-2.76,15.74-4.81,23.54l-.77,2.91-2.09,7.96-1.73,5.97-2.63,8.48-5.68,17.9-2.78,6.69-5.71,11.6c-4.5,9.13-10.13,17.23-17.05,24.73l-9.11,9.85,14.7.26c2.54.04,4.75.8,6.15,3-1.71,1.48-3.6,1.4-5.79,1.39l-8.62-.04c-5.75-.03-11.27.35-16.67,1.52-3.64,3.84-8.86,4.35-13.76,2.43l-31.92,6.93-43.95,10.13-6.01,1.15c-13.72,2.62-29.69,5.42-40.86,13.35-2.94,2.08-4.03,5.71-2.45,8.98,3.49,7.19,11.32,11.08,19.13,11.01l10.32-.1,11.33-1.69,22.67-4.68c1.54-.32,3.45.04,4.2,1.35.68,1.19.52,3.03-.5,4.23l-2.44,2.89-6.84,5.67-9.16,6.22-17.92,11.78c-6.38,4.2-11.49,9.73-15.59,16.12l-4.14,6.44-4.22,8.25c-2.27,4.43-3.31,9.75-2.77,14.87.97,9.17,13.83,12,23.31,9.88,10.64-2.38,20.45-6.52,29.95-11.72l15.18-8.3,8.38-3.68c1.79-.79,5.14-.6,5.72,1.54,2.35,8.75-19.25,27.93-21.85,58.8-.59,6.98-.52,18.14,4.46,20.95,5.3,2.98,11.39-2.58,16.12-7.28,7.02-6.97,12.62-14.82,18.38-22.81l1.87-2.59c.68-.94,2.12-2.84,3.34-2.63,4.7.81,2.41,8.52,1.03,13.36l-3.63,12.7c-1.92,6.72-3.81,21.68,1.4,24.12,3.15,1.48,6.52.72,9.76-.56,11.11-4.39,21.31-10.29,31.68-16.25l9.88-5.68c-2.32,3.02-4.89,5.14-7.92,7.16l-12.13,8.08c-8.28,4.65-16.44,9.48-25.47,12.13-3.19.94-6.8-.21-9.17-1.94s-3.74-4.74-4-8.09c-.53-6.96.14-13.77,2.02-20.51l4.51-16.1-3.16,4c-6.37,8.97-13.15,17.36-21.59,24.41-4.57,3.82-10.8,5.53-15.94,2.09-3.57-2.39-5.44-6.92-5.93-11.26-.97-8.62-.32-17.27,1.93-25.62l1.05-3.87c2.66-9.85,7.65-18.7,12.51-27.57l6.37-11.64c-1.35-.1-2.57.14-3.72.75l-18.21,9.7c-13.64,7.26-32.79,16.48-47.63,12.42-5.47-1.5-10.55-5.21-12.33-10.61-1.93-5.84-.95-12.22,1.28-17.68l1.43-3.5,5.4-9.98c4.74-7.59,10.31-14.42,17.37-20.05l18.64-12.55,9.77-6.49c2.5-1.66,4.55-3.3,6.67-5.58l-9.33,2.05-9.87,2.06-13.15,1.73c-4.77.63-9.7.3-14.52-.47-7.53-1.21-14.13-5.72-17.79-12.32-2.34-4.22-2.01-9.67,1.07-13.19,6.79-7.78,23.14-12.03,33.62-14.26l2.49-.53,9.88-1.92,12.28-2.5,33.67-7.99,17.84-4.09,12.76-2.73c-4.1-4.81-2.41-9.45-2.42-13.89,0-3.48.15-6.6.93-10.11,2.01-9.09,4.42-17.96,8.83-26.21.84-1.57,1.1-2.73,1.29-4.6l2.51-24.35.38-2.97c1.71-13.3,4.47-26.08,7.75-39.14l8.26-32.98.88-3.53,8.55-35.96c.64-2.69,1.11-6.02,3.21-7.82,4.51-3.85,9.85-6.06,14.55-9.43,7.52-5.39,14.33-11.1,20.1-18.33,3.03-3.8,6.87-7.66,8.84-12.22,3.59-8.31,5.5-17.44,6.99-26.31.93-5.5.17-11.26-.7-16.68-1.23-7.67-5.87-14.23-3.37-18.19,1.15-1.83,5.04-.91,7.58-5.14l6.33-10.55c3.81-7.43,7.17-14.73,9.67-22.75-4.95-7.96-8.36-16.17-10.75-25.21-1.7-6.43-3.05-12.79-2.13-19.46.76-5.5-1.44-10.3,3.98-21.05,4.93-9.78,10.95-18.63,18.31-26.78l.04-15.11-18.06-9c-1.82-.9-3.46-2.88-2.36-4.88,1.35-2.45,4.46-2.71,7.19-2.77l2.93-.06c.43,0,.63-1.42.79-1.89,1.35-3.95,11.01-.42,11.01-.02l.03-1.5c.04-2.29.36-4.87,2.4-6.02,1.7-.96,4.33-1.29,6.17,0,4.28,3.02,6.13,8.18,4.58,13.32l-2.75-1.21c-.71-3.85-1.81-8.21-4.95-9s-.24,9.65-.28,9.67l-1.9.88-3.2-3.26c-2.18-2.22-5.03-3.95-8.37-2.44.31,2.34,1.89,3.93,3.59,5.31l5.43,4.45c2.12-3.84,7.3-4.94,10.91-2.6,1.97,1.28,2.25,3.63,1.22,5.55l-1.59,2.99.7,2.37,1.27,2.05c.33.54,1.77,1.02,2.36.8s1.22-1.5,1.3-2.12l.2-1.69,7.68.19c.33,0,1.33-.99,1.24-1.32-.79-3.08-5.6-1.28-7.47-3.4-.49-.55-.77-2.46-.1-2.85,6.84-3.91,9.22-8.01,7.93-7.39l-.91.44-5.2,3.85-2.97,2.83c-.16.15-.6.58-.6.59,0,.01-.36-.75-.45-.89l-1.79-2.58c4.39-4.84,9.84-9.09,16.44-10.18,1.83-.3,2.37,2.94,1.65,4.21-2.35,4.2-5,7.54-9.04,10.61l3.64,2.24,8.27-2.28,4.03-.58,4.62-.42h6.71c2.05,0,1.77-3.92,9.52,3.62l5.77,5.62c11.22,10.92,10.19,19.17,7.38,15.69l-7.49-9.26-11.3-11.36c-.44-.44-1.31-1-1.88-.97l-4.66.27c-7.08.41-13.89,1.73-20.33,4.7-2.31,1.07-5.22,1.74-7.03,3.44-1.08,1.02-1.33,1.41-2.99,1.57l-4.8,2.84,1.69,5.71c.97-.96,2.09-1.74,3.12-1.93,3.48-.66,2.74-3.2,6.04-5.43,1.41-.96,3.4.4,4.25,1.56,2.04,2.77,3.97,5.07,6.56,7.4.95.86,1.68,2.24,1.65,3.5-.07,2.85-5.73,4.03-7.69,3.42-4.32-1.34-6.56-7.53-7.58-6.72l-1.58,1.23-1.63,1.32c-.06.05-.62-.07-.66-.13l-.47-.78c-.12-.19-.75.8-.68,1.02l1.13,3.54c.89,2.81,1.51,5.42.14,7.98l-3.74-7.3-2.32-6.29-1.76-5.23c-1.04.73-3.26,2.45-3.84,3.84l-2.44,5.82c-.19.46-1.05,1.38-1.51,1.42-.55.05-1.5-.3-2.49-.65-8.38,11.1-18.09,23.59-19.7,37.55-.86,7.47,2.22,22.82,5.19,29.41l6.07,13.5c1.3-2.92,1.76-5.22,2.3-7.89l3.64-17.85c1.38-6.77.81-13.56,1-20.51l.24-8.52c.04-1.35,1.43-3.3,2.74-3.38,2.74-.18,5.59,1.06,7.02,3.48,7.12,12.1,8.52,24.01,7.36,38.27,0,.21.62.87.78.86,5.89-1,10.35,1.83,13.96,5.88s6.41,8.66,6.48,14.22c.06,4.69-.66,9.14-4.07,12.4,2.27.05,4.44.1,5.99,1.43.81.7,1.51,2.72,1.41,3.64s-1.09,2.36-2.2,3.09l-9.88,6.45c-.27.17-.72,1.12-.82,1.34-.14.29.5.81.92.93,7.53,2.11,15.25,2.06,22.85.41,1.73-.37,3.05-1.45,3.66-3.05.74-1.58,1.95-2.61,3.5-3.19l5.05-7.48c5.29-6.48,9.12-13.58,12.06-21.53,4.2-11.38,7.09-23.02,8.32-35.11l.17-5.87c.27-9.39-.03-18.84-2.65-27.66-.57-.05-1.71-.18-1.58-.36l.93-1.31c.57-.8,3.03-.26,3.53.77,3.7,7.55,4.1,22.57,3.75,31.96-.63,16.87-7.33,43.2-17.19,56.35l-7.22,9.63-3.69,5.46c-1.05,1.55-3.65,3.16-5.33,4.12-4.87,2.77-10.46,2.34-15.84,2.51-5.05.15-9.96-1.14-14.79-2.7-1.74,1.67-3.17,2.93-5.51,4.25l-.77,5.23c-.07.46.12,1.88-.26,1.97l-2.13.51c-.33.08-1.15.4-1.07.71l.39,1.47c.09.34.91,1.17.73,1.45l-1.08,1.6c-1.2,1.78-.32,4.4.8,6.02,1.21,1.74-3.04,3.28-1.73,5.99,1.39,2.9.1,4.19-1.57,6.01-1.96,2.13-.56,5.8-1.12,8.44-1.98,9.3-2.86,18.31-2.04,27.79.45,5.28-.81,10-1.61,15.11l-1.7,10.97c.17.73-.14,1.65-.55.62l1.64-12.29c.64-4.81,1.4-9.42,1.02-14.38-.73-9.5.29-18.46,1.88-27.8.49-2.87-.53-6,.91-8.71.46-.86,2.17-2.64,1.78-3.53-1.23-2.8-.21-5.3,1.15-7.39-1.48-2.91-1.74-5.81-.26-8.65-.28-1-.53-2.51-.29-3.56.2-.89,1.61-1.46,3.22-1.62l.62-4.59-4.36,1.56c-2.42-.43-4.52-.31-6.89.23l-7.47,1.72c-2.25.52-3.74,2.86-4.03,5.12l-2.76,21.29-8.71,34.37-6.61,27.37c-.47-.05-1.06-.11-.8-.09l-.51-1.45-3.94,17.44-2.3,12.48-.32,12.82c0,.21.25,1.17.37,1.05l.67-.68c.77-.79,2.28-1.95,3.26-1.96,3.26-.04,6.14,4.61,6.72,7.73l2.72,14.58c.05.27.12.78.29.78l.8.03,9.04.58c9.48.61,14.86,10.02,16.97,19.03l1.56,6.68c2.52,14.17,3.48,28.39,1.09,42.66-1.84,10.98-4.75,21.34-7.98,31.87l2.63,9.75,10.45,35.97,5.33,18.8,7.5,24.54,12.66,34.34,5.19,14.07,3.23,7.86c.62,1.51-.12,2.75.09,4.18l1.92,13.34c.83,5.81.16,13.5-1.47,12.33-.21-.15-.86-.71-.94-1l-1.76-6.63-6.24-25.96-4.85-14.31-5.81-14.35-2.64-5.03-.4-.76c-.08-.15-.48-.7-.51-.52l-.27,1.34-1.55,5.74c-.89,3.3-3.19,7.21-6.57,8.59s-7.42-.22-10.39-1.81c-6.02-3.21-10.44-7.54-14.84-12.57-6.43-7.36-11.75-15.15-15.81-24.12l-3.88-8.57c-2.23-4.92-3.92-10.07-3.75-15.64.18-5.87.62-11.71,2.31-17.55ZM314.31,58.14l-.39-3.28c-3.57-1.15-5.02-3.27-6.76-5.07-.89-.92-1.57-1.75-1.97-2.81-4.56-3.83-10.48-5.65-16.72-3.66l17.73,8.91c.67.34,1.91,1.66,1.88,2.47l-.41,12.64c1.31-.9,3.07-2.27,3.66-3.42l2.98-5.79ZM314.2,49.62l-2.17-1.17c.33.87.63,1.58.96,1.5.36-.1,1.48-.4,1.21-.33ZM334.5,72.45c.87,1.05,1.77,1.7,3.28,1.46l-6.53-7.09-1.01.49,4.25,5.13ZM231.43,467.93c1.54-1.15,2.47-2.01,3.26-3.45l3.47-6.33,5.88-13.5,2.69-8.96,3.91-11.42,1.43-4.58,2.04-7.26c3.27-11.67,5.81-23.06,7.92-34.94l4.76-26.75,2.11-19.79,1.74-11.38c2.35-15.34,5.39-30.02,9.65-44.99,2.22-7.8,5.34-14.99,6.81-22.91l5.92-31.86,2.63-15.82c1.06-1.39,3.37-2.02,4.81-2.82,5.44-3.02,10.79-4.17,16.87-4.92,3.97-.49,7.86-2.89,11.22-4.94,2.01-1.23,3-3.96,4.34-5.62l4.01-1.86,6.68-3.9c.03-.85-.24-2.07-.7-2.42-.39-.29-1.64-.71-2.12-.64l-6.27.88-3.08.5c-5.7.93-13.36-.38-14.75-4.24l-4.13-11.47c-2.06-5.73.04-11.98,3.85-17.19.95-1.3,1.16-4.51,1.14-6.24l-.23-13.48c-.08-4.8-4.02-18.63-8.45-22.1l-.5,2.7c.12,7.05.84,13.83.18,20.89-.72,7.76-2.73,15.03-4.17,22.62-.43,2.28-1.15,4.08-2.03,6.2-3.35,8.19-5.92,16.44-8.73,24.79-1.21,3.6-3.19,6.61-4.87,9.86-3.05,5.9-6.31,12.24-12.84,14.49l1.95,5.46c2.52,7.06,3.46,13.97,3.21,21.35-.13,3.9-.19,7.77-1.17,11.53l-3.9,14.85-8.75,27.67-13.43,39.86-13.55,38.18-7.59,24.66-4.08,13.12c-1.25,4.02-2.38,8.16-4.61,11.65l-10.08,15.77-6.96,12.81-4.34,8.03-3.12,6.01c-1.29,2.49-2.25,4.92-4.21,6.98l-4.48,12.81-.91,5.28-3.37,14.43c.13,3.6,1.22,6.46,4.65,7.72l12.71-2.48,3.98-3.7,3.51-2.15,6.22-6.88,6.61-7.31c4.4-4.87,5.01-11.15,7.28-12.83ZM316.35,169.43c1.37,3.91,4.87,6.46,9,6.47s8.67-.82,11.3-4.36c3.32-4.46,3.37-10.87.79-15.61-2.25-4.13-4.94-7.6-9.28-9.6-1.77-.82-5.12-.66-6.58.43l-3.48,2.61c-1.45,1.09-2.49,3.93-2.53,5.92l-.16,6.59c1.75,1.84,2.7,6.23.94,7.55ZM204.23,406.05l-4.95,34.53,4.1-6.32,2.71-5.5c3.82-7.75,6.74-15.6,12.25-22.59,4.96-11.39,9.53-22.89,13.82-34.78l9.07-25.09,24.25-70.98-9.79,10.58c-4.5,4.86-9.55,8.64-15.16,12.21l-11.75,7.47c-.87.55-1.51,2.9-1.76,3.97l-10.28,43.76-3.94,15.88-2.99,11.93-5.59,24.92ZM312.09,416.74l.36-18.99-1.97-14.89c-.71-5.38-2.02-10.44-4.39-15.24-3.8-7.7-9.53-8.09-17.89-7.66l1.19,8.09,3.45,19.57,4.49,23.13,3.51,14.93,5.12,18.91c3.1-9.44,5.05-18.35,6.13-27.83ZM303.59,452.89l-7.64-28.61-2.54-11.45-1.95-9.57-2.53-7.56-4.93-26.16-1.39-8.36c-3.85,1.46-5.87,5-6.49,9.11-1.29,8.64-.73,17.36,1.3,26.02l5.75,24.53,8.99,31.22,3.05,8.93c.65,1.89,1.56,3.19,3.8,3.53l4.58-11.63ZM308.51,471.07l-2.35-8.52-2.58,4.98,4.93,3.54ZM313.74,488.53l-3-10.05c-.42-1.4-2.3-2.42-3.41-3.18l-5.68-3.84-1.29,3.12,4.02,10.08c4.09-1.03,6.65.88,9.37,3.87ZM324.17,572.27c2.67-4.85,3.95-10.11,4.03-15.68l-2.59-3.2-.07-7.13-10.08-20.48c-4.32,4.03-10.13,3.54-13.72-.86-3.82-4.68-6.21-10.19-7.18-16.3-.27-7.67-.91-16.41,4.47-21.61l-2.42-5.55-7.64,10.9-6.6,10.85c-.55,3.76-.89,7.81-.21,11.58.52,2.91.83,5.27.64,8.27-.05.76.42,2.33.78,3.16l2.92,6.75c4.7,10.86,10.66,20.61,18.95,29.05l4.29,4.37,7.39,5.12c1.88,1.3,4.98,1.98,7.01.76ZM323.86,529.26c-.97-9.91-3.67-18.38-6.25-27.24-1.77-3.67-3.93-6.82-6.42-9.98-1.38-1.74-2.68-2.91-5.28-3.64l2.38,6,4.08,9.9c3.26,3.18,5.04,7.27,5.26,11.86l6.23,13.1ZM309.31,511.89l-1.47,1.13c-.77.59-4.43-3.62-1.57-8.02l-3.54-8.7c-.68-1.68-1.15-3.14-2.06-4.6-1.74,3.12-1.86,5.93-2.12,9.23-.65,8.3,1.63,16.22,7.31,22.43.96,1.05,3.33,1.23,4.64.92,1.01-.24,2.48-1.91,2.6-3.09l-3.78-9.29Z" stroke="#000" stroke-miterlimit="10" stroke-width="5"/><path d="M260.54,1090.73c-1.43,8.57-1.25,16.72-1.31,25.32-.08,11.56,2.9,22.62,8.49,32.6,7.31,13.05,23.78,19.43,33.72,12.13l4.74-3.48c7.04-6.28,12.61-13.69,17.48-21.81l11.87-19.77c5.88-10.9,11.57-21.48,15.83-33.09l5.15-14.06,8.47-30.4,4.65-23.27.47-2.99,2.75-19.75c3.24-27.42,4.57-54.69,4.73-82.36l.07-12.25-.05-8.52-2.72-53.57-.23-2.72-1.18-11.99-2.32-19.84-1.02-7.64c-3.99-29.88-10.99-58.92-19.38-87.83l-6.36-9.13-8.81-15.65c-.6-1.07-1.52-1.98-2.63-2.97l-3.74,7.54c-3.33,6.72-9.52,15.52-16.84,15.37-3.32-.07-5.92-2.35-7.73-5.18-5.22,7.34-10.6,14.12-16.73,20.38l-.43,2.08c-.08.4-1.17.18-1.75.16-9.05,8.56-26.5,24.38-37.18,28.08-5.23,1.81-11.15-.68-14.5-5.29-3.78-5.18-5.99-11.39-6.95-17.96-2.96-20.24,1.7-40.96,9.32-59.89l3.97-9.87,4.43-10.58,5.31-10.45c1.49-2.93,4.23-4.97,7.44-5.63l2.31,1.82,2.51,9.31-.63.38c-1.82-2.86-2.77-4.37-4.94-6.58-2.54,3.78-4.3,6.8-5.9,10.59l-3.24,7.67-5.73,14.43-4.69,13.59c-2.41,6.99-3.72,13.99-4.83,21.29l-.22,2.96c-.89,12.13-.59,26.15,6.53,35.72,1.82,2.45,4.71,4.06,7.97,3.05,7.87-2.45,22.09-14.67,29.38-21.25l5.05-5.18c-.75-1.52-1.56-2.86-1.79-4.16-.38-2.54,1.03-5.1,2.41-7.13,2.39-3.49,7.22-2.55,9.95-.04,4.34-4.53,7.7-10.05,11.21-15.19,1.62-2.38,1.64-5.16,2.91-7.77l10.01-20.56c.51-.7,2.84-.85,3.63-.64l1.36,3.01-3.28,8.47-4.98,11.23-2.7,5.51c-.61,1.25-.34,4.15-.08,5.46.42,2.07,2.32,3.29,4.24,2.48,6.39-2.7,11.01-12.01,14.78-18.76,1.12-2,3.82-3.86,6.1-2.33,1.68,1.13,3.75,4.06,4.05,6.19.85,5.89,2.48,11.26,6.9,15.37,2.41,2.24,5.91,3.17,8.88,4.52.61,1.91,1.64,4.01,3.44,5.17l10.26,6.63c.45.29,1.63.65,2.16.68,2.05.12,4.17-8.65,4.31-13.8l.22-8.39c.09-3.36,1.75-6.23,1.42-9.75l-.49-5.33c-.02-.25.15-1,.35-1,1.13-.03,2.06,1.6,2.32,3.19l1.97,12.18c.74,4.6,3.12,8.89,5.9,12.58,2.29,3.05,7.59,4.42,10.65,1.51,2.49-2.36.27-6.93,1.2-6.77l1.34.23.98-13.82,1.66,1c.57-6.35,4.26-11.6,6.63-8.92,2.92,3.29,3.99,7.85,6.53,11.41l3.64,4.37,15.92,25.63c3.83-1,1.77,2.9,4.94,7.28,7.19,9.92,14.76,19.11,23.82,27.48l18.26,14.83c3.85,3.13,7.88,5.26,12.58,7.4.21-3.17-.33-5.66-1.53-8.31l-9.28-20.5-7.33-16.71-2.62-6.57-11.19-26.62-3.45-7.08c-1.32-2.71-3.34-4.46-4.23-7.43l-2.38-8.01c-2.97-10.01-1.06-20.32,4.28-18.15,2.26.92,3.07,3.94,4.67,5.83l5.92,7.01c2.81,3.32,9.16,8.48,13.85,8.62,2.39-5.57-.52-12.51-3.38-18.13-2.26-4.44-5.34-11.68-2.82-13.83,3.22-2.76,9.53,1.8,13.94,4.61l14.12,8.98,5.48,3.13c6.31,3.6,18.44,9.03,19.64,2.67.45-2.4.79-5.22-.56-7.42l-5.46-8.94-4.66-5.32-6.45-6.05-12.56-9.52c-1.43-1.08-2.16-2.09-2.07-3.59.22-3.61,5.59-3.93,10.65-3.1l26.16,4.25,12.39.53c9.84.42,22.7-1.87,28.78-9.56,3.83-4.84-4.04-10.97-9.78-13.43l-16.06-6.89-9.63-4.79-6.56-4.03c-1.99-1.23-3.93-2.89-5.2-4.81-1.49-2.26-.91-4.87,1.26-6.36,5.7-3.9,15.59-2.49,26.28-5.76,6.85-2.1,12.35-8.05,11.77-15.41-.42-5.34-8.23-11.01-13.41-14.31-.63-.4-1.61-1.98-1.58-2.8,1.47-1.63,3.93-.71,5.58.18,3.34,1.8,6.27,3.56,8.89,6.11,5.01,4.87,7.59,11.05,4.91,17.84-1.61,4.08-4.06,7.6-7.7,10.14-1.96,1.36-4,2.62-6.37,3.22l-6.14,1.57-6.38,1.01-11.62,1.63-.1,1.34c7.64,5.92,16.16,9.66,25.02,13.3,7.82,3.21,14.82,5.62,20.51,12.01,3.72,4.18,3.44,9.83.13,14-2.52,3.18-5.77,5.68-9.63,7.19-5.04,1.98-10.16,4.01-15.7,3.85l-19.93-.57-13.73-1.92-13.62-2.52c-.79-.04-.32.55.28.79l7.62,6.09c4.05,3.24,7.93,6.33,11.07,10.61l5.01,6.83c3.5,4.78,5.07,10.74,3.5,16.54-2.64,9.79-16.65,5.98-23.88,1.37l-27.78-17.71c-1.27-.81-2.25-1.27-3.95-1.76l2.19,6.84,4.65,10.73c1.54,3.56,2.09,7.53,1.46,11.27-.57,3.35-3.47,5.04-6.65,4.45-4.99-.93-9.07-3.63-12.53-7.17l-3.78-3.88-3.24-3.47c.21-2.5-1.5-4.93-2.38-5.29l-.86-.36c-.18-.07-.71,6.47,1.45,11.25l3.01,6.67,15.98,37.64,10.21,23.93,8.59,19.01c2.8,6.19,6.08,12.66,2.93,18.46-2.28,4.19-11.4-.94-16.36-4.38-10.87-7.56-20.93-15.94-30.05-25.52-.92-.97-1.55-2.01-2.63-2.77l-9.42-11.6-.27-.73c-.07-.19-.76-.7-.79-.5l-.17,1.02.66,23.16.1,53.08c.05,30.38-.3,60.43-2.12,90.7l-.21,3.46-2.71,44.59-2.07,34.23-.52,10.06c-1.47,28.19-2.06,56.05-.76,84.27.54,11.82,2.62,23.23,5.08,34.6,3.51,1.77,5.44,4.71,7.73,7.73,5,6.59,9.53,13.32,15.71,18.8l14.24,12.62,1.79,1.6,12.2,9.54c3.81,2.98,7.3,6.51,12.44,7.56,6.69,1.37,7.7,7.55,6.36,14.27-4.85,3.3-10.79,3.5-16.17,2.11l-5.69-1.47c-1.98-.51-5.2-2.09-6.92-.13-1.3,1.49-2.41,3.15-4.66,3.07l-17.91-.63-9.76-.28-16.44-2.25-9.14-.05-9.6-1.42c-3.34-1.4-6.89-1.93-10.49-1.68-1.97,2.07-4.96,1.61-6.68-.33-2.88-1.53-3.67-4.44-3.63-7.49l.15-14.57-.6-11.03c-.15-2.8-1.25-5.75-.76-8.63.51-3.06.89-6.41,1.9-9.14l4.67-12.68,2.53-8.03,9-49.88,7.24-51.63,1.64-14.76.65-7.48,1.63-27.78.12-6.05v-10.29s.01-23.47.01-23.47l-.04-3.94-3.28-87.56-2.25-38-1.47-19.1-5.09-41.26-4.23-17.5-.53-1.21c-.14-.31-.95.24-1.18.48l-.53.54-.48.49-.62.39c-7.18,2.5-14.42-.56-18.1-6.99l-.31,1.03-.19.68-.17.83c-1.22,6.08-3.52,12.8-9.69,12.1-2.1-.24-4.23-1.2-6.16-2.04l-.68-.3-.6-.41-.55-.38-.55-.38-.55-.39-.57-.4-.54-.49-.63-.57c-.12-.11-.51-.03-.46.13l.28.96c7.29,24.7,12.95,49.59,16.71,75.09l.59,4.01,6.04,58.03.72,11.45.79,19.14.09,7.31-.06,32.06-.6,17.98c-.84,25.16-2.98,50.02-7.19,74.86l-.52,3.06-3.64,19.21-5.31,21.15c-6.76,24.09-16.83,46.61-29.65,68.08-8.74,14.65-18.98,31.89-33.08,40.8-5.12,3.24-10.5,3.81-16.41,2.98-8.89-1.26-16.78-6.26-21.82-13.67l-4.82-8.23c-4.13-8.67-6.54-18.24-6.9-28.01l.27-20c.15-10.78,3.25-21.13,7.87-30.93,5.08-10.79,13.09-19.99,23.36-25.85,5.13-2.93,10.45-2.92,15.96-2.42,7.41.67,13.59,4.11,16.95,11.03,2.94,6.06,5.09,13.06,4.88,19.92l-.31,10.37c-.14,4.54-1.47,8.98-2.89,13.3l-2.17,4.48c-1.4,2.89-4.75,6.8-7.33,7.39-5.02,1.15-10.21-3.59-11.08-8.39-1.05-5.73.1-11.99,3.36-16.9l2.6-2.23c1.25-1.07,3.28-.81,4.59.19,1.02.79,1.93,2.9,1.85,4.51l-.2,3.69-.33.9-.32.98c-.07.23-.71-.17-.89-.39l-1.13-5.62c-.08-.4-.46-1.16-.68-1.48-.88-1.28-4.25,2.9-4.74,7.42l-.49,4.5c-.38,3.53,1.01,6.86,4.36,8.55,4.53,2.28,9.98-10.81,10.82-18.59,1.27-11.73.83-24.74-6.66-34.13-3.67-4.6-12.65-5.49-18.6-4.46-5.17.89-9.16,4.35-12.86,7.71-10.96,9.96-17.04,23.46-19.51,38.23ZM421.93,1178.16c6.1-.09,11.01.35,16.6,1.22l7.38,1.14,9.94.28,17.37.58c1.46-3.11,4.28-3.72,7.31-3.87,2.6-.13,4.28.02,6.64,1.24,4.6,2.37,10.18,2.33,15.21,1.12.18-2.2-.27-4.17-1.25-5.94-4.12-.81-7.26-2.45-10.48-4.92l-3.48-2.67c-6.73-5.16-13.1-10.04-19.34-15.74l-12.81-11.69c-5.3-5.56-9.72-11.67-14.1-18.01l-3.36-4.86-5.79-.03c-2.28-9.72-4.54-19.29-5.5-29.29l-.29-3.05-1.01-16.48-.28-15.89.54-42.24.68-14.89,1.36-24.98,3.64-57.96.69-12.31,1.97-57.1.3-36.33.14-44.46-.14-19.26-.31-18.47-14.89-23.98-6.54-10.73c.34-1.1.22-2.22-.27-2.96l-1.95-2.97-2.33-3.41c-1.14,2.65-1.08,4.74-.5,7.33.36,1.63-.06,2.93-.37,4.54l-1.71,8.97-1.17,3.62,4,12.25,3.39,15.33,3.07,20.79,2.61,27.07.24,2.93,1.51,19.55.4,6.32,2.2,39.16.46,10.48.88,22.36.39,13.76.46,45.89-.02,10.46-.28,9.18-1.21,22.18-.45,5.54-1.41,14.34-8.44,61.36-7.75,43.1c-1.18,6.57-2.61,12.83-5.06,18.94l-2.64,6.58c-1.39,3.46-1.55,7.65-1.5,11.44l.57,3.07.51,11.54-.58,15.86c-.03.72.68,2.41.98,2.82,8.11-3.65,16.32,2.29,25.76,2.16ZM290.72,704.29c-1.76-.25-4.04-.59-5.11.11-2.38,1.55-3.37,5.04-1.77,7.35l6.88-7.46Z" stroke="#000" stroke-miterlimit="10" stroke-width="5"/><path d="M527.08,472.61l-3.93,9.23-16.16,33.24-1.63,3.22c-3.15,6.23-6.04,12.22-7.75,19.05l-3.49.95c-3.28.89-6.69.58-8.53-2.96-5.99-11.52-10.75-23.55-15.38-35.78l-5.7-15.04-5.52-14.58-4.24-11.48-2.91-8.14-10.96-31.31-4.34-12.02-5.89-15.97-21.75-56.91-1.19,18.63c-1.52,23.8-4.24,47.13-7.07,71.03l4.52-3.34,15.49-8.42c.66-.36,2.43-.44,3.06-.23s1.46,1.25,1.71,2.04c2.73,8.76-3.29,28.02-6.55,38.53l-5.63,14.49,9.84-3.96c6.76-3.32,13.51-6,20.8-7.8,1.27-.31,3.28,1.03,3.17,2.09-.28,2.74-2.75,3.23-4.56,4.59-2.18,1.63-3.47,4.65-4.74,7.14l-10.26,20.2,14.91.35c6.01.14,14.58,1.24,14.86,6.25.2,3.61-4.65,5.84-9.26,7.35,5.29.59,14.87,1.91,15.31,6.07.32,3.02-1.86,5.84-4.76,6.03l1.02-5c-2.39-1.59-5.56-2.11-8.46-2.63l-6.95-1.25c-1.59-.28-3.97-1.98-4.35-3.38-1.24-4.52,8.05-2.55,13.54-6.81-3.05-2.13-6.49-2.64-9.98-2.71l-15.21-.31c-1.39-.03-3.24-1.28-3.84-2.2-.78-1.18-.57-3.11.15-4.51l10.84-21.33,1.79-3.55-8.3,3.37c-8,3.24-23.28,10.92-28.74,7.62l7.74-3.31,4.86-1.64-1.74-.67c-.38-.15-.38-1.48-.24-1.95l2.81-9.25c3.72-12.23,9.09-26.34,8.45-39.74l-13.71,6.73-8.23,4.68-8.55,57.17-8.56,47.13c-.34,1.86-.44,2.54-.34,4.48.09,1.72-1.25,4.38-1.82,6.44-.21.75-2.27,1.46-2.94.98-1.59-1.14-1.45-3.18-1.1-4.9l4.89-24.18,3.6-20.84,5.34-34.83.6-3.96c3.92-25.91,7.66-51.41,10.19-77.49l3.43-35.3c.5-5.15,3.04-6.66,3.53-9.89l-11.89-34.2-.63-4.66c2.58,4.23,4.27,7.96,6.03,12.31l18.49,45.69,4.42,11.54.96,2.3,6.78,17.29,6.19,16.36,2.57,7.03,12.92,36.4,1.36,3.92,3.55,9.92,5.54,15.11,10.84,28.92,13.33,33.22c.41,1.02,1.98,2.36,2.54,2.67l.04-3.38c0-.6,1.68-.79,2.36-.97l3.77-9.16,16.54-33.88,9.67-21.55,17.04-38.12c8.67-17.06,17.23-33.79,27-50.13,5.3-8.87,16.24-21.24,26.33-17.63,1.14-.61,2.85-1.5,4.11-1.14,4.91,1.4,9.15,3.33,13.5,5.82l15.25,8.76,20.07,12.5,8.06,5.43c8.32,5.61,16.34,11.14,25.62,15.13l3.8,1.97.86.51c.18.11.22-.16.31-.71l-1.59-4.7c-3.11-5.98-6.77-11.51-11.1-16.62l-5.54-6.55-10.12-11.46-5.47-5.58-17.07-15.52-15.99-12.3c-7.45-5.73-11.98-2.73-13.61-6.43-1.27-2.88,3.53-6.71,7.19-9.1l5.87-3.82-8.34-.26-3.82.07c-6.03.12-11.43,1.45-16.79,4.72-2.27-6.22,10.54-9.14,17.27-9.06l13.77.16c1.29.01,3.59,1.01,4.1,2.02.97,1.93-.64,4.05-2.11,4.99l-8.32,5.3-2.96,2.25c-.19.15-.73.72-.51.75l1.05.17c3.71.59,6.94,2.67,10,4.92l8.57,6.31c7.83,5.76,15.35,11.66,22.03,18.75l7.49,7.94,16.61,18.8,5.63,7.37c3.4,4.45,6.18,9.28,7.76,14.73.91,3.15,1.01,7.51-1.22,8.5-1.11.49-2.88.02-3.91-.82-2.31-1.88-4.58-2.81-7.24-3.95-6.08-2.61-11.69-5.88-17.19-9.57l-13.81-9.26-10.3-6.52-21.34-12.71c-5.46-3.25-11.14-6.09-16.96-8.18-3.94,3.36-6.87-1.47-11.79,1.87-4.08,2.77-7.53,6.13-10.44,10.21-4.39,6.16-7.82,12.6-11.4,19.3l-11.84,22.17-10.08,20.16-7.28,15.63-6.05,14.2-1.7,4.38Z" stroke="#000" stroke-miterlimit="10" stroke-width="5"/><path d="M521.26,435.02l-8.29,17.55c-1.68,3.55-3.06,7-6.58,9.23s-7.71-2.5-8.5-6.59c-1.01-5.28-2.15-10.08-3.78-15.22l-9.3-29.25-3.57-11.96-5.19-14.5c-13.73-38.37-32.74-80.44-53.08-115.76-4.93-8.56-10.61-16.31-17.97-22.83-1.96-1.74-3.95-3.17-5.03-5.66-4.3-.69-8.47.6-12.29,2.72l-7.08,3.95c-7.9,4.4-16.34,7.31-25.47,6.18-5.31-.66-6.46-2.09-8.28-7.16,4.62,4.02,6.24,3.43,11.51,3.57,7.82.2,14.77-2.7,21.32-6.8,6.87-4.3,14.92-8.67,22.61-6.14,1.6,2.11,3.31,4.01,5.33,5.75,8.55,7.35,15.14,16.12,20.51,26.01l11.8,21.72,10.46,21.38c13.15,26.87,24.36,54.25,33.87,82.64l4.64,14.57,10.66,33.95c1.11,3.55,1.92,6.9,2.4,10.53.28,2.11.78,3.89,2.81,5.2,2.2-2.98,3.41-5.89,4.87-9l10.1-21.45,11.88-25.18,11.52-23,14.59-28.06,6.72-12.5,8.82-13.71c2.05-3.18,7.72-8.22,9.7-7.1.47.27.53,1.58.39,2.33-4.82,4.62-8.33,9.77-11.96,15.38l-9.95,18.34c-14.38,26.52-27.18,53.39-40.18,80.9Z" stroke="#000" stroke-miterlimit="10" stroke-width="5"/><path d="M333.42,264.73c-2.59-2.6-3.06-6.63-3.16-10l-.31-10.79c-.18-6.37.45-12.64,1.58-19.03l3.7-13.45c.94-3.41,2.64-6.43,4.8-9.12,1.41-1.76,2.87-3.51,5.7-2.57-3.96,5.34-5.94,11.33-7.84,17.72-3.78,12.71-4.4,31.71-2.31,44.92.16,1.03-1.2,3.28-2.15,2.33Z" stroke="#000" stroke-miterlimit="10" stroke-width="5"/><path d="M261.33,677.1c-2.46,2.95-6.8,3.7-9.38.88-3.51-3.84-6.02-9.3-3.61-12.92.7-1.05,2.84-2.22,4.34-2.19,5.6.1,8.12,2.33,9.85,7.82.75,2.36.46,4.42-1.2,6.41ZM255.64,675.64c1.78.11,2.98-1.55,3.09-2.67.2-2.05-.26-2.66-1.91-3.88-.99-.73-3.06-1.85-4.23-1.64-1.86.33.09,5.44,3.06,8.19Z" stroke="#000" stroke-miterlimit="10" stroke-width="5"/><path d="M357.79,144.38c-1.25.08-3.42-1.24-2.61-2.29,2.15-2.77,9.78-1.19,17.78-15.76l3.59-6.55-1.39,9.75c-.73,5.11-9.44,14.31-17.38,14.85Z" stroke="#000" stroke-miterlimit="10" stroke-width="5"/><path d="M466.77,586.51c-3.45,1.1.38,7.28-1.82,9.84-4.02-2.58-4.25-7.99-1.49-11.8,2.01-2.78,6.63-2.32,9.07-.11,2.19,2,3.26,4.24,2.93,7.26-.24,2.26-1.73,5.11-4.33,5.87-2.07.6-3.98.47-4.77-1.74,3.27.45,5.24-1.78,5.62-4.74.29-2.23-2.19-5.55-5.21-4.59Z" stroke="#000" stroke-miterlimit="10" stroke-width="5"/><path d="M451.02,547.39l-3.11-2.74-1.62,1.47c-2.59-3.16-3.01-7.47-1.35-10.97,1.06-2.24,3.48-2.64,5.48-2.13,3.49.9,5.29,3.21,5.86,6.56.5,2.93.7,6.12-1.66,7.95-.66.51-2.91.47-3.6-.14ZM452.8,544.63l.25-1.47c.55-3.27-1.22-6.48-4.91-6.65-.67,1.47-1.17,3.87-.3,5.48,1.43,2.64,4.75,3.84,4.96,2.64Z" stroke="#000" stroke-miterlimit="10" stroke-width="5"/><path d="M435.81,593.92c-.97,1.17-3,1.24-4.32.78-3.28-1.13-6-8.79-2.61-13.29,1.61-2.14,4.56-1.71,6.42.12,3.25,3.2,3.72,8.53.51,12.38ZM433.47,591.8c1.43-2.81,1.23-6.24-1.55-7.96-1.64,2.71-.62,5.53,1.55,7.96Z" stroke="#000" stroke-miterlimit="10" stroke-width="5"/><path d="M393.75,613.53c-2.58,2.04,2.08,8.39-1.36,9.56-3.42-2.88-4.52-8.91-1.35-12.29,2.82-3,7.61-1.42,9.88,1.74,1.92,2.67,1.73,7.11-1.13,9.42-1.52.99-3.9,1.74-6.01,2.37l4.74-5.19c.9-.98.32-3.62-.36-4.56-.74-1.02-2.63-2.47-4.41-1.06Z" stroke="#000" stroke-miterlimit="10" stroke-width="5"/><path d="M192.03,614.57c-2.6,2.22-7.21,1.03-8.87-1.4-.34-2.94-2.32-5.44.55-7.95,1.62-1.42,3.95-1.65,6.15-.44,1.61.88,3.09,2.38,3.61,3.9.57,1.66.18,4.5-1.44,5.89ZM189.13,612.49c.91-1.49.77-2.68.03-3.52s-1.88-1.12-3.4-.68l3.37,4.2Z" stroke="#000" stroke-miterlimit="10" stroke-width="5"/><path d="M374.09,565.47c2.16-3.06-.02-6.7-2.98-7.7-.98-.33-3.16,1.28-3.32,2.28l-.82,5.16c-.08.5-.33,1.22-.64,1.42s-1.2-.31-1.58-.57c-1.84-4.68.36-9.93,5.22-11.5,3.6-.19,5.99,2.21,7.33,5.37,1.15,2.7,1.06,6.95-2.42,7.74-2.89.66-6.18-2.46-6.48-5.47,1.9,1.24,3.49,2.37,5.7,3.28Z" stroke="#000" stroke-miterlimit="10" stroke-width="5"/><path d="M432.25,706.24c3.29-1.33,3.46-3.65,2.5-6.27-.75-2.06-2.39-4.07-4.94-4.01l-5.74.14c2.83-3.51,7.86-4.82,11.23-1.79,2.58,2.32,4.06,5.94,3.73,9.5-.25,2.69-2.12,4.65-4.74,4.97-.7-.52-1.52-1.62-2.03-2.54Z" stroke="#000" stroke-miterlimit="10" stroke-width="5"/><path d="M270.48,596.16c-.56-.3-1.81-1.44-1.68-2.03l.51-2.4c-.2-1.73.13-3.55,1.3-4.69,1.54-1.5,3.43-.55,5.07.46,2.55,1.57,3.34,4.21,2.12,6.74-1.32,2.72-4.11,3.64-7.31,1.92Z" stroke="#000" stroke-miterlimit="10" stroke-width="5"/><path d="M304.58,638.1c-1.34,3.56-6.94,3.15-7.54,2.71-2.11-1.53-3.23-6.15-1.01-8.41,1.97-2.01,4.87-1.18,6.73.42,1.62,1.39,2.66,3.06,1.82,5.28ZM300.53,637.75c.58-1.43-.01-1.99-1.14-2.36l1.14,2.36Z" stroke="#000" stroke-miterlimit="10" stroke-width="5"/><path d="M307.29,294.77c.11.21.92.78,1.06.84.54.23-.97,3.17-5.86-5.12-1.4-2.38-3.02-4.79-3.42-7.4-.43-2.78.92-3.88,2.9-5.28,1.61-1.14,1.24-4.28.71-6.13-1.86-6.53-3.84-12.56-4.74-19.4,1.37,2.49,1.49,5.21,2.27,7.93l3.43,11.97c.49,1.7.98,5.03.04,6.35-2.77,2.58-2.15,4.95-.55,8.09l4.14,8.14Z" stroke="#000" stroke-miterlimit="10" stroke-width="5"/><path d="M215.38,572.29l1.95-.49c-.19-.3-.63-1.09-.96-1.07l-2.05.1c-.8.04-1.29-1.82-1-2.56.48-1.23,1.53-2.22,2.84-1.95,2.13.43,3.66,1.72,4.32,3.33s.31,4.47-1.54,5.29c-1.26.56-3.1-1.21-3.55-2.65Z" stroke="#000" stroke-miterlimit="10" stroke-width="5"/><path d="M179.52,542.35c-.54-.5.95-2.3,1.62-1.98.96.46,1.14,1.41.64,1.98s-1.52.69-2.26,0Z" stroke="#000" stroke-miterlimit="10" stroke-width="5"/><path d="M316.35,169.43c1.76-1.32.81-5.71-.94-7.55l.16-6.59c.05-1.99,1.08-4.83,2.53-5.92l3.48-2.61c1.46-1.09,4.81-1.25,6.58-.43,4.34,2,7.03,5.47,9.28,9.6,2.58,4.74,2.53,11.15-.79,15.61-2.64,3.54-7.14,4.38-11.3,4.36s-7.63-2.56-9-6.47Z" fill="#fff" stroke="#000" stroke-miterlimit="10" stroke-width="5"/><path d="M309.31,511.89l3.78,9.29c-.12,1.17-1.59,2.85-2.6,3.09-1.31.31-3.68.13-4.64-.92-5.68-6.2-7.96-14.13-7.31-22.43.26-3.29.37-6.11,2.12-9.23.91,1.46,1.38,2.92,2.06,4.6l3.54,8.7c-2.86,4.4.8,8.62,1.57,8.02l1.47-1.13Z" fill="#fff" stroke="#000" stroke-miterlimit="10" stroke-width="5"/><path d="M323.86,529.26l-6.23-13.1c-.22-4.59-2-8.67-5.26-11.86l-4.08-9.9-2.38-6c2.6.73,3.9,1.9,5.28,3.64,2.5,3.16,4.65,6.32,6.42,9.98,2.57,8.87,5.28,17.33,6.25,27.24Z" fill="#fff" stroke="#000" stroke-miterlimit="10" stroke-width="5"/><path d="M314.31,58.14l-2.98,5.79c-.59,1.15-2.35,2.52-3.66,3.42l.41-12.64c.03-.82-1.2-2.14-1.88-2.47l-17.73-8.91c6.24-2,12.16-.17,16.72,3.66.4,1.07,1.07,1.89,1.97,2.81,1.74,1.8,3.19,3.92,6.76,5.07l.39,3.28Z" fill="#fff" stroke="#000" stroke-miterlimit="10" stroke-width="5"/><path d="M313.74,488.53c-2.72-3-5.28-4.91-9.37-3.87l-4.02-10.08,1.29-3.12,5.68,3.84c1.11.75,3,1.78,3.41,3.18l3,10.05Z" fill="#fff" stroke="#000" stroke-miterlimit="10" stroke-width="5"/><polygon points="308.51 471.07 303.57 467.53 306.16 462.56 308.51 471.07" fill="#fff" stroke="#000" stroke-miterlimit="10" stroke-width="5"/><path d="M334.5,72.45l-4.25-5.13,1.01-.49,6.53,7.09c-1.52.23-2.41-.41-3.28-1.46Z" fill="#fff" stroke="#000" stroke-miterlimit="10" stroke-width="5"/><path d="M314.2,49.62c.27-.07-.85.23-1.21.33-.33.09-.63-.62-.96-1.5l2.17,1.17Z" fill="#fff" stroke="#000" stroke-miterlimit="10" stroke-width="5"/><path d="M290.72,704.29l-6.88,7.46c-1.6-2.32-.61-5.81,1.77-7.35,1.07-.7,3.36-.36,5.11-.11Z" fill="#fff" stroke="#000" stroke-miterlimit="10" stroke-width="5"/><path d="M255.64,675.64c-2.96-2.75-4.91-7.86-3.06-8.19,1.17-.21,3.25.91,4.23,1.64,1.65,1.22,2.11,1.83,1.91,3.88-.11,1.12-1.31,2.78-3.09,2.67Z" fill="#fff" stroke="#000" stroke-miterlimit="10" stroke-width="5"/><path d="M452.8,544.63c-.2,1.2-3.53,0-4.96-2.64-.87-1.61-.38-4.01.3-5.48,3.69.17,5.46,3.38,4.91,6.65l-.25,1.47Z" fill="#fff" stroke="#000" stroke-miterlimit="10" stroke-width="5"/><path d="M433.47,591.8c-2.17-2.43-3.19-5.25-1.55-7.96,2.78,1.72,2.98,5.15,1.55,7.96Z" fill="#fff" stroke="#000" stroke-miterlimit="10" stroke-width="5"/><path d="M189.13,612.49l-3.37-4.2c1.52-.45,2.65-.18,3.4.68s.88,2.03-.03,3.52Z" fill="#fff" stroke="#000" stroke-miterlimit="10" stroke-width="5"/><path d="M300.53,637.75l-1.14-2.36c1.13.37,1.71.93,1.14,2.36Z" fill="#fff" stroke="#000" stroke-miterlimit="10" stroke-width="5"/></svg>